<svg xmlns="http://www.w3.org/2000/svg" width="223" height="228" viewBox="0 0 223 228">
    <g fill="none" fill-rule="evenodd">
        <path fill="#E5FCFC" d="M163.002 122.095c.11-5.823 9.352-7.276 17.951-7.078 6.664.153 20.047 1.926 20.047 7.606 0 4.153-1.094 5.96-5.78 6.934-2.812.584-24.076 3.314-29.295-.73-1.803-1.399-2.983-3.53-2.923-6.732M112.417 135l80.242 2c16.587.25 19.736 3.892 19.619 10.195-.19 10.274-16.695 9.684-16.061 9.722-.074.001-.14.012-.21.014-7.673.16-9.185 2.091-9.185 5.222 0 3.273 1.633 5.237 10.243 5.237 1.313 0 2.445-.05 3.452-.14.057.006.36.011 1.151.01.33.01.702.02 1.057.025.506.008 1.003.008 1.461.002 15.922.353 18.883 3.977 18.813 10.185-.064 5.56-2.589 9.528-14.57 9.528H104l8.417-52z"/>
        <path fill="#E1F4F4" d="M200 165.024c.085-.009.172-.015.257-.024.05.004.094.009.147.01a64.03 64.03 0 0 0-.404.014"/>
        <path fill="#E5FCFC" d="M73.998 68.095c-.11-5.823-9.352-7.275-17.951-7.078C49.383 61.17 36 62.944 36 68.623c0 4.154 1.094 5.96 5.78 6.934 2.812.584 24.076 3.314 29.295-.73 1.803-1.399 2.983-3.529 2.923-6.732M110.583 82l-80.242 2c-16.587.248-19.736 3.891-19.619 10.195.19 10.275 16.695 9.685 16.061 9.721.073.003.14.013.21.015 7.673.16 9.185 2.09 9.185 5.221 0 3.274-1.633 5.238-10.243 5.237a39.02 39.02 0 0 1-3.452-.138c-.057.005-.36.011-1.151.008a49.534 49.534 0 0 1-2.518.028C2.892 114.64-.07 118.265 0 124.473.065 130.033 2.59 134 14.571 134H119l-8.417-52z"/>
        <path fill="#E1F4F4" d="M21.404 113.024c-.085-.009-.173-.015-.258-.024-.05.002-.094.009-.146.01.148.003.281.01.404.014"/>
        <path fill="#E7EFF5" d="M53 223c0 2.762 25.966 5 58 5 32.032 0 58-2.238 58-5 0-2.76-25.968-5-58-5-32.034 0-58 2.24-58 5"/>
        <path fill="#6AE0F3" d="M163.516 202H59.484C53.718 202 49 197.31 49 191.58V48.41C49 46.527 50.537 45 52.432 45h118.136c1.895 0 3.432 1.527 3.432 3.411V191.58c0 5.731-4.718 10.421-10.484 10.421"/>
        <path fill="#00ABE3" fill-opacity=".3" d="M155.675 61.083c-.54.026-.965.433-1.061.964a4.003 4.003 0 0 1-7.784.378c-.148-.519-.61-.882-1.149-.856l-5.991.29c-.539.027-.963.433-1.06.965a4 4 0 1 1-7.783.378c-.15-.52-.61-.883-1.15-.856l-5.99.29c-.54.026-.964.434-1.062.964a4 4 0 0 1-7.783.378c-.148-.519-.61-.882-1.148-.856l-5.993.29c-.538.028-.962.434-1.06.965a4 4 0 0 1-7.783.378c-.149-.52-.61-.882-1.15-.856l-5.99.29c-.54.028-.964.434-1.06.964a4.002 4.002 0 0 1-7.784.378c-.148-.519-.61-.882-1.149-.856l-5.991.29c-.54.028-.963.435-1.061.965a4 4 0 0 1-7.782.378c-.15-.519-.61-.882-1.15-.856l-1.68.082c-.626.03-1.11.563-1.08 1.19L68.45 178.74a7.632 7.632 0 0 0 7.993 7.25l80.297-3.902a7.629 7.629 0 0 0 7.252-7.99l-5.447-112.02a1.135 1.135 0 0 0-1.19-1.078l-1.68.082z"/>
        <path fill="#FFF" d="M152.674 58.083c-.54.026-.964.433-1.061.964a4 4 0 0 1-7.784.378c-.147-.519-.609-.882-1.148-.856l-5.991.29c-.54.028-.963.433-1.061.965a4.003 4.003 0 0 1-7.783.378c-.148-.52-.61-.883-1.149-.856l-5.99.29c-.54.027-.965.434-1.062.964a4.002 4.002 0 0 1-7.784.378c-.147-.519-.61-.882-1.147-.856l-5.993.29c-.538.028-.963.434-1.06.965a4.002 4.002 0 0 1-7.784.378c-.148-.52-.609-.882-1.148-.856l-5.991.29c-.54.028-.965.434-1.061.964a4.001 4.001 0 0 1-7.784.378c-.147-.519-.608-.882-1.148-.856l-5.991.292c-.54.026-.964.433-1.061.963a4.002 4.002 0 0 1-7.783.378c-.148-.518-.61-.882-1.149-.856l-1.68.082c-.626.03-1.11.563-1.08 1.19L65.45 175.74a7.631 7.631 0 0 0 7.993 7.25l80.296-3.902a7.629 7.629 0 0 0 7.253-7.99l-5.447-112.02a1.136 1.136 0 0 0-1.19-1.078l-1.68.082z"/>
        <path fill="#3AD5F1" d="M163.516 201.905H59.484C53.718 201.905 49 196.997 49 191v6.095C49 203.093 53.718 208 59.484 208h104.032c5.766 0 10.484-4.907 10.484-10.905v-6.094c0 5.996-4.718 10.904-10.484 10.904"/>
        <path fill="#00ABE3" fill-opacity=".6" d="M86.341 76c-.268 0-.54-.016-.81-.048-1.946-.231-3.692-1.27-4.917-2.927-1.225-1.656-1.783-3.732-1.57-5.845L81.26 45l2.139.005L81.14 67.43c-.15 1.504.246 2.982 1.119 4.162.872 1.18 2.116 1.92 3.5 2.084 1.389.164 2.747-.266 3.835-1.213 1.086-.948 1.768-2.299 1.919-3.801L93.908 45H96l-2.39 23.91c-.213 2.112-1.17 4.007-2.696 5.338C89.6 75.392 88.001 76 86.341 76" style="mix-blend-mode:multiply"/>
        <path fill="#4E525A" d="M86.974 44.997L83.74 45l.4-2.659c.074-.5-.096-.985-.478-1.364-.355-.35-.85-.566-1.397-.61-1.183-.093-2.268.639-2.417 1.632l-.224 1.485-3.224-.257.224-1.485c.344-2.287 3.033-3.957 5.993-3.72 1.46.117 2.758.669 3.656 1.557.866.856 1.254 1.928 1.09 3.018l-.39 2.4z"/>
        <path fill="#B7B9B9" fill-opacity=".1" d="M59.498 202C53.724 202 49 197.31 49 191.58V48.41C49 46.527 50.538 45 52.437 45h118.286c1.431 0 2.658.869 3.175 2.103.286.684-.053 1.472-.706 1.83-9.79 5.36-90.516 51.698-90.516 122.019 0 19.265 13.703 26.129 23.497 29.357 1.737.572 1.108 1.691 1.108 1.691H59.498z" style="mix-blend-mode:multiply"/>
        <path fill="#4E525A" d="M81.718 76c-.28 0-.559-.016-.843-.048-2.049-.235-3.886-1.29-5.176-2.971s-1.877-3.788-1.652-5.932l2.465-23.6c.094-.892.863-1.535 1.713-1.44.852.099 1.468.901 1.375 1.794l-2.465 23.6a4.947 4.947 0 0 0 .986 3.542c.77 1.005 1.868 1.635 3.092 1.774 2.529.295 4.802-1.626 5.079-4.268l2.61-25c.093-.892.866-1.537 1.714-1.438.852.097 1.468.9 1.375 1.792l-2.612 24.999C88.948 72.932 85.598 76 81.72 76"/>
        <path fill="#FFDD67" d="M143.38 130.6c0 18.006-14.592 32.599-32.598 32.599s-32.6-14.593-32.6-32.599c0-18.007 14.594-32.6 32.6-32.6s32.598 14.593 32.598 32.6"/>
        <path fill="#664E27" d="M129.255 137.173c0-.873-.516-1.964-1.98-2.245-3.764-.72-9.326-1.459-16.494-1.459h-.001c-7.167 0-12.73.74-16.492 1.46-1.467.28-1.98 1.371-1.98 2.244 0 7.901 6.097 15.856 18.472 15.856 12.377 0 18.475-7.955 18.475-15.856M107.006 125.008c-2.02-5.554-5.063-8.333-8.107-8.333-3.044 0-6.088 2.78-8.107 8.333-.2.561.84 1.568 1.363 1.02 1.958-2.066 4.3-2.889 6.744-2.889 2.445 0 4.786.823 6.745 2.89.519.547 1.56-.46 1.362-1.02M130.77 125.008c-2.02-5.554-5.062-8.333-8.107-8.333-3.043 0-6.087 2.78-8.107 8.333-.201.561.84 1.568 1.362 1.02 1.959-2.066 4.3-2.889 6.745-2.889 2.446 0 4.787.823 6.746 2.89.519.547 1.56-.46 1.362-1.02"/>
        <path fill="#FFF" d="M124.571 137.427c-2.385-.4-7.429-1.1-13.79-1.1-6.36 0-11.406.7-13.79 1.101-1.407.236-1.493.807-1.395 1.615.058.48.15 1.06.288 1.686.154.696.285 1.018 1.375.887 2.087-.249 24.958-.249 27.044 0 1.092.13 1.221-.192 1.376-.887.14-.627.23-1.206.288-1.686.095-.809.01-1.38-1.396-1.616"/>
        <path fill="#FFDD67" d="M143.38 130.6c0 18.006-14.592 32.599-32.598 32.599s-32.6-14.593-32.6-32.599c0-18.007 14.594-32.6 32.6-32.6s32.598 14.593 32.598 32.6"/>
        <path fill="#664E27" d="M129.255 137.173c0-.873-.516-1.964-1.98-2.245-3.764-.72-9.326-1.459-16.494-1.459h-.001c-7.167 0-12.73.74-16.492 1.46-1.467.28-1.98 1.371-1.98 2.244 0 7.901 6.097 15.856 18.472 15.856 12.377 0 18.475-7.955 18.475-15.856M107.006 125.008c-2.02-5.554-5.063-8.333-8.107-8.333-3.044 0-6.088 2.78-8.107 8.333-.2.561.84 1.568 1.363 1.02 1.958-2.066 4.3-2.889 6.744-2.889 2.445 0 4.786.823 6.745 2.89.519.547 1.56-.46 1.362-1.02M130.77 125.008c-2.02-5.554-5.062-8.333-8.107-8.333-3.043 0-6.087 2.78-8.107 8.333-.201.561.84 1.568 1.362 1.02 1.959-2.066 4.3-2.889 6.745-2.889 2.446 0 4.787.823 6.746 2.89.519.547 1.56-.46 1.362-1.02"/>
        <path fill="#FFF" d="M124.571 137.427c-2.385-.4-7.429-1.1-13.79-1.1-6.36 0-11.406.7-13.79 1.101-1.407.236-1.493.807-1.395 1.615.058.48.15 1.06.288 1.686.154.696.277.887 1.375.887h27.044c1.1 0 1.221-.192 1.376-.887.14-.627.23-1.206.288-1.686.095-.809.01-1.38-1.396-1.616"/>
        <g>
            <path fill="#FF7C9A" d="M155.278 32.533c-1.82 3.925-1.877 6.113 1.014 7.448 2.892 1.335 4.528-.126 6.35-4.05 1.82-3.925 1.876-6.114-1.014-7.448-2.892-1.335-4.528.124-6.35 4.05"/>
            <path fill="#5AD73C" d="M65.027 25.013c-3.442-6.175-5.324-6.664-7.373-5.528-2.051 1.137-2.628 2.99.814 9.165 3.442 6.175 5.322 6.664 7.373 5.527 2.05-1.136 2.628-2.988-.814-9.164"/>
            <path fill="#EDF2F6" d="M186.64 76.411a2.733 2.733 0 0 0 1.845.906 2.758 2.758 0 0 0 1.958-.642 2.707 2.707 0 0 0 .928-1.841 2.719 2.719 0 0 0-.652-1.94c-.926-1.076-2.728-1.2-3.795-.266a2.717 2.717 0 0 0-.918 1.83c-.049.706.194 1.42.652 1.955l-.019-.002z"/>
            <path fill="#E7EFF5" d="M31.189 44.375l-2.492-1.608c-1.294-.997-1.886-2.399-1.324-3.13.562-.732 1.485-1.414 2.777-.416l2.87 2.663c1.294.997 1.887 2.399 1.324 3.13-.562.732-1.863.358-3.155-.64"/>
            <path fill="#00C4EB" d="M105.224 14.896L105 11.939c.015-1.632.775-2.947 1.696-2.939.924.008 2.026.334 2.011 1.965l-.39 3.894c-.014 1.632-.772 2.948-1.695 2.94-.924-.008-1.413-1.273-1.398-2.903"/>
            <path fill="#FFC55F" d="M145.913 3.608l-1.083 2.644c-.114.279-.099.594.044.86l1.347 2.52a1.011 1.011 0 0 1-.968 1.486l-2.85-.213c-.3-.021-.595.091-.805.31l-1.98 2.058a1.012 1.012 0 0 1-1.713-.461l-.677-2.776a1.013 1.013 0 0 0-.542-.67l-2.571-1.248a1.012 1.012 0 0 1-.09-1.77l2.429-1.504c.258-.158.429-.423.471-.722l.392-2.83a1.012 1.012 0 0 1 1.657-.634l2.18 1.847c.23.196.535.277.832.225l2.813-.502a1.012 1.012 0 0 1 1.114 1.38M35.778 62.823l.87 2.722c.092.287.306.52.587.631l2.651 1.065c.74.297.862 1.295.213 1.76l-2.32 1.67a1.014 1.014 0 0 0-.417.753l-.194 2.85a1.012 1.012 0 0 1-1.609.747l-2.303-1.69a1.013 1.013 0 0 0-.846-.166l-2.771.698a1.012 1.012 0 0 1-1.208-1.299l.895-2.713c.096-.287.057-.6-.103-.856l-1.52-2.42a1.012 1.012 0 0 1 .863-1.55l2.858.013c.301.002.587-.131.78-.363l1.833-2.192a1.012 1.012 0 0 1 1.74.34M174.114 96.861l-.226 5.692c-.024.6.22 1.18.669 1.581l4.24 3.802c1.183 1.061.73 3.012-.802 3.442l-5.483 1.547a2.021 2.021 0 0 0-1.297 1.126l-2.307 5.208c-.645 1.455-2.641 1.626-3.522.304l-3.161-4.738a2.019 2.019 0 0 0-1.471-.885l-5.666-.583c-1.582-.164-2.362-2.007-1.377-3.255l3.527-4.473a2.019 2.019 0 0 0 .392-1.673l-1.195-5.57c-.334-1.553 1.179-2.866 2.671-2.316l5.344 1.972c.563.21 1.189.155 1.71-.147l4.927-2.858c1.377-.797 3.091.235 3.027 1.824"/>
        </g>
    </g>
</svg>
