<svg xmlns="http://www.w3.org/2000/svg" width="144" height="48" viewBox="0 0 144 48">
    <g fill="none" fill-rule="evenodd">
        <path fill="#A6A6A6" d="M132.162 0H11.442c-.44 0-.875 0-1.314.002-.367.003-.732.01-1.103.016-.806.01-1.61.08-2.404.212a7.998 7.998 0 0 0-2.282.752 7.725 7.725 0 0 0-3.356 3.36 7.921 7.921 0 0 0-.75 2.284 15.592 15.592 0 0 0-.215 2.402c-.011.368-.012.737-.018 1.105V37.87c.006.373.007.734.018 1.107.01.805.082 1.608.215 2.402.132.795.385 1.566.75 2.285a7.45 7.45 0 0 0 1.414 1.937 7.53 7.53 0 0 0 1.942 1.415c.719.365 1.488.62 2.282.757.795.13 1.598.201 2.404.212.371.008.736.013 1.103.013.439.002.874.002 1.314.002h120.72c.431 0 .87 0 1.3-.002.366 0 .741-.005 1.107-.013.804-.01 1.606-.081 2.4-.212a8.165 8.165 0 0 0 2.29-.757 7.533 7.533 0 0 0 1.94-1.415 7.674 7.674 0 0 0 1.418-1.937c.363-.72.613-1.49.743-2.285.134-.794.208-1.597.223-2.402.005-.373.005-.734.005-1.107.009-.436.009-.87.009-1.312V11.443c0-.44 0-.875-.01-1.31 0-.368 0-.737-.004-1.105a16.208 16.208 0 0 0-.223-2.402 7.941 7.941 0 0 0-.743-2.284 7.76 7.76 0 0 0-3.358-3.36 8.121 8.121 0 0 0-2.29-.752 15.653 15.653 0 0 0-2.4-.213c-.366-.005-.74-.012-1.106-.015C133.03 0 132.593 0 132.162 0z"/>
        <path fill="#000" d="M10.134 46.95c-.366 0-.723-.005-1.085-.013a15.225 15.225 0 0 1-2.243-.196 7.06 7.06 0 0 1-1.988-.657 6.487 6.487 0 0 1-1.677-1.22 6.385 6.385 0 0 1-1.224-1.676 6.866 6.866 0 0 1-.652-1.988 14.896 14.896 0 0 1-.2-2.25c-.007-.253-.017-1.096-.017-1.096v-27.72s.01-.83.017-1.074c.01-.753.076-1.504.199-2.247a6.907 6.907 0 0 1 .652-1.994A6.448 6.448 0 0 1 3.134 3.14a6.679 6.679 0 0 1 1.683-1.227 6.988 6.988 0 0 1 1.984-.652 15.103 15.103 0 0 1 2.25-.197l1.083-.015h123.323l1.095.015c.748.01 1.493.074 2.23.195.698.119 1.373.34 2.006.658a6.712 6.712 0 0 1 2.898 2.904c.312.623.529 1.29.642 1.978.124.75.194 1.506.208 2.265.004.34.004.705.004 1.068.01.45.01.879.01 1.31v25.115c0 .436 0 .861-.01 1.29 0 .39 0 .748-.005 1.116a15.277 15.277 0 0 1-.205 2.224 6.887 6.887 0 0 1-.648 2.004 6.576 6.576 0 0 1-1.219 1.663c-.49.496-1.057.91-1.679 1.227-.63.319-1.305.541-2.002.66a15.05 15.05 0 0 1-2.243.195c-.351.008-.72.013-1.076.013l-1.301.002-122.028-.002z"/>
        <g fill="#FFF">
            <path d="M29.723 24.36a5.939 5.939 0 0 1 2.828-4.982 6.079 6.079 0 0 0-4.79-2.589c-2.015-.211-3.968 1.206-4.995 1.206-1.047 0-2.628-1.185-4.33-1.15a6.378 6.378 0 0 0-5.368 3.274c-2.32 4.018-.59 9.923 1.633 13.17 1.113 1.591 2.413 3.368 4.114 3.305 1.664-.07 2.286-1.062 4.295-1.062 1.99 0 2.574 1.062 4.309 1.022 1.786-.03 2.911-1.598 3.985-3.203a13.154 13.154 0 0 0 1.822-3.711 5.738 5.738 0 0 1-3.503-5.28zM26.445 14.653a5.847 5.847 0 0 0 1.337-4.189 5.949 5.949 0 0 0-3.849 1.992 5.564 5.564 0 0 0-1.372 4.034 4.919 4.919 0 0 0 3.884-1.837z"/>
            <g>
                <path fill-rule="nonzero" d="M50.763 32.568h-5.68l-1.364 4.027h-2.406l5.38-14.901h2.5l5.38 14.901h-2.447l-1.363-4.027zm-5.092-1.859h4.502l-2.22-6.537h-.061L45.67 30.71zM66.192 31.164c0 3.376-1.807 5.545-4.534 5.545a3.683 3.683 0 0 1-3.419-1.9h-.051v5.38h-2.23V25.731h2.158v1.807h.041a3.854 3.854 0 0 1 3.46-1.92c2.757 0 4.575 2.179 4.575 5.546zm-2.293 0c0-2.2-1.136-3.646-2.87-3.646-1.705 0-2.85 1.477-2.85 3.646 0 2.189 1.145 3.655 2.85 3.655 1.734 0 2.87-1.436 2.87-3.655zM78.15 31.164c0 3.376-1.808 5.545-4.535 5.545a3.683 3.683 0 0 1-3.418-1.9h-.052v5.38h-2.23V25.731h2.159v1.807h.041a3.854 3.854 0 0 1 3.46-1.92c2.757 0 4.574 2.179 4.574 5.546zm-2.293 0c0-2.2-1.136-3.646-2.87-3.646-1.705 0-2.85 1.477-2.85 3.646 0 2.189 1.145 3.655 2.85 3.655 1.734 0 2.87-1.436 2.87-3.655z"/>
                <path d="M86.053 32.443c.165 1.478 1.6 2.448 3.562 2.448 1.88 0 3.232-.97 3.232-2.302 0-1.157-.816-1.85-2.747-2.324L88.17 29.8c-2.736-.661-4.007-1.941-4.007-4.018 0-2.57 2.241-4.337 5.423-4.337 3.148 0 5.307 1.766 5.38 4.337h-2.252c-.134-1.487-1.364-2.384-3.16-2.384-1.797 0-3.026.908-3.026 2.23 0 1.053.785 1.673 2.706 2.148l1.642.403c3.057.723 4.328 1.951 4.328 4.13 0 2.789-2.221 4.535-5.753 4.535-3.305 0-5.536-1.705-5.68-4.4h2.283zM100.015 23.16v2.57h2.066v1.767h-2.066v5.99c0 .93.414 1.363 1.322 1.363.246-.004.49-.021.734-.051v1.755c-.408.077-.823.111-1.239.103-2.2 0-3.057-.826-3.057-2.933v-6.227h-1.58V25.73h1.58V23.16h2.24z"/>
                <path fill-rule="nonzero" d="M103.278 31.164c0-3.419 2.013-5.567 5.153-5.567 3.15 0 5.154 2.148 5.154 5.567 0 3.427-1.994 5.566-5.154 5.566s-5.153-2.139-5.153-5.566zm8.034 0c0-2.345-1.074-3.73-2.881-3.73-1.807 0-2.88 1.395-2.88 3.73 0 2.354 1.073 3.727 2.88 3.727s2.881-1.373 2.881-3.727z"/>
                <path d="M115.423 25.73h2.127v1.85h.052a2.591 2.591 0 0 1 2.613-1.963c.257 0 .513.027.764.083v2.086a3.118 3.118 0 0 0-1.002-.134 2.247 2.247 0 0 0-2.324 2.5v6.443h-2.23V25.731z"/>
                <path fill-rule="nonzero" d="M131.261 33.404c-.3 1.973-2.22 3.326-4.678 3.326-3.16 0-5.122-2.118-5.122-5.515 0-3.408 1.972-5.618 5.028-5.618 3.006 0 4.896 2.065 4.896 5.36v.763h-7.673v.135a2.83 2.83 0 0 0 2.923 3.077 2.458 2.458 0 0 0 2.509-1.528h2.117zm-7.539-3.242h5.432a2.613 2.613 0 0 0-2.665-2.758 2.75 2.75 0 0 0-2.767 2.758z"/>
            </g>
        </g>
        <g fill="#FFF">
            <path d="M42.513 14.06c0-2.323 1.235-3.757 3.225-3.757a2.861 2.861 0 0 1 2.978 2.482h-1.107a1.842 1.842 0 0 0-1.87-1.445c-1.286 0-2.09 1.047-2.09 2.72 0 1.667.804 2.714 2.094 2.714.858.064 1.64-.49 1.866-1.32h1.107a2.794 2.794 0 0 1-2.973 2.357c-1.99 0-3.23-1.434-3.23-3.751z"/>
            <path fill-rule="nonzero" d="M49.932 14.933a2.56 2.56 0 1 1 5.097 0 2.56 2.56 0 1 1-5.097 0zm4 0c0-1.171-.526-1.856-1.45-1.856-.927 0-1.448.685-1.448 1.856 0 1.18.522 1.86 1.448 1.86.924 0 1.45-.684 1.45-1.86z"/>
            <path d="M56.46 12.234h1.026v.858h.08a1.618 1.618 0 0 1 1.613-.963 1.757 1.757 0 0 1 1.87 2.01v3.498h-1.067v-3.23c0-.868-.377-1.3-1.166-1.3a1.24 1.24 0 0 0-1.29 1.37v3.16H56.46v-5.403zM64.673 12.13c1.216 0 2.01.565 2.115 1.518h-1.024c-.098-.397-.486-.65-1.09-.65-.596 0-1.048.282-1.048.704 0 .323.273.526.859.66l.897.209c1.028.238 1.51.68 1.51 1.474 0 1.017-.948 1.697-2.238 1.697-1.286 0-2.124-.581-2.219-1.538h1.068c.19.469.675.747 1.175.674.665 0 1.137-.298 1.137-.73 0-.322-.253-.53-.795-.66l-.942-.218c-1.028-.243-1.503-.704-1.503-1.508 0-.958.877-1.633 2.098-1.633z"/>
            <path fill-rule="nonzero" d="M68.238 11.33l1.246-1.707h1.25L69.34 11.33h-1.102zm.11.904h1.062v5.403h-1.062v-5.403zM71.07 18.178h1.092c.09.392.541.645 1.26.645.889 0 1.415-.422 1.415-1.136V16.65h-.08a1.817 1.817 0 0 1-1.667.908c-1.38 0-2.233-1.067-2.233-2.685 0-1.647.863-2.729 2.243-2.729.7-.024 1.354.343 1.697.953h.085v-.863h1.022v5.448c0 1.236-.968 2.02-2.497 2.02-1.35 0-2.223-.606-2.336-1.524zm3.787-3.31c0-1.076-.557-1.766-1.465-1.766-.917 0-1.433.69-1.433 1.766 0 1.077.516 1.767 1.433 1.767.914 0 1.465-.685 1.465-1.767z"/>
            <path d="M82.158 17.637h-1.027v-.858h-.085a1.62 1.62 0 0 1-1.632.963 1.755 1.755 0 0 1-1.862-2v-3.508h1.069v3.23c0 .873.351 1.29 1.135 1.29a1.227 1.227 0 0 0 1.335-1.36v-3.16h1.067v5.403z"/>
            <path fill-rule="nonzero" d="M88.427 16.178a2.194 2.194 0 0 1-2.342 1.564 2.454 2.454 0 0 1-2.496-2.79 2.492 2.492 0 0 1 2.492-2.823c1.503 0 2.41 1.028 2.41 2.724v.373h-3.815v.06a1.428 1.428 0 0 0 1.439 1.547 1.295 1.295 0 0 0 1.285-.655h1.027zm-3.751-1.741h2.729a1.304 1.304 0 0 0-1.33-1.4 1.382 1.382 0 0 0-1.4 1.4z"/>
            <path d="M89.972 10.124h1.067v7.513h-1.067z"/>
            <path fill-rule="nonzero" d="M92.521 14.933a2.56 2.56 0 1 1 5.097 0 2.56 2.56 0 1 1-5.097 0zm4 0c0-1.171-.526-1.856-1.45-1.856-.927 0-1.448.685-1.448 1.856 0 1.18.521 1.86 1.448 1.86.924 0 1.45-.684 1.45-1.86zM106.55 16.178a2.194 2.194 0 0 1-2.342 1.564 2.454 2.454 0 0 1-2.496-2.79 2.492 2.492 0 0 1 2.492-2.823c1.503 0 2.41 1.028 2.41 2.724v.373H102.8v.06a1.428 1.428 0 0 0 1.439 1.547 1.295 1.295 0 0 0 1.285-.655h1.027zm-3.751-1.741h2.729a1.304 1.304 0 0 0-1.33-1.4 1.382 1.382 0 0 0-1.4 1.4z"/>
            <path d="M108.046 12.234h1.027v.858h.08a1.618 1.618 0 0 1 1.612-.963 1.757 1.757 0 0 1 1.87 2.01v3.498h-1.066v-3.23c0-.868-.377-1.3-1.166-1.3a1.24 1.24 0 0 0-1.29 1.37v3.16h-1.067v-5.403z"/>
            <path fill-rule="nonzero" d="M121.785 16.178a2.194 2.194 0 0 1-2.341 1.564 2.454 2.454 0 0 1-2.496-2.79 2.492 2.492 0 0 1 2.491-2.823c1.504 0 2.41 1.028 2.41 2.724v.373h-3.815v.06a1.428 1.428 0 0 0 1.44 1.547 1.295 1.295 0 0 0 1.285-.655h1.026zm-3.75-1.741h2.728a1.304 1.304 0 0 0-1.33-1.4 1.382 1.382 0 0 0-1.399 1.4z"/>
            <path d="M123.331 10.124h1.066v7.513h-1.066z"/>
        </g>
    </g>
</svg>
