<svg xmlns="http://www.w3.org/2000/svg" width="35" height="50" viewBox="0 0 35 50">
    <g fill="none" fill-rule="evenodd">
        <path fill="#FFF" d="M2.68 41.478S.664 38.65.753 37.992c.089-.658.444-21.387.444-21.387l2.574-2.708 13.313-.418 3.179 1.975 1.081 15.71s-1.686 9.852-2.396 10.314c-.71.463-16.268 0-16.268 0"/>
        <path fill="#D8ECED" d="M17.063 35.687H5.117c-.587 0-1.063-1.733-1.063-3.872v-4.668c0-2.138.476-3.872 1.063-3.872h11.946c.588 0 1.064 1.734 1.064 3.872v4.668c0 2.139-.476 3.872-1.064 3.872"/>
        <path fill="#00B3E5" d="M1.197 16.58s-.007.311-.02 1.128h19.042v-2.255l-3.157-1.974-13.302.406-2.563 2.695z"/>
        <path fill="#496D73" d="M18.716 40.977H3.36c-.836 0-1.528-.545-1.566-1.38-.105-2.33-.106-5.253-.106-8.987 0-8.328 0-12.888 1.155-14.9 1.038-1.807 3.261-1.793 8.133-1.793 4.872 0 7.095.007 8.133 1.814 1.155 2.011 1.155 6.602 1.155 14.93 0 3.803-.001 6.712-.112 9.06-.036.766-.669 1.256-1.435 1.256M.176 30.665c0 17.511 0 18.195 10.799 18.195 10.798 0 10.798-.684 10.798-18.195 0-17.56 0-18.246-10.798-18.246S.177 13.105.177 30.665z"/>
        <path fill="#3E6063" d="M3.359 40.977c-.836 0-1.528-.545-1.566-1.38-.105-2.33-.106-5.253-.106-8.987 0-8.328 0-12.888 1.155-14.9 1.038-1.807 3.261-1.793 8.133-1.793 4.463 0 6.7.01 7.842 1.4l.723-1.448c-1.543-1.334-4.152-1.45-8.565-1.45C.177 12.42.177 13.105.177 30.665c0 10.775.001 15.178 2.517 16.972l3.322-6.66H3.359z"/>
        <path fill="#FFF" d="M8.844 45.094c0-1.512.808-2.215 2.203-2.215 1.395 0 2.203.703 2.203 2.215s-.808 2.215-2.203 2.215c-1.395 0-2.203-.703-2.203-2.215"/>
        <path fill="#6A999D" d="M9.85 45.094c0-.822.439-1.204 1.197-1.204.759 0 1.198.382 1.198 1.204s-.44 1.204-1.198 1.204-1.197-.382-1.197-1.204"/>
        <g transform="translate(13 27.062)">
            <ellipse cx="11.277" cy="11.393" fill="#5BC500" rx="10.5" ry="11"/>
            <path fill="#FFF" fill-rule="nonzero" d="M9.17 14.152a.785.785 0 0 0 1.129.004l5.29-5.594a.672.672 0 0 0-.065-.992.787.787 0 0 0-1.06.06l-4.712 5.006-1.657-1.784a.787.787 0 0 0-1.06-.068.672.672 0 0 0-.073.991l2.208 2.377z"/>
        </g>
        <g>
            <path fill="#FF7C9A" d="M16.791 7.778c-.547 1.188-.564 1.85.305 2.253.87.404 1.362-.038 1.91-1.225.547-1.187.564-1.849-.305-2.252-.87-.404-1.362.037-1.91 1.224"/>
            <path fill="#5AD73C" d="M11.35 3.393c-1.4.015-2.042.783-2.028 2.096.015 1.313.674 2.065 2.074 2.05 1.4-.017 2.042-.784 2.027-2.097-.014-1.313-.673-2.065-2.073-2.05"/>
            <path fill="#94E37A" d="M14.157 0c-.764.009-1.114.427-1.106 1.144.008.715.368 1.126 1.131 1.117.764-.009 1.114-.427 1.106-1.143C15.28.402 14.92-.008 14.157 0"/>
            <path fill="#00C4EB" d="M5.682 7.944c-1.27-1.696-1.824-1.746-2.346-1.293-.521.453-.593 1.046.677 2.743 1.27 1.697 1.824 1.747 2.345 1.294.522-.453.594-1.047-.676-2.744"/>
        </g>
    </g>
</svg>
