<svg xmlns="http://www.w3.org/2000/svg" width="105" height="67" viewBox="0 0 105 67">
    <g fill="none" fill-rule="evenodd">
        <path fill="#E5FCFC" d="M84.954 47.206a40.362 40.362 0 0 1 1.525-.017c9.634-.2 11.423-2.207 11.375-5.478-.046-3.186-.198-6.214-.22-7.791-.022-1.481 3.582-15.819-15.894-15.636L65.227 20.63a4.674 4.674 0 0 1-4.619-3.815 4.674 4.674 0 0 0-4.693-3.814l-26.388.733c-6.055.09-8.711 4.54-8.636 7.862.123 5.416-.067 3.783-.045 5.368.023 1.579-.799 2.581-4.98 2.789.257.005.483.016-.48.015-.2.007-.425.011-.638.014-.307.005 1.765-.03 1.487-.034-9.635.201-11.423 2.208-11.377 5.48.048 3.185 1.846 5.12 10.838 5.146.128-.003.255-.006.389-.007.334-.006.65-.006.95-.002.199-.003.398-.007.589-.012-.128.005-.252.01-.373.017 4.162.09 5.01 1.072 5.033 2.649.021 1.48-1.307 2.267-2.77 2.7a4.402 4.402 0 0 1-.582.122c-5.073.769-6.173 2.591-6.135 5.201.05 3.393 2.7 9.471 12.738 9.378 8.062-.076 14.626-1.832 21.818-1.899 7.193-.067 12.084.026 12.084.026 2.259-.011 4.203-.597 4.618 1.624a4.674 4.674 0 0 0 4.693 3.814l9.521-.53c10.037-.146 14.844-2.69 14.768-6.013-.122-5.416-5.403-4.766-7.85-4.792-4.216-.08-5.67-1.056-5.692-2.64-.023-1.58.799-2.581 4.98-2.79-.258-.005-.484-.015.48-.014"/>
        <path fill="#6AE0F3" d="M13.475 21.592c.394-.356.386-.732.058-1.095-.329-.364-.702-.409-1.096-.053-.394.356-.386.732-.058 1.095.33.363.703.41 1.096.053M14.973 25.725c.513.569 1.097.64 1.711.083.616-.556.604-1.142.09-1.71-.513-.569-1.096-.638-1.71-.083-.616.556-.605 1.143-.091 1.71"/>
        <path fill="#3AD5F1" d="M96.15 52.68c-2.201-1.221-2.376-1.89-1.972-2.619.404-.729 1.064-.934 3.266.286s2.377 1.888 1.973 2.617c-.404.73-1.064.936-3.266-.285"/>
        <path fill="#FF7C9A" d="M39.164 47.2c1.153-1.28 1.947-1.643 2.887-.796.94.848.66 1.674-.493 2.954-1.154 1.28-1.947 1.642-2.887.794-.94-.847-.661-1.673.493-2.953"/>
        <path fill="#5AD73C" d="M5.402 46.15c-.013-1.465.764-2.154 2.118-2.166 1.354-.013 2.145.66 2.16 2.127.013 1.466-.765 2.154-2.12 2.167-1.354.013-2.145-.66-2.158-2.127"/>
        <path fill="#FFCE7C" d="M26.134 57.16c-6.18 0-7.909-5.594-9.299-10.093-1.567-5.074-2.757-8.172-6.82-7.932l-.087.002H1.483a1.483 1.483 0 1 1 0-2.965h8.403c6.557-.362 8.354 5.394 9.784 10.02 1.53 4.955 2.666 8.002 6.465 8.002h.081a1.483 1.483 0 0 1 .014 2.965h-.096"/>
        <path fill="#FF9E00" d="M26.23 57.159l-.028-2.966c4.917-.046 5.502-6.238 5.831-15.678.293-8.392.626-17.903 8.314-17.976l.028 2.966c-4.513.042-5.06 6.012-5.377 15.113-.302 8.655-.646 18.464-8.768 18.54"/>
        <path fill="#94E37A" d="M78.27 37.538a1.483 1.483 0 0 1-.014-2.965c1.787-.016 2.776-1.75 4.194-4.604 1.448-2.913 3.089-6.215 6.825-6.25h13.714a1.483 1.483 0 1 1 0 2.965h-13.7c-1.774.017-2.765 1.75-4.182 4.605-1.448 2.912-3.088 6.214-6.824 6.25h-.014z"/>
        <path fill="#2CD307" d="M78.241 37.538c-3.892 0-5.508-5.089-7.219-10.477-1.127-3.55-2.67-8.41-4.398-8.41h-.009c-1.85.018-3.062 2.906-4.236 5.7-1.473 3.506-3.142 7.48-6.943 7.516h-.07c-3.091 0-4.713-1.96-6.28-3.856-1.853-2.238-3.777-4.533-8.711-4.506l-.028-2.966c6.342-.072 9.054 3.202 11.024 5.583 1.508 1.822 2.376 2.78 3.998 2.78h.039c1.85-.018 3.063-2.906 4.237-5.7 1.472-3.506 3.141-7.48 6.943-7.516h.042c3.891 0 5.508 5.09 7.22 10.478 1.127 3.55 2.67 8.41 4.397 8.41h.008l.028 2.964h-.042z"/>
        <g>
            <path fill="#006F7D" d="M57.391 35.226c-7.116 5.97-17.748 5.014-23.748-2.136A16.882 16.882 0 0 1 32.6 12.737a16.725 16.725 0 0 1 3.063-3.405c7.115-5.97 17.748-5.014 23.748 2.136a16.895 16.895 0 0 1 3.025 5.366c2.218 6.415.442 13.788-5.045 18.392M32.388 5.428c-9.185 7.707-9.779 22.12-1.328 32.192 8.452 10.071 22.748 11.988 31.933 4.282 9.184-7.707 9.778-22.119 1.327-32.19C55.87-.362 41.572-2.279 32.388 5.427"/>
            <path fill="#368896" d="M62.437 16.834c2.217 6.415.44 13.789-5.046 18.392-7.115 5.97-17.748 5.014-23.748-2.136A16.882 16.882 0 0 1 32.6 12.737a16.73 16.73 0 0 1 3.063-3.405C42.78 3.36 53.411 4.318 59.41 11.468a16.91 16.91 0 0 1 3.027 5.366M33.102 4.854c-9.503 7.31-11.249 20.976-3.899 30.523 7.35 9.546 21.013 11.36 30.516 4.05 9.503-7.311 11.248-20.977 3.899-30.523-7.35-9.547-21.013-11.36-30.516-4.05"/>
            <path fill="#3AD5F1" fill-opacity=".2" d="M35.678 9.28a16.777 16.777 0 0 0-3.07 3.412c-4.157 6.09-3.955 14.44 1.035 20.387 6.008 7.16 16.66 8.113 23.792 2.129 5.498-4.614 7.281-12.001 5.063-18.426a16.906 16.906 0 0 0-3.03-5.373c-6.007-7.16-16.659-8.113-23.79-2.13"/>
            <path fill="#FFF" fill-opacity=".5" d="M41.246 16.304a2.632 2.632 0 0 0-3.707-.333 2.632 2.632 0 0 0-.315 3.709 2.632 2.632 0 0 0 3.707.333 2.632 2.632 0 0 0 .315-3.709M39.808 12.966a.626.626 0 0 0-.882-.079.626.626 0 0 0-.075.883.626.626 0 0 0 .882.079.626.626 0 0 0 .075-.883"/>
            <path fill="#B7B9B9" d="M61.463 42.302c-.396-.472-.595-1.066-.471-1.514a3.101 3.101 0 0 1 2.632-2.272c.491-.06 1.075.216 1.499.722l5.739 6.84c.585.696.67 1.588.19 1.99l-1.919 1.611c-.48.403-1.343.164-1.928-.533l-5.742-6.844z"/>
            <path fill="#368896" d="M69.875 58.592c-7.382-8.797-7.043-11.924-4.144-14.356 2.899-2.433 6.036-2.223 13.417 6.574 7.382 8.797 7.044 11.923 4.145 14.355-2.9 2.433-6.037 2.224-13.418-6.573"/>
            <path fill="#006F7D" d="M79.545 60.7c-2.634 2.21-5.466 2.236-11.5-4.378a69.608 69.608 0 0 0 1.83 2.27c7.381 8.797 10.519 9.006 13.417 6.573 2.9-2.432 3.238-5.558-4.143-14.355a69.608 69.608 0 0 0-1.918-2.197c5.467 7.091 4.948 9.876 2.314 12.086"/>
        </g>
    </g>
</svg>
