<svg xmlns="http://www.w3.org/2000/svg" width="35" height="24" viewBox="0 0 35 24">
    <g fill="none" fill-rule="evenodd">
        <rect width="34.286" height="24" fill="#224DBA" rx="1.895"/>
        <path fill="#FFF" d="M11.682 16.007h-2.01l-1.506-5.76c-.072-.265-.223-.5-.447-.61a6.53 6.53 0 0 0-1.841-.61v-.22h3.236c.447 0 .782.332.838.72l.781 4.154 2.009-4.875h1.953l-3.013 7.201zm4.13 0h-1.898l1.563-7.2h1.897l-1.562 7.2zm4.017-5.206c.056-.388.39-.61.782-.61a3.53 3.53 0 0 1 1.841.333l.335-1.55a4.794 4.794 0 0 0-1.73-.334c-1.841 0-3.181.997-3.181 2.382 0 1.053.949 1.606 1.619 1.939.725.332 1.004.554.948.886 0 .498-.558.72-1.116.72-.67 0-1.34-.166-1.953-.443l-.335 1.55c.67.277 1.395.389 2.065.389 2.065.054 3.348-.942 3.348-2.438 0-1.883-2.623-1.994-2.623-2.824zm9.264 5.206l-1.507-7.2h-1.618a.84.84 0 0 0-.782.553l-2.79 6.647h1.954l.39-1.052h2.4l.223 1.052h1.73zm-2.846-5.262l.558 2.714h-1.563l1.005-2.714z"/>
    </g>
</svg>
