<svg xmlns="http://www.w3.org/2000/svg" width="35" height="24" viewBox="0 0 35 24">
    <g fill="none" fill-rule="evenodd">
        <rect width="34.286" height="24" fill="#2183CB" rx="1.895"/>
        <path fill="#FFF" d="M18.39 18.986h-2.51c-3.794-.061-6.854-3.159-6.854-6.925-.122-3.765 2.815-6.924 6.548-7.045h2.815c3.917-.061 7.099 3.097 7.16 6.985v.06a7.147 7.147 0 0 1-7.16 6.925zM16.063 6.23c-3.182 0-5.814 2.611-5.814 5.77 0 3.158 2.632 5.77 5.814 5.77s5.813-2.612 5.813-5.77c0-3.159-2.631-5.77-5.813-5.77zm.918 9.657V8.174c2.141.547 3.488 2.673 2.937 4.798a3.97 3.97 0 0 1-2.937 2.916zm-1.836 0a3.99 3.99 0 0 1-2.876-4.86 4.01 4.01 0 0 1 2.876-2.854v7.714z"/>
    </g>
</svg>
