<svg xmlns="http://www.w3.org/2000/svg" width="266" height="112" viewBox="0 0 266 112">
    <g fill="none" fill-rule="evenodd" transform="translate(0 -2)">
        <path fill="#E5FCFC" d="M233.299 57.49c.151-.01.262-.016.32-.017.22-.002.434-.007.65-.011-.326.009-.653.018-.97.029M32.245 65.077c-.221.002-.433.007-.65.01.326-.008.653-.017.97-.028-.15.01-.262.017-.32.018M235.171 79.1a91.89 91.89 0 0 1 3.567-.032c22.55-.41 26.737-4.504 26.625-11.18-.109-6.5-4.317-10.45-25.364-10.502a87.352 87.352 0 0 1-3.134.019l-1.378.025c.3-.01.589-.022.874-.034-9.743-.183-11.725-2.189-11.78-5.406-.05-3.02 1.445-26.696-44.14-26.325l-38.65-.79c-5.289.022-9.838-3.254-10.81-7.785-.98-4.588-5.63-7.882-10.983-7.784l-55.004 1.498c-14.172.183-20.036 9.262-20.212 16.04-.128 4.857-.106 7.72-.106 10.953 0 5.93-10.144 5.69-10.793 5.683C11.333 43.89.39 47.985.5 54.66c.108 6.5 4.316 10.45 25.364 10.502.299-.007.597-.014.91-.018A98.912 98.912 0 0 1 29 65.144c.463-.007.93-.015 1.375-.025-.298.01-.588.02-.872.034 9.742.181 11.725 2.187 11.78 5.405.05 3.022-3.06 4.627-6.485 5.509-.44.113-.904.19-1.359.25-11.875 1.57-14.45 3.055-14.36 8.38.116 6.925 4.645 10.196 28.138 10.005 18.869-.154 22.48-.193 39.315-.33 16.834-.137 34.986.054 34.986.054 5.289-.024 9.84 3.253 10.81 7.784v3.347c.982 4.587 5.63 7.882 10.984 7.784l91.553-1.826c23.492-.299 27.945-4.174 27.769-10.953-.286-11.052-23.662-10.363-22.766-10.404-9.866-.165-17.422-2.102-17.477-5.334-.054-3.223 1.87-5.267 11.656-5.691-.601-.01-1.13-.035 1.123-.032"/>
        <path fill="#5AD73C" d="M88 6.078C87.975 3.32 89.443 2.024 92 2c2.557-.024 4.05 1.244 4.076 4.004.025 2.758-1.442 4.053-4 4.078-2.558.023-4.05-1.245-4.076-4.004"/>
        <path fill="#FF7C9A" d="M240.04 36.46c-3.154.794-4.78.533-5.366-1.776-.586-2.309.72-3.31 3.874-4.104 3.154-.793 4.781-.532 5.367 1.776.585 2.31-.721 3.31-3.875 4.104"/>
        <path fill="#86898E" fill-rule="nonzero" d="M239.415 44.636v6.293a1.484 1.484 0 1 0 2.969 0v-6.293a1.484 1.484 0 1 0-2.969 0zm0 22.551v6.293a1.484 1.484 0 1 0 2.969 0v-6.293a1.484 1.484 0 1 0-2.969 0zm-7.156 13.286h-6.292a1.484 1.484 0 0 0 0 2.969h6.292a1.484 1.484 0 1 0 0-2.969zm-19.775 0h-6.292a1.484 1.484 0 0 0 0 2.969h6.292a1.484 1.484 0 1 0 0-2.969zm-19.776 0h-6.292a1.484 1.484 0 0 0 0 2.969h6.292a1.484 1.484 0 1 0 0-2.969zm-19.775 0h-6.293a1.484 1.484 0 0 0 0 2.969h6.293a1.484 1.484 0 1 0 0-2.969zm-19.776 0h-6.292a1.484 1.484 0 1 0 0 2.969h6.292a1.484 1.484 0 1 0 0-2.969zm-19.776 0h-6.292a1.484 1.484 0 0 0 0 2.969h6.292a1.484 1.484 0 1 0 0-2.969zm-19.775 0h-6.293a1.484 1.484 0 0 0 0 2.969h6.293a1.484 1.484 0 1 0 0-2.969zm-19.776 0h-6.292a1.484 1.484 0 0 0 0 2.969h6.292a1.484 1.484 0 0 0 0-2.969zm-19.776 0h-6.292a1.484 1.484 0 0 0 0 2.969h6.292a1.484 1.484 0 1 0 0-2.969zm-19.775 0h-6.292a1.484 1.484 0 0 0 0 2.969h6.292a1.484 1.484 0 0 0 0-2.969zm-13.172-7.27v-6.292a1.484 1.484 0 0 0-2.968 0v6.292a1.484 1.484 0 1 0 2.968 0zm0-22.551V44.36a1.484 1.484 0 0 0-2.968 0v6.292a1.484 1.484 0 1 0 2.968 0zm0-19.776v-3.99c0-.641.09-1.268.262-1.87a1.484 1.484 0 1 0-2.853-.82 9.72 9.72 0 0 0-.377 2.69v3.99a1.484 1.484 0 1 0 2.968 0zm9.674-10.766h6.293a1.484 1.484 0 1 0 0-2.969H50.78a1.484 1.484 0 1 0 0 2.969zm19.776 0h6.292a1.484 1.484 0 1 0 0-2.969h-6.292a1.484 1.484 0 1 0 0 2.969zm19.776 0h6.292a1.484 1.484 0 1 0 0-2.969h-6.292a1.484 1.484 0 0 0 0 2.969zm19.775 0h6.292a1.484 1.484 0 1 0 0-2.969h-6.292a1.484 1.484 0 1 0 0 2.969zm19.776 0h6.292a1.484 1.484 0 1 0 0-2.969h-6.292a1.484 1.484 0 1 0 0 2.969zm19.775 0h6.293a1.484 1.484 0 1 0 0-2.969h-6.293a1.484 1.484 0 1 0 0 2.969zm19.776 0h6.292a1.484 1.484 0 1 0 0-2.969h-6.292a1.484 1.484 0 1 0 0 2.969zm19.776 0h6.292a1.484 1.484 0 1 0 0-2.969h-6.292a1.484 1.484 0 1 0 0 2.969zm19.775 0h3.33a1.484 1.484 0 1 0 0-2.969h-3.33a1.484 1.484 0 1 0 0 2.969z"/>
        <path fill="#C8DAE6" d="M235.586 17l-2.346 2.168c-.247.229-.38.556-.36.892l.181 3.183c.05.889-.902 1.484-1.683 1.05l-2.795-1.552a1.14 1.14 0 0 0-.963-.065l-2.982 1.156c-.833.322-1.696-.396-1.525-1.271l.619-3.127a1.13 1.13 0 0 0-.234-.933l-2.026-2.468a1.13 1.13 0 0 1 .742-1.837l3.176-.381c.336-.04.637-.228.82-.511l1.73-2.681a1.134 1.134 0 0 1 1.98.136l1.348 2.892c.141.304.414.532.74.618l3.094.81a1.128 1.128 0 0 1 .484 1.92"/>
        <path fill="#D3D5D4" d="M219.208 58.954H96.99c-2.756 0-4.99-2.056-4.99-4.59V43.688c0-2.536 2.234-4.592 4.99-4.592h122.218c2.756 0 4.99 2.056 4.99 4.592v10.674c0 2.535-2.234 4.591-4.99 4.591"/>
        <circle cx="68" cy="49" r="14" fill="#D3D5D4"/>
        <path fill="#FFDD67" d="M48.343 12.624c20.222-6.57 41.942 4.496 48.513 24.719 6.57 20.222-4.496 41.942-24.719 48.513-20.222 6.57-41.942-4.497-48.513-24.719-6.57-20.222 4.497-41.942 24.719-48.513"/>
        <path fill="#917524" d="M64 30.154c5.024 1.953 10.73 1.608 15.558-.943.666-.365 2.115 1.965 1.304 2.406-5.568 2.942-12.151 3.343-17.953 1.088-.844-.341.397-2.833 1.09-2.551M32.226 44.193c5.404-.775 10.222-3.847 13.14-8.382.393-.638 2.864.651 2.378 1.424-3.364 5.23-8.924 8.78-15.164 9.672-.914.12-1.11-2.619-.354-2.714"/>
        <path fill="#664E27" d="M61.847 40.111c5.776 9.464 16.564 8.795 21.507-1.33.245-.509-.462-.687-1.339-1.195-5.198 4.422-13.906 4.58-18.938 1.173-.829.61-1.515.876-1.23 1.352M33.611 54.196c9.95 5.287 19.068-.515 18.183-11.564-.05-.553-.762-.364-1.79-.373-2.281 6.299-9.837 10.656-16.008 10.184-.412.925-.88 1.484-.385 1.753M83.565 58.688c-3.497-3.822-9.425-5.218-21.07-1.434-11.642 3.783-15.617 8.396-16.2 13.544-.312 2.751 2.496 6.09 2.496 6.09 3.52 4.214 3.701 5.697 20.196.337 16.474-5.352 15.766-6.664 16.136-12.143 0 0 .307-4.35-1.558-6.394"/>
        <path fill="#FFF" d="M77.437 59.648c-.012-.406-.297-.878-.632-1.051 0 0-4.084-2.092-14.492 1.29C51.905 63.269 49.83 67.36 49.83 67.36c-.17.337-.122.887.107 1.222l.497.727c.23.335.69.521 1.023.413l25.42-8.26c.333-.108.597-.529.585-.935l-.025-.88z"/>
        <g>
            <path fill="#FF406F" d="M181.53 29.082c-14.286.827-20.48 8.82-19.715 21.964.769 13.143 7.85 20.367 22.138 19.54 14.285-.828 20.48-8.821 19.714-21.964-.768-13.143-7.85-20.368-22.137-19.54"/>
            <path fill="#FFF" d="M186.32 39.956c-.073.116-11.535 17.302-11.603 17.413-1.244 2.048-1.356 3.3.219 4.3 1.542.978 2.62.394 3.919-1.495.1-.147 11.593-17.37 11.696-17.533 1.44-2.252 1.657-3.587-.004-4.642-1.661-1.054-2.785-.295-4.226 1.957"/>
            <path fill="#FFF" d="M173.56 44.673c.104.092 15.205 14.212 15.305 14.297 1.819 1.563 3.04 1.88 4.292.5 1.225-1.35.826-2.507-.827-4.097-.129-.124-15.265-14.28-15.408-14.408-1.99-1.79-3.276-2.223-4.597-.768-1.319 1.457-.754 2.686 1.235 4.476"/>
        </g>
        <path fill="#3AD5F1" d="M122.37 111.058c-4.27 2.078-5.495 1.627-6.186.218-.69-1.408-.296-2.647 3.975-4.726 4.272-2.079 5.496-1.628 6.187-.219.691 1.408.295 2.648-3.976 4.727"/>
    </g>
</svg>
