<svg xmlns="http://www.w3.org/2000/svg" xmlns:xlink="http://www.w3.org/1999/xlink" width="98" height="86" viewBox="0 0 98 86">
    <defs>
        <path id="a" d="M0 .026h24.974V25H0z"/>
    </defs>
    <g fill="none" fill-rule="evenodd">
        <path fill="#FFF1F2" d="M84.581 60.756c.155-.001.303-.004.454-.006-.228.005-.455.011-.677.019a4.14 4.14 0 0 1 .223-.013m.384 11.216c-.23-.006-.432-.064.43-.059.178-.004.38-.03.572-.033.273-.002.543-.012.792-.008 8.622-.129 10.266-2.87 10.24-5.789-.024-2.842-1.623-4.581-9.67-4.651l-.348.004c-.3.002-.583 0-.851-.005-.178.002-.356.004-.527.008l.334-.013c-3.725-.102-4.478-.984-4.49-2.39-.013-1.407 1.34-2.104 2.747-2.464 4.773-.634 5.805-2.272 5.785-4.645-.027-3.028-1.748-5.003-10.731-4.925-1.745.015-3.212.056-4.45.067L30 47.125l4.478 24.797s48.55.135 50.487.05"/>
        <path fill="#FF6173" d="M84.711 78.828c2.938 2.17 3.925 1.998 4.643 1.024s.592-1.969-2.345-4.139c-2.938-2.17-3.926-1.997-4.643-1.024-.718.974-.592 1.969 2.345 4.139"/>
        <path fill="#FF374A" d="M93.312 62.137c-2.47.374-3.544 1.043-3.27 2.86.273 1.817 1.496 2.14 3.967 1.768 2.472-.373 3.545-1.043 3.272-2.86-.274-1.817-1.498-2.141-3.969-1.768"/>
        <path fill="#FFC7CD" d="M81.966 62.333c0-1.362-.727-1.994-1.983-1.994-1.256 0-1.983.632-1.983 1.994 0 1.361.727 1.994 1.983 1.994 1.256 0 1.983-.633 1.983-1.994"/>
        <path fill="#FFF1F2" d="M13.318 36.32a54.867 54.867 0 0 0-.676-.02l.453.007c.04 0 .118.005.223.012zM59.975 61L67 22.032l-44.799.037c-1.237-.011-2.704-.051-4.449-.067-8.983-.078-10.704 1.907-10.73 4.952-.021 2.386 1.011 4.032 5.784 4.67 1.407.362 2.76 1.063 2.747 2.477-.012 1.414-.765 2.3-4.49 2.402.11.005.22.01.334.013l-.527-.007c-.269.005-.551.006-.85.004-.12-.001-.234-.004-.348-.006-8.048.07-9.647 1.816-9.672 4.674-.025 2.935 1.587 4.725 10.21 4.854a32.847 32.847 0 0 1 1.364.007c.861-.006.66.005.43.012 3.742.164 4.483 1.058 4.47 2.475-.012 1.42-.772 2.297-4.544 2.392.342.016-8.597-.234-8.68 4.624-.05 2.98 1.663 4.674 10.647 4.753L59.975 61z"/>
        <g>
            <path fill="#FF7C9A" d="M17.009 1.713C14.07-.457 13.084-.284 12.366.69c-.718.974-.592 1.969 2.345 4.139 2.938 2.17 3.926 1.998 4.643 1.024.718-.974.592-1.969-2.345-4.139"/>
            <path fill="#E9426D" d="M9.01 21.765c2.47-.374 3.544-1.043 3.27-2.86-.273-1.817-1.496-2.14-3.967-1.768-2.472.373-3.545 1.043-3.271 2.86.273 1.817 1.497 2.14 3.968 1.768"/>
            <path fill="#FFC7CD" d="M21 16.994c0 1.361.727 1.994 1.984 1.994 1.255 0 1.982-.633 1.982-1.994 0-1.362-.727-1.994-1.982-1.994-1.257 0-1.984.632-1.984 1.994"/>
        </g>
        <g>
            <path fill="#E3E3E3" d="M68.706 67.143H33.445c-1.918 0-3.508-1.009-3.595-2.917-.242-5.322-.243-11.878-.243-20.407 0-19.021 0-29.377 2.652-33.97C34.64 5.72 39.746 5.782 50.93 5.782c11.186 0 16.291.03 18.673 4.158 2.653 4.593 2.653 15.087 2.653 34.108 0 8.686-.003 15.096-.257 20.46-.083 1.748-1.537 2.635-3.294 2.635M50.93 2.39C26.14 2.39 26.14 3.956 26.14 44.063c0 39.997 0 41.558 24.792 41.558 24.793 0 24.793-1.561 24.793-41.558 0-40.107 0-41.673-24.793-41.673"/>
            <path fill="#F6F6F6" d="M50.931 5.811c-11.185 0-16.29-.031-18.672 4.097-2.652 4.593-2.652 15.01-2.652 34.03 0 8.53.001 14.966.244 20.288.085 1.908 1.675 2.917 3.594 2.917h35.261c1.758 0 3.21-.883 3.293-2.63.256-5.365.257-11.89.257-20.577 0-19.02 0-29.447-2.652-34.04-2.382-4.128-7.487-4.085-18.673-4.085"/>
            <path fill="#FFF" d="M46.04 77.02c0-3.454 1.854-5.059 5.057-5.059 3.204 0 5.058 1.605 5.058 5.059s-1.854 5.058-5.058 5.058c-3.203 0-5.057-1.604-5.057-5.058"/>
            <path fill="#B6B7B7" d="M48.347 77.02c0-1.878 1.01-2.75 2.75-2.75 1.741 0 2.75.872 2.75 2.75 0 1.878-1.009 2.75-2.75 2.75-1.74 0-2.75-.872-2.75-2.75"/>
            <g>
                <path fill="#DDD" fill-opacity=".4" d="M78.73 35.7c0-15.043-12.252-27.238-27.365-27.238C36.252 8.462 24 20.657 24 35.7c0 15.044 12.252 27.24 27.365 27.24 15.113 0 27.364-12.196 27.364-27.24" opacity=".8"/>
                <path fill="#F6F6F6" d="M69.543 35.654c0-10.047-8.18-18.192-18.271-18.192C41.18 17.462 33 25.607 33 35.654c0 10.048 8.18 18.193 18.272 18.193 10.09 0 18.27-8.145 18.27-18.193"/>
                <g transform="translate(39 23.599)">
                    <mask id="b" fill="#fff">
                        <use xlink:href="#a"/>
                    </mask>
                    <path fill="#FFDD67" d="M0 12.513C0 19.411 5.59 25 12.487 25c6.898 0 12.487-5.59 12.487-12.487 0-6.898-5.59-12.487-12.487-12.487C5.589.026 0 5.616 0 12.513" mask="url(#b)"/>
                </g>
                <path fill="#65B1EF" d="M58.017 38.445c0 3.57 4.851 3.57 4.85 0 0-2.607-2.424-5.15-2.424-5.15s-2.426 2.544-2.426 5.15"/>
                <path fill="#664E27" d="M54.192 35.28a2.081 2.081 0 1 1 0 4.162 2.081 2.081 0 0 1 0-4.163M44.618 35.28a2.081 2.081 0 1 1 0 4.162 2.081 2.081 0 0 1 0-4.163"/>
                <path fill="#917524" d="M46.733 31.078a5.924 5.924 0 0 1-4.867 1.304c-.24-.047-.453.841-.16.897a6.835 6.835 0 0 0 5.615-1.504c.225-.195-.404-.858-.588-.697M56.945 32.319a5.922 5.922 0 0 1-4.866-1.304c-.185-.162-.814.501-.588.696a6.834 6.834 0 0 0 5.616 1.505c.292-.056.08-.945-.162-.897"/>
                <path fill="#664E27" d="M54.015 42.493a8.49 8.49 0 0 0-7.047 1.254c-.501.362.439 1.676.938 1.312 1.341-.944 3.476-1.596 5.685-1.012.593.157 1.056-1.377.424-1.554"/>
            </g>
        </g>
    </g>
</svg>
