<svg xmlns="http://www.w3.org/2000/svg" xmlns:xlink="http://www.w3.org/1999/xlink" width="191" height="90" viewBox="0 0 191 90">
    <defs>
        <path id="a" d="M0 .047h44.953V45H0z"/>
    </defs>
    <g fill="none" fill-rule="evenodd">
        <path fill="#FFF1F2" d="M176.197 83.613c.1 0 .195-.002.292-.004a35.87 35.87 0 0 0-.435.012c.067-.004.118-.008.143-.008m.09 12.514c-.27-.008-.506-.077.503-.07.21-.006.447-.037.671-.04.321-.002.637-.015.928-.01 10.106-.153 12.032-3.414 12.002-6.885-.029-3.382-1.903-5.45-11.334-5.533l-.408.005c-.35.002-.682 0-.997-.006-.208.002-.417.005-.617.009l.391-.016c-4.365-.12-5.247-1.17-5.262-2.842-.015-1.674 1.57-2.503 3.22-2.931 5.593-.755 6.803-2.703 6.779-5.526-.032-3.601-2.049-5.95-12.576-5.857-2.045.018-3.765.065-5.214.078l-52.502.068 5.248 29.496s56.898.16 59.168.06"/>
        <path fill="#FF6173" d="M175.097 83.35c2.937 2.17 3.924 1.998 4.642 1.025.719-.975.592-1.97-2.345-4.14-2.938-2.17-3.926-1.997-4.643-1.024-.718.974-.592 1.969 2.346 4.14"/>
        <path fill="#FF374A" d="M183.418 62.137c-2.471.374-3.545 1.043-3.27 2.86.273 1.817 1.496 2.14 3.967 1.768 2.471-.373 3.545-1.043 3.271-2.86s-1.497-2.141-3.968-1.768"/>
        <path fill="#FFC7CD" d="M168.966 65.333c0-1.362-.727-1.994-1.983-1.994-1.256 0-1.983.632-1.983 1.994 0 1.361.727 1.994 1.983 1.994 1.256 0 1.983-.633 1.983-1.994"/>
        <path fill="#FFF1F2" d="M15.214 83.21a35.868 35.868 0 0 0-.435-.012l.292.004c.025 0 .075.003.143.008m58.935 12.445l5.247-29.496-52.501-.067c-1.45-.013-3.169-.06-5.214-.079-10.528-.093-12.545 2.256-12.576 5.858-.025 2.823 1.186 4.77 6.779 5.526 1.65.428 3.234 1.257 3.22 2.93-.015 1.673-.898 2.722-5.262 2.843l.39.015c-.2-.004-.408-.006-.616-.009-.316.006-.647.009-.998.006-.14-.002-.273-.002-.407-.005C2.78 83.26.906 85.33.876 88.71c-.03 3.472 1.896 6.733 12.002 6.886.291-.005.608.007.929.01.224.002.46.033.67.04 1.01-.007.773.062.504.07 2.27.1 59.168-.06 59.168-.06M14.338 29.2a35.87 35.87 0 0 0-.435-.013c.097.002.192.004.292.004.025 0 .075.004.143.009zm55.95 28.94l8.232-46.102-52.501.044c-1.45-.014-3.17-.061-5.214-.08C10.276 11.91 8.26 14.26 8.229 17.862c-.025 2.822 1.186 4.77 6.779 5.525 1.65.429 3.234 1.257 3.22 2.93-.015 1.673-.898 2.722-5.262 2.842.127.006.257.012.39.016-.2-.004-.408-.006-.616-.009-.316.006-.647.007-.998.005l-.407-.007C1.903 29.246.03 31.312 0 34.693c-.03 3.472 1.86 5.59 11.965 5.743a38.133 38.133 0 0 1 1.599.007c1.01-.006.773.007.503.014 4.387.194 5.255 1.253 5.24 2.93-.014 1.68-.905 2.717-5.326 2.829.4.02-10.075-.277-10.171 5.471-.059 3.526 1.948 5.53 12.476 5.623l54.002.83z"/>
        <g>
            <path fill="#FF7C9A" d="M13.331 6.713c-2.937-2.17-3.924-1.997-4.643-1.024-.718.974-.592 1.969 2.346 4.139 2.937 2.17 3.926 1.998 4.643 1.024.718-.974.592-1.969-2.346-4.139"/>
            <path fill="#E9426D" d="M5.01 27.926c2.47-.373 3.544-1.043 3.27-2.86-.273-1.817-1.496-2.14-3.967-1.768-2.472.374-3.545 1.043-3.271 2.86.273 1.817 1.497 2.141 3.968 1.768"/>
            <path fill="#FFC7CD" d="M19.461 24.73c0 1.362.728 1.994 1.984 1.994 1.255 0 1.983-.632 1.983-1.994 0-1.361-.728-1.993-1.983-1.993-1.256 0-1.984.632-1.984 1.993"/>
        </g>
        <path fill="#FFF1F2" d="M169.463 29.191c.1 0 .195-.002.292-.004a35.87 35.87 0 0 0-.435.013c.068-.005.118-.009.143-.009zm-2.092 28.119c10.529-.093 12.535-2.097 12.477-5.623-.096-5.748-10.572-5.452-10.171-5.471-4.42-.112-5.312-1.15-5.326-2.83-.015-1.676.853-2.735 5.24-2.929-.27-.007-.507-.02.503-.014a42.572 42.572 0 0 1 1.598-.007c10.106-.153 11.996-2.271 11.966-5.744-.03-3.38-1.904-5.446-11.335-5.529l-.407.007c-.351.002-.683 0-.998-.005-.209.003-.417.005-.617.01.134-.005.264-.01.391-.017-4.364-.12-5.247-1.169-5.262-2.841-.014-1.674 1.57-2.502 3.22-2.93 5.593-.756 6.804-2.704 6.78-5.526-.033-3.602-2.05-5.951-12.577-5.858-2.045.018-3.764.065-5.214.079l-52.501-.044 8.232 46.102 54.001-.83z"/>
        <g>
            <path fill="#DFDFDF" d="M145.3 88.85H39.554c-6.287 0-11.383 2.183-11.383-4.107v-70.85c0-6.29 5.096-11.389 11.383-11.389H145.3c6.287 0 11.384 5.098 11.384 11.389v70.85c0 6.29-5.097 4.107-11.384 4.107"/>
            <path fill="#F6F6F6" d="M144.276 87.782L40.58 86.973c-2.486 0-4.5-.436-4.5-2.97V16.798c0-4.174 3.318-7.558 7.413-7.558H141.2c4.185 0 7.578 3.46 7.578 7.726v67.039c0 2.533-2.016 3.778-4.5 3.778"/>
        </g>
        <g>
            <path fill="#DDD" fill-opacity=".3" d="M62.885 85.932c12.445.754 24.9 1.322 37.368 1.506 7.464.11 14.93.136 22.395.274.586.011 1.18.014 1.772.018 11.791-8.917 19.41-23.018 19.41-38.897C143.83 21.864 121.866 0 94.77 0 67.677 0 45.713 21.864 45.713 48.833c0 14.85 6.663 28.144 17.172 37.1" opacity=".8"/>
            <path fill="#F6F6F6" fill-opacity=".9" d="M127.515 48.965c0-18.3-14.904-33.137-33.289-33.137-18.386 0-33.29 14.836-33.29 33.137 0 18.3 14.904 33.136 33.29 33.136 18.385 0 33.29-14.836 33.29-33.136"/>
            <g transform="translate(72 26.247)">
                <mask id="b" fill="#fff">
                    <use xlink:href="#a"/>
                </mask>
                <path fill="#FFDD67" d="M0 22.524C0 34.94 10.06 45 22.477 45c12.415 0 22.476-10.06 22.476-22.476 0-12.416-10.06-22.477-22.477-22.477C10.062.047 0 10.107 0 22.524" mask="url(#b)"/>
            </g>
            <path fill="#65B1EF" d="M106.23 52.97c0 6.425 8.733 6.427 8.731 0 0-4.693-4.364-9.271-4.364-9.271s-4.367 4.58-4.367 9.271"/>
            <path fill="#664E27" d="M99.345 47.272a3.746 3.746 0 1 1 0 7.492 3.746 3.746 0 0 1 0-7.492M82.113 47.272a3.746 3.746 0 1 1 0 7.493 3.746 3.746 0 0 1 0-7.493"/>
            <path fill="#917524" d="M85.919 39.71a10.664 10.664 0 0 1-8.76 2.347c-.434-.085-.816 1.514-.29 1.615 3.604.647 7.31-.345 10.11-2.708.405-.351-.728-1.544-1.06-1.254M104.301 41.943a10.66 10.66 0 0 1-8.76-2.347c-.331-.292-1.464.903-1.057 1.254a12.3 12.3 0 0 0 10.108 2.708c.527-.1.144-1.7-.291-1.615"/>
            <path fill="#664E27" d="M99.027 60.256c-4.32-1.16-9.027-.32-12.684 2.258-.903.651.789 3.017 1.687 2.362 2.415-1.7 6.258-2.873 10.234-1.822 1.066.282 1.9-2.479.763-2.798"/>
        </g>
        <g>
            <path fill="#ECECEC" d="M166.573 85.744H19.508c-.64 0-1.3.435-1.3 1.277V90.1c0 1.083 1.368 5.85 16.689 5.85h116.286c15.322 0 16.689-4.767 16.689-5.85V87.02c0-.842-.66-1.277-1.299-1.277"/>
            <path fill="#DFDFDF" d="M93.04 85.734H78.257l2.443 2.37c.658.615 1.32.716 2.13.716h21.07c.967 0 2.007-.252 2.725-1.109l1.565-1.977H93.04z"/>
        </g>
    </g>
</svg>
