<svg xmlns="http://www.w3.org/2000/svg" width="162" height="48" viewBox="0 0 162 48">
    <defs>
        <linearGradient id="a" x1="91.476%" x2="-38.55%" y1="4.946%" y2="71.879%">
            <stop offset="0%" stop-color="#00A0FF"/>
            <stop offset="1%" stop-color="#00A1FF"/>
            <stop offset="26%" stop-color="#00BEFF"/>
            <stop offset="51%" stop-color="#00D2FF"/>
            <stop offset="76%" stop-color="#00DFFF"/>
            <stop offset="100%" stop-color="#00E3FF"/>
        </linearGradient>
        <linearGradient id="b" x1="107.685%" x2="-130.64%" y1="50%" y2="50%">
            <stop offset="0%" stop-color="#FFE000"/>
            <stop offset="41%" stop-color="#FFBD00"/>
            <stop offset="78%" stop-color="#FFA500"/>
            <stop offset="100%" stop-color="#FF9C00"/>
        </linearGradient>
        <linearGradient id="c" x1="86.271%" x2="-50.18%" y1="17.793%" y2="194.64%">
            <stop offset="0%" stop-color="#FF3A44"/>
            <stop offset="100%" stop-color="#C31162"/>
        </linearGradient>
        <linearGradient id="d" x1="-18.825%" x2="42.086%" y1="-54.107%" y2="24.928%">
            <stop offset="0%" stop-color="#32A071"/>
            <stop offset="7%" stop-color="#2DA771"/>
            <stop offset="48%" stop-color="#15CF74"/>
            <stop offset="80%" stop-color="#06E775"/>
            <stop offset="100%" stop-color="#00F076"/>
        </linearGradient>
    </defs>
    <g fill="none" fill-rule="evenodd">
        <rect width="162" height="48" fill="#000" rx="5"/>
        <path fill="#A6A6A6" fill-rule="nonzero" d="M156 .96A5.04 5.04 0 0 1 161.04 6v36a5.04 5.04 0 0 1-5.04 5.04H6A5.04 5.04 0 0 1 .96 42V6A5.04 5.04 0 0 1 6 .96h150zm0-.96H6a6 6 0 0 0-6 6v36a6 6 0 0 0 6 6h150a6 6 0 0 0 6-6V6a6 6 0 0 0-6-6z"/>
        <path fill="#FFF" fill-rule="nonzero" d="M81.768 26.1a5.112 5.112 0 1 0 5.124 5.1 5.028 5.028 0 0 0-5.124-5.1zm0 8.196a3.096 3.096 0 1 1 2.88-3.096 2.952 2.952 0 0 1-2.88 3.096zM70.584 26.1a5.112 5.112 0 1 0 5.124 5.1 5.028 5.028 0 0 0-5.124-5.1zm0 8.196a3.096 3.096 0 1 1 2.88-3.096 2.952 2.952 0 0 1-2.88 3.096zm-13.296-6.624v2.16h5.184a4.524 4.524 0 0 1-1.2 2.724 5.304 5.304 0 0 1-4.008 1.584 5.76 5.76 0 1 1 0-11.52 5.568 5.568 0 0 1 3.936 1.548l1.524-1.524a7.56 7.56 0 0 0-5.436-2.184 7.932 7.932 0 1 0 0 15.852 7.284 7.284 0 0 0 5.532-2.22 7.2 7.2 0 0 0 1.872-5.076c.004-.45-.032-.9-.108-1.344h-7.296zm54.372 1.68a4.8 4.8 0 0 0-4.368-3.252 4.8 4.8 0 0 0-4.8 5.1 5.076 5.076 0 0 0 9.312 2.844l-1.74-1.2a2.892 2.892 0 0 1-2.508 1.404 2.58 2.58 0 0 1-2.472-1.548l6.828-2.82-.252-.528zm-6.96 1.704a2.796 2.796 0 0 1 2.676-2.976c.788-.05 1.53.375 1.884 1.08l-4.56 1.896zM99.156 36h2.244V21h-2.244v15zm-3.672-8.76H95.4a3.528 3.528 0 0 0-2.688-1.14 5.112 5.112 0 0 0 0 10.212c1.03.02 2.016-.42 2.688-1.2h.084v.732c0 1.956-1.044 3-2.724 3a2.832 2.832 0 0 1-2.58-1.812l-1.944.804a4.8 4.8 0 0 0 4.524 3.024c2.628 0 4.8-1.548 4.8-5.316V26.4h-2.076v.84zm-2.58 7.056a3.096 3.096 0 0 1 0-6.18A2.868 2.868 0 0 1 95.64 31.2a2.856 2.856 0 0 1-2.736 3.096zM122.172 21h-5.376v15h2.244v-5.688h3.132a4.668 4.668 0 1 0 0-9.312zm0 7.2h-3.132v-5.112h3.18a2.568 2.568 0 0 1 0 5.136l-.048-.024zm13.848-2.148a4.188 4.188 0 0 0-3.996 2.292l1.98.828a2.136 2.136 0 0 1 2.052-1.092 2.16 2.16 0 0 1 2.4 1.932v.144a5.016 5.016 0 0 0-2.34-.576c-2.136 0-4.32 1.2-4.32 3.384a3.468 3.468 0 0 0 3.732 3.3 3.18 3.18 0 0 0 2.856-1.464h.072V36h2.16v-5.772c0-2.628-1.992-4.152-4.548-4.152l-.048-.024zm-.276 8.22c-.732 0-1.752-.372-1.752-1.272 0-1.2 1.272-1.608 2.4-1.608a3.984 3.984 0 0 1 2.04.504 2.712 2.712 0 0 1-2.64 2.4l-.048-.024zm12.744-7.872l-2.568 6.504h-.072l-2.664-6.504h-2.4l3.996 9.096-2.28 5.052h2.4l6.084-14.148h-2.496zm-20.16 9.6h2.232V21h-2.232v15z"/>
        <path fill="url(#a)" d="M12.528 9.048a2.4 2.4 0 0 0-.528 1.68v26.544c-.04.612.162 1.216.564 1.68l.084.096L27.48 24.18v-.36L12.612 8.964l-.084.084z"/>
        <path fill="url(#b)" d="M32.4 29.136l-4.92-4.956v-.36l4.92-4.956.108.072 5.892 3.336c1.68.948 1.68 2.508 0 3.468l-5.868 3.336-.132.06z"/>
        <path fill="url(#c)" d="M32.544 29.076L27.48 24 12.528 38.952c.7.623 1.744.658 2.484.084l17.532-9.96"/>
        <path fill="url(#d)" d="M32.544 18.936l-17.532-9.96a1.932 1.932 0 0 0-2.484.072L27.48 24l5.064-5.064z"/>
        <path fill="#000" d="M32.4 28.956l-17.388 9.9c-.71.536-1.69.536-2.4 0l-.084.084.084.096c.71.536 1.69.536 2.4 0l17.532-9.96-.144-.12z" opacity=".2"/>
        <path fill="#000" d="M12.528 38.784A2.4 2.4 0 0 1 12 37.092v.18c-.04.612.162 1.216.564 1.68l.084-.084-.12-.084zM38.4 25.56l-6 3.396.108.12 5.892-3.348A2.1 2.1 0 0 0 39.672 24a2.232 2.232 0 0 1-1.272 1.56z" opacity=".12"/>
        <path fill="#FFF" d="M15.012 9.144L38.4 22.44c.648.288 1.12.867 1.272 1.56a2.1 2.1 0 0 0-1.272-1.728L15.012 8.976C13.344 8.016 12 8.808 12 10.728v.18c0-1.92 1.344-2.712 3.012-1.764z" opacity=".25"/>
        <path fill="#FFF" fill-rule="nonzero" stroke="#FFF" stroke-width=".2" d="M49.536 16.512v-7.2h2.208a3.6 3.6 0 0 1 2.652 1.008 3.504 3.504 0 0 1 .996 2.592 3.6 3.6 0 0 1-.996 2.604 3.6 3.6 0 0 1-2.652.996h-2.208zm.924-.888h1.284a2.496 2.496 0 0 0 2.7-2.712 2.508 2.508 0 0 0-2.7-2.712H50.46v5.424z"/>
        <path fill="#FFF" stroke="#FFF" stroke-width=".2" d="M56.688 16.512v-7.2h.912v7.2zM61.296 16.68a2.712 2.712 0 0 1-1.536-.516 2.4 2.4 0 0 1-.984-1.44l.852-.336c.097.387.31.735.612.996.29.26.666.406 1.056.408a1.68 1.68 0 0 0 1.032-.324c.273-.196.431-.516.42-.852.02-.362-.136-.71-.42-.936a4.404 4.404 0 0 0-1.356-.6 3.732 3.732 0 0 1-1.452-.78 1.668 1.668 0 0 1-.492-1.2 1.764 1.764 0 0 1 .612-1.344 2.568 2.568 0 0 1 3.084-.156c.346.247.606.595.744.996l-.84.36a1.2 1.2 0 0 0-.444-.636 1.608 1.608 0 0 0-1.836 0 .912.912 0 0 0-.372.744.84.84 0 0 0 .348.672c.304.232.65.403 1.02.504.303.094.6.206.888.336.257.108.5.25.72.42.24.166.43.394.552.66.134.29.2.605.192.924.005.325-.069.646-.216.936-.135.264-.333.49-.576.66a3 3 0 0 1-.768.36c-.271.09-.554.138-.84.144z"/>
        <path fill="#FFF" fill-rule="nonzero" stroke="#FFF" stroke-width=".2" d="M66 16.512h-.924v-7.2h2.4c.588-.01 1.156.21 1.584.612.439.388.685.95.672 1.536a1.968 1.968 0 0 1-.672 1.524 2.256 2.256 0 0 1-1.584.612H66v2.916zm0-3.804h1.548a1.2 1.2 0 0 0 .936-.384c.218-.236.342-.543.348-.864a1.2 1.2 0 0 0-.432-.864 1.2 1.2 0 0 0-.936-.396H66v2.508zM76.8 15.6a3.6 3.6 0 0 1-2.64 1.092 3.6 3.6 0 0 1-2.64-1.092 3.708 3.708 0 0 1-1.068-2.676 3.6 3.6 0 0 1 1.068-2.664 3.72 3.72 0 0 1 5.268 0 3.696 3.696 0 0 1 1.068 2.664A3.744 3.744 0 0 1 76.8 15.6zm-4.596-.612a2.736 2.736 0 0 0 3.9 0 2.784 2.784 0 0 0 .804-2.064 2.772 2.772 0 0 0-4.716-2.124 2.784 2.784 0 0 0-.804 2.064c-.043.786.25 1.553.804 2.112l.012.012z"/>
        <path fill="#FFF" stroke="#FFF" stroke-width=".2" d="M79.2 16.512v-7.2h1.128l3.504 5.604V9.312h.924v7.2h-.972l-3.6-5.868v5.868zM86.4 16.512v-7.2h.924v7.2z"/>
        <path fill="#FFF" fill-rule="nonzero" stroke="#FFF" stroke-width=".2" d="M88.92 16.512v-7.2h2.604a2.136 2.136 0 0 1 1.464.564c.4.356.624.869.612 1.404a1.56 1.56 0 0 1-.264.9 1.692 1.692 0 0 1-.708.588c.348.115.653.333.876.624.226.291.344.652.336 1.02a1.92 1.92 0 0 1-.648 1.476c-.421.379-.97.585-1.536.576l-2.736.048zm.924-4.116h1.68c.338.014.663-.133.876-.396a1.068 1.068 0 0 0 0-1.512 1.02 1.02 0 0 0-.804-.336h-1.752v2.244zm0 3.228h1.86c.33.011.646-.125.864-.372a1.2 1.2 0 0 0 .324-.816 1.2 1.2 0 0 0-.336-.804 1.2 1.2 0 0 0-.9-.372h-1.812v2.364z"/>
        <path fill="#FFF" stroke="#FFF" stroke-width=".2" d="M95.088 16.512v-7.2H96V15.6h3.12v.888zM104.496 10.2h-3.276v2.28h2.964v.864h-2.964V15.6h3.276v.888h-4.2v-7.2h4.2zM112.572 10.2h-3.288v2.28h2.964v.864h-2.964V15.6h3.288v.888h-4.212v-7.2h4.212zM114 16.512v-7.2h1.2l3.504 5.604V9.312h.924v7.2h-.972l-3.6-5.868v5.868z"/>
    </g>
</svg>
