<svg xmlns="http://www.w3.org/2000/svg" width="99" height="89" viewBox="0 0 99 89">
    <g fill="none" fill-rule="evenodd">
        <path fill="#E5FCFC" d="M84.581 63.756c.155-.001.303-.004.454-.006-.228.005-.455.011-.677.019a4.14 4.14 0 0 1 .223-.013m.384 11.216c-.23-.006-.432-.064.43-.059.178-.004.38-.03.572-.033.273-.002.543-.012.792-.008 8.622-.129 10.266-2.87 10.24-5.789-.024-2.842-1.623-4.581-9.67-4.651l-.348.004c-.3.002-.583 0-.851-.005-.178.002-.356.004-.527.008l.334-.013c-3.725-.102-4.478-.984-4.49-2.39-.013-1.407 1.34-2.104 2.747-2.464 4.773-.634 5.805-2.272 5.785-4.645-.027-3.028-1.748-5.003-10.731-4.925-1.745.015-3.212.056-4.45.067L30 50.125l4.478 24.797s48.55.135 50.487.05"/>
        <path fill="#3AD5F1" d="M87.458 83.167c2.664 2.322 3.56 2.137 4.21 1.096.651-1.043.537-2.107-2.126-4.43-2.664-2.322-3.56-2.137-4.21-1.096-.651 1.043-.537 2.107 2.126 4.43"/>
        <path fill="#5AD73C" d="M95.166 62.14c-2.362.38-3.388 1.064-3.126 2.917.261 1.854 1.43 2.183 3.793 1.803 2.363-.38 3.389-1.063 3.127-2.917-.261-1.853-1.431-2.184-3.794-1.803"/>
        <path fill="#D2EDEC" d="M82 66c0-1.366-.734-2-2-2s-2 .634-2 2 .734 2 2 2 2-.634 2-2"/>
        <path fill="#E5FCFC" d="M13.318 39.32a54.867 54.867 0 0 0-.676-.02l.453.007c.04 0 .118.005.223.012zM59.975 64L67 25.032l-44.799.037c-1.237-.011-2.704-.051-4.449-.067-8.983-.078-10.704 1.907-10.73 4.952-.021 2.386 1.011 4.032 5.784 4.67 1.407.362 2.76 1.063 2.747 2.477-.012 1.414-.765 2.3-4.49 2.402.11.005.22.01.334.013l-.527-.007c-.269.005-.551.006-.85.004-.12-.001-.234-.004-.348-.006-8.048.07-9.647 1.816-9.672 4.674-.025 2.935 1.587 4.725 10.21 4.854a32.847 32.847 0 0 1 1.364.007c.861-.006.66.005.43.012 3.742.164 4.483 1.058 4.47 2.475-.012 1.42-.772 2.297-4.544 2.392.342.016-8.597-.234-8.68 4.624-.05 2.98 1.663 4.674 10.647 4.753L59.975 64z"/>
        <path fill="#FF7C9A" d="M14.542 1.833c-2.664-2.322-3.56-2.137-4.21-1.096-.651 1.043-.537 2.107 2.126 4.43 2.664 2.322 3.56 2.137 4.21 1.096.651-1.043.537-2.107-2.126-4.43"/>
        <path fill="#5AD73C" d="M6.834 24.86c2.362-.38 3.388-1.064 3.126-2.917C9.7 20.09 8.53 19.76 6.167 20.14c-2.363.38-3.389 1.063-3.127 2.917.261 1.853 1.431 2.184 3.794 1.803"/>
        <path fill="#D2EDEC" d="M21 20c0 1.366.734 2 2 2s2-.634 2-2-.734-2-2-2-2 .634-2 2"/>
        <path fill="#7ADFF0" d="M68.304 70.143H33.043c-1.918 0-3.508-1.009-3.594-2.917-.243-5.322-.244-11.878-.244-20.407 0-19.021 0-29.377 2.652-33.97 2.381-4.129 7.487-4.067 18.672-4.067 11.186 0 16.291.03 18.673 4.158 2.653 4.593 2.653 15.087 2.653 34.108 0 8.686-.003 15.096-.257 20.46-.083 1.748-1.537 2.635-3.294 2.635M50.53 5.39c-24.792 0-24.792 1.566-24.792 41.673 0 39.997 0 41.558 24.792 41.558 24.794 0 24.794-1.561 24.794-41.558 0-40.107 0-41.673-24.794-41.673"/>
        <path fill="#F4FCFE" d="M50.53 8.811c-11.186 0-16.291-.031-18.673 4.097-2.652 4.593-2.652 15.01-2.652 34.03 0 8.53.001 14.966.244 20.288.085 1.908 1.675 2.917 3.594 2.917h35.261c1.758 0 3.21-.883 3.293-2.63.256-5.365.257-11.89.257-20.577 0-19.02 0-29.447-2.652-34.04C66.821 8.767 61.715 8.81 50.53 8.81"/>
        <path fill="#FFF" d="M45.638 80.02c0-3.454 1.854-5.059 5.057-5.059 3.204 0 5.058 1.605 5.058 5.059s-1.854 5.058-5.058 5.058c-3.203 0-5.057-1.604-5.057-5.058"/>
        <path fill="#60CDDD" d="M47.946 80.02c0-1.878 1.008-2.75 2.749-2.75 1.742 0 2.75.872 2.75 2.75 0 1.878-1.008 2.75-2.75 2.75-1.74 0-2.75-.872-2.75-2.75"/>
        <g>
            <path fill="#DFF6FB" fill-opacity=".8" d="M77.73 38.7c0-15.043-12.252-27.238-27.365-27.238C35.252 11.462 23 23.657 23 38.7c0 15.044 12.252 27.24 27.365 27.24 15.113 0 27.364-12.196 27.364-27.24"/>
            <path fill="#F4FCFE" fill-opacity=".8" d="M68.636 38.7c0-10.047-8.18-18.192-18.271-18.192-10.091 0-18.272 8.145-18.272 18.192 0 10.048 8.18 18.193 18.272 18.193 10.09 0 18.271-8.145 18.271-18.193"/>
            <path fill="#FFDD67" d="M63.039 39.097c0 6.7-5.457 12.128-12.19 12.128-6.735 0-12.192-5.429-12.192-12.128S44.114 26.97 50.848 26.97c6.734 0 12.19 5.43 12.19 12.128"/>
            <path fill="#664E27" d="M57.756 41.543c0-.325-.192-.73-.74-.835-1.408-.269-3.488-.543-6.168-.543s-4.76.275-6.168.543c-.549.104-.74.51-.74.835 0 2.94 2.28 5.899 6.907 5.899 4.629 0 6.91-2.96 6.91-5.9M49.436 37.017c-.755-2.066-1.893-3.1-3.032-3.1-1.138 0-2.276 1.034-3.032 3.1-.074.209.315.583.51.38.732-.77 1.608-1.075 2.522-1.075.915 0 1.79.306 2.523 1.075.194.203.583-.172.509-.38M58.323 37.017c-.755-2.066-1.893-3.1-3.032-3.1-1.138 0-2.276 1.034-3.032 3.1-.075.209.315.583.51.38.732-.77 1.608-1.075 2.522-1.075.915 0 1.79.306 2.523 1.075.194.203.584-.172.51-.38"/>
            <path fill="#FFF" d="M56.005 41.637c-.892-.149-2.778-.41-5.157-.41s-4.266.261-5.157.41c-.526.088-.558.3-.522.601.022.179.056.394.108.628.057.259.106.378.514.33.78-.093 9.334-.093 10.114 0 .408.048.456-.072.514-.33.052-.234.086-.449.108-.628.036-.3.004-.513-.522-.6"/>
            <path fill="#FFDD67" d="M63.039 39.097c0 6.7-5.457 12.128-12.19 12.128-6.735 0-12.192-5.429-12.192-12.128S44.114 26.97 50.848 26.97c6.734 0 12.19 5.43 12.19 12.128"/>
            <path fill="#664E27" d="M57.756 41.543c0-.325-.192-.73-.74-.835-1.408-.269-3.488-.543-6.168-.543s-4.76.275-6.168.543c-.549.104-.74.51-.74.835 0 2.94 2.28 5.899 6.907 5.899 4.629 0 6.91-2.96 6.91-5.9M49.436 37.017c-.755-2.066-1.893-3.1-3.032-3.1-1.138 0-2.276 1.034-3.032 3.1-.074.209.315.583.51.38.732-.77 1.608-1.075 2.522-1.075.915 0 1.79.306 2.523 1.075.194.203.583-.172.509-.38M58.323 37.017c-.755-2.066-1.893-3.1-3.032-3.1-1.138 0-2.276 1.034-3.032 3.1-.075.209.315.583.51.38.732-.77 1.608-1.075 2.522-1.075.915 0 1.79.306 2.523 1.075.194.203.584-.172.51-.38"/>
            <path fill="#FFF" d="M56.005 41.637c-.892-.149-2.778-.41-5.157-.41s-4.266.261-5.157.41c-.526.088-.558.3-.522.601.022.179.056.394.108.628.057.259.103.33.514.33h10.114c.41 0 .456-.072.514-.33.052-.234.086-.449.108-.628.036-.3.004-.513-.522-.6"/>
        </g>
    </g>
</svg>
