<svg xmlns="http://www.w3.org/2000/svg" width="107" height="100" viewBox="0 0 107 100">
    <g fill="none" fill-rule="evenodd">
        <path fill="#E7EFF5" d="M107 95c0 2.761-21.49 5-48 5s-48-2.239-48-5 21.49-5 48-5 48 2.239 48 5"/>
        <path fill="#E7EFF5" d="M33 91.5c0 .828-6.94 1.5-15.5 1.5C8.94 93 2 92.328 2 91.5S8.94 90 17.5 90c8.56 0 15.5.672 15.5 1.5"/>
        <path fill="#EEE" d="M34.41 70.008c.535 1.648-.34 3.41-1.955 3.935l-20.22 6.57c-1.4.454-2.91-.335-3.375-1.764L1.053 54.72a5.383 5.383 0 0 1 .207-3.876L5.386 43.4c1.262-2.079 1.569-2.179 3.805-2.906l11.103-3.607c1.676-.544 3.484.4 4.04 2.11l10.076 31.01z"/>
        <path fill="#B6B7B7" d="M17.472 46.215c.9-.303 1.27-.93.942-1.9-.327-.97-1-1.246-1.9-.942-.9.303-1.27.93-.942 1.9.327.97 1 1.246 1.9.942zM9.864 48.687c.9-.303 1.269-.93.942-1.9-.328-.97-1.001-1.246-1.901-.942-.9.303-1.27.93-.942 1.9.328.97 1.001 1.246 1.9.942z"/>
        <path fill="#DDD" d="M8.59 57.545a2.325 2.325 0 0 0-1.497 2.928l4.437 13.654a2.325 2.325 0 0 0 2.93 1.488l13.643-4.432a2.325 2.325 0 0 0 1.497-2.928l-4.437-13.654a2.325 2.325 0 0 0-2.931-1.488L8.589 57.545z"/>
        <path fill="#B6B7B7" d="M21.54 65.406l.347 1.07-5.421 1.762-.348-1.07c-.13-.402-.512-.684-.93-.841-.567-.213-1.26-.108-1.78.266L9.9 69.113l.388 1.196 3.746-2.7a.766.766 0 0 1 .714-.12c.063.024.07.071.078.098l2.325 7.154 1.29-.42-1.617-4.977 5.421-1.761 1.618 4.977 1.29-.42-2.324-7.153c-.01-.027-.066-.058-.029-.114a.774.774 0 0 1 .651-.325l4.75-.039c.037 0-.09.048.17-.032l-.385-1.184-4.56.044c-.641.004-1.342.351-1.675.857-.246.373-.343.81-.213 1.212zM19.288 59.516c.08.248-.004.612-.312.712l-4.507 1.464-2.075-6.387-1.315.428 2.631 8.098a.14.14 0 0 1-.018.13.802.802 0 0 1-.666.33l-4.681.035.391 1.204 4.352-.034c.652-.007 1.339-.35 1.68-.86.252-.377.388-.829.257-1.232l-.195-.6 4.507-1.465c.918-.298 1.292-1.276 1.003-2.165l-1.896-5.835-1.052.342 1.896 5.835z"/>
        <path fill="#DDD" d="M22.383 61.94l3.981-4.151-.373-1.148-4.453 4.648c-.213.225-.261.574-.028.754.234.18.66.122.873-.103z"/>
        <path stroke="#B6B7B7" stroke-linecap="round" stroke-linejoin="round" d="M8.064 54.53c-.384-3.234 12.474-6.195 13.265-4.482"/>
        <g>
            <path fill="#B2E5F5" d="M80.833 80.28c-.586 3.326-3.823 5.536-7.23 4.935l-42.65-7.52c-2.952-.52-4.934-3.28-4.426-6.163l8.55-48.485a10.238 10.238 0 0 1 4.023-6.46l14.45-8.94c4.234-2.394 4.882-2.28 9.6-1.448l23.42 4.13c3.534.623 5.905 3.926 5.297 7.377L80.833 80.28z"/>
            <path fill="#00A9E0" d="M66.438 19.402a8.99 8.99 0 0 0-1.1 3.547 14.392 14.392 0 0 0 .04 3.142c.031.228.107.477.174.636.192.457.689.564.922.516.254-.052.585-.254.657-.898.035-.31.022-.783.014-1.046-.024-.806-.082-1.786.063-2.434.195-.867.558-.89.792-.88.394.016.594.515.751 1.113.187.715.498 1.976.767 2.948.243.877.848 1.909 2.184 2.207 1.362.304 2.494.048 3.446-1.459.713-1.127 1.22-1.976 1.892-2.805.772-.953 1.571-1.36 2.066-1.038.46.3.451.833.26 1.57-.169.651-.435 1.348-.633 1.86-.072.185-.213.559-.255.777-.082.427-.015.894.431 1.086.477.204.982-.092 1.27-.535.115-.175.246-.454.331-.654.427-1.012.654-1.708.876-2.8.26-1.278.326-2.489.169-3.594-.15-1.057-.636-1.839-1.454-2.116-.905-.306-2.129.032-3.006 1.088-.809.974-1.523 2.005-1.927 2.52-.41.523-.877.788-1.462.696-.715-.112-1.177-.785-1.42-1.633-.211-.74-.644-2.157-.94-2.673-.279-.485-.586-1.081-1.495-1.31-.72-.18-2.138-.175-3.413 2.169z"/>
            <path fill="#DDD" d="M46.458 32.853a4.772 4.772 0 0 0-5.533 3.864l-5.117 29.021a4.772 4.772 0 0 0 3.878 5.523l28.997 5.113a4.772 4.772 0 0 0 5.532-3.864l5.118-29.021a4.772 4.772 0 0 0-3.878-5.523l-28.997-5.113z"/>
            <path fill="#B6B7B7" d="M62.138 60.792l-.369 2.094-11.522-2.032.369-2.094c.138-.785-.292-1.602-.906-2.245-.833-.871-2.195-1.33-3.492-1.185l-8.747.977-.413 2.338 9.353-1.057c.651-.072 1.146.178 1.411.456.092.096.06.18.05.233l-2.467 13.992 2.744.484 1.716-9.736 11.523 2.032-1.717 9.736 2.743.483 2.467-13.992c.01-.053-.064-.156.055-.215.344-.17.902-.235 1.49.056l8.686 4.275c.068.034-.207-.001.34.103l.409-2.317-8.348-4.093c-1.17-.58-2.772-.644-3.852-.11-.798.394-1.384 1.032-1.523 1.817zM63.1 47.936c-.085.489-.57 1.021-1.21.908L52.559 47.2l2.216-12.566-2.724-.48-2.81 15.933a.26.26 0 0 1-.152.2c-.342.172-.9.24-1.483-.053l-8.324-4.194-.418 2.37 7.74 3.895c1.16.582 2.694.63 3.769.088.794-.4 1.452-1.032 1.592-1.826l.208-1.181 9.333 1.645c1.901.335 3.466-.959 3.775-2.71l2.024-11.478-2.18-.384-2.023 11.478z"/>
            <path fill="#DDD" d="M67.012 54.85l11.045-4.26.472-2.675-12.36 4.777c-.594.233-1.021.883-.788 1.48.233.596 1.035.912 1.63.679z"/>
            <g>
                <path fill="#3AD5F1" d="M18.826 24.256c.26.884.938 1.307 3.703.74 2.764-.567 3.133-1.204 2.874-2.088-.259-.884-.938-1.306-3.702-.74-2.764.567-3.133 1.204-2.875 2.088z"/>
                <path fill="#FF7C9A" d="M35.79 5.672c1.28-.37 1.249-1.333.432-3.188C35.405.628 34.676-.133 33.397.237c-1.278.37-1.248 1.334-.43 3.189.816 1.855 1.545 2.616 2.824 2.246z"/>
                <path fill="#5AD73C" d="M22.888 11.827c1.717.814 3.118.425 3.996-1.426.877-1.85.29-3.181-1.427-3.996-1.716-.813-3.118-.424-3.995 1.427-.876 1.85-.29 3.182 1.426 3.995z"/>
                <path fill="#94E37A" d="M20.1 3.84c.859.406 1.56.211 1.998-.714.439-.926.145-1.591-.714-1.998-.858-.407-1.558-.212-1.997.713-.439.926-.146 1.591.713 1.998z"/>
            </g>
        </g>
    </g>
</svg>
