<svg xmlns="http://www.w3.org/2000/svg" xmlns:xlink="http://www.w3.org/1999/xlink" width="195" height="113" viewBox="0 0 195 113">
    <defs>
        <path id="a" d="M12 1h208v128H12z"/>
        <path id="c" d="M64.628 96.425H11.092c-2.912 0-5.325-1.842-5.457-4.664-.367-7.866-.369-17.731-.369-30.343 0-28.118 0-43.515 4.024-50.306C12.908 5.01 20.66 5.056 37.642 5.056c16.982 0 24.733.024 28.35 6.126 4.026 6.791 4.026 22.293 4.026 50.41 0 12.842-.001 22.664-.39 30.594-.125 2.583-2.333 4.24-5 4.24M37.642 0C0 0 0 2.315 0 61.604c0 59.128 0 61.437 37.642 61.437 37.641 0 37.641-2.309 37.641-61.437 0-59.29 0-61.604-37.641-61.604"/>
        <path id="e" d="M0 .135h134.292v134.863H0z"/>
        <path id="g" d="M0 .135h134.292v134.863H0z"/>
    </defs>
    <g fill="none" fill-rule="evenodd" transform="translate(-17 -16)">
        <mask id="b" fill="#fff">
            <use xlink:href="#a"/>
        </mask>
        <g mask="url(#b)">
            <path fill="#496D73" d="M136 77.235c0 15.52 0 27.102.7 35.743l74.594.071C212 104.4 212 92.797 212 77.235 212 18.3 212 16 174 16s-38 2.3-38 61.235z"/>
            <path fill="#FFF" d="M144.918 118.913s-7.09-9.535-6.777-11.755c.311-2.218 1.56-72.117 1.56-72.117l9.054-9.13 46.838-1.41 11.181 6.657 3.805 52.979s-1.46 32.962-3.96 34.522c-2.496 1.56-61.7.254-61.7.254"/>
            <path fill="#5BC500" d="M161.626 62.524c-1.975-.003-5.636.9-7.419 7.616-.776 2.927-1.11 5.985-.554 9.643.514 3.373 1.477 6.294 2.133 7.905.226.556.58 1.137.857 1.496.793 1.031 2.144.99 2.716.722.624-.29 1.348-1.008 1.12-2.678-.11-.807-.448-1.99-.638-2.648-.585-2.019-1.367-4.456-1.409-6.183-.056-2.31.867-2.596 1.479-2.719 1.028-.205 1.867.926 2.659 2.339.944 1.686 2.561 4.674 3.883 6.957 1.193 2.061 3.423 4.284 7.068 4.198 3.716-.088 6.478-1.446 7.965-5.847 1.113-3.293 1.875-5.755 3.077-8.268 1.382-2.89 3.184-4.419 4.67-3.917 1.38.467 1.703 1.818 1.686 3.797-.016 1.75-.254 3.677-.437 5.092-.067.513-.19 1.545-.157 2.121.064 1.131.537 2.267 1.816 2.47 1.362.216 2.476-.847 2.937-2.148.18-.514.342-1.3.431-1.859.451-2.821.589-4.72.458-7.617-.152-3.388-.765-6.485-1.883-9.175-1.07-2.574-2.83-4.242-5.122-4.426-2.537-.204-5.48 1.417-7.067 4.635-1.461 2.965-2.643 6.016-3.354 7.57-.722 1.577-1.758 2.539-3.328 2.675-1.92.167-3.548-1.242-4.722-3.232-1.025-1.734-3.058-5.037-4.156-6.154-1.033-1.05-2.21-2.36-4.709-2.365"/>
            <path fill="#00B3E5" d="M141.043 34.699s-.027 1.097-.071 3.97h66.766v-7.932l-11.069-6.945-46.64 1.426-8.986 9.48z"/>
            <path fill="#496D73" d="M201.243 117.556h-54.046c-2.94 0-5.375-1.846-5.508-4.673-.371-7.88-.373-17.763-.373-30.397 0-28.168 0-43.592 4.063-50.395 3.652-6.114 11.477-6.067 28.621-6.067s24.97.023 28.62 6.137c4.065 6.803 4.065 22.332 4.065 50.5 0 12.864-.001 22.703-.393 30.647-.127 2.588-2.356 4.248-5.049 4.248M174 20.959c-38 0-38 2.318-38 61.713 0 59.233 0 61.546 38 61.546s38-2.313 38-61.546c0-59.395 0-61.713-38-61.713"/>
            <path fill="#FFF" d="M167.252 130.405c0-5.08 2.865-7.438 7.813-7.438 4.948 0 7.814 2.358 7.814 7.438 0 5.079-2.866 7.438-7.814 7.438s-7.813-2.36-7.813-7.438"/>
            <path fill="#6A999D" d="M171.514 130.405c0-2.659 1.432-3.897 3.907-3.897 2.474 0 3.906 1.238 3.906 3.897 0 2.66-1.432 3.896-3.906 3.896-2.475 0-3.907-1.237-3.907-3.896"/>
            <path fill="#E9EAE9" fill-opacity=".2" d="M146.366 32.07c-3.973 6.729-3.973 21.983-3.973 49.84 0 12.493.001 22.267.365 30.06.128 2.797 2.51 4.621 5.384 4.621h9.14l44.774-86.645c-3.928-4.656-12.42-4.737-27.778-4.737-20.452 0-24.344.816-27.912 6.862z"/>
            <g transform="translate(136 20.959)">
                <mask id="d" fill="#fff">
                    <use xlink:href="#c"/>
                </mask>
                <use fill="#3E6063" xlink:href="#c"/>
                <path d="M2.947 128.184l-15.928-96.821L.967-11.125l73.115 4.627z" mask="url(#d)"/>
            </g>
            <path fill="#FFF" d="M168.673 130.072c0-4.368 2.433-6.397 6.637-6.397s6.637 2.03 6.637 6.397c0 4.368-2.433 6.397-6.637 6.397s-6.637-2.03-6.637-6.397"/>
            <path fill="#6A999D" d="M171.701 130.072c0-2.375 1.324-3.479 3.61-3.479 2.284 0 3.608 1.104 3.608 3.48 0 2.374-1.324 3.478-3.608 3.478-2.286 0-3.61-1.104-3.61-3.479"/>
            <g>
                <g transform="rotate(16 17.235 138.263)">
                    <mask id="f" fill="#fff">
                        <use xlink:href="#e"/>
                    </mask>
                    <path fill="#FFDD67" d="M134.292 67.566c0 37.245-30.056 67.432-67.143 67.432-37.09 0-67.15-30.187-67.15-67.432C0 30.32 30.06.135 67.15.135c37.087 0 67.143 30.185 67.143 67.431" mask="url(#f)"/>
                </g>
                <path fill="#664E27" d="M117.346 107.906c.496-1.728.094-4.181-2.64-5.569-7.035-3.559-17.618-8.175-31.79-12.239h-.003C68.74 86.032 57.321 84.34 49.471 83.63c-3.062-.274-4.697 1.596-5.192 3.323-4.486 15.644 3.057 34.853 27.53 41.87h.001c24.475 7.019 41.05-5.274 45.536-20.918M80.29 70.75c-.847-12.265-5.33-19.565-11.408-21.308-6.077-1.742-13.748 2.075-20.966 12.025-.72 1.007.78 3.618 2.136 2.822 5.095-3.013 10.243-3.317 15.123-1.918 4.881 1.4 9.086 4.386 11.81 9.64.722 1.393 3.382-.028 3.305-1.26M127.446 84.122c-.847-12.265-5.33-19.565-11.409-21.308-6.077-1.742-13.747 2.075-20.965 12.025-.721 1.006.78 3.618 2.135 2.821 5.096-3.012 10.242-3.317 15.123-1.917 4.883 1.4 9.085 4.385 11.811 9.64.722 1.393 3.382-.028 3.305-1.26"/>
                <path fill="#FFF" d="M107.984 105.82c-4.5-2.123-14.099-6.326-26.687-9.936-12.586-3.609-22.955-5.127-27.897-5.714-2.911-.346-3.396.7-3.645 2.303a35.086 35.086 0 0 0-.358 3.396c-.075 1.42.006 2.11 2.236 2.48 4.266.707 49.526 13.686 53.52 15.345 2.088.868 2.521.325 3.21-.917a33.706 33.706 0 0 0 1.493-3.07c.635-1.495.782-2.638-1.872-3.887"/>
                <g transform="rotate(16 17.235 138.263)">
                    <mask id="h" fill="#fff">
                        <use xlink:href="#g"/>
                    </mask>
                    <path fill="#FFDD67" d="M134.292 67.566c0 37.245-30.056 67.432-67.143 67.432-37.09 0-67.15-30.187-67.15-67.432C0 30.32 30.06.135 67.15.135c37.087 0 67.143 30.185 67.143 67.431" mask="url(#h)"/>
                </g>
                <path fill="#664E27" d="M117.346 107.906c.496-1.728.094-4.181-2.64-5.569-7.035-3.559-17.618-8.175-31.79-12.239h-.003C68.74 86.032 57.321 84.34 49.471 83.63c-3.062-.274-4.697 1.596-5.192 3.323-4.486 15.644 3.057 34.853 27.53 41.87h.001c24.475 7.019 41.05-5.274 45.536-20.918M80.29 70.75c-.847-12.265-5.33-19.565-11.408-21.308-6.077-1.742-13.748 2.075-20.966 12.025-.72 1.007.78 3.618 2.136 2.822 5.095-3.013 10.243-3.317 15.123-1.918 4.881 1.4 9.086 4.386 11.81 9.64.722 1.393 3.382-.028 3.305-1.26M127.446 84.122c-.847-12.265-5.33-19.565-11.409-21.308-6.077-1.742-13.747 2.075-20.965 12.025-.721 1.006.78 3.618 2.135 2.821 5.096-3.012 10.242-3.317 15.123-1.917 4.883 1.4 9.085 4.385 11.811 9.64.722 1.393 3.382-.028 3.305-1.26"/>
                <path fill="#FFF" d="M107.981 105.125c-4.498-2.127-14.095-6.338-26.683-9.947-12.586-3.61-22.958-5.12-27.9-5.703-2.912-.344-3.399.708-3.65 2.32-.15.957-.29 2.126-.364 3.413-.076 1.427.06 1.865 2.234 2.488l53.52 15.347c2.173.623 2.522.322 3.212-.927.62-1.13 1.12-2.193 1.5-3.088.636-1.503.785-2.651-1.869-3.903"/>
            </g>
        </g>
    </g>
</svg>
