<svg xmlns="http://www.w3.org/2000/svg" width="117" height="88" viewBox="0 0 117 88">
    <g fill="none" fill-rule="evenodd">
        <path fill="#499E00" d="M83.571 8.16c-1.82 3.925-1.877 6.113 1.014 7.447 2.892 1.335 4.528-.125 6.35-4.05 1.82-3.925 1.876-6.114-1.014-7.448-2.892-1.334-4.528.125-6.35 4.05"/>
        <path fill="#5BC500" d="M15.494 25c-2.41.028-3.517 1.327-3.494 3.55.026 2.22 1.161 3.493 3.574 3.466 2.412-.025 3.519-1.325 3.494-3.547-.026-2.222-1.162-3.496-3.574-3.469"/>
        <path fill="#FF374A" d="M34.174 8.04C30.732 1.864 28.85 1.376 26.8 2.51c-2.05 1.137-2.628 2.99.814 9.165 3.442 6.176 5.322 6.664 7.373 5.527 2.05-1.135 2.628-2.988-.814-9.163"/>
        <path fill="#00A9E0" d="M13.085 51.384l-6.359 1.183C3.19 52.751.191 50.332.027 47.168-.137 44.002.353 40.182 3.891 40l8.507.783c3.538-.182 6.538 2.235 6.702 5.402.164 3.163-2.478 5.017-6.015 5.2M108.03 45.923l2.948-.319c1.633-.039 2.975.678 2.998 1.599.025.924-.264 2.034-1.896 2.072l-3.906-.263c-1.633.04-2.976-.678-3-1.6-.023-.922 1.224-1.45 2.856-1.489"/>
        <path fill="#5BC500" d="M54.852 6.238l-.224-2.957c.014-1.632.774-2.947 1.696-2.939.924.008 2.025.334 2.01 1.965l-.388 3.894c-.015 1.632-.774 2.948-1.696 2.94-.925-.008-1.413-1.273-1.398-2.903"/>
        <path fill="#FFC55F" d="M113.388 26.443a1.008 1.008 0 0 0-.392.767l-.094 2.856a1.011 1.011 0 0 1-1.58.802l-2.363-1.609a1.014 1.014 0 0 0-.85-.135l-2.746.793a1.012 1.012 0 0 1-1.252-1.256l.801-2.743c.084-.29.035-.602-.134-.85l-1.603-2.367a1.012 1.012 0 0 1 .807-1.579l2.856-.087c.302-.008.583-.152.77-.389l1.754-2.256a1.012 1.012 0 0 1 1.751.28l.965 2.69c.101.284.324.507.608.61l2.687.972c.75.272.906 1.264.275 1.752l-2.26 1.75z"/>
        <path fill="#5BC500" d="M59.5 23C79.45 23 91 32.994 91 54.5S79.45 86 59.5 86 28 76.006 28 54.5 39.55 23 59.5 23zM48.433 70.792c1.422 1.601 3.957 1.612 5.393.023l25.272-27.97a3.466 3.466 0 0 0-.308-4.962c-1.483-1.287-3.75-1.151-5.064.302L51.212 63.212l-7.918-8.916c-1.3-1.465-3.567-1.619-5.061-.344a3.466 3.466 0 0 0-.352 4.96l10.552 11.88z"/>
        <path fill="#FFDD67" d="M107.547 77.271c-2.048 7.643-9.9 12.177-17.543 10.129-7.642-2.048-12.176-9.901-10.128-17.543 2.047-7.643 9.901-12.177 17.543-10.129 7.642 2.048 12.176 9.9 10.128 17.543"/>
        <path fill="#664E27" d="M100.805 78.455c.099-.37.004-.892-.585-1.178-1.516-.734-3.793-1.68-6.835-2.495-3.042-.815-5.487-1.134-7.166-1.257-.654-.047-.996.358-1.096.728-.898 3.353.785 7.423 6.037 8.83 5.253 1.408 8.746-1.275 9.645-4.628M92.745 70.762c-.226-2.587-1.201-4.113-2.493-4.46-1.292-.345-2.9.488-4.389 2.616-.148.215.18.76.463.588 1.066-.655 2.153-.738 3.19-.46 1.038.278 1.938.894 2.535 1.994.158.291.715-.018.694-.278M102.831 73.464c-.225-2.587-1.2-4.112-2.493-4.459-1.292-.346-2.9.488-4.389 2.615-.149.215.179.761.462.588 1.067-.654 2.154-.737 3.192-.46 1.038.279 1.938.895 2.534 1.994.158.292.715-.018.694-.278"/>
        <path fill="#FFF" d="M98.788 78.03a37.425 37.425 0 0 0-5.728-2.036c-2.699-.723-4.92-1-5.978-1.1-.624-.06-.725.173-.776.527-.03.21-.057.466-.069.748-.014.313.005.465.483.533.914.132 10.62 2.733 11.478 3.075.449.18.54.058.685-.22.13-.25.234-.485.314-.682.132-.333.16-.585-.41-.845"/>
        <path fill="#FFDD67" d="M107.547 77.271c-2.048 7.643-9.9 12.177-17.543 10.129-7.642-2.048-12.176-9.901-10.128-17.543 2.047-7.643 9.901-12.177 17.543-10.129 7.642 2.048 12.176 9.9 10.128 17.543"/>
        <path fill="#664E27" d="M100.805 78.455c.099-.37.004-.892-.585-1.178-1.516-.734-3.793-1.68-6.835-2.495-3.042-.815-5.487-1.134-7.166-1.257-.654-.047-.996.358-1.096.728-.898 3.353.785 7.423 6.037 8.83 5.253 1.408 8.746-1.275 9.645-4.628M92.745 70.762c-.226-2.587-1.201-4.113-2.493-4.46-1.292-.345-2.9.488-4.389 2.616-.148.215.18.76.463.588 1.066-.655 2.153-.738 3.19-.46 1.038.278 1.938.894 2.535 1.994.158.291.715-.018.694-.278M102.831 73.464c-.225-2.587-1.2-4.112-2.493-4.459-1.292-.346-2.9.488-4.389 2.615-.149.215.179.761.462.588 1.067-.654 2.154-.737 3.192-.46 1.038.279 1.938.895 2.534 1.994.158.292.715-.018.694-.278"/>
        <path fill="#FFF" d="M98.788 78.03a37.425 37.425 0 0 0-5.728-2.036c-2.699-.723-4.92-1-5.978-1.1-.624-.06-.725.173-.776.527-.03.21-.057.466-.069.748-.014.313.017.408.483.533l11.478 3.075c.466.125.54.058.685-.22.13-.25.234-.485.314-.682.132-.333.16-.585-.41-.845"/>
    </g>
</svg>
