<svg xmlns="http://www.w3.org/2000/svg" width="191" height="113" viewBox="0 0 191 113">
    <g fill="none" fill-rule="evenodd">
        <path fill="#E5FCFC" d="M166.068 100.266c.081 0 .158-.002.236-.003l-.35.01a2.12 2.12 0 0 1 .114-.007"/>
        <path fill="#E5FCFC" d="M166.141 110.25c-.217-.007-.408-.062.406-.057.169-.004.36-.03.54-.031.26-.002.514-.012.749-.008 8.147-.122 9.7-2.724 9.676-5.493-.023-2.698-1.534-4.348-9.138-4.414l-.328.004c-.283.002-.55 0-.804-.005l-.498.007.315-.012c-3.519-.097-4.23-.934-4.242-2.268-.012-1.335 1.266-1.996 2.596-2.338 4.51-.602 5.485-2.156 5.465-4.408-.025-2.873-1.651-4.747-10.138-4.673-1.65.014-3.036.052-4.204.063l-42.328.054 4.23 23.53s45.873.128 47.703.048M11.56 100.273a29.223 29.223 0 0 0-.351-.01c.078.001.154.003.235.003.02 0 .06.003.115.007"/>
        <path fill="#E5FCFC" d="M59.073 110.201l4.231-23.53-42.328-.054c-1.168-.01-2.554-.049-4.203-.063-8.488-.074-10.114 1.8-10.139 4.673-.02 2.252.956 3.806 5.465 4.408 1.33.342 2.608 1.003 2.596 2.338-.012 1.334-.723 2.171-4.242 2.268l.315.012-.497-.007c-.255.005-.521.007-.804.005l-.329-.004c-7.604.066-9.114 1.716-9.138 4.414-.024 2.77 1.529 5.371 9.676 5.493.235-.004.49.006.749.008.18.002.371.027.54.031.814-.005.623.05.406.056 1.83.08 47.702-.048 47.702-.048"/>
        <path fill="#E7EFF5" d="M92.264 108.857c-1.71 0-3.418.002-5.107.005-1.652-.003-3.316-.005-5.026-.005-41.367 0-74.847-.937-74.847 1.94 0 3.122 33.452 1.938 74.82 1.938 1.71 0 3.385-.002 5.045-.004 1.69.002 3.397.004 5.108.004 41.368 0 74.924 1.184 74.924-1.939 0-2.876-33.55-1.939-74.917-1.939"/>
        <path fill="#E5FCFC" d="M31.06 57.108a29.225 29.225 0 0 0-.351-.01c.078.001.154.003.235.003.02 0 .06.003.115.007z"/>
        <path fill="#7ADFF0" d="M33.817 100.361H14.643c-1.042 0-1.907-.55-1.954-1.594-.132-2.909-.132-6.492-.132-11.154 0-10.397 0-16.057 1.442-18.568 1.295-2.256 4.07-2.223 10.153-2.223 6.082 0 8.858.017 10.153 2.273 1.443 2.51 1.443 8.247 1.443 18.643 0 4.748-.002 8.251-.14 11.183-.045.956-.836 1.44-1.791 1.44"/>
        <path fill="#7ADFF0" d="M24.152 64.968c-13.48 0-13.48.856-13.48 22.778 0 21.862 0 22.716 13.48 22.716 13.481 0 13.481-.854 13.481-22.716 0-21.922 0-22.778-13.481-22.778"/>
        <path fill="#F4FCFE" d="M24.152 66.838c-6.082 0-8.858-.017-10.153 2.24-1.442 2.51-1.442 8.204-1.442 18.6 0 4.662 0 8.18.132 11.089.047 1.043.911 1.595 1.955 1.595h19.173c.955 0 1.745-.483 1.79-1.438.14-2.932.14-6.5.14-11.247 0-10.396 0-16.095-1.442-18.606-1.295-2.256-4.071-2.233-10.153-2.233"/>
        <path fill="#FFF" d="M21.492 105.76c0-1.888 1.008-2.765 2.75-2.765s2.75.877 2.75 2.765c0 1.888-1.008 2.765-2.75 2.765s-2.75-.877-2.75-2.765"/>
        <path fill="#60CDDD" d="M22.747 105.76c0-1.026.548-1.503 1.495-1.503.947 0 1.495.477 1.495 1.503 0 1.027-.548 1.504-1.495 1.504-.947 0-1.495-.477-1.495-1.504"/>
        <path fill="#C7F0F9" d="M14.026 69.036c-.009.014-.02.027-.028.041-1.441 2.511-1.441 8.204-1.441 18.6 0 4.663 0 8.18.132 11.09.047 1.043.911 1.594 1.955 1.594h19.173c.82 0 1.513-.322 1.724-1.053L14.026 69.036z"/>
        <path fill="#E5FCFC" d="M175.728 57.101c.081 0 .158-.002.236-.003l-.35.01a2.12 2.12 0 0 1 .114-.007z"/>
        <path fill="#E5FCFC" d="M174.042 79.533c8.488-.074 10.106-1.673 10.059-4.485-.077-4.586-8.523-4.35-8.2-4.365-3.564-.09-4.282-.917-4.294-2.258-.012-1.337.688-2.181 4.224-2.336-.217-.006-.408-.017.406-.011a34.683 34.683 0 0 1 1.289-.006c8.147-.122 9.67-1.812 9.646-4.582-.023-2.697-1.534-4.345-9.138-4.411l-.328.005c-.283.002-.55 0-.804-.004l-.498.007c.108-.003.213-.007.315-.012-3.518-.096-4.23-.933-4.242-2.267-.012-1.335 1.266-1.996 2.596-2.338 4.51-.602 5.485-2.156 5.465-4.408-.025-2.873-1.651-4.748-10.138-4.674-1.65.015-3.036.053-4.204.063l-42.328-.034 6.637 36.779 43.537-.663z"/>
        <path fill="#7ADFF0" d="M143.092 106.482H57.396c-5.095 0-9.225 1.77-9.225-3.33V45.713c0-5.1 4.13-9.233 9.225-9.233h85.696c5.095 0 9.226 4.134 9.226 9.233v57.439c0 5.1-4.13 3.33-9.226 3.33"/>
        <path fill="#C7F0F9" d="M142.262 105.616l-84.036-.656c-2.014 0-3.647-.353-3.647-2.407V48.068c0-3.384 2.69-6.127 6.009-6.127h79.18c3.392 0 6.142 2.804 6.142 6.263v54.349c0 2.054-1.634 3.063-3.648 3.063"/>
        <path fill="#DFF6FB" d="M75.167 102.912c10.033.611 20.076 1.072 30.128 1.221 6.018.09 12.037.11 18.055.222.473.01.951.012 1.43.015 9.506-7.23 15.648-18.661 15.648-31.534 0-21.864-17.708-39.59-39.553-39.59-21.844 0-39.553 17.726-39.553 39.59 0 12.039 5.372 22.817 13.845 30.076"/>
        <path fill="#A1EAF5" d="M76.107 41.979h49.536c-2.6-2.093-5.341-4.111-8.42-5.499H84.783c-3.078 1.388-6.075 3.406-8.675 5.499"/>
        <path fill="#F4FCFE" d="M127.275 72.942c0-14.836-12.017-26.863-26.84-26.863s-26.84 12.027-26.84 26.863c0 14.837 12.017 26.864 26.84 26.864s26.84-12.027 26.84-26.864"/>
        <path fill="#9CEAF5" d="M159.195 102.336H40.77c-.515 0-1.046.336-1.046.985v2.372c0 .835 1.101 4.508 13.438 4.508h93.64c12.338 0 13.439-3.673 13.439-4.508v-2.372c0-.65-.532-.985-1.046-.985"/>
        <path fill="#60CDDD" d="M160.089 106.205H39.876c.872 1.968 3.986 3.996 13.287 3.996H146.802c9.301 0 12.415-2.028 13.287-3.996"/>
        <path fill="#78DDE6" d="M99.982 102.33H88.078l1.968 1.825c.53.474 1.063.552 1.715.552h16.966c.779 0 1.616-.195 2.195-.854l1.26-1.524h-12.2z"/>
        <path fill="#5AD73C" d="M139.535 3.434c2.027-1.596 2.095-2.301 1.566-2.973-.528-.672-1.228-.772-3.256.824-2.026 1.596-2.094 2.301-1.566 2.973.528.672 1.229.772 3.256-.824M106.535 3.434c2.027-1.596 2.095-2.301 1.566-2.973-.528-.672-1.228-.772-3.256.824-2.026 1.596-2.094 2.301-1.566 2.973.528.672 1.229.772 3.256-.824"/>
        <path fill="#3AD5F1" d="M61.103 20.003c-2.198 1.35-2.347 2.043-1.9 2.772.447.728 1.132.909 3.33-.441 2.197-1.35 2.346-2.043 1.9-2.772-.447-.729-1.131-.909-3.33.441M99.653 16.056c1.35 2.198 2.042 2.347 2.771 1.9.729-.446.91-1.131-.44-3.33-1.35-2.197-2.043-2.346-2.772-1.9-.73.448-.91 1.132.44 3.33M181.434 98.17c2.075 1.533 2.772 1.411 3.28.724.507-.688.418-1.39-1.657-2.924-2.075-1.533-2.773-1.411-3.28-.723-.507.688-.418 1.39 1.657 2.923"/>
        <path fill="#FF7C9A" d="M139.362 16.147c-1.598-.752-2.49-.78-3.043.395-.551 1.175.04 1.845 1.638 2.596 1.597.752 2.49.78 3.043-.395.55-1.174-.04-1.844-1.638-2.596"/>
        <path fill="#5AD73C" d="M187.312 83.186c-1.745.264-2.504.737-2.31 2.02.193 1.284 1.057 1.512 2.802 1.25 1.746-.265 2.504-.738 2.311-2.021-.193-1.283-1.058-1.512-2.803-1.249"/>
        <path fill="#FF7C9A" d="M63.66 6.004c0-1.503-.804-2.202-2.191-2.202-1.388 0-2.19.699-2.19 2.202 0 1.504.802 2.203 2.19 2.203 1.387 0 2.19-.7 2.19-2.203"/>
        <path fill="#D2EDEC" d="M130.93 9.636c0-.962-.514-1.409-1.402-1.409-.886 0-1.4.447-1.4 1.409 0 .961.514 1.408 1.4 1.408.888 0 1.402-.447 1.402-1.408M71.367 12.859c0-.962-.514-1.409-1.401-1.409s-1.4.447-1.4 1.409c0 .961.513 1.408 1.4 1.408.887 0 1.4-.447 1.4-1.408M177.104 85.443c0-.961-.514-1.408-1.401-1.408s-1.4.447-1.4 1.408c0 .962.513 1.409 1.4 1.409.887 0 1.401-.447 1.401-1.409"/>
        <path fill="#FF7C9A" d="M19.637 41.586c-2.075-1.533-2.772-1.411-3.28-.724-.506.689-.417 1.391 1.658 2.924 2.075 1.533 2.773 1.411 3.28.724.506-.688.417-1.391-1.658-2.924"/>
        <path fill="#5AD73C" d="M13.76 56.57c1.745-.264 2.503-.737 2.31-2.02-.194-1.284-1.057-1.512-2.803-1.249-1.746.264-2.504.737-2.31 2.02.193 1.284 1.057 1.513 2.803 1.249"/>
        <path fill="#D2EDEC" d="M23.967 54.313c0 .961.514 1.408 1.402 1.408.886 0 1.4-.447 1.4-1.408 0-.962-.514-1.409-1.4-1.409-.888 0-1.402.447-1.402 1.409"/>
        <path fill="#00C600" d="M90.957 63.518c-1.407.022-4.005.717-5.192 5.568-.517 2.113-.717 4.317-.274 6.94.408 2.418 1.131 4.506 1.618 5.656.168.397.428.81.63 1.064.578.732 1.54.685 1.945.486.441-.217.948-.742.764-1.94-.088-.578-.345-1.425-.488-1.896-.442-1.443-1.03-3.186-1.08-4.427-.07-1.66.584-1.877 1.019-1.973.73-.16 1.342.641 1.924 1.648.694 1.2 1.884 3.328 2.854 4.953.877 1.467 2.493 3.037 5.09 2.93 2.647-.11 4.598-1.121 5.604-4.304.752-2.38 1.265-4.16 2.09-5.982.949-2.095 2.214-3.217 3.28-2.875.989.319 1.236 1.286 1.248 2.709.01 1.259-.135 2.646-.248 3.666-.041.37-.115 1.114-.085 1.527.06.812.41 1.623 1.324 1.753.974.139 1.755-.64 2.067-1.581.123-.371.228-.94.284-1.342.287-2.033.36-3.4.232-5.481-.151-2.434-.627-4.653-1.457-6.573-.794-1.837-2.07-3.014-3.705-3.118-1.811-.115-3.889 1.087-4.98 3.42-1.004 2.151-1.807 4.358-2.295 5.485-.495 1.143-1.222 1.847-2.34 1.964-1.366.145-2.543-.848-3.405-2.263-.752-1.234-2.242-3.584-3.039-4.373-.749-.741-1.604-1.67-3.385-1.641"/>
    </g>
</svg>
