<svg xmlns="http://www.w3.org/2000/svg" width="50" height="34" viewBox="0 0 50 34">
    <g fill="none" fill-rule="evenodd">
        <rect width="50" height="34" fill="#FFCE00" rx="1.895"/>
        <g fill="#020203">
            <path d="M33.446 19.768c.27-.071.398-.185.6-.26l-.215-.596c-.308.104-.706.397-1.262.185-.368-.147-.624-.501-.637-1.03l2.216-.005c0-1.115-.304-2.207-1.468-2.217-1.138-.014-1.587 1.045-1.527 2.16.081 1.413 1.074 2.08 2.293 1.763zm-1.298-2.923c.053-.542.352-.995 1.02-1 .645 0 .974.468.98 1h-2zm-4.317 2.077c-.2.061-.325.17-.585.222-.68.128-1.296-.222-1.309-1.08h2.21c0-.856-.136-1.841-1-2.14-.397-.141-.885-.09-1.214.129-1.197.795-1.137 3.82.962 3.792.402-.005.915-.128 1.15-.365l-.214-.558zm-1.683-2.087c.077-.537.32-.98 1-.99.657-.01.97.448 1 1l-2-.01zm12 2.64c-.023-.094-.18-.514-.235-.57-.427.183-.846.39-1.364.122-.806-.415-.748-1.986.068-2.377.315-.151.752-.137 1.08.009.118.057.203.118.298.16v-.726c-.478-.198-.825-.33-1.428-.189-.91.222-1.437 1.095-1.419 2.048.05 2.24 2.374 2.117 3 1.523zm-9.223-3.647l.01-.884c-.01-.312.297-.799.718-.977.389-.164 1.128-.174 1.495.044l-.178.7c-1.096-.223-1.09-.035-1.09 1.117h1.192l-.307.7-.885.004v3.296c-.178.02-.799.03-.955-.01v-3.28l-.48-.01-.297-.695.777-.005zm9.918.874l.01 2.32c.019.221.048.347.091.439.314.684 1.4.622 2.033.212l-.28-.584c-.208.077-.454.251-.748.16-.261-.078-.242-.386-.242-.69v-1.876l1.753.004 1.41 3.212c.028.14-.286.695-.353.786-.488.685-.942.396-1.333.31l-.193.694c.744.284 1.521.178 1.955-.295.387-.42.609-1.007.85-1.663l1.352-3.733h-.898l-.951 2.87c-.097-.107-.83-1.944-.966-2.258-.183-.424-.449-.607-1.014-.612-.53-.005-1.066 0-1.612 0v-1.153c-.188.044-.724.203-.864.275v.863l-.695.01.005.69.69.019zM22.042 17.904c-.72 3.624-4.186 6.608-7.952 6.988-.299-.01-.304-.172-.313-.413.014-.501.033-1.007.048-1.508.005-.074-.024-.098-.058-.107a6.093 6.093 0 0 1-1.144-.232 7.165 7.165 0 0 1-1.227-.631c-.188-.088-.164-.506-.159-.668.034-.297.26-.989.628-1.021.439-.023.647.2 1.081.404.763.348 1.83.552 2.622.195.381-.223.473-.525.294-.905-.309-.622-1.79-1.133-2.462-1.443-1.608-.66-2.506-1.996-2.22-3.587.212-1.174 1.356-2.065 2.553-2.228v-.561c-1.477.413-2.602 1.23-3.611 2.18-1.463 1.374-2.322 3.11-2.395 5.328.116 2.714 1.584 3.916 3.119 4.817-2.636-.98-4.142-3.569-3.539-6.608.739-3.722 4.37-6.766 8.256-7.012.154.088.164.102.246.302-.034.468-.063.937-.096 1.406.767.148 1.491.357 2.076.835.019 1.076-.821 1.527-1.14 1.364.015-.05-1.265-.39-1.53-.45a1.678 1.678 0 0 0-.961.107c-.377.171-.555.427-.377.826.155.297.41.492.69.659.807.417 1.613.84 2.42 1.257.695.376 1.192.863 1.51 1.453.232.584.286 1.178.15 1.782-.159.491-.352.918-.647 1.187-.246.27-.516.478-.806.627-.41.209-.82.394-1.245.46-.015.25-.025.496-.039.746.034.019.068.01.106 0 .913-.283 1.714-.78 2.496-1.322 1.014-.859 1.96-1.759 2.458-2.923.338-.65.598-1.37.724-2.214.275-2.367-.623-4.594-3.278-5.763 2.747.923 4.34 3.564 3.722 6.673zm-.008-.512c-.822 4.145-5.008 7.5-9.346 7.5-4.343 0-7.194-3.355-6.372-7.5.826-4.145 5.008-7.5 9.35-7.5 4.338 0 7.189 3.355 6.368 7.5z"/>
        </g>
    </g>
</svg>
