<svg xmlns="http://www.w3.org/2000/svg" width="205" height="103" viewBox="0 0 205 103">
    <g fill="none" fill-rule="evenodd">
        <g>
            <path fill="#E5FCFC" fill-rule="nonzero" d="M96.034 67l-70.54-4.388c-14.585-.76-17.246-4.146-16.954-9.824.475-9.256 14.979-8.192 14.422-8.246.066.001.123-.006.186-.006 6.755.103 8.144-1.59 8.238-4.411.098-2.95-1.28-4.774-8.855-5.051a33.491 33.491 0 0 0-3.042.014c-.05-.007-.315-.022-1.012-.045a41.157 41.157 0 0 0-2.215-.106C2.264 34.106-.232 30.743.016 25.15c.223-5.01 2.564-8.506 13.104-8.12L105 20.394 96.034 67z"/>
            <path fill="#E5FCFC" fill-rule="nonzero" d="M105.877 88.195L100 41l92.393 3.369c10.6.386 12.714 4.048 12.603 9.067-.125 5.604-2.854 8.78-16.952 8.584a45.043 45.043 0 0 0-2.228-.055c-.7-.029-.97-.033-1.019-.03a33.89 33.89 0 0 0-3.05-.237c-7.618-.278-9.122 1.441-9.22 4.396-.095 2.825 1.184 4.615 7.967 5.007.064.005.122.016.186.02-.561.013 14.06.013 13.917 9.29-.087 5.693-2.983 8.879-17.665 8.568l-71.055-.784z"/>
            <ellipse cx="102.5" cy="98.5" fill="#E7EFF5" fill-rule="nonzero" rx="62.5" ry="4.5"/>
            <rect width="82" height="82" x="61" y="5" fill="#00A9E0" rx="19.8"/>
            <path fill="#FF7C9A" d="M158.903 32.909c-1.286 2.52-1.326 3.925.715 4.782 2.04.856 3.195-.081 4.48-2.6 1.285-2.52 1.324-3.926-.715-4.78-2.041-.858-3.196.078-4.48 2.598"/>
            <path fill="#94E37A" d="M34.472 76c-1.706.02-2.49.945-2.472 2.529.018 1.582.82 2.49 2.529 2.47 1.706-.018 2.489-.943 2.47-2.527-.016-1.583-.82-2.491-2.527-2.472"/>
            <path fill="#00C4EB" d="M45.503 65.375c-3.798-2.997-5.08-2.769-6.02-1.44-.94 1.328-.785 2.693 3.014 5.69 3.798 2.997 5.081 2.77 6.02 1.44.94-1.328.784-2.693-3.014-5.69"/>
            <path fill="#DAE7EF" d="M28.594 11.144c.43.494 1.053.804 1.716.85a2.544 2.544 0 0 0 1.82-.6 2.55 2.55 0 0 0 .864-1.732 2.564 2.564 0 0 0-.606-1.823c-.861-1.01-2.538-1.127-3.53-.249a2.563 2.563 0 0 0-.852 1.72c-.047.661.18 1.333.606 1.835l-.018-.001z"/>
            <path fill="#EDF2F6" d="M37.475 3.315c.345.394.843.643 1.373.68a2.042 2.042 0 0 0 1.457-.481c.4-.35.653-.856.69-1.385A2.058 2.058 0 0 0 40.511.67c-.69-.807-2.03-.902-2.824-.198a2.047 2.047 0 0 0-.682 1.375 2.075 2.075 0 0 0 .484 1.468l-.014-.001zM42.476 82.314a2.02 2.02 0 0 0 2.829.2c.4-.35.654-.856.69-1.384a2.054 2.054 0 0 0-.484-1.459c-.689-.807-2.03-.902-2.825-.198a2.05 2.05 0 0 0-.681 1.375 2.073 2.073 0 0 0 .484 1.467h-.013zM172.476 31.315a2.02 2.02 0 0 0 2.829.199c.4-.35.654-.856.69-1.385a2.052 2.052 0 0 0-.484-1.458c-.69-.807-2.03-.902-2.824-.198a2.047 2.047 0 0 0-.682 1.374c-.037.53.144 1.067.485 1.469l-.014-.001z"/>
            <path fill="#5AD73C" d="M167.45 12c-3.072.035-4.48 1.701-4.45 4.55.033 2.85 1.478 4.484 4.55 4.45 3.072-.036 4.48-1.701 4.45-4.55-.033-2.85-1.478-4.485-4.55-4.45"/>
            <rect width="8" height="51" x="96" y="21" fill="#FFF" rx="2.7"/>
            <path fill="#FFF" d="M76 45.5c0-2.485 1.828-4.5 4.083-4.5h40.834c2.255 0 4.083 2.015 4.083 4.5s-1.828 4.5-4.083 4.5H80.083C77.828 50 76 47.985 76 45.5z"/>
            <path fill="#FFF" fill-opacity=".14" d="M81.222 89C77.891 89 60 74.1 60 71.087V27.084c0-.474 1.793-7.875 9.064-14.362C70.978 11.014 75.03 8.44 81.222 5h37.291c.826 0 7.224 1.902 7.523 2.55.165.36 4.317 2.398 3.94 2.586-5.65 2.819-51.256 25.561-51.256 62.538 0 10.13 7.907 13.74 13.56 15.437 1.002.3.639.889.639.889H81.222z"/>
        </g>
        <path fill="#FFC55F" d="M137.27 58.002c-13.993.154-20.414 7.558-20.268 20.223.146 12.667 6.734 19.928 20.728 19.773 13.994-.154 20.414-7.558 20.268-20.224-.145-12.666-6.733-19.926-20.727-19.772"/>
        <path fill="#FFF" d="M131.236 86.128c1.026 1.532 2.494 2.424 4.4 2.807v1.533c0 .894.881 1.532 1.762 1.532.878 0 1.76-.766 1.76-1.532v-1.533c2.935-.509 4.842-2.425 4.842-5.232 0-3.83-4.256-5.235-5.724-5.745-2.343-.766-2.64-1.405-2.64-2.043 0-.382-.008-1.357 1.897-1.357 1.469 0 2.211.975 2.211 1.1.59.767 1.614 1.024 2.494.513.88-.512 1.175-1.406.586-2.17-.44-.767-1.76-1.787-3.52-2.299v-2.168c0-.897-.882-1.534-1.76-1.534-.881 0-1.762.766-1.762 1.534v2.168c-2.2.512-3.666 2.17-3.666 4.342 0 3.445 3.817 4.72 4.987 5.105 2.935.895 3.23 1.787 3.23 2.68 0 1.406-1.029 2.172-3.083 2.172-1.468 0-2.492-.512-3.079-1.405-.59-.767-1.558-1.004-2.494-.51-.69.378-.881 1.275-.441 2.042"/>
        <path fill="#FFB341" d="M148.3 89.612c-14.03.154-20.635-7.11-20.78-19.783-.05-4.224.65-7.848 2.104-10.829-8.688 2.43-12.737 9.156-12.622 19.215.146 12.673 6.75 19.937 20.782 19.783 9.353-.102 15.313-3.445 18.216-9.405-2.256.63-4.807.988-7.7 1.02" opacity=".2" style="mix-blend-mode:multiply"/>
    </g>
</svg>
