<svg xmlns="http://www.w3.org/2000/svg" width="93" height="76" viewBox="0 0 93 76">
    <g fill="none" fill-rule="evenodd">
        <path fill="#E5FCFC" d="M67.72 30.99c.046-1.952 3.999-2.439 7.677-2.372 2.85.05 8.574.645 8.574 2.55 0 1.392-.468 1.998-2.472 2.325-1.203.195-10.297 1.111-12.53-.245-.77-.47-1.275-1.184-1.25-2.257M46.852 36.659l33.486.79c6.922.1 8.236 1.54 8.188 4.033-.08 4.063-6.967 3.83-6.703 3.844-.03 0-.058.005-.088.006-3.202.063-3.833.827-3.833 2.065 0 1.294.682 2.071 4.275 2.071.548 0 1.02-.02 1.44-.055.024.002.15.004.481.003a25.84 25.84 0 0 0 1.05.011c6.645.14 7.881 1.573 7.851 4.028-.026 2.2-1.08 3.769-6.08 3.769H43.34l3.513-20.565z"/>
        <path fill="#E1F4F4" d="M83.068 49.186l.103-.01.06.005-.163.005"/>
        <path fill="#E5FCFC" d="M31.601 8.638c-.047-1.953-4-2.44-7.678-2.373-2.85.05-8.573.646-8.573 2.55 0 1.393.467 1.998 2.472 2.325 1.202.196 10.297 1.111 12.53-.245.77-.47 1.275-1.183 1.249-2.257M46.148 14.306l-33.486.79c-6.922.1-8.236 1.54-8.188 4.033.08 4.063 6.967 3.83 6.703 3.844.03.001.058.005.088.006 3.202.064 3.833.827 3.833 2.065 0 1.295-.682 2.071-4.275 2.071-.548 0-1.02-.02-1.44-.055-.024.002-.15.005-.481.003a21.812 21.812 0 0 1-1.05.012C1.206 27.215-.03 28.648 0 31.103c.026 2.199 1.08 3.768 6.08 3.768h43.58l-3.513-20.565z"/>
        <path fill="#E1F4F4" d="M10.094 26.833l-.103-.01-.059.005c.06 0 .113.003.162.005"/>
        <path fill="#DAE7EF" d="M8.448 11.164c.233.265.57.432.93.456.355.025.715-.092.986-.322.272-.234.443-.574.468-.929a1.367 1.367 0 0 0-.329-.978c-.466-.541-1.374-.604-1.912-.133a1.37 1.37 0 0 0-.462.922 1.38 1.38 0 0 0 .329.985h-.01z"/>
        <path fill="#EDF2F6" d="M11.952 6.846a.916.916 0 0 0 1.278.09.911.911 0 0 0 .312-.62.914.914 0 0 0-.22-.651c-.31-.361-.916-.403-1.274-.089a.912.912 0 0 0-.308.615.922.922 0 0 0 .219.656h-.007zM15.564 47.082a.915.915 0 0 0 1.277.089.91.91 0 0 0 .312-.619.913.913 0 0 0-.219-.652c-.31-.361-.916-.403-1.275-.089a.913.913 0 0 0-.307.615.92.92 0 0 0 .218.656h-.006zM82.38 20.258a.915.915 0 0 0 1.277.09.91.91 0 0 0 .312-.62.912.912 0 0 0-.219-.651c-.311-.362-.916-.404-1.275-.09a.912.912 0 0 0-.308.615.923.923 0 0 0 .22.657h-.007z"/>
        <path fill="#6AE0F3" d="M67.992 63.482H25.911c-2.333 0-4.241-1.896-4.241-4.213V1.379C21.67.618 22.29 0 23.058 0h47.787c.766 0 1.388.618 1.388 1.38v57.889c0 2.317-1.909 4.213-4.241 4.213"/>
        <path fill="#00ABE3" fill-opacity=".3" d="M64.37 7.186a.46.46 0 0 0-.427.386 1.608 1.608 0 0 1-1.506 1.311 1.61 1.61 0 0 1-1.626-1.16.461.461 0 0 0-.462-.342l-2.41.116a.46.46 0 0 0-.427.386 1.609 1.609 0 0 1-1.505 1.312 1.609 1.609 0 0 1-1.626-1.16.461.461 0 0 0-.462-.343l-2.41.116a.46.46 0 0 0-.427.386 1.607 1.607 0 0 1-1.505 1.312 1.61 1.61 0 0 1-1.626-1.16.46.46 0 0 0-.462-.343l-2.41.116a.461.461 0 0 0-.427.387 1.607 1.607 0 0 1-1.505 1.311 1.61 1.61 0 0 1-1.626-1.16.461.461 0 0 0-.463-.343l-2.41.116a.46.46 0 0 0-.426.387 1.607 1.607 0 0 1-1.505 1.311 1.609 1.609 0 0 1-1.626-1.16.461.461 0 0 0-.463-.343l-2.41.117a.461.461 0 0 0-.427.386 1.607 1.607 0 0 1-1.505 1.311 1.608 1.608 0 0 1-1.625-1.16.461.461 0 0 0-.463-.343l-.676.033a.456.456 0 0 0-.434.477l2.191 44.87a3.065 3.065 0 0 0 3.216 2.904l32.302-1.563a3.06 3.06 0 0 0 2.918-3.2L65.523 7.585a.456.456 0 0 0-.478-.433l-.676.033z"/>
        <path fill="#FFF" d="M63.466 6.292a.46.46 0 0 0-.427.386 1.607 1.607 0 0 1-1.505 1.311 1.61 1.61 0 0 1-1.626-1.16.46.46 0 0 0-.462-.342l-2.41.116a.46.46 0 0 0-.427.386 1.608 1.608 0 0 1-1.505 1.312 1.61 1.61 0 0 1-1.626-1.16.46.46 0 0 0-.462-.343l-2.41.116a.46.46 0 0 0-.427.386 1.607 1.607 0 0 1-1.505 1.312 1.61 1.61 0 0 1-1.627-1.16.46.46 0 0 0-.461-.343l-2.41.116a.46.46 0 0 0-.427.386 1.607 1.607 0 0 1-1.505 1.312 1.61 1.61 0 0 1-1.627-1.16.46.46 0 0 0-.462-.343l-2.41.116a.46.46 0 0 0-.427.386 1.607 1.607 0 0 1-1.504 1.312 1.61 1.61 0 0 1-1.627-1.16.46.46 0 0 0-.462-.343l-2.41.117a.46.46 0 0 0-.427.386 1.608 1.608 0 0 1-1.505 1.311 1.609 1.609 0 0 1-1.626-1.16.46.46 0 0 0-.462-.343l-.676.033a.456.456 0 0 0-.434.476l2.191 44.87a3.065 3.065 0 0 0 3.216 2.905l32.302-1.563a3.06 3.06 0 0 0 2.918-3.201L64.62 6.692a.456.456 0 0 0-.478-.433l-.676.033z"/>
        <path fill="#3AD5F1" d="M67.992 63.92H25.911c-2.333 0-4.241-1.806-4.241-4.014v2.244c0 2.208 1.908 4.015 4.24 4.015h42.082c2.332 0 4.241-1.807 4.241-4.015v-2.244c0 2.208-1.909 4.015-4.241 4.015"/>
        <path fill="#B7B9B9" fill-opacity=".1" d="M25.916 63.482c-2.335 0-4.246-1.896-4.246-4.213V1.379C21.67.618 22.292 0 23.06 0h47.848a1.39 1.39 0 0 1 1.284.85c.115.277-.022.596-.286.74-1.848 1.012-9.947 5.633-18.06 13.164-9.268 8.606-18.554 21.011-18.554 36.174 0 7.79 5.543 10.565 9.505 11.87.702.232.448.684.448.684H25.916z" style="mix-blend-mode:multiply"/>
        <ellipse cx="46.392" cy="72.694" fill="#E7EFF5" fill-rule="nonzero" rx="43.683" ry="2.952"/>
        <path stroke="#04ABE0" stroke-linecap="round" stroke-width="1.8" d="M30.699 18.696l8.126-.814M30.699 22.678l3.612-.325M57.786 30.914l5.418-.514M30.699 32.188l22.573-.894M31.602 35.765l22.573-.894M57.786 39.855l5.418-.514M31.602 41.13l22.573-.895"/>
        <path stroke="#5BC500" stroke-linecap="round" stroke-width="3.6" d="M57.786 47.861l5.418-.473"/>
        <path stroke="#04ABE0" stroke-linecap="round" stroke-width="3.6" d="M61.398 16.167l.903-.073"/>
    </g>
</svg>
