<svg xmlns="http://www.w3.org/2000/svg" width="144" height="72" viewBox="0 0 144 72">
    <g fill="none" fill-rule="evenodd">
        <path fill="#E5FCFC" fill-rule="nonzero" d="M67.438 46.481l-49.535-3.053C7.661 42.9 5.792 40.545 5.997 36.595c.334-6.439 10.519-5.698 10.128-5.736.046 0 .086-.004.13-.004 4.744.071 5.719-1.106 5.785-3.07.069-2.051-.899-3.32-6.218-3.513a23.742 23.742 0 0 0-2.136.01 14.924 14.924 0 0 0-.711-.03 35.765 35.765 0 0 0-1.555-.075C1.59 23.6-.163 21.26.01 17.37c.157-3.485 1.8-5.917 9.203-5.649l64.52 2.341-6.296 32.42z"/>
        <path fill="#E5FCFC" fill-rule="nonzero" d="M74.304 61.596L70.2 28.8l64.52 2.34c7.403.27 8.88 2.814 8.802 6.302-.088 3.894-1.994 6.1-11.838 5.965a31.608 31.608 0 0 0-1.557-.038 14.49 14.49 0 0 0-.71-.021 23.78 23.78 0 0 0-2.13-.164c-5.32-.194-6.37 1-6.44 3.054-.066 1.963.828 3.207 5.564 3.48.045.003.085.01.13.014-.392.009 9.818.008 9.719 6.456-.061 3.955-2.083 6.17-12.337 5.953l-49.619-.545z"/>
        <ellipse cx="71.442" cy="68.672" fill="#E7EFF5" fill-rule="nonzero" rx="43.542" ry="2.972"/>
        <rect width="57.6" height="57.6" x="42.3" y="3.6" fill="#00A9E0" rx="19.8"/>
        <path fill="#FF7C9A" d="M111.155 23.233c-.862 1.863-.889 2.901.48 3.535 1.367.633 2.141-.06 3.003-1.922.861-1.862.887-2.902-.48-3.534-1.368-.633-2.142.059-3.003 1.921"/>
        <path fill="#94E37A" d="M24.438 53.05c-1.14.013-1.664.629-1.652 1.683.011 1.054.548 1.659 1.69 1.645 1.14-.012 1.664-.628 1.652-1.682-.011-1.055-.549-1.66-1.69-1.646"/>
        <path fill="#00C4EB" d="M31.576 45.895c-2.684-2.007-3.591-1.854-4.255-.965-.664.89-.555 1.803 2.13 3.81 2.685 2.006 3.592 1.854 4.255.964.665-.889.554-1.803-2.13-3.809"/>
        <path fill="#DAE7EF" d="M20.224 7.825c.307.35.751.57 1.224.602.469.034.942-.122 1.3-.425.357-.31.583-.759.615-1.227a1.808 1.808 0 0 0-.432-1.29c-.615-.716-1.811-.8-2.519-.178-.35.312-.575.751-.608 1.219-.033.469.128.944.432 1.3h-.012z"/>
        <path fill="#EDF2F6" d="M26.01 2.135a1.289 1.289 0 0 0 1.8.126c.254-.22.414-.541.438-.875a1.294 1.294 0 0 0-.308-.92c-.438-.51-1.29-.57-1.795-.126a1.29 1.29 0 0 0-.434.869c-.024.334.091.673.308.926h-.009zM30.089 57.209a1.287 1.287 0 0 0 1.798.126c.255-.22.416-.54.44-.874a1.291 1.291 0 0 0-.309-.921c-.438-.51-1.29-.57-1.795-.125-.25.221-.41.534-.434.868-.023.334.092.673.308.927l-.008-.001zM120.81 21.913a1.287 1.287 0 0 0 1.798.126c.255-.22.416-.54.44-.875a1.29 1.29 0 0 0-.309-.92c-.438-.51-1.29-.57-1.795-.125a1.29 1.29 0 0 0-.434.867c-.023.335.092.674.308.927h-.008z"/>
        <path fill="#5AD73C" d="M117.098 8.556c-2.144.024-3.128 1.182-3.106 3.163.023 1.981 1.032 3.117 3.176 3.093 2.145-.024 3.128-1.182 3.106-3.163-.022-1.982-1.031-3.118-3.176-3.093"/>
        <rect width="5.4" height="36" x="67.5" y="14.4" fill="#FFF" rx="2.7"/>
        <path fill="#FFF" d="M53.1 31.95c0-1.74 1.276-3.15 2.85-3.15h28.5c1.574 0 2.85 1.41 2.85 3.15s-1.276 3.15-2.85 3.15h-28.5c-1.574 0-2.85-1.41-2.85-3.15z"/>
        <path fill="#FFF" fill-opacity=".14" d="M57.051 62.1C54.735 62.1 42.3 51.728 42.3 49.63V18.998c0-.33 1.246-5.482 6.3-9.998 1.33-1.189 4.148-2.98 8.451-5.375h25.92c.574 0 5.022 1.323 5.229 1.775.115.25 3 1.669 2.739 1.8-3.927 1.962-35.627 17.794-35.627 43.535 0 7.052 5.496 9.564 9.425 10.746.696.21.444.619.444.619h-8.13z"/>
    </g>
</svg>
