<svg xmlns="http://www.w3.org/2000/svg" width="143" height="77" viewBox="0 0 143 77">
    <g fill="none" fill-rule="evenodd" transform="translate(-1)">
        <path fill="#E5FCFC" fill-rule="nonzero" d="M68.39 51.613l-49.502-3.037C8.652 48.05 6.785 45.707 6.99 41.778c.333-6.405 10.512-5.669 10.121-5.707.046.001.086-.004.13-.004 4.74.071 5.715-1.1 5.781-3.053.069-2.041-.898-3.303-6.214-3.495-.81-.03-1.51-.023-2.135.01a14.98 14.98 0 0 0-.71-.031 35.9 35.9 0 0 0-1.554-.073c-9.823-.576-11.575-2.903-11.4-6.774.156-3.467 1.798-5.886 9.195-5.62l64.478 2.33-6.293 32.252z"/>
        <path fill="#E5FCFC" fill-rule="nonzero" d="M74.352 66.65L70.25 34.023l64.477 2.33c7.397.266 8.873 2.797 8.795 6.267-.087 3.875-1.992 6.07-11.83 5.935a31.73 31.73 0 0 0-1.555-.038c-.49-.02-.676-.023-.71-.021a23.87 23.87 0 0 0-2.13-.164c-5.315-.192-6.365.997-6.434 3.039-.066 1.953.827 3.19 5.56 3.462.045.003.085.01.13.014-.392.009 9.811.008 9.712 6.422-.06 3.936-2.082 6.138-12.328 5.923l-49.585-.542z"/>
        <path fill="#04ABE0" d="M103.16 61.78H41.838c-1.694 0-3.067 1.201-3.067 2.686 0 1.483 1.373 2.685 3.067 2.685h61.32c1.695 0 3.068-1.202 3.068-2.685-.002-1.485-1.374-2.687-3.066-2.687z"/>
        <path fill="#BEBEBE" fill-rule="nonzero" d="M45.414 53.868a3.052 3.052 0 0 0-3.045 3.06 3.053 3.053 0 0 0 3.045 3.06h53.27a3.053 3.053 0 0 0 3.045-3.06c0-1.691-1.363-3.06-3.045-3.06h-.76V26.336h.76c.842 0 1.52-.685 1.52-1.529 0-.843-.68-1.528-1.52-1.528h-53.27c-.841 0-1.521.685-1.521 1.528 0 .844.681 1.529 1.52 1.529h.762v27.53h-.761v.002zm46.42-27.532v27.53h-9.131v-27.53h9.131zm-15.22 0v27.53h-9.132v-27.53h9.131zm-24.352 0h9.131v27.53h-9.131v-27.53z"/>
        <path fill="#04ABE0" d="M41.878 20.593h62.14c1.718 0 3.107-1.418 3.107-3.17a3.166 3.166 0 0 0-2.099-2.998L74.21.278a3.056 3.056 0 0 0-2.548 0L40.604 14.535c-1.337.614-2.071 2.095-1.763 3.555.307 1.46 1.572 2.503 3.037 2.503z"/>
        <path fill="#000" fill-opacity=".03" d="M98.58 23.773L45.798 60.696v-34.73c-.807-.732-.807-1.463 0-2.193s18.402-.73 52.784 0z" style="mix-blend-mode:multiply"/>
        <g>
            <path fill="#FFC55F" d="M41.679 39.397c-10.08.112-14.703 5.496-14.598 14.705.105 9.21 4.85 14.49 14.928 14.378 10.08-.112 14.703-5.496 14.597-14.706-.104-9.21-4.848-14.489-14.927-14.377"/>
            <path fill="#FFF" d="M37.487 59.646c.735 1.136 1.786 1.799 3.152 2.082v1.139c0 .663.63 1.136 1.261 1.136.63 0 1.261-.569 1.261-1.136v-1.139c2.102-.377 3.468-1.799 3.468-3.881 0-2.843-3.048-3.885-4.1-4.264-1.678-.568-1.89-1.042-1.89-1.515 0-.284-.006-1.008 1.358-1.008 1.052 0 1.584.724 1.584.817.422.569 1.155.76 1.786.38.63-.38.842-1.043.42-1.61-.315-.57-1.26-1.326-2.521-1.706v-1.609c0-.665-.632-1.138-1.261-1.138-.631 0-1.262.569-1.262 1.138v1.61c-1.576.38-2.625 1.61-2.625 3.22 0 2.557 2.733 3.504 3.571 3.79 2.102.663 2.314 1.325 2.314 1.988 0 1.043-.737 1.612-2.209 1.612-1.05 0-1.785-.38-2.205-1.043-.422-.569-1.116-.745-1.786-.379-.494.281-.631.947-.316 1.516"/>
            <path fill="#FFB341" d="M49.564 62.386c-10.08.112-14.824-5.167-14.928-14.378-.036-3.07.468-5.704 1.512-7.87-6.241 1.766-9.15 6.654-9.067 13.965.105 9.21 4.849 14.489 14.929 14.377 6.718-.074 11-2.503 13.085-6.835-1.62.458-3.453.718-5.531.74" opacity=".2" style="mix-blend-mode:multiply"/>
        </g>
        <ellipse cx="72.391" cy="73.689" fill="#E7EFF5" fill-rule="nonzero" rx="43.513" ry="2.957"/>
    </g>
</svg>
