<svg xmlns="http://www.w3.org/2000/svg" width="347" height="198" viewBox="0 0 347 198">
    <g fill="none" fill-rule="evenodd">
        <g transform="translate(0 -4)">
            <path fill="#6AE0F3" d="M158.61 193.81c.383-1.667.547-3.488.567-5.445.12-11.723-4.862-17.654-31.64-18.322a76.27 76.27 0 0 1-4.236-.053c-1.33.004-1.842-.01-1.935-.02-1.694.166-3.6.254-5.806.254-14.483 0-17.228-3.723-17.228-9.905 0-5.914 2.542-18.458 15.446-18.76.12-.006.23-.08.355-.085-1.064-.07 16.583 9.692 16.9-9.717.195-11.906 5.014-18.91-22.883-19.382l-14.582-.456-.074.118c-.162-16.793-.36-37.318-.596-61.576 37.564-30.709 94.312-5.236 94.312 34.537 0 26.515-.016 62.786-.049 108.813H158.61z"/>
            <path fill="#6AE0F3" d="M156.05 43.588c-14.66-14.537-112.19-3.912-112.19-3.912-23.978.351-28.528 5.497-28.36 14.4.274 14.515 24.131 13.68 23.219 13.734 11.393.247 13.58 2.973 13.58 7.397 0 4.622-2.36 7.396-14.808 7.396a58.4 58.4 0 0 1-4.99-.196c-.08.008-.52.016-1.664.013a76.675 76.675 0 0 1-3.64.037C4.18 82.957-.1 88.077.002 96.845c.092 7.855 3.742 13.46 21.062 13.46l73.627 1.433s76.018-53.612 61.358-68.15z"/>
            <path fill="#3AD5F1" d="M108.675 24.072c-3.155-4.484-4.645-4.707-6.133-3.663-1.487 1.044-1.782 2.52 1.374 7.005 3.155 4.482 4.645 4.707 6.133 3.663 1.487-1.044 1.782-2.52-1.374-7.005"/>
            <path fill="#FF7C9A" d="M149.239 27.683c-1.861 3.261-2.071 5.15.327 6.513 2.398 1.364 3.918.22 5.78-3.04 1.861-3.262 2.071-5.15-.327-6.513-2.398-1.364-3.919-.222-5.78 3.04"/>
            <path fill="#5AD73C" d="M129.232 13.976c-3.918-.286-5.893 1.674-6.158 5.288-.267 3.613 1.399 5.837 5.317 6.121 3.918.286 5.893-1.674 6.159-5.286.267-3.613-1.4-5.837-5.318-6.123"/>
            <path fill="#94E37A" d="M137.792 4.322c-2.085-.152-3.135.891-3.276 2.814-.144 1.922.744 3.106 2.828 3.257 2.085.151 3.137-.89 3.278-2.813.142-1.923-.745-3.106-2.83-3.258"/>
            <ellipse cx="65.988" cy="123.246" fill="#4A4A4A" fill-opacity=".357" rx="1.779" ry="1.773"/>
            <path fill="#92F0F9" d="M113.973 182.897c14.042.145 15.285 5.468 15.285 10.877 0 3.957-2.305 5.677-12.18 6.604-5.925.557-50.736 3.158-61.732-.695-3.801-1.332-6.287-3.361-6.16-6.412.228-5.546 46.665-10.561 64.787-10.374z"/>
            <ellipse cx="82.795" cy="157.776" fill="#4A4A4A" fill-opacity=".357" rx="3.559" ry="3.547"/>
            <g transform="translate(187 49)">
                <path fill="#92F0F9" d="M87.973 82.806h-2.974c-3.016 0-4.693 2.637-4.693 5.883 0 3.28 1.677 7.042 4.693 7.042h24.275c4.97 0 9.04 4.37 9.067 9.71-.028 5.343-4.097 9.676-9.067 9.676h-2.776c-3.014 0-5.48.795-5.48 4.039 0 3.244 2.466 4.039 5.48 4.039h46.176c5.108.14 7.05 6.699 7.05 11.503 0 5.404-1.282 10.157-6.555 10.113H.161V60.272c7.035 0 86.278-.083 86.278-.083 4.989 0 9.07 6.015 9.07 11.382 0 4.804-3.272 11.235-7.536 11.235z"/>
                <ellipse cx="82.957" cy="43.263" fill="#4A4A4A" fill-opacity=".357" rx="3.559" ry="3.547"/>
                <ellipse cx="11.504" cy="1.908" fill="#4A4A4A" fill-opacity=".357" rx="1.779" ry="1.773"/>
                <ellipse cx="20.114" cy="13.236" fill="#4A4A4A" fill-opacity=".357" rx="3.559" ry="3.547"/>
                <ellipse cx="107.134" cy="82.435" fill="#4A4A4A" fill-opacity=".357" rx="1.779" ry="1.773"/>
                <ellipse cx="130.772" cy="110.141" fill="#4A4A4A" fill-opacity=".357" rx="3.559" ry="3.547"/>
                <g transform="translate(13.823 11.054)">
                    <path fill="#ADBDC0" fill-rule="nonzero" d="M58.744 56.997c0 3.196-2.563 5.787-5.725 5.787-3.161 0-5.724-2.59-5.724-5.787V23.136c0-6.361-5.248-11.563-11.775-11.563-6.528 0-11.775 5.202-11.775 11.563v33.567c0 3.196-2.563 5.787-5.725 5.787-3.162 0-5.725-2.591-5.725-5.787V23.136C12.295 10.333 22.718 0 35.52 0c12.802 0 23.224 10.333 23.224 23.136v33.861z"/>
                    <rect width="69.673" height="55.959" y="54.595" fill="#F9C86A" rx="7.8"/>
                    <path fill="#496D73" fill-opacity=".384" d="M53.28 46.464c0-.783.543-1.423 1.207-1.423h.318c.664 0 1.207.64 1.207 1.423v2.613c0 .782-.543 1.423-1.207 1.423h-.318c-.664 0-1.207-.64-1.207-1.423v-2.613zM53.28 28.78c0-.815.543-1.483 1.207-1.483h.318c.664 0 1.207.668 1.207 1.483v10.683c0 .816-.543 1.483-1.207 1.483h-.318c-.664 0-1.207-.667-1.207-1.483V28.78z"/>
                    <path fill="#FDF4E1" d="M60.11 71.09c0-.815.544-1.482 1.208-1.482h.318c.664 0 1.207.667 1.207 1.483v10.683c0 .815-.543 1.483-1.207 1.483h-.318c-.664 0-1.208-.668-1.208-1.483V71.091zM60.11 64.563c0-.978.544-1.78 1.208-1.78h.318c.664 0 1.207.802 1.207 1.78v.536c0 .979-.543 1.78-1.207 1.78h-.318c-.664 0-1.208-.801-1.208-1.78v-.536z"/>
                    <path fill="#FFB542" d="M14.17 54.595c3.243 13.82 9.586 24.3 19.03 31.441 9.443 7.141 21.601 10.65 36.473 10.528 0 7.727-6.344 13.99-14.17 13.99H14.17C6.344 110.554 0 104.291 0 96.564v-27.98c0-7.726 6.344-13.99 14.17-13.99z"/>
                    <path fill="#496D73" d="M35.337 73.703h.571a2.6 2.6 0 0 1 2.563 2.162l2.841 16.638a2.6 2.6 0 0 1-2.563 3.038h-6.492a2.6 2.6 0 0 1-2.557-3.074l3.08-16.638a2.6 2.6 0 0 1 2.557-2.126z"/>
                </g>
            </g>
            <ellipse cx="71.453" cy="156.003" fill="#4A4A4A" fill-opacity=".357" rx="1.779" ry="1.773"/>
        </g>
        <g fill="#FFF" fill-rule="nonzero">
            <path d="M139.81 56.54c-8.549-5.961-20.893-5.888-29.44-.004-.614.422-.791 1.296-.398 1.953.394.656 1.21.846 1.823.425 7.681-5.289 18.905-5.355 26.576-.005.61.426 1.427.24 1.824-.413.398-.654.225-1.53-.386-1.955z"/>
            <path d="M146.095 70.155c-4.254-6.417-11.871-10.478-20.017-10.825-8.629-.368-16.703 3.415-21.982 10.914a1.24 1.24 0 0 0 .334 1.75 1.312 1.312 0 0 0 1.795-.325c4.766-6.771 11.987-10.154 19.74-9.824 7.33.313 14.173 3.96 17.962 9.676a1.31 1.31 0 0 0 1.785.374 1.24 1.24 0 0 0 .383-1.74z"/>
            <path d="M110.194 93.096c-2.445-7.823-1.565-14.355 1.981-19.032 3.11-4.102 8.144-6.476 13.344-6.476 9.803 0 17.019 7.877 17.019 16.726a4.812 4.812 0 0 1-4.817 4.807c-2.663 0-4.829-2.155-4.829-4.807h-2.586v.18h2.586c0-4.082-3.314-7.39-7.402-7.39-4.024 0-7.195 3.229-7.4 7.325-.134 2.649.733 6.195 2.55 9.3 2.385 4.073 6.179 7.17 11.422 8.777a1.29 1.29 0 1 0 .759-2.468c-4.608-1.412-7.884-4.086-9.947-7.611-1.564-2.672-2.31-5.721-2.202-7.87.139-2.76 2.213-4.871 4.818-4.871a4.812 4.812 0 0 1 4.816 4.807c0 1.721 2.586 1.721 2.586 0v-.18c0-1.72-2.586-1.72-2.586 0 0 4.08 3.326 7.39 7.415 7.39s7.403-3.308 7.403-7.39c0-10.225-8.32-19.307-19.605-19.307-5.991 0-11.794 2.737-15.406 7.5-4.075 5.374-5.072 12.773-2.387 21.36a1.293 1.293 0 0 0 2.468-.77z"/>
            <path d="M121.208 100.244c-2.895-2.486-5.513-7.535-6.249-12.403-.845-5.592.767-10.137 5.053-12.688 7.652-4.554 16.596.957 16.596 9.672 0 .728.587 1.317 1.311 1.317s1.311-.59 1.311-1.317c0-10.71-11.113-17.558-20.555-11.939-5.307 3.159-7.301 8.781-6.309 15.35.827 5.472 3.744 11.097 7.138 14.011.551.473 1.379.407 1.85-.146a1.322 1.322 0 0 0-.146-1.857z"/>
            <path d="M123.912 83.838c-.11 3.446 1.66 7.7 4.716 10.162 2.767 2.228 6.792 3.093 11.787 2.525.73-.082 1.25-.712 1.163-1.407-.087-.694-.749-1.19-1.479-1.107-4.315.49-7.607-.217-9.752-1.944-2.404-1.936-3.862-5.442-3.775-8.152.022-.698-.555-1.282-1.29-1.304-.734-.02-1.347.528-1.37 1.227z"/>
        </g>
        <path fill="#006F7D" d="M134.57 106.92c-17.473 5.01-35.667-4.986-40.64-22.327-4.129-14.401 2.181-29.314 14.443-36.834 2.502-1.533 5.23-2.785 8.19-3.633 17.471-5.01 35.665 4.986 40.637 22.325 1.139 3.97 1.45 7.975 1.098 11.86a32.883 32.883 0 0 1-23.729 28.609m-20.72-72.26c-22.551 6.466-35.155 31.51-28.152 55.933 7.004 24.425 30.963 38.982 53.514 32.515 22.551-6.466 35.155-31.507 28.151-55.932C160.36 42.752 136.4 28.194 113.85 34.66"/>
        <path fill="#368896" d="M158.299 78.31a32.886 32.886 0 0 1-23.73 28.61c-17.471 5.01-35.665-4.986-40.638-22.326-4.13-14.402 2.18-29.315 14.442-36.834 2.501-1.533 5.23-2.785 8.19-3.634 17.472-5.01 35.665 4.986 40.637 22.326 1.138 3.969 1.45 7.974 1.099 11.859m-42.716-44.109C92.78 39.718 78.722 62.54 84.182 85.174c5.46 22.635 28.372 36.513 51.174 30.997 22.803-5.517 36.86-28.339 31.4-50.973-5.46-22.635-28.372-36.512-51.173-30.996"/>
        <path fill="#3AD5F1" fill-opacity=".2" d="M116.632 44.045c-2.967.85-5.702 2.105-8.209 3.64-12.29 7.534-18.618 22.469-14.483 36.89 4.98 17.362 23.21 27.368 40.721 22.346a32.956 32.956 0 0 0 23.787-28.654c.354-3.89.043-7.901-1.097-11.876-4.978-17.362-23.21-27.367-40.72-22.346"/>
        <path fill="#FFF" fill-opacity=".5" d="M120.935 60.826c-.777-2.707-3.617-4.267-6.344-3.484-2.727.782-4.31 3.609-3.533 6.316.776 2.707 3.616 4.266 6.343 3.484 2.728-.782 4.31-3.61 3.534-6.316M121.044 53.795a1.218 1.218 0 0 0-1.51-.829 1.218 1.218 0 0 0-.84 1.503c.184.644.86 1.015 1.509.83.65-.187 1.026-.86.841-1.504"/>
        <path fill="#B7B9B9" d="M136.162 122.622c-.328-1.144-.207-2.352.373-3.048a6.12 6.12 0 0 1 3.04-1.99 6.107 6.107 0 0 1 3.474.026c.923.277 1.743 1.22 2.095 2.447l4.756 16.585c.484 1.69-.078 3.335-1.256 3.673l-4.712 1.352c-1.179.337-2.527-.76-3.012-2.45l-4.758-16.595z"/>
        <path fill="#368896" d="M138.115 158.019c-6.117-21.333-3.008-26.601 4.11-28.642 7.117-2.041 12.544.78 18.66 22.112 6.118 21.333 3.01 26.6-4.107 28.641-7.118 2.041-12.546-.779-18.663-22.111"/>
        <path fill="#006F7D" d="M153.672 169.3c-6.468 1.855-11.54-.31-17.003-16.727.408 1.689.887 3.498 1.446 5.445 6.117 21.333 11.544 24.153 18.662 22.112 7.12-2.04 10.226-7.309 4.11-28.641a132.856 132.856 0 0 0-1.66-5.385c4.068 16.818.913 21.342-5.555 23.196"/>
    </g>
</svg>
