<?xml version="1.0" encoding="UTF-8"?>
<svg width="610px" height="595px" viewBox="0 0 610 595" version="1.1" xmlns="http://www.w3.org/2000/svg" xmlns:xlink="http://www.w3.org/1999/xlink">
    <!-- Generator: sketchtool 51.2 (57519) - http://www.bohemiancoding.com/sketch -->
    <title>75F41EAF-F32D-4DB8-A911-62016C7ED34A</title>
    <desc>Created with sketchtool.</desc>
    <defs></defs>
    <g id="-------Phones" stroke="none" stroke-width="1" fill="none" fill-rule="evenodd">
        <g id="Showcase/phones-no-offer---D" transform="translate(-415.000000, -272.000000)">
            <g id="illustration" transform="translate(415.000000, 272.000000)">
                <path d="M442.708402,267.566368 L377.177962,228 L9,517.245022 L505.18448,572 L531,532.737021 C531,532.737021 495.243423,437.792496 442.708402,267.566368" id="Fill-2" fill="#FFFFFF"></path>
                <polygon id="Fill-4" fill="#ECD7C0" points="525.588733 0 480 58.8541323 536.860234 101 610 1.4571637 610 0"></polygon>
                <g id="Group-33" transform="translate(0.000000, 49.000000)">
                    <path d="M433.461387,70.1432124 C419.511477,87.9975598 420.014472,93.8432379 425.260382,97.9491633 C430.509025,102.055089 436.301668,101.133239 450.251578,83.2788913 C464.201487,65.4245439 463.698492,59.5761304 458.449849,55.470205 C453.201206,51.3642795 447.411296,52.288865 433.461387,70.1432124" id="Fill-5" fill="#ECD7C0"></path>
                    <path d="M476.756953,89.8858479 C475.16049,89.089829 473.544892,88.096857 471.921093,86.9041965 C470.819425,86.0835585 469.756028,85.2683914 468.722702,84.4614307 C467.653837,83.7009728 466.571305,82.9104249 465.47237,82.0897869 C463.867707,80.8725072 462.457134,79.6059892 461.237918,78.2984393 C449.824852,68.2264756 444.606279,58.9888272 446.935365,48.0551935 L446.973636,48.1181091 C447.074782,47.5874299 447.184129,47.0567506 447.312611,46.5206005 C448.397877,41.9879433 450.508269,37.1954173 453.523506,32.0253979 C453.736732,31.6615818 453.958159,31.2950301 454.179586,30.925743 C454.996953,29.2379642 456.035747,27.5310372 457.295968,25.8159037 C457.859104,25.0609168 458.416772,24.3278135 458.971707,23.6056521 C459.961294,22.1914192 461.000088,20.7553027 462.096289,19.2863607 C463.438521,17.5137826 464.843626,15.9791896 466.29247,14.6798461 C476.204752,3.57114303 485.337938,-1.48672251 496.119526,0.81379935 L496.056651,0.85209579 C496.586983,0.95330781 497.117315,1.06272621 497.653114,1.19129283 C502.182802,2.28000591 506.972189,4.39178103 512.138822,7.40899341 C512.335646,7.52388273 512.535204,7.64424297 512.734762,7.76460321 C514.579988,8.60986035 516.452551,9.72319257 518.333315,11.1045999 C519.448651,11.9389152 520.52845,12.7622886 521.578179,13.5801912 C522.657978,14.3515909 523.754179,15.1530807 524.869516,15.9846605 C526.731144,17.3961579 528.327606,18.8760417 529.66437,20.4051639 C529.836591,20.5610851 530.008812,20.7197418 530.175566,20.875663 C534.538501,24.9733821 537.922782,28.9644182 540.257335,32.9992217 C540.533435,33.4779272 540.787666,33.9566327 541.033696,34.4353382 L541.055566,34.3642162 C546.328812,44.0532156 544.081737,54.2510104 536.263445,66.9216612 C535.43241,68.6832974 534.360812,70.4668173 533.045918,72.2585436 C531.949717,73.7302211 530.867184,75.1335121 529.79832,76.4848293 C529.262521,77.226139 528.718521,77.9701841 528.158119,78.7224356 C526.873294,80.4211563 525.531063,81.9037756 524.147827,83.1675581 C523.858058,83.4848715 523.571023,83.8021848 523.281254,84.1085563 C519.186219,88.4743505 515.197797,91.8635854 511.165636,94.1969328 C510.689978,94.4732143 510.208852,94.7276121 509.733194,94.9738035 L509.801536,94.9956871 C499.9904,100.343511 489.6544,97.9636612 476.756953,89.8858479" id="Fill-7" fill="#ECD7C0"></path>
                    <path d="M432.720563,71.0967938 C432.720563,71.0967938 445.563337,55.387047 446.533789,50.5753728 C447.501508,45.7636987 456.213709,40.8754317 456.213709,40.8754317 L451.008804,59.1729236 L436.192322,74.4887642" id="Fill-9" fill="#ECD7C0"></path>
                    <path d="M477.476181,137.642056 C483.689809,155.616763 488.569407,157.742216 494.74203,155.605821 C500.914653,153.469427 503.437829,148.780849 497.224201,130.806141 C491.010573,112.831433 486.130975,110.705981 479.958352,112.842375 C473.785729,114.97877 471.262553,119.667348 477.476181,137.642056" id="Fill-11" fill="#ECD7C0"></path>
                    <path d="M454.170565,201.982537 C457.724334,191.965282 459.550424,180.673303 459.804655,168.514184 C459.823791,167.537624 459.834726,166.604833 459.840193,165.691189 C463.95163,156.314032 470.359349,144.064642 478.98954,130.13568 L531.251811,46.2856245 C539.939409,32.3429849 536.530525,21.2151336 523.660414,13.183823 C510.793037,5.15251246 499.306163,6.9825352 490.615831,20.9251748 L434.879067,110.350098 C427.112716,122.28491 419.904032,131.88911 414.029379,138.719553 C413.671268,138.902829 413.315891,139.080634 412.946846,139.269381 C402.146123,144.849719 392.810645,151.45312 385.380535,159.052228 C379.112233,165.466881 375.752555,172.532574 376.460575,179.305573 L439.911751,218.906828 C446.303067,216.562539 451.171731,210.440579 454.170565,201.982537" id="Fill-13" fill="#5BC500"></path>
                    <path d="M379.081616,186.806752 L379.076149,186.809487 C379.076149,186.809487 381.566521,193.153019 403.239043,206.726371 C403.290983,206.759197 403.342923,206.789287 403.394862,206.824848 C403.446802,206.854938 403.498742,206.887764 403.550681,206.920589 C425.264209,220.425555 432.051908,219.872992 432.051908,219.872992 L432.054641,219.853844 C433.826058,220.031649 435.586541,219.968733 437.286882,219.643214 C438.188993,219.468144 439.061033,219.216482 439.911204,218.904639 L376.462762,179.30612 C376.555707,180.206087 376.714259,181.100582 376.954822,181.989607 C377.411345,183.669179 378.135767,185.285836 379.081616,186.806752" id="Fill-15" fill="#FFFFFF"></path>
                    <path d="M456.148921,105.398094 C461.553383,96.7266862 460.859031,94.0103745 457.988679,92.2186482 C455.118328,90.4296573 452.373725,90.998633 446.969262,99.6700412 C446.29678,100.747812 445.719976,101.735313 445.227916,102.638015 C444.63471,103.477802 444.003232,104.429742 443.33075,105.510248 C437.926287,114.178921 438.620639,116.897968 441.490991,118.689695 C444.361343,120.478685 447.103212,119.90971 452.507674,111.238302 C453.18289,110.16053 453.759694,109.173029 454.249021,108.270327 C454.844961,107.430541 455.476438,106.478601 456.148921,105.398094" id="Fill-17" fill="#FFFFFF"></path>
                    <path d="M494.952796,111.996571 C503.484575,121.808666 508.008796,121.135743 512.858324,116.912193 C517.710585,112.688642 518.998143,108.295494 510.466364,98.4861341 C501.934585,88.6740391 497.410364,89.3469623 492.560836,93.5705125 C487.711309,97.7940627 486.421017,102.187211 494.952796,111.996571" id="Fill-19" fill="#ECD7C0"></path>
                    <path d="M510.896917,93.6170153 C521.016957,101.779628 525.352555,100.324363 529.387449,95.315736 C533.422344,90.3071087 533.925339,85.7553033 523.805298,77.5926906 C513.687992,69.4328134 509.34966,70.8880782 505.314766,75.8967054 C501.279871,80.9053327 500.77961,85.4544027 510.896917,93.6170153" id="Fill-21" fill="#ECD7C0"></path>
                    <path d="M523.824434,74.2089266 C533.151711,81.1952914 536.989781,79.753704 540.445138,75.1362476 C543.897761,70.5215265 544.201198,66.4292784 534.873922,59.4401781 C525.549379,52.4538132 521.711309,53.8981361 518.255952,58.5128571 C514.803329,63.1303136 514.499891,67.2225618 523.824434,74.2089266" id="Fill-23" fill="#ECD7C0"></path>
                    <path d="M519.525194,59.4891428 C521.359485,57.0272288 523.642098,55.9795476 528.393214,58.2280957 L520.840088,68.3547687 C517.335526,64.4403254 517.688169,61.9510568 519.525194,59.4891428" id="Fill-25" fill="#D3B590"></path>
                    <path d="M506.670939,76.732662 C508.871542,74.0601176 511.378316,72.9057535 516.099361,75.2773973 L507.053652,86.271211 C503.822456,82.0886927 504.470336,79.4052064 506.670939,76.732662" id="Fill-27" fill="#D3B590"></path>
                    <path d="M493.658131,95.2115149 C496.208643,92.8699612 498.852101,92.0739423 503.195899,95.0802129 L492.715015,104.709032 C490.093427,100.121666 491.107618,97.5530687 493.658131,95.2115149" id="Fill-29" fill="#D3B590"></path>
                    <path d="M265.193986,437.291183 C487.766529,437.291183 529.963433,457.552735 529.963433,491.343872 C529.963433,525.13501 487.766529,545.396562 265.193986,545.396562 C42.6214432,545.396562 0.424538693,525.13501 0.424538693,491.343872 C0.424538693,457.552735 42.6214432,437.291183 265.193986,437.291183" id="Fill-31" fill="#FFFFFF"></path>
                </g>
            </g>
        </g>
    </g>
</svg>