<svg xmlns="http://www.w3.org/2000/svg" width="125" height="86" viewBox="0 0 125 86">
    <path fill="#F59C00" fill-rule="evenodd" d="M56 54.195v-13h12v13H56zm0-25v-38h12v38H56zm50.514-50.514C118.838-9.19 125 5.481 125 22.695c0 17.215-6.113 31.935-18.34 44.161-12.225 12.226-26.946 18.34-44.16 18.34-17.214 0-31.935-6.114-44.16-18.34C6.112 54.63 0 39.91 0 22.696 0 5.48 6.113-9.24 18.34-21.466c12.225-12.227 26.946-18.34 44.16-18.34 17.214 0 31.886 6.162 44.014 18.486zm-9.426 78.894C107.029 47.634 112 35.841 112 22.195c0-13.645-4.922-25.39-14.766-35.234C87.39-22.883 75.645-27.805 62-27.805c-13.645 0-25.39 4.922-35.234 14.766C16.922-3.195 12 8.55 12 22.195c0 13.646 4.922 25.39 14.766 35.234C36.61 67.273 48.355 72.195 62 72.195c13.645 0 25.341-4.873 35.088-14.62z"/>
</svg>
