<svg xmlns="http://www.w3.org/2000/svg" width="84" height="125" viewBox="0 0 84 125">
    <path fill="#F59C00" fill-rule="evenodd" d="M15 94V81h12v13H15zm0-25V31h12v38H15zm50.514-50.514C77.838 30.614 84 45.286 84 62.5c0 17.214-6.113 31.935-18.34 44.16C53.436 118.888 38.715 125 21.5 125c-17.214 0-31.935-6.113-44.16-18.34C-34.888 94.436-41 79.715-41 62.5c0-17.214 6.113-31.935 18.34-44.16C-10.436 6.112 4.285 0 21.5 0c17.214 0 31.886 6.162 44.014 18.486zM56.088 97.38C66.029 87.44 71 75.645 71 62c0-13.645-4.922-25.39-14.766-35.234C46.39 16.922 34.645 12 21 12 7.355 12-4.39 16.922-14.234 26.766-24.078 36.61-29 48.355-29 62c0 13.645 4.922 25.39 14.766 35.234C-4.39 107.078 7.355 112 21 112c13.645 0 25.341-4.873 35.088-14.62z"/>
</svg>
