<?xml version="1.0" encoding="utf-8"?>
<!-- Generator: Adobe Illustrator 20.0.0, SVG Export Plug-In . SVG Version: 6.00 Build 0)  -->
<svg version="1.1" id="Capa_1" xmlns="http://www.w3.org/2000/svg" xmlns:xlink="http://www.w3.org/1999/xlink" x="0px" y="0px"
	 viewBox="0 0 303 247.9" style="enable-background:new 0 0 303 247.9;" xml:space="preserve">
<style type="text/css">
	.st0{fill:#5BC500;}
</style>
<g>
	<g>
		<path class="st0" d="M78.7,57.7c-10.8,0.2-30.7,5.5-39.8,42.7c-4,16.2-5.5,33.1-2.1,53.2c3.1,18.5,8.7,34.5,12.4,43.4
			c1.3,3,3.3,6.2,4.8,8.2c4.4,5.6,11.8,5.2,14.9,3.7c3.4-1.7,7.3-5.7,5.9-14.9c-0.7-4.4-2.6-10.9-3.7-14.5
			c-3.4-11.1-7.9-24.4-8.3-33.9c-0.5-12.7,4.5-14.4,7.8-15.1c5.6-1.2,10.3,4.9,14.8,12.6c5.3,9.2,14.5,25.5,21.9,38
			c6.7,11.2,19.1,23.3,39,22.5c20.3-0.8,35.3-8.6,43-33c5.8-18.2,9.7-31.9,16-45.8c7.3-16.1,17-24.7,25.2-22
			c7.6,2.4,9.5,9.9,9.6,20.8c0.1,9.6-1,20.3-1.9,28.1c-0.3,2.8-0.9,8.5-0.7,11.7c0.5,6.2,3.2,12.4,10.2,13.4
			c7.5,1.1,13.5-4.9,15.9-12.1c0.9-2.8,1.7-7.2,2.2-10.3c2.2-15.6,2.8-26.1,1.8-42c-1.2-18.6-4.8-35.7-11.2-50.4
			c-6.1-14.1-15.9-23.1-28.4-23.9c-13.9-0.9-29.8,8.3-38.2,26.2c-7.7,16.5-13.9,33.4-17.6,42c-3.8,8.8-9.4,14.2-17.9,15.1
			c-10.5,1.1-19.5-6.5-26.1-17.4c-5.8-9.5-17.2-27.5-23.3-33.5C99,64.6,92.4,57.5,78.7,57.7z"/>
	</g>
</g>
</svg>
