<?xml version="1.0" encoding="utf-8"?>
<!-- Generator: Adobe Illustrator 20.0.0, SVG Export Plug-In . SVG Version: 6.00 Build 0)  -->
<svg version="1.1" id="Capa_1" xmlns="http://www.w3.org/2000/svg" xmlns:xlink="http://www.w3.org/1999/xlink" x="0px" y="0px"
	 viewBox="0 0 960 247.9" style="enable-background:new 0 0 960 247.9;" xml:space="preserve">
<style type="text/css">
	.st0{fill:#5BC500;}
</style>
<g>
	<g>
		<path class="st0" d="M849.1,91.5c-4.8-2.1-12-3.4-21.4-3.4h-1.1c-5.7,0-13.5,0.7-21,2.1c-1.3,0.2-1.8,0.9-1.8,2.3v10.7
			c0,1.3,0.7,1.8,2.2,1.6c6.6-1,13.4-1.7,18.6-1.7h0.7c7.4,0,13.4,0.7,16.9,3.1c3.6,2.4,5.4,6,5.4,13.8v2.3
			c-5.4-1.1-11.9-1.9-17.9-1.9H828c-10,0-19.3,2.4-25.3,8c-4.6,4.3-7.6,10.7-7.6,19v0.7c0,16.6,11.5,26.8,34.7,26.8h4.1
			c9.1,0,17.8-2.7,23.1-7c6-5,8.3-12.3,8.3-24.1v-24C865.4,103.4,859,95.8,849.1,91.5z M847.6,143.3c0,6.3-0.2,10-2.5,12.6
			c-2.4,2.8-6.7,4.1-12.5,4.1h-2.8c-10.7,0-16.9-4.3-16.9-12.5c0-3.8,1.5-7.1,3.8-9.1c2.7-2.3,6.7-3.5,13.5-3.5h1.5
			c5.2,0,11.1,0.5,15.9,1.8V143.3z M922,88.1h-9.6c-13.8,0-24.5,4.8-29.2,14.8c-2,4.3-2.6,10.1-2.6,16.3v52.5c0,1.2,0.6,1.6,1.8,1.6
			h14.3c1.2,0,1.7-0.5,1.7-1.6v-44c0-6.2,0.1-10.7,0.4-13.5c0.8-7.3,5.2-10.7,15.5-10.7h7.6c1.2,0,1.8-0.6,1.8-1.8V89.9
			C923.9,88.7,923.3,88.1,922,88.1z M578.4,173.4H594c1.3,0,1.9-0.4,2.5-1.5c10-18.9,25.4-51.2,26.5-80.5c0-1.2-0.4-1.7-2-1.7
			l-14.5,0c-1.7,0-2.1,0.5-2.2,2c-0.7,10.7-2.9,23.1-6.2,34.2c-3.4,11.5-7.7,22.4-11.9,30.5c-4.1-8.1-8.5-19-11.9-30.5
			c-3.3-11.1-5.6-23.6-6.2-34.4c-0.1-1.5-0.9-1.8-2.4-1.8h-14.6c-1.5,0-2,0.7-1.9,2.3c2,28.7,11,51,26.5,80
			C576.3,173,577.1,173.4,578.4,173.4z M693.7,135.8c3.9,1.4,7.1,2.6,10.9,4c8.2,2.9,11.7,5.2,11.7,10.2c0,6.5-5.5,9.9-17.8,9.9H698
			c-7,0-15-1.4-22-3.6c-1.4-0.5-2.2,0.1-2.2,1.5v10.7c0,1.3,0.2,2.2,1.7,2.7c6.7,2.3,16,3.6,23.5,3.6h0.6c22,0,33.9-9.8,33.9-25.6
			l0-0.2c0-6.1-2-11.6-5.7-15.3c-3.7-3.6-9.2-6.4-17.8-9.6c-4.6-1.7-8.1-3-11.3-4.2c-7.1-2.6-9.1-5.1-9.1-8.7
			c0-6.1,5.9-8.4,15.5-8.4l0.7,0c5.5,0,12.2,0.8,20.3,2.3c1.5,0.3,2.3-0.1,2.3-1.6v-11c0-1.4-0.4-1.8-1.9-2.2
			c-5.3-1.1-14.8-2.3-20.2-2.3H705c-11.2,0-19.5,2.1-25.1,6.9c-4.5,3.9-7.5,9.9-7.5,16.9l0,0.5c0,6.6,2.3,11.9,6.2,15.5
			C682.2,131.3,687.1,133.4,693.7,135.8z M781.8,173.4c1.2,0,1.9-0.7,1.9-1.7v-11.9c0-1.1-0.7-1.7-1.9-1.7h-1.9
			c-5.7,0-9.2-1.4-11.3-3.6c-2.8-3-3.4-7.8-3.4-13.5v-36.3H781c1.2,0,1.8-0.5,1.8-1.6V91.3c0-1.2-0.6-1.6-1.8-1.6h-15.8v-15
			c0-1.2-0.6-1.6-1.8-1.6h-14.3c-1.2,0-1.7,0.5-1.7,1.6v67.1c0,11.7,2.3,19.1,7.5,24.2c4.8,4.8,12.3,7.4,23.2,7.4H781.8z
			 M415.2,88.1h-4.3c-12.4,0-20.7,3.3-24.7,8.2h-0.1c-4-4.9-12.8-8.2-25.2-8.2h-4.4c-14,0-25.5,4.9-30.1,14.9
			c-2,4.3-2.6,10.1-2.6,16.3v52.2c0,1.1,0.7,1.9,1.8,1.9h14.1c1.2,0,1.8-0.8,1.8-1.9l0-43.4c0-6.2,0.1-10.7,0.5-13.5
			c0.8-7.3,6.2-10.8,16.5-10.8h1.2c10.3,0,16,3.5,16.8,10.8c0.3,2.8,0.5,7.3,0.5,13.5v43.5c0,1.1,0.7,1.9,1.9,1.9h14.2
			c1.2,0,1.8-0.9,1.8-2.1l0-43.3c0-6.2,0.1-10.7,0.5-13.5c0.8-7.3,6.5-10.8,16.8-10.8h1.2c10.3,0,15.7,3.5,16.5,10.8
			c0.3,2.8,0.5,7.3,0.5,13.5v43.5c0,1.2,0.7,1.9,1.9,1.9h14.2c1.2,0,1.8-0.9,1.8-2.1v-52c0-6.2-0.7-12-2.6-16.3
			C440.7,93,429.2,88.1,415.2,88.1z M537,154.6c1.7-5.7,2.7-12.2,2.7-23.1c0-10.8-1-17.4-2.7-23.1c-4.4-14.5-15.8-20.3-34.4-20.3
			h-2.2c-18.6,0-30.1,5.8-34.5,20.3c-1.7,5.7-2.7,12.2-2.7,23.1c0,10.8,1,17.4,2.7,23.1c4.4,14.5,15.8,20.3,34.5,20.3h2.2
			C521.1,174.9,532.6,169.1,537,154.6z M520.9,143.7c-1.4,13.6-8.2,15.7-19.2,15.7h-0.5c-11,0-17.8-2.1-19.2-15.7
			c-0.4-4.1-0.8-7.5-0.8-12.2c0-4.7,0.3-8.1,0.8-12.2c1.4-13.6,8.2-15.7,19.2-15.7h0.5c11,0,17.8,2.1,19.2,15.7
			c0.4,4.1,0.8,7.5,0.8,12.2C521.6,136.2,521.3,139.6,520.9,143.7z M653.7,89.7h-14.3c-1.2,0-1.8,0.5-1.8,1.6l0,80.4
			c0,1.2,0.6,1.6,1.8,1.6h14.3c1.2,0,1.8-0.5,1.8-1.6l0-80.4C655.5,90.2,654.9,89.7,653.7,89.7z"/>
		<path class="st0" d="M79.9,57.9c-10.8,0.2-30.7,5.5-39.8,42.7c-4,16.2-5.5,33.1-2.1,53.2c3.1,18.5,8.7,34.5,12.4,43.4
			c1.3,3,3.3,6.2,4.8,8.2c4.4,5.6,11.8,5.2,14.9,3.7c3.4-1.7,7.3-5.7,5.9-14.9c-0.7-4.4-2.6-10.9-3.7-14.5
			c-3.4-11.1-7.9-24.4-8.3-33.9c-0.5-12.7,4.5-14.4,7.8-15.1c5.6-1.2,10.3,4.9,14.8,12.6c5.3,9.2,14.5,25.5,21.9,38
			c6.7,11.2,19.1,23.3,39,22.5c20.3-0.8,35.3-8.6,43-33c5.8-18.2,9.7-31.9,16-45.8c7.3-16.1,17-24.7,25.2-22
			c7.6,2.4,9.5,9.9,9.6,20.8c0.1,9.6-1,20.3-1.9,28.1c-0.3,2.8-0.9,8.5-0.7,11.7c0.5,6.2,3.2,12.4,10.2,13.4
			c7.5,1.1,13.5-4.9,15.9-12.1c0.9-2.8,1.7-7.2,2.2-10.3c2.2-15.6,2.8-26.1,1.8-42c-1.2-18.6-4.8-35.7-11.2-50.4
			c-6.1-14.1-15.9-23.1-28.4-23.9c-13.9-0.9-29.8,8.3-38.2,26.2c-7.7,16.5-13.9,33.4-17.6,42c-3.8,8.8-9.4,14.2-17.9,15.1
			c-10.5,1.1-19.5-6.5-26.1-17.4c-5.8-9.5-17.2-27.5-23.3-33.5C100.2,64.8,93.6,57.7,79.9,57.9z"/>
	</g>
</g>
</svg>
