<svg xmlns="http://www.w3.org/2000/svg" width="160" height="160" viewBox="0 0 160 160">
    <g fill="none" fill-rule="evenodd">
        <rect width="160" height="160" fill="#5BC500" rx="16"/>
        <path fill="#FFF" d="M22.065 68.028c-2.06 8.289-2.855 16.929-1.093 27.213 1.625 9.486 4.506 17.672 6.446 22.184.67 1.554 1.706 3.175 2.507 4.173 2.303 2.87 6.137 2.686 7.749 1.905 1.756-.853 3.774-2.91 3.044-7.607-.354-2.27-1.372-5.588-1.946-7.434-1.758-5.663-4.1-12.496-4.304-17.362-.273-6.51 2.331-7.363 4.062-7.738 2.909-.63 5.348 2.517 7.666 6.462 2.764 4.708 7.504 13.051 11.369 19.424 3.49 5.752 9.93 11.91 20.273 11.487 10.545-.43 18.317-4.394 22.322-16.874 2.995-9.338 5.038-16.314 8.324-23.46 3.779-8.217 8.82-12.614 13.065-11.272 3.94 1.246 4.923 5.043 4.971 10.623.043 4.935-.537 10.376-.988 14.374-.163 1.45-.46 4.368-.338 5.99.238 3.184 1.637 6.366 5.276 6.874 3.878.543 6.989-2.51 8.23-6.2.492-1.457.91-3.683 1.135-5.262 1.14-7.976 1.435-13.336.922-21.497-.602-9.543-2.497-18.245-5.803-25.776-3.163-7.202-8.244-11.817-14.76-12.226-7.212-.45-15.489 4.266-19.83 13.414-4.003 8.434-7.205 17.09-9.147 21.508-1.97 4.482-4.865 7.242-9.317 7.704-5.443.565-10.13-3.329-13.566-8.878-2.995-4.84-8.929-14.052-12.104-17.148-2.983-2.907-6.39-6.546-13.483-6.436-5.606.088-15.956 2.813-20.682 21.835z"/>
    </g>
</svg>
