<?xml version="1.0" encoding="UTF-8"?>
<svg width="603px" height="521px" viewBox="0 0 603 521" version="1.1" xmlns="http://www.w3.org/2000/svg" xmlns:xlink="http://www.w3.org/1999/xlink">
    <!-- Generator: Sketch 52.2 (67145) - http://www.bohemiancoding.com/sketch -->
    <title>Supergráfico</title>
    <desc>Created with Sketch.</desc>
    <g id="-------PayResult" stroke="none" stroke-width="1" fill="none" fill-rule="evenodd">
        <g id="OkMiMovistar---D" transform="translate(-837.000000, -782.000000)" fill="#FFFFFF">
            <g id="Descarga-la-app" transform="translate(0.000000, 743.000000)">
                <g id="Background-Image">
                    <path d="M852.978385,207.051357 C827.09118,313.006658 817.084538,423.438943 839.237608,554.889935 C859.670459,676.125835 895.878981,780.777976 920.276727,838.432288 C928.68902,858.315985 941.716536,879.04043 951.786113,891.777766 C980.736148,928.455409 1028.94425,926.122333 1049.1883,916.117428 C1071.27843,905.229738 1096.66216,878.935336 1087.47367,818.90591 C1083.02627,789.900094 1070.22952,747.463326 1063.03396,723.880337 C1040.90187,651.491911 1011.46934,564.159184 1008.90999,501.964831 C1005.46955,418.730752 1038.21665,407.864081 1059.97113,403.050797 C1096.53629,395.000633 1127.20654,435.230437 1156.3244,485.654315 C1191.08542,545.830872 1250.66376,652.47979 1299.24947,733.90626 C1343.13604,807.450715 1424.09125,886.165771 1554.11466,880.763964 C1686.67645,875.257062 1784.37233,824.580961 1834.69924,665.069995 C1872.35527,545.70476 1898.03269,456.522387 1939.35991,365.196106 C1986.85475,260.165629 2050.23015,203.961607 2103.57793,221.112872 C2153.12865,237.06607 2165.48486,285.577245 2166.09323,356.893717 C2166.61768,419.991875 2159.33822,489.542775 2153.67408,540.639251 C2151.61821,559.177751 2147.88408,596.464936 2149.41549,617.189381 C2152.39441,657.902616 2169.99519,698.552795 2215.74883,705.068594 C2264.50237,711.983749 2303.60589,672.973029 2319.21374,625.807051 C2325.36038,607.184477 2330.62593,578.746167 2333.45799,558.54719 C2347.78616,456.606462 2351.5203,388.085478 2345.03801,283.769637 C2337.48583,161.798081 2313.67547,50.5670855 2272.09651,-45.6775726 C2232.34266,-137.739508 2168.46377,-196.739018 2086.56454,-201.951657 C1995.89639,-207.710783 1891.84409,-147.429132 1837.25859,-30.5020663 C1786.95266,77.2818618 1746.69533,187.945353 1722.27661,244.422618 C1697.52223,301.698593 1661.1249,336.989002 1605.17581,342.895259 C1536.76562,350.104675 1477.81664,300.353396 1434.64333,229.394242 C1396.9873,167.536188 1322.38852,49.7893934 1282.48782,10.2321873 C1244.97864,-26.9288862 1202.14098,-73.4432841 1112.98326,-72.0350308 C1042.49622,-70.9210393 912.40987,-36.0930423 852.978385,207.051357 Z" id="Supergráfico" transform="translate(1587.566057, 360.077794) rotate(-13.000000) translate(-1587.566057, -360.077794) "></path>
                </g>
            </g>
        </g>
    </g>
</svg>