<svg xmlns="http://www.w3.org/2000/svg" width="27" height="50" viewBox="0 0 27 50">
    <g fill="none" fill-rule="evenodd">
        <path fill="#FFF" d="M3.289 39.818S.815 35.991.924 35.1c.11-.89.545-28.95.545-28.95l3.159-3.665 16.338-.566 3.902 2.673 1.327 21.266s-2.07 13.334-2.941 13.96c-.871.627-19.965 0-19.965 0"/>
        <path fill="#D8ECED" d="M20.941 36.04H6.281c-.722 0-1.306-.644-1.306-1.44v-1.737c0-.796.584-1.44 1.305-1.44h14.661c.721 0 1.305.644 1.305 1.44V34.6c0 .796-.584 1.44-1.305 1.44"/>
        <path fill="#00B3E5" d="M1.469 6.116s-.01.421-.025 1.526h23.37V4.591l-3.875-2.672-16.325.549L1.47 6.116z"/>
        <path fill="#496D73" d="M22.97 39.14H4.122c-1.025 0-1.875-.738-1.921-1.869-.13-3.154-.13-7.109-.13-12.164 0-11.273 0-17.445 1.417-20.168 1.273-2.446 4.002-2.427 9.981-2.427 5.98 0 8.708.01 9.982 2.456 1.417 2.722 1.417 8.936 1.417 20.209 0 5.148-.001 9.085-.137 12.264-.045 1.036-.821 1.7-1.76 1.7M13.468.484C.217.484.217 1.412.217 25.181c0 23.704 0 24.63 13.252 24.63 13.253 0 13.253-.926 13.253-24.63 0-23.769 0-24.697-13.253-24.697"/>
        <path fill="#5BC500" d="M7.09 18.186a9.203 9.203 0 0 0-.119 3.424c.178 1.193.494 2.223.707 2.79.074.196.187.4.275.526.253.36.673.337.85.239.193-.107.414-.366.334-.957a8.65 8.65 0 0 0-.214-.935c-.192-.712-.45-1.572-.472-2.184-.03-.82.256-.926.446-.974.319-.079.586.317.84.813.304.593.824 1.642 1.248 2.444.382.723 1.089 1.498 2.223 1.445 1.157-.054 2.01-.553 2.448-2.123.329-1.175.553-2.052.913-2.951.415-1.034.968-1.587 1.433-1.418.433.156.54.634.546 1.336.004.621-.06 1.306-.109 1.808-.018.183-.05.55-.037.754.026.4.18.8.579.865.425.068.766-.316.903-.78.053-.184.1-.463.124-.662a13.45 13.45 0 0 0 .1-2.705c-.065-1.2-.273-2.295-.635-3.242-.347-.906-.905-1.487-1.62-1.538-.79-.057-1.698.536-2.174 1.687-.44 1.061-.79 2.15-1.004 2.706-.216.564-.533.911-1.021.97-.597.07-1.111-.42-1.488-1.118-.329-.608-.98-1.767-1.328-2.157-.327-.366-.7-.824-1.479-.81-.614.011-1.75.354-2.268 2.747z"/>
        <path fill="#3E6063" d="M4.122 39.14c-1.025 0-1.875-.738-1.921-1.869-.13-3.154-.13-7.109-.13-12.164 0-11.273 0-17.445 1.417-20.168 1.273-2.446 4.002-2.427 9.981-2.427 5.477 0 8.223.014 9.625 1.895l.887-1.961C22.087.641 18.885.484 13.469.484.217.484.217 1.412.217 25.181c0 14.586.001 20.545 3.089 22.974l4.077-9.014h-3.26z"/>
        <path fill="#FFF" d="M10.855 44.713c0-2.047.99-2.998 2.703-2.998 1.712 0 2.703.951 2.703 2.998s-.991 2.998-2.703 2.998c-1.712 0-2.703-.951-2.703-2.998"/>
        <path fill="#6A999D" d="M12.088 44.713c0-1.113.54-1.63 1.47-1.63.93 0 1.47.517 1.47 1.63s-.54 1.63-1.47 1.63c-.93 0-1.47-.517-1.47-1.63"/>
    </g>
</svg>
