<svg xmlns="http://www.w3.org/2000/svg" width="35" height="24" viewBox="0 0 35 24">
    <g fill="none" fill-rule="evenodd">
        <rect width="34.286" height="24" fill="#353A48" rx="1.895"/>
        <path fill="#FF5E00" d="M17.323 7.078a6.68 6.68 0 0 1 4.331-1.583c3.688 0 6.677 2.967 6.677 6.627 0 3.66-2.99 6.627-6.677 6.627a6.68 6.68 0 0 1-4.33-1.583 6.68 6.68 0 0 1-4.332 1.583c-3.687 0-6.676-2.967-6.676-6.627 0-3.66 2.989-6.627 6.676-6.627a6.68 6.68 0 0 1 4.331 1.583z"/>
        <path fill="#ED0006" d="M17.323 7.078a6.592 6.592 0 0 0 0 10.088 6.68 6.68 0 0 1-4.33 1.583c-3.688 0-6.677-2.967-6.677-6.627 0-3.66 2.989-6.627 6.676-6.627a6.68 6.68 0 0 1 4.331 1.583z"/>
        <path fill="#F9A000" d="M17.323 17.166a6.592 6.592 0 0 0 0-10.088 6.68 6.68 0 0 1 4.331-1.583c3.688 0 6.677 2.967 6.677 6.627 0 3.66-2.99 6.627-6.677 6.627a6.68 6.68 0 0 1-4.33-1.583z"/>
    </g>
</svg>
