<svg xmlns="http://www.w3.org/2000/svg" width="94" height="92" viewBox="0 0 94 92">
    <g fill="none" fill-rule="evenodd">
        <path fill="#FFF" d="M11.45 138.365s-8.612-13.398-8.232-16.515c.38-3.118 1.896-101.325 1.896-101.325L16.112 7.698l56.882-1.98 13.583 9.353 4.621 74.433s-7.206 46.67-10.24 48.86c-3.034 2.192-69.508 0-69.508 0"/>
        <path fill="#D8ECED" d="M72.907 125.142H21.864c-2.51 0-4.543-2.258-4.543-5.043v-6.078c0-2.786 2.034-5.043 4.543-5.043h51.043c2.51 0 4.543 2.257 4.543 5.043v6.078c0 2.785-2.033 5.043-4.543 5.043"/>
        <path fill="#00B3E5" d="M5.114 20.405s-.032 1.475-.086 5.343h81.36v-10.68L72.9 5.718l-56.835 1.92L5.114 20.405z"/>
        <path fill="#496D73" d="M79.97 135.992H14.352c-3.571 0-6.529-2.584-6.69-6.543-.45-11.04-.454-24.882-.454-42.575 0-39.453 0-61.057 4.936-70.586C16.577 7.725 26.078 7.79 46.893 7.79c20.816 0 30.315.033 34.75 8.595 4.934 9.528 4.934 31.278 4.934 70.732 0 18.018-.004 31.798-.478 42.925-.155 3.626-2.858 5.95-6.129 5.95M46.893.694C.755.695.755 3.942.755 87.135c0 82.963 0 86.202 46.138 86.202 46.139 0 46.139-3.24 46.139-86.202 0-83.193 0-86.44-46.14-86.44"/>
        <path fill="#5BC500" d="M24.687 62.652c-.786 3.65-1.09 7.453-.418 11.982.621 4.176 1.722 7.781 2.463 9.767a9.02 9.02 0 0 0 .957 1.839c.879 1.263 2.343 1.181 2.958.838.67-.375 1.442-1.282 1.163-3.35-.135-.998-.524-2.46-.743-3.273-.671-2.493-1.566-5.502-1.644-7.644-.104-2.867.89-3.242 1.551-3.407 1.11-.277 2.042 1.108 2.927 2.845 1.056 2.073 2.866 5.747 4.342 8.552 1.332 2.533 3.792 5.244 7.741 5.058 4.027-.19 6.994-1.935 8.523-7.43 1.144-4.111 1.924-7.182 3.18-10.329 1.442-3.618 3.367-5.554 4.987-4.963 1.506.548 1.88 2.22 1.9 4.677.016 2.173-.206 4.57-.378 6.329-.063.638-.176 1.924-.13 2.637.091 1.402.625 2.804 2.015 3.027 1.481.239 2.669-1.105 3.143-2.73.187-.641.347-1.62.433-2.316.435-3.512.548-5.873.352-9.466-.23-4.201-.953-8.033-2.216-11.349-1.207-3.171-3.148-5.204-5.636-5.382-2.754-.2-5.914 1.877-7.572 5.905-1.528 3.714-2.751 7.525-3.493 9.47-.752 1.973-1.857 3.19-3.557 3.393-2.078.247-3.868-1.466-5.18-3.91-1.144-2.13-3.41-6.187-4.622-7.55-1.139-1.28-2.44-2.883-5.149-2.834-2.14.038-6.092 1.238-7.897 9.614z"/>
        <path fill="#3E6063" d="M14.352 135.992c-3.571 0-6.529-2.584-6.69-6.543-.45-11.04-.454-24.882-.454-42.575 0-39.453 0-61.057 4.936-70.586C16.577 7.725 26.078 7.79 46.893 7.79c19.068 0 28.626.049 33.508 6.634l3.088-6.864C76.896 1.242 65.749.695 46.893.695.755.695.755 3.942.755 87.135c0 51.05.005 71.908 10.754 80.406l14.194-31.549H14.352z"/>
        <path fill="#FFF" d="M37.79 155.495c0-7.164 3.45-10.492 9.412-10.492 5.96 0 9.41 3.328 9.41 10.492 0 7.164-3.45 10.492-9.41 10.492-5.962 0-9.412-3.328-9.412-10.492"/>
        <path fill="#6A999D" d="M42.084 155.495c0-3.895 1.877-5.706 5.119-5.706 3.24 0 5.116 1.81 5.116 5.706 0 3.895-1.877 5.706-5.116 5.706-3.242 0-5.119-1.81-5.119-5.706"/>
    </g>
</svg>
