<svg xmlns="http://www.w3.org/2000/svg" width="126" height="62" viewBox="0 0 126 62">
    <g fill="none" fill-rule="evenodd">
        <path fill="#E5FCFC" d="M116.347 53.398c.065 0 .126-.002.188-.003a23.45 23.45 0 0 0-.188.003m.059 7.954c-.174-.005-.327-.049.324-.045.135-.003.288-.023.432-.025.207-.001.411-.01.599-.006 6.514-.097 7.756-2.17 7.736-4.377-.018-2.149-1.226-3.464-7.306-3.517l-.263.004c-.226.001-.44 0-.643-.004-.134.001-.268.003-.397.006l.252-.01c-2.814-.077-3.383-.744-3.392-1.807-.01-1.064 1.012-1.59 2.075-1.863 3.606-.48 4.386-1.718 4.37-3.512-.02-2.29-1.32-3.783-8.107-3.723-1.318.011-2.426.041-3.36.05l-33.845.043 3.383 18.748s36.678.102 38.142.038M17.005 53.403a23.45 23.45 0 0 0-.28-.008c.062.001.124.003.188.003l.092.005m37.992 7.91l3.382-18.747-33.844-.043c-.934-.009-2.042-.039-3.36-.05-6.788-.06-8.088 1.434-8.108 3.723-.015 1.794.765 3.032 4.37 3.512 1.064.272 2.085.8 2.076 1.863-.01 1.063-.579 1.73-3.392 1.807l.252.01c-.129-.003-.264-.005-.398-.006-.203.004-.416.005-.643.004l-.262-.004c-6.08.053-7.288 1.368-7.307 3.517-.02 2.207 1.222 4.28 7.737 4.377.188-.003.391.005.598.006.145.002.298.022.433.025.65-.004.498.04.324.045 1.464.064 38.142-.038 38.142-.038M10.267 19.012a23.45 23.45 0 0 0-.28-.008l.188.002c.016 0 .049.002.092.006zm36.067 18.395l5.307-29.304-33.844.028c-.934-.008-2.043-.039-3.361-.05-6.787-.06-8.086 1.434-8.107 3.723-.016 1.794.765 3.033 4.37 3.512 1.063.273 2.085.8 2.076 1.863-.01 1.063-.579 1.73-3.392 1.806.082.004.166.008.252.01l-.398-.005c-.203.003-.417.004-.643.003l-.262-.004c-6.08.052-7.288 1.365-7.307 3.514-.02 2.207 1.198 3.553 7.713 3.65a24.93 24.93 0 0 1 1.03.005c.651-.004.499.004.325.01 2.827.122 3.387.795 3.378 1.86-.01 1.07-.584 1.728-3.434 1.8.259.012-6.495-.177-6.556 3.477-.038 2.241 1.256 3.515 8.042 3.574l34.811.528z"/>
        <path fill="#FFF" d="M.748 57.775c0-1.504.806-2.203 2.198-2.203 1.393 0 2.2.699 2.2 2.203s-.807 2.203-2.2 2.203c-1.392 0-2.198-.699-2.198-2.203"/>
        <path fill="#E5FCFC" d="M113.181 12.956l.188-.002a23.451 23.451 0 0 0-.188.002zm-1.348 17.873c6.787-.06 8.08-1.333 8.043-3.574-.062-3.654-6.815-3.465-6.557-3.478-2.85-.07-3.424-.73-3.433-1.798-.01-1.066.55-1.739 3.378-1.862-.174-.005-.327-.013.324-.009a27.831 27.831 0 0 1 1.03-.004c6.515-.098 7.733-1.444 7.713-3.651-.018-2.149-1.226-3.462-7.306-3.514l-.263.004c-.226.001-.44 0-.643-.003l-.397.005c.085-.002.17-.006.252-.01-2.814-.076-3.383-.743-3.392-1.806-.01-1.064 1.012-1.59 2.075-1.863 3.606-.48 4.386-1.718 4.37-3.512-.02-2.29-1.32-3.782-8.107-3.723-1.318.011-2.426.042-3.36.05l-33.845-.028 5.307 29.304 34.81-.528z"/>
        <path fill="#7ADFF0" d="M97.976 58.35h-68.52c-4.074 0-7.377 1.41-7.377-2.653V9.933c0-4.063 3.303-7.356 7.377-7.356h68.52c4.074 0 7.377 3.293 7.377 7.356v45.764c0 4.063-3.303 2.653-7.377 2.653"/>
        <path fill="#C7F0F9" d="M97.313 57.66l-67.194-.522c-1.61 0-2.916-.282-2.916-1.918V11.81c0-2.697 2.15-4.883 4.804-4.883H95.32c2.712 0 4.91 2.234 4.91 4.99V55.22c0 1.636-1.306 2.44-2.916 2.44"/>
        <path fill="#DFF6FB" d="M43.665 55.506c8.022.487 16.052.854 24.089.973 4.812.071 9.625.088 14.437.177.378.007.76.009 1.142.012 7.602-5.76 12.513-14.869 12.513-25.125C95.846 14.123 81.686 0 64.22 0S32.595 14.123 32.595 31.543c0 9.592 4.295 18.18 11.07 23.963"/>
        <path fill="#A1EAF5" d="M44.417 6.958h39.607c-2.078-1.668-4.27-3.276-6.732-4.381h-25.94c-2.46 1.105-4.857 2.713-6.935 4.38"/>
        <path fill="#F4FCFE" d="M85.329 31.628c0-11.821-9.608-21.404-21.46-21.404-11.853 0-21.46 9.583-21.46 21.404 0 11.82 9.607 21.403 21.46 21.403 11.852 0 21.46-9.582 21.46-21.403"/>
        <path fill="#9CEAF5" d="M110.851 55.047H16.162c-.412 0-.836.267-.836.785v1.89c0 .665.88 3.591 10.744 3.591h74.872c9.865 0 10.746-2.926 10.746-3.591v-1.89c0-.518-.425-.785-.837-.785"/>
        <path fill="#60CDDD" d="M111.566 58.13h-96.12c.698 1.567 3.188 3.183 10.625 3.183h74.872c7.436 0 9.926-1.616 10.623-3.184"/>
        <path fill="#78DDE6" d="M63.507 55.042h-9.519l1.573 1.454c.424.378.85.44 1.372.44h13.566c.622 0 1.292-.155 1.754-.68l1.008-1.214h-9.754z"/>
        <path fill="#5AD73C" d="M83.231 24.806c1.621-1.271 1.675-1.833 1.253-2.368-.423-.536-.983-.615-2.604.656-1.62 1.272-1.674 1.834-1.252 2.369.422.535.982.615 2.603-.657"/>
        <path fill="#3AD5F1" d="M44.864 38.178c-1.758 1.076-1.877 1.628-1.52 2.208.358.581.905.725 2.663-.35 1.757-1.077 1.876-1.628 1.52-2.21-.358-.58-.905-.724-2.663.352M118.733 51.728c1.66 1.221 2.217 1.124 2.623.576.405-.548.334-1.108-1.325-2.33-1.66-1.22-2.217-1.123-2.622-.576-.406.549-.335 1.108 1.324 2.33"/>
        <path fill="#FF7C9A" d="M82.893 34.776c-1.277-.599-1.991-.621-2.432.315-.441.936.032 1.47 1.31 2.069 1.276.599 1.99.621 2.432-.315.44-.936-.032-1.47-1.31-2.069"/>
        <path fill="#5AD73C" d="M123.433 39.79c-1.395.21-2.002.586-1.847 1.609.155 1.023.845 1.204 2.24.995 1.397-.21 2.003-.587 1.848-1.61-.154-1.022-.845-1.205-2.24-.994"/>
        <path fill="#FF7C9A" d="M46.564 26.695c0-1.198-.643-1.755-1.752-1.755-1.11 0-1.751.557-1.751 1.755s.642 1.755 1.751 1.755c1.11 0 1.752-.557 1.752-1.755"/>
        <path fill="#D2EDEC" d="M88.251 29.588c0-.766-.41-1.122-1.12-1.122-.71 0-1.12.356-1.12 1.122 0 .767.41 1.123 1.12 1.123.71 0 1.12-.356 1.12-1.123M40.626 32.156c0-.766-.41-1.122-1.12-1.122-.71 0-1.12.356-1.12 1.122 0 .766.41 1.122 1.12 1.122.71 0 1.12-.356 1.12-1.122M115.271 41.588c0-.766-.41-1.122-1.12-1.122-.71 0-1.12.356-1.12 1.122 0 .766.41 1.122 1.12 1.122.71 0 1.12-.356 1.12-1.122"/>
        <path fill="#FF7C9A" d="M8.065 6.645c-1.66-1.222-2.217-1.125-2.623-.577-.405.548-.334 1.108 1.325 2.33 1.66 1.221 2.217 1.124 2.622.576.406-.548.335-1.108-1.324-2.33"/>
        <path fill="#5AD73C" d="M3.365 18.583c1.395-.21 2.002-.587 1.847-1.61-.155-1.022-.845-1.204-2.24-.994-1.397.21-2.003.587-1.848 1.61.154 1.022.845 1.204 2.24.994"/>
        <path fill="#D2EDEC" d="M11.527 16.785c0 .766.41 1.122 1.12 1.122.71 0 1.12-.356 1.12-1.122 0-.767-.41-1.123-1.12-1.123-.71 0-1.12.356-1.12 1.123"/>
        <path fill="#3C5D60" d="M18.12 31.172c-.064-.043.049.072 0 0"/>
        <path fill="#00C600" d="M56.29 24.119c-1.125.017-3.203.57-4.152 4.436-.413 1.684-.572 3.44-.219 5.529.327 1.927.905 3.59 1.294 4.507.135.316.342.645.503.848.463.583 1.232.546 1.556.387.353-.173.758-.591.611-1.546-.07-.46-.275-1.135-.39-1.51-.353-1.15-.824-2.539-.864-3.527-.055-1.323.468-1.496.815-1.573.584-.128 1.073.512 1.539 1.313.555.957 1.506 2.652 2.282 3.947.7 1.168 1.993 2.42 4.07 2.334 2.116-.088 3.676-.893 4.48-3.429.601-1.897 1.011-3.314 1.671-4.766.759-1.67 1.77-2.563 2.623-2.29.79.253.988 1.024.997 2.158.009 1.003-.107 2.108-.198 2.92-.033.295-.092.888-.068 1.217.048.647.329 1.293 1.06 1.397.778.11 1.402-.51 1.652-1.26a6.92 6.92 0 0 0 .227-1.069c.229-1.62.288-2.71.185-4.367-.12-1.94-.5-3.707-1.164-5.237-.635-1.464-1.655-2.401-2.963-2.484-1.448-.092-3.11.866-3.981 2.725-.804 1.713-1.446 3.472-1.836 4.37-.396.91-.977 1.471-1.87 1.565-1.093.115-2.034-.676-2.724-1.804-.6-.983-1.792-2.855-2.43-3.484-.598-.59-1.282-1.33-2.706-1.307"/>
    </g>
</svg>
