<svg xmlns="http://www.w3.org/2000/svg" width="81" height="86" viewBox="0 0 81 86">
    <g fill="none" fill-rule="evenodd">
        <path fill="#3AD5F1" d="M68.788 3.551c-.536-1.393-.913-1.55-1.372-1.373-.46.178-.634.55-.098 1.943.535 1.393.912 1.55 1.372 1.372.46-.178.633-.548.098-1.942"/>
        <path fill="#FF7C9A" d="M78.972 7.448c-.703.74-.882 1.225-.34 1.744.54.518 1.015.316 1.718-.423.703-.74.882-1.225.34-1.743-.54-.519-1.015-.317-1.718.422"/>
        <path fill="#5AD73C" d="M74.794 2.338c-1.011-.334-1.659.054-1.966.992-.307.937-.014 1.635.997 1.968 1.011.334 1.659-.054 1.966-.991.307-.938.014-1.636-.997-1.97"/>
        <path fill="#94E37A" d="M77.58.488c-.539-.177-.883.03-1.046.528-.164.499-.008.87.53 1.048.538.177.883-.029 1.046-.528.163-.499.008-.87-.53-1.048"/>
        <path fill="#92F0F9" d="M50.671 80.777l-1.855-.59 8.403-26.609 1.856.591z"/>
        <path fill="#92F0F9" d="M57.413 58.017c2.827-.018 6.081-4.837 6.79-7.082.663-2.098-3.294-2.456-4.417-2.516-.952-.6-4.392-2.598-5.055-.5-.709 2.246-.815 8.067 1.486 9.718.019.019.043.033.064.051.058.039.12.07.18.103.076.044.136.102.229.131.029.01.06.008.09.017.028.01.052.029.082.038.093.03.175.017.262.025.068.008.137.018.206.02.027-.003.056 0 .083-.005"/>
        <path fill="#3AD5F1" d="M57.794 55.956c1.668-.011 3.587-2.853 4.005-4.178.391-1.237-1.943-1.448-2.605-1.483-.562-.355-2.591-1.533-2.982-.295-.418 1.325-.48 4.757.876 5.731.011.012.026.02.039.03.034.023.07.042.106.062.044.025.08.06.134.077.017.005.036.005.053.01.017.006.031.016.049.022.055.017.103.01.155.015.04.005.08.01.12.011.017 0 .034 0 .05-.002"/>
        <path fill="#598388" d="M59.278 50.04l-5.271-1.053s-.407 1.708.293 1.943c.8.269 4.271 1.345 4.271 1.345s3.445 1.125 4.255 1.369c.706.213 1.345-1.422 1.345-1.422l-4.893-2.182z"/>
        <path fill="#E5EEF3" d="M59.895 47.47l-6.435-1.143s-.617 2.463.23 2.751c.971.33 5.183 1.628 5.183 1.628s4.176 1.371 5.158 1.664c.858.255 1.756-2.12 1.756-2.12l-5.892-2.78z"/>
        <path fill="#598388" d="M60.514 45.514l-7.33-1.43s-.597 2.47.375 2.798c1.112.374 5.933 1.867 5.933 1.867s4.785 1.565 5.91 1.903c.981.294 1.898-2.074 1.898-2.074l-6.786-3.064z"/>
        <path fill="#3E6063" d="M56.955 42.001c.375-1.316.532-2.775.492-4.328-.033-1.327-.145-2.178-.413-3.422a5.562 5.562 0 0 0-.232-.808 1.506 1.506 0 0 0-.37-.544.842.842 0 0 0-.245-.165l-.005-.002a.813.813 0 0 0-.162-.057 1.444 1.444 0 0 0-.648-.01 5.253 5.253 0 0 0-.786.256h.002c-1.16.469-1.915.85-3.012 1.562-1.282.834-2.341 1.817-3.24 2.834-1.72 1.949-.672 3.781.485 4.224 1.515.58 3.976 1.487 9.818 3.15.007.002-2.042-1.43-1.684-2.69M65.522 44.728c.45-1.293 1.158-2.576 2.081-3.822.79-1.065 1.37-1.696 2.303-2.558.185-.17.455-.4.653-.526.195-.125.408-.206.615-.23a.8.8 0 0 1 .171-.008h.006a.891.891 0 0 1 .117.014l.006.001c.057.01.112.026.165.048.194.072.379.2.535.367.16.169.361.455.496.663h-.002c.68 1.054 1.078 1.8 1.565 3.018.57 1.423.923 2.833 1.022 4.19.094 1.3-.223 2.385-1.002 2.984a2.24 2.24 0 0 1-.573.316s1.405-.5 0 0c-1.403.501-7.156-1.913-11.078-3.233-.008-.002 2.49.012 2.92-1.224"/>
        <path fill="#E7EFF5" d="M53.053 44.645s-.646-.493-.32-2.08a126.136 126.136 0 0 1 2.5-9.931c-.284.85-1.9 5.302-2.71 10.598-.164 1.07.518 1.45.518 1.45l7.07 2.225.009-.028-7.067-2.234zM72.006 9.246a.129.129 0 0 0-.035-.012l-.01-.003-.044-.012h-.003c-.08-.02-.16-.03-.242-.032-.298-.015-.63.088-.939.228a4.81 4.81 0 0 0-1.074.67l.002.001c-1.547 1.06-2.534 1.856-3.94 3.278a26.412 26.412 0 0 0-1.653 1.821c-.39.476-.755.95-1.097 1.44-2.375 3.277-4.507 7.203-6.216 11.6l8.41 2.678 6.84-21.657z"/>
        <path fill="#D6E7EE" d="M73.564 33.576c1.127-4.583 1.638-9.025 1.577-13.076a22.995 22.995 0 0 0-.069-1.812 26.546 26.546 0 0 0-.306-2.445c-.333-1.975-.683-3.197-1.34-4.959l.003.001a4.837 4.837 0 0 0-.493-1.168c-.172-.294-.384-.57-.636-.73a1.068 1.068 0 0 0-.215-.114l-.002-.001a.717.717 0 0 0-.043-.016c-.008-.003.004 0-.005-.002-.024-.008-.029-.01-.03-.008l-6.84 21.657 8.4 2.673zM67.163 49.169l-7.043-2.29-.01.028 7.05 2.269s.77.082 1.25-.887c2.367-4.777 3.603-9.338 3.866-10.225a126.147 126.147 0 0 1-3.654 9.552c-.643 1.487-1.459 1.553-1.459 1.553"/>
        <path fill="#FFF" d="M55.326 32.336l.057-.189a59.8 59.8 0 0 1 1.372-3.922l-.14-.044c-.366 1.12-.851 2.645-1.382 4.453l.036-.108c.02-.064.037-.127.057-.19M73.564 33.576a60.198 60.198 0 0 1-1.13 4l-.061.186-.062.188c-.01.026-.021.066-.035.114a152.709 152.709 0 0 0 1.428-4.444l-.14-.044z"/>
        <path fill="#E7EFF5" d="M53.053 44.645l7.067 2.234 5.046-15.976-8.411-2.678a60.302 60.302 0 0 0-1.373 3.922c-.02.064-.036.126-.056.189-.02.063-.038.126-.057.19a4.704 4.704 0 0 1-.035.108 126.136 126.136 0 0 0-2.5 9.93c-.327 1.588.319 2.08.319 2.08"/>
        <path fill="#FFF" d="M53.053 44.645l7.067 2.234 5.046-15.976-8.411-2.678a60.302 60.302 0 0 0-1.373 3.922c-.02.064-.036.126-.056.189-.02.063-.038.126-.057.19a4.704 4.704 0 0 1-.035.108 126.136 126.136 0 0 0-2.5 9.93c-.327 1.588.319 2.08.319 2.08"/>
        <path fill="#D6E7EE" d="M72.373 37.762l.062-.187c.43-1.34.804-2.676 1.13-4l-8.4-2.672-5.045 15.976 7.043 2.29s.815-.066 1.46-1.553a125.966 125.966 0 0 0 3.653-9.552 3.73 3.73 0 0 1 .034-.114l.063-.188"/>
        <path fill="#E6F0F5" d="M72.373 37.762l.062-.187c.43-1.34.804-2.676 1.13-4l-8.4-2.672-5.045 15.976 7.043 2.29s.815-.066 1.46-1.553a125.966 125.966 0 0 0 3.653-9.552 3.73 3.73 0 0 1 .034-.114l.063-.188"/>
        <path fill="#FF547D" d="M74.799 16.355c-.334-2.021-.679-3.287-1.331-5.1-.13-.36-.331-.856-.507-1.159a2.04 2.04 0 0 0-.648-.706 1.093 1.093 0 0 0-.218-.115c-.003 0-.005-.002-.008-.003a1.27 1.27 0 0 0-.08-.027l-.027-.008-.054-.016h-.008c-.08-.02-.162-.032-.244-.032-.299-.012-.627.075-.938.221a5.06 5.06 0 0 0-1.077.675l.002.001c-1.547 1.06-2.562 1.943-3.983 3.412l-.088.091a43.153 43.153 0 0 0 4.473 1.691c1.653.527 3.26.934 4.758 1.226l-.022-.15"/>
        <path fill="#C7DCE3" d="M66.47 16.014a.476.476 0 1 0-.91-.29.477.477 0 0 0 .91.29M73.719 18.322a.476.476 0 1 0-.91-.29.477.477 0 0 0 .91.29M69.97 17.38a.476.476 0 1 0-.91-.29.477.477 0 0 0 .91.29"/>
        <path fill="#FF406F" d="M74.799 16.355c-.334-2.021-.679-3.287-1.331-5.1-.13-.36-.331-.856-.507-1.159a2.156 2.156 0 0 0-.481-.582c.136 1.569.292 4.366-.069 6.45a42.09 42.09 0 0 0 2.408.546c-.008-.05-.012-.105-.02-.155"/>
        <path fill="#92F0F9" d="M10.007 85.984H69.57c1.782 0 2.554-2.274 1.138-3.36-.786-.602-1.68-1.085-2.646-1.297-.227-3.64-3.24-6.37-6.921-6.37-2.201 0-4.139 1.13-5.409 2.736a7.457 7.457 0 0 0-4.379-1.418c-.361 0-.709.079-1.055.136-1.31-2.245-3.711-3.76-6.49-3.76a7.833 7.833 0 0 0-3.303.754c-1.492-3.223-4.229-5.468-8.594-5.468v.008c-4.763 0-7.896 2.988-8.967 7.003-1.252-.737-2.66-1.152-4.256-1.042-3.681.253-6.59 3.266-6.968 6.951-.107 1.045-.01.476 0 .683-1.048.34-1.999.98-2.793 1.726-1.036.971-.337 2.718 1.08 2.718"/>
        <path fill="#6AE0F3" d="M24.764 79.526c2.29-.572 4.44-.307 6.445.412.391-4.316 2.48-8.122 6.215-10.388-1.441-1.028-3.412-1.612-5.532-1.612v.007c-4.665 0-7.886 2.987-8.958 7.003-1.252-.737-2.655-1.153-4.25-1.042-3.682.254-6.588 3.266-6.966 6.951-.108 1.045-.01.476.001.683a7.408 7.408 0 0 0-2.793 1.641c-1.036.972-.336 2.633 1.081 2.633h7.314c1.336-2.98 3.998-5.428 7.443-6.288"/>
        <path fill="#5AD73C" d="M54.432 18.315c.48.969.798 1.826 1.037 2.379.802 1.86-.318 1.99-1.013 1.863a7.502 7.502 0 0 1-1.053-.315c-1.219-.455-2.131-.852-3.227-1.443a82.324 82.324 0 0 0 4.256-2.484"/>
        <path fill="#5AD73C" d="M42.627.978c-9.184.126-13.423 2.302-13.308 10.817.116 8.515 4.413 10.575 13.597 10.45 9.185-.127 13.424-2.303 13.308-10.819C56.108 2.911 51.811.852 42.627.978"/>
        <path fill="#D0EDC2" d="M34.715 7.612l15.331-.21a.446.446 0 0 0 .438-.452l-.002-.134a.446.446 0 0 0-.45-.44l-15.33.21a.446.446 0 0 0-.439.453l.002.133a.446.446 0 0 0 .45.44M41.484 10.68l8.605-.118a.446.446 0 0 0 .438-.451l-.002-.134a.446.446 0 0 0-.45-.44l-8.605.118a.446.446 0 0 0-.438.452l.002.133a.446.446 0 0 0 .45.44M38.75 14.006l11.384-.156a.447.447 0 0 0 .438-.452l-.002-.133a.446.446 0 0 0-.45-.44l-11.383.156a.446.446 0 0 0-.438.452l.002.133a.446.446 0 0 0 .45.44M34.79 10.938l4.456-.061c.26-.004.47-.22.467-.482l-.003-.24a.476.476 0 0 0-.48-.47l-4.456.062a.476.476 0 0 0-.467.482l.003.24c.004.261.22.472.48.469M45.688 16.845l4.456-.06c.26-.005.47-.221.467-.483l-.003-.24a.476.476 0 0 0-.48-.469l-4.456.061a.476.476 0 0 0-.467.482l.003.24c.004.261.22.473.48.47"/>
        <path fill="#6AE0F3" d="M12.143 73.903c.792-.021 1.24-.434 1.217-1.295-.024-.861-.493-1.25-1.285-1.228-.793.022-1.24.434-1.217 1.296.023.861.492 1.249 1.285 1.227M12.363 68.708c-.01-.381-.218-.553-.568-.543-.35.01-.548.192-.538.573.01.38.217.552.568.542.35-.01.548-.192.538-.572M15.573 71.024c.547-.015.856-.3.84-.895-.016-.595-.34-.863-.887-.848-.547.015-.857.3-.84.895.015.595.34.863.887.848"/>
        <path fill="#92F0F9" d="M69.42 76.834c-.668-.018-1.046-.366-1.026-1.093.02-.726.415-1.054 1.084-1.035.668.018 1.046.366 1.026 1.092-.02.727-.415 1.054-1.084 1.036M69.235 72.452c.008-.321.183-.466.479-.458.295.008.462.162.454.483-.01.321-.184.465-.48.458-.295-.008-.462-.162-.453-.483M66.527 74.405c-.461-.012-.722-.253-.709-.755.014-.501.287-.727.749-.714.462.012.722.252.709.754-.014.502-.287.728-.749.715"/>
        <path fill="#D6E7EE" d="M70.487 31.607c1.049-2.856-.215-5.954-2.822-6.918-2.607-.965-5.57.569-6.618 3.425-1.049 2.856.215 5.953 2.822 6.917 2.606.965 5.57-.569 6.618-3.424"/>
        <path fill="#F3FBFF" d="M70.646 31.174c.96-2.617-.374-5.52-2.98-6.485a5.025 5.025 0 0 0-6.46 2.992c-.961 2.617.373 5.52 2.98 6.485a5.025 5.025 0 0 0 6.46-2.992"/>
        <path fill="#00C4EB" d="M65.616 27.089a4.98 4.98 0 0 1 .575-1.134 3.51 3.51 0 0 0-3.575 2.293 3.529 3.529 0 0 0 2.08 4.527 3.5 3.5 0 0 0 3.854-.986 5.263 5.263 0 0 1-.899-.246c-2.046-.758-2.851-2.23-2.035-4.454"/>
        <path fill="#3AD5F1" d="M67.126 26.16a3.489 3.489 0 0 0-.935-.204c-.22.315-.412.69-.575 1.133-.816 2.224-.011 3.697 2.035 4.454.312.115.61.195.899.247a3.529 3.529 0 0 0-1.424-5.63"/>
        <path fill="#CAEEF5" d="M66.216 28.179a.88.88 0 0 0-.88-.883.88.88 0 0 0-.878.883.88.88 0 0 0 .879.882.88.88 0 0 0 .879-.882"/>
        <path fill="#DAE7EF" d="M3.87 29.958a1.219 1.219 0 0 0 1.709.12 1.23 1.23 0 0 0 .417-.833 1.234 1.234 0 0 0-.293-.878c-.416-.486-1.226-.542-1.706-.12-.237.212-.389.51-.41.828-.023.319.086.642.291.884H3.87z"/>
        <path fill="#EDF2F6" d="M4.997 23.612a.871.871 0 0 0 1.218.086.875.875 0 0 0 .298-.594.877.877 0 0 0-.209-.626.884.884 0 0 0-1.216-.085.879.879 0 0 0-.293.59.888.888 0 0 0 .208.63h-.006z"/>
        <path fill="#C8DAE6" d="M15.61 25.84l-.888.827a.432.432 0 0 0-.136.34l.068 1.215a.429.429 0 0 1-.636.401l-1.06-.592a.427.427 0 0 0-.364-.025l-1.129.441a.43.43 0 0 1-.577-.485l.234-1.193a.432.432 0 0 0-.089-.356l-.767-.942a.431.431 0 0 1 .281-.7l1.203-.146a.428.428 0 0 0 .31-.195l.656-1.023a.428.428 0 0 1 .75.052l.51 1.103a.43.43 0 0 0 .28.236l1.172.31c.327.086.43.5.182.732"/>
        <path fill="#FF8760" d="M20.862 55.535c4.04-4.056 4.04-10.63 0-14.686a10.316 10.316 0 0 0-14.628 0c-4.039 4.056-4.039 10.63 0 14.686a10.315 10.315 0 0 0 14.628 0"/>
        <path fill="#FF9781" d="M22.18 42.469c-3.078-.865-5.974.166-8.535 3.39-3.654 4.6-2.824 8.874 1.56 12.581a10.28 10.28 0 0 0 5.657-2.906c3.538-3.55 3.977-9.034 1.319-13.065"/>
        <path fill="#F97556" d="M6.976 52.931c.633-.167.916-.583.736-1.27-.18-.688-.63-.911-1.262-.744-.633.166-.915.582-.736 1.27.18.688.63.91 1.262.744M6.705 48.706c-.09-.341-.313-.452-.627-.369-.314.083-.454.29-.365.63.09.342.313.452.627.37.314-.083.454-.29.365-.63"/>
        <path fill="#FFC55F" d="M22.725 52.968c-.156.3-.327.594-.513.88 2.27 3.065 3.452 5.323 2.92 5.887-.929.987-6.733-3.576-12.964-10.19-6.23-6.615-10.529-12.776-9.6-13.762.552-.587 2.83.79 5.893 3.391.333-.19.674-.36 1.022-.51-4.058-3.241-7.829-5.18-8.802-4.147-1.527 1.622 2.975 9.03 10.056 16.547 7.08 7.517 14.06 12.296 15.587 10.674.98-1.04-.527-4.466-3.6-8.77"/>
        <path fill="#CE5DA9" d="M23.873 37.265c-.34.712-.564 1.34-.733 1.747-.567 1.365.252 1.449.758 1.35.208-.042.543-.155.765-.241a17.37 17.37 0 0 0 2.342-1.086 59.831 59.831 0 0 1-3.132-1.77M32.318 24.492c6.705 0 9.82 1.546 9.82 7.763 0 6.216-3.115 7.763-9.82 7.763s-9.821-1.547-9.821-7.763c0-6.217 3.116-7.763 9.82-7.763"/>
        <path fill="#D6A6CE" d="M37.763 29.204H26.668a.375.375 0 0 1 0-.748h11.095a.375.375 0 0 1 0 .748M32.853 31.512h-6.185a.375.375 0 0 1 0-.748h6.185c.205 0 .373.167.373.373a.375.375 0 0 1-.373.375M34.88 33.912h-8.212a.375.375 0 0 1 0-.748h8.213a.375.375 0 0 1 0 .748M29.807 36.054h-3.079a.435.435 0 0 1 0-.87h3.079a.435.435 0 0 1 0 .87"/>
        <path fill="#648788" d="M62.982 41.085c-1.155 3.614-1.725 4.186-2.31 3.998-.584-.189-.716-.987.44-4.601 1.155-3.614 1.725-4.187 2.31-3.998.585.188.716.987-.44 4.6"/>
    </g>
</svg>
