<svg xmlns="http://www.w3.org/2000/svg" width="177" height="134" viewBox="0 0 177 134">
    <g fill="none" fill-rule="evenodd">
        <path fill="#E5FCFC" d="M143.209 87.68a68.016 68.016 0 0 1 2.57-.028c16.24-.338 19.256-3.722 19.176-9.238-.078-5.372-.334-10.479-.373-13.138-.036-2.497 6.04-26.674-26.791-26.367l-27.837 3.957a7.879 7.879 0 0 1-7.785-6.433 7.88 7.88 0 0 0-7.911-6.432l-44.483 1.237c-10.207.152-14.685 7.655-14.558 13.257.207 9.133-.114 6.38-.076 9.051.039 2.663-1.347 4.353-8.395 4.703.434.01.815.028-.808.026a59.4 59.4 0 0 1-1.077.024c-.517.008 2.975-.05 2.507-.057-16.241.34-19.256 3.723-19.176 9.24.078 5.371 3.109 8.634 18.267 8.678a53.737 53.737 0 0 1 2.259-.015l.99-.02c-.214.007-.423.017-.628.027 7.017.151 8.446 1.81 8.485 4.467.036 2.497-2.203 3.824-4.67 4.553a7.418 7.418 0 0 1-.98.206c-8.552 1.297-10.406 4.37-10.342 8.771.084 5.721 4.55 15.971 21.472 15.813 13.59-.128 24.655-3.088 36.779-3.2 12.125-.115 20.37.043 20.37.043 3.808-.02 7.086-1.007 7.785 2.738a7.88 7.88 0 0 0 7.91 6.432l16.05-.894c16.92-.246 25.023-4.538 24.896-10.14-.207-9.133-9.11-8.037-13.235-8.08-7.106-.136-9.555-1.78-9.594-4.453-.04-2.663 1.347-4.352 8.395-4.703-.434-.009-.815-.027.808-.025"/>
        <path fill="#6AE0F3" d="M22.715 44.488c.664-.6.65-1.233.098-1.846-.554-.613-1.183-.69-1.847-.09-.664.6-.651 1.235-.098 1.847.555.613 1.184.69 1.847.089M25.24 51.459c.865.958 1.85 1.077 2.885.14 1.037-.938 1.018-1.927.152-2.885-.865-.958-1.849-1.076-2.885-.14-1.037.938-1.018 1.928-.152 2.885"/>
        <path fill="#3AD5F1" d="M162.083 96.91c-3.712-2.058-4.007-3.185-3.326-4.414.681-1.23 1.794-1.576 5.506.48 3.712 2.058 4.007 3.186 3.326 4.414-.682 1.23-1.794 1.578-5.506-.48"/>
        <path fill="#FF7C9A" d="M66.019 87.67c1.945-2.157 3.283-2.77 4.867-1.341 1.585 1.43 1.114 2.823-.831 4.98-1.945 2.158-3.282 2.77-4.867 1.34-1.585-1.428-1.114-2.822.83-4.98"/>
        <path fill="#5AD73C" d="M9.105 85.901c-.021-2.472 1.288-3.633 3.572-3.654 2.283-.022 3.616 1.115 3.64 3.587.023 2.472-1.289 3.633-3.572 3.655-2.284.021-3.616-1.115-3.64-3.588"/>
        <path fill="#FFCE7C" d="M44.054 104.465c-10.418 0-13.331-9.433-15.674-17.02-2.643-8.555-4.648-13.78-11.498-13.374l-.146.004H2.5a2.5 2.5 0 1 1 0-5h14.165c11.054-.611 14.082 9.095 16.493 16.895 2.58 8.356 4.495 13.495 10.898 13.495l.137-.002a2.5 2.5 0 0 1 .023 5l-.162.002"/>
        <path fill="#FF9E00" d="M44.216 104.463l-.047-5c8.289-.078 9.275-10.518 9.83-26.438.494-14.152 1.055-30.19 14.015-30.312l.047 5c-7.608.071-8.53 10.138-9.065 25.485-.51 14.596-1.088 31.137-14.78 31.265"/>
        <path fill="#94E37A" d="M131.94 71.379a2.5 2.5 0 0 1-.023-5c3.012-.029 4.68-2.952 7.07-7.765 2.44-4.911 5.207-10.48 11.505-10.54h23.119a2.5 2.5 0 1 1 0 5h-23.096c-2.99.03-4.66 2.953-7.05 7.766-2.44 4.911-5.204 10.48-11.502 10.538h-.023z"/>
        <path fill="#2CD307" d="M131.893 71.379c-6.561 0-9.285-8.583-12.17-17.668-1.9-5.985-4.502-14.181-7.413-14.181h-.015c-3.118.03-5.163 4.9-7.141 9.61-2.483 5.912-5.297 12.614-11.705 12.674h-.117c-5.211 0-7.945-3.305-10.588-6.5-3.122-3.776-6.365-7.645-14.683-7.6l-.047-5c10.69-.123 15.262 5.397 18.583 9.412 2.542 3.073 4.006 4.688 6.739 4.688h.066c3.119-.03 5.164-4.9 7.142-9.61 2.483-5.913 5.296-12.615 11.704-12.675h.07c6.56 0 9.287 8.583 12.172 17.668 1.9 5.987 4.502 14.181 7.412 14.181h.014l.047 5h-.07z"/>
        <g>
            <path fill="#006F7D" d="M88.005 65.98c-15.833 0-28.669-12.835-28.669-28.669 0-13.15 8.865-24.205 20.938-27.583a28.64 28.64 0 0 1 7.731-1.084c15.833 0 28.668 12.835 28.668 28.667 0 3.625-.7 7.08-1.929 10.272-4.133 10.753-14.53 18.397-26.739 18.397m0-65.98C67.57 0 51.001 18.08 51.001 40.383c0 22.301 16.568 40.38 37.004 40.38 20.437 0 37.003-18.079 37.003-40.38C125.008 18.08 108.442 0 88.005 0"/>
            <path fill="#368896" d="M114.745 47.583c-4.134 10.753-14.532 18.398-26.74 18.398-15.833 0-28.668-12.836-28.668-28.67 0-13.15 8.864-24.205 20.937-27.583a28.647 28.647 0 0 1 7.732-1.084c15.832 0 28.666 12.835 28.666 28.668 0 3.624-.7 7.078-1.927 10.271M89.567.033c-20.419-.862-37.671 14.992-38.534 35.41-.862 20.418 14.991 37.67 35.41 38.533 20.419.862 37.67-14.992 38.533-35.41.863-20.418-14.991-37.67-35.41-38.532"/>
            <path fill="#3AD5F1" fill-opacity=".2" d="M88.082 8.592c-2.689 0-5.28.396-7.748 1.086-12.1 3.382-20.985 14.452-20.985 27.62 0 15.854 12.864 28.706 28.733 28.706 12.235 0 22.657-7.655 26.799-18.421a28.552 28.552 0 0 0 1.933-10.285c0-15.854-12.864-28.706-28.732-28.706"/>
            <path fill="#FFF" fill-opacity=".5" d="M87.656 23.791a4.474 4.474 0 0 0-4.476-4.474 4.474 4.474 0 1 0 0 8.949 4.474 4.474 0 0 0 4.476-4.475M89.435 17.886a1.065 1.065 0 1 0-2.13.001 1.065 1.065 0 0 0 2.13-.001"/>
            <path fill="#B7B9B9" d="M85.568 79.614c0-1.045.392-2.034 1.045-2.482a5.304 5.304 0 0 1 3.023-.943c1.243 0 2.22.42 2.903.862.707.457 1.167 1.452 1.167 2.572v15.144c0 1.543-.866 2.795-1.934 2.795h-4.27c-1.068 0-1.934-1.252-1.934-2.795V79.614z"/>
            <path fill="#368896" d="M78.705 109.951c0-19.478 3.868-23.171 10.318-23.171 6.45 0 10.317 3.693 10.317 23.171 0 19.479-3.867 23.172-10.317 23.172s-10.318-3.693-10.318-23.172"/>
            <path fill="#006F7D" d="M89.023 123.234c-5.862 0-9.59-3.054-10.222-18.227a117.492 117.492 0 0 0-.096 4.944c0 19.479 3.867 23.172 10.318 23.172S99.34 129.43 99.34 109.95c0-1.778-.033-3.42-.097-4.944-.631 15.173-4.36 18.227-10.221 18.227"/>
        </g>
    </g>
</svg>
