<svg xmlns="http://www.w3.org/2000/svg" width="193" height="164" viewBox="0 0 193 164">
    <g fill="none" fill-rule="evenodd">
        <path fill="#E5FCFC" d="M140.003 73.942c.095-4.471 8.124-5.587 15.594-5.435 5.789.117 17.415 1.479 17.415 5.841 0 3.19-.95 4.577-5.021 5.325-2.443.449-20.915 2.546-25.45-.56-1.566-1.075-2.59-2.712-2.538-5.17M96.682 85.405l69.424 1.69c14.351.211 17.075 3.29 16.974 8.617-.164 8.684-14.444 8.185-13.895 8.217-.064.001-.12.01-.183.012-6.638.136-7.946 1.768-7.946 4.414 0 2.766 1.413 4.426 8.862 4.426a34.52 34.52 0 0 0 2.987-.118c.049.005.31.01.996.008a42.413 42.413 0 0 0 2.179.023c13.775.298 16.337 3.362 16.276 8.608-.055 4.7-2.24 8.054-12.605 8.054H89.4l7.282-43.951z"/>
        <path fill="#E1F4F4" d="M173.036 112.652l.115-.01.065.004-.18.006"/>
        <path fill="#E5FCFC" d="M65.553 26.5c-.095-4.472-8.124-5.586-15.594-5.435-5.789.117-17.415 1.48-17.415 5.84 0 3.191.95 4.578 5.022 5.326 2.442.448 20.914 2.545 25.448-.56 1.567-1.075 2.591-2.71 2.539-5.17M96.258 37.963l-69.424 1.69c-14.35.21-17.075 3.29-16.974 8.617.164 8.684 14.444 8.186 13.896 8.217.063.002.12.01.182.012 6.638.136 7.946 1.767 7.946 4.413 0 2.767-1.413 4.427-8.862 4.426-1.136 0-2.115-.041-2.987-.117-.048.005-.31.01-.996.007a43.87 43.87 0 0 1-2.178.024C3.085 65.55.523 68.614.585 73.86c.055 4.7 2.24 8.053 12.605 8.053h90.35l-7.282-43.95z"/>
        <path fill="#E1F4F4" d="M19.904 65.21l-.114-.01c-.022 0-.042.003-.065.004.066.001.125.004.18.006"/>
        <path fill="#E7EFF5" d="M47.019 159.639c0 2.13 21.977 3.858 49.09 3.858 27.112 0 49.09-1.727 49.09-3.858 0-2.131-21.978-3.859-49.09-3.859-27.113 0-49.09 1.728-49.09 3.859"/>
        <path fill="#FF7C9A" d="M156.663 53.849c-1.336 2.88-1.377 4.485.743 5.464 2.118.979 3.319-.092 4.654-2.971s1.375-4.486-.743-5.463c-2.12-.979-3.32.09-4.654 2.97"/>
        <path fill="#94E37A" d="M22.287 99.944c-1.768.02-2.58.972-2.561 2.602.018 1.63.85 2.564 2.62 2.543 1.767-.019 2.578-.971 2.56-2.601-.018-1.63-.851-2.565-2.62-2.544"/>
        <path fill="#00C4EB" d="M33.347 88.883c-4.159-3.102-5.564-2.866-6.594-1.492-1.028 1.376-.859 2.788 3.302 5.89 4.16 3.101 5.565 2.866 6.594 1.49 1.03-1.374.858-2.787-3.302-5.888"/>
        <path fill="#DAE7EF" d="M15.756 30.03a2.79 2.79 0 0 0 1.898.93 2.83 2.83 0 0 0 2.012-.658 2.784 2.784 0 0 0 .955-1.896 2.791 2.791 0 0 0-.67-1.996c-.952-1.106-2.806-1.235-3.903-.273a2.798 2.798 0 0 0-.942 1.883c-.051.725.198 1.46.67 2.01h-.02z"/>
        <path fill="#EDF2F6" d="M24.722 21.232a1.998 1.998 0 0 0 2.788.194 1.99 1.99 0 0 0 .68-1.352 1.997 1.997 0 0 0-.477-1.423c-.679-.788-2-.88-2.782-.193a1.992 1.992 0 0 0-.672 1.342c-.036.516.141 1.04.477 1.433l-.014-.001zM31.043 106.373a1.996 1.996 0 0 0 2.787.195c.395-.34.644-.836.68-1.351a1.993 1.993 0 0 0-.477-1.424c-.679-.788-2-.88-2.783-.193a1.995 1.995 0 0 0-.671 1.342 2.012 2.012 0 0 0 .477 1.432h-.013zM171.624 51.808a1.996 1.996 0 0 0 2.787.194c.395-.34.644-.836.68-1.352a1.991 1.991 0 0 0-.477-1.423c-.68-.788-2-.88-2.782-.193a1.991 1.991 0 0 0-.673 1.341 2.015 2.015 0 0 0 .478 1.434l-.013-.001z"/>
        <path fill="#6AE0F3" d="M140.23 142.682H51.988c-4.89 0-8.893-3.995-8.893-8.876V11.864a2.908 2.908 0 0 1 2.912-2.906H146.21c1.608 0 2.912 1.301 2.912 2.906v121.942c0 4.881-4.002 8.876-8.893 8.876"/>
        <path fill="#00ABE3" fill-opacity=".3" d="M135.151 21.283c-.461.023-.824.37-.906.823a3.418 3.418 0 0 1-3.198 2.792 3.418 3.418 0 0 1-3.453-2.47c-.127-.442-.521-.752-.982-.73l-5.119.248c-.46.022-.823.369-.905.822a3.42 3.42 0 0 1-6.65.323c-.128-.443-.522-.753-.983-.73l-5.119.247c-.461.023-.823.37-.906.823a3.42 3.42 0 1 1-6.65.323c-.127-.444-.522-.753-.982-.731l-5.12.248c-.46.023-.822.37-.905.822a3.42 3.42 0 1 1-6.65.323c-.128-.443-.522-.753-.983-.73l-5.12.247c-.46.023-.822.37-.904.823a3.417 3.417 0 0 1-3.197 2.793 3.418 3.418 0 0 1-3.454-2.47c-.127-.444-.521-.753-.982-.731l-5.12.248c-.46.023-.822.37-.905.822a3.416 3.416 0 0 1-3.197 2.793 3.417 3.417 0 0 1-3.453-2.47c-.127-.443-.521-.753-.982-.73l-1.436.069a.97.97 0 0 0-.922 1.015l4.654 95.563c.176 3.59 3.233 6.36 6.83 6.185l68.608-3.33c3.598-.173 6.372-3.225 6.197-6.816l-4.655-95.563a.97.97 0 0 0-1.016-.92l-1.435.07z"/>
        <path fill="#FFF" d="M132.982 20.02c-.46.021-.822.368-.906.821a3.416 3.416 0 0 1-3.197 2.793 3.419 3.419 0 0 1-3.453-2.47c-.126-.443-.52-.753-.981-.73l-5.12.248c-.46.023-.822.369-.906.822a3.42 3.42 0 1 1-6.65.323c-.127-.443-.52-.753-.981-.73l-5.12.247c-.46.023-.823.37-.906.822a3.422 3.422 0 0 1-6.651.323c-.126-.443-.52-.753-.98-.73l-5.12.248c-.46.023-.823.37-.906.822a3.422 3.422 0 0 1-6.651.323c-.127-.443-.52-.753-.981-.73l-5.12.247c-.46.023-.823.37-.906.822a3.42 3.42 0 1 1-6.65.323c-.127-.443-.52-.753-.981-.73l-5.12.249c-.46.022-.823.369-.906.82a3.417 3.417 0 0 1-3.198 2.794 3.418 3.418 0 0 1-3.452-2.47c-.127-.442-.52-.753-.982-.73l-1.436.069a.97.97 0 0 0-.922 1.015l4.655 95.562c.174 3.59 3.232 6.36 6.83 6.186l68.607-3.33c3.598-.174 6.373-3.225 6.197-6.816l-4.654-95.563a.97.97 0 0 0-1.017-.92l-1.436.07z"/>
        <path fill="#5AD73C" d="M165.872 31.158c-3.322.037-4.846 1.828-4.812 4.89.035 3.063 1.598 4.82 4.921 4.782 3.324-.037 4.847-1.827 4.813-4.89-.035-3.063-1.598-4.82-4.922-4.782"/>
        <path fill="#3AD5F1" d="M140.23 142.682H51.988c-4.89 0-8.893-3.995-8.893-8.876v4.96c0 4.882 4.002 8.877 8.893 8.877h88.242c4.89 0 8.893-3.995 8.893-8.876v-4.96c-.001 4.88-4.002 8.875-8.893 8.875"/>
        <path fill="#00ABE3" fill-opacity=".6" d="M75 35.184c-.247 0-.497-.013-.746-.04a6.704 6.704 0 0 1-4.525-2.477 6.675 6.675 0 0 1-1.445-4.945l2.038-18.768 1.97.004-2.08 18.975a4.757 4.757 0 0 0 1.03 3.522 4.772 4.772 0 0 0 3.222 1.763 4.782 4.782 0 0 0 3.53-1.026 4.761 4.761 0 0 0 1.766-3.217l2.205-20.02h1.925l-2.2 20.23a6.684 6.684 0 0 1-2.481 4.517A6.703 6.703 0 0 1 75 35.184" style="mix-blend-mode:multiply"/>
        <path fill="#4E525A" d="M77.22 8.954l-2.903.004.358-3.275a2.385 2.385 0 0 0-.43-1.679c-.318-.431-.762-.697-1.253-.75-1.062-.116-2.036.785-2.17 2.008l-.2 1.83-2.895-.317.201-1.829c.309-2.816 2.723-4.873 5.38-4.58 1.31.142 2.476.822 3.282 1.916a5.271 5.271 0 0 1 .978 3.717l-.349 2.955z"/>
        <path fill="#B7B9B9" fill-opacity=".1" d="M51.989 142.682c-4.891 0-8.894-3.995-8.894-8.876V11.864a2.908 2.908 0 0 1 2.912-2.906h100.205c1.212 0 2.251.74 2.689 1.791.242.583-.045 1.254-.598 1.56-8.293 4.565-76.68 44.033-76.68 103.927 0 16.41 11.609 22.256 19.906 25.005 1.471.488.939 1.44.939 1.44h-40.48z" style="mix-blend-mode:multiply"/>
        <path stroke="#00C600" stroke-linecap="round" stroke-width="2" d="M62.83 46.64l17.732-.882M63.313 56.321l7.071-.351M119.273 72.95l11.201-.557M64.28 75.685l46.666-2.322M64.763 85.366l46.666-2.321M120.24 92.313l11.2-.556M65.246 95.048l46.667-2.322"/>
        <path stroke="#00C600" stroke-linecap="round" stroke-width="4" d="M120.678 107.764l10.325-.513M126.25 43.42l1.602-.079"/>
        <path fill="#4E525A" d="M72.646 35.518a7.183 7.183 0 0 1-5.641-2.698 7.152 7.152 0 0 1-1.55-5.301l2.311-21.092a1.455 1.455 0 1 1 2.894.317l-2.31 21.09a4.274 4.274 0 0 0 .924 3.167 4.289 4.289 0 0 0 2.898 1.585 4.314 4.314 0 0 0 4.76-3.815L79.379 6.43a1.457 1.457 0 0 1 2.894.316l-2.447 22.341c-.405 3.69-3.544 6.431-7.18 6.431"/>
    </g>
</svg>
