<svg xmlns="http://www.w3.org/2000/svg" width="140" height="91" viewBox="0 0 140 91">
    <g fill="none" fill-rule="evenodd">
        <path fill="#E7EFF5" d="M57.502 84.918c.086 4.694 7.48 5.865 14.356 5.705 5.329-.122 16.033-1.552 16.033-6.13 0-3.35-.875-4.807-4.623-5.591-2.249-.47-19.255-2.673-23.429.589-1.442 1.127-2.385 2.845-2.337 5.427M69.528 69.65l46.018-.413c13.212-.222 15.718-3.454 15.627-9.046-.151-9.117-13.298-8.593-12.794-8.626-.059-.001-.11-.01-.168-.012-6.11-.143-7.315-1.856-7.315-4.634 0-2.904 1.3-4.646 8.159-4.646 1.046 0 1.948.044 2.75.123.044-.005.286-.01.917-.007a35.668 35.668 0 0 1 2.006-.025c12.682-.314 15.04-3.53 14.983-9.037-.05-4.933-2.062-8.454-11.604-8.454l-64.82 1.84 6.24 42.938z"/>
        <path fill="#E1F4F4" d="M115.546 42.81c.035.005.07.008.106.012l.059-.005-.165-.006"/>
        <path fill="#E7EFF5" d="M133.926 15.683c-.052-2.476-4.505-3.093-8.647-3.01-3.209.066-9.655.82-9.655 3.235 0 1.766.527 2.534 2.785 2.948 1.353.248 11.595 1.41 14.109-.312.868-.593 1.436-1.5 1.408-2.86M80.15 18.177l-52.551.413c-15.088.222-17.952 3.454-17.846 9.047.171 9.117 15.185 8.592 14.61 8.625.067.002.126.01.191.013 6.979.142 8.353 1.855 8.353 4.633 0 2.904-1.485 4.647-9.317 4.647-1.194 0-2.224-.045-3.14-.124-.05.007-.327.01-1.046.008a46.528 46.528 0 0 1-2.292.024C2.63 45.777-.063 48.993.002 54.5c.056 4.933 2.354 8.454 13.252 8.454l74.021-1.84-7.125-42.937z"/>
        <path fill="#FF406F" d="M41.415 24.377c-7.794.454-11.174 4.836-10.756 12.04.42 7.206 4.284 11.165 12.078 10.712 7.794-.454 11.174-4.835 10.756-12.04-.42-7.205-4.283-11.165-12.078-10.712"/>
        <path fill="#FFF" d="M43.97 30.112c-.039.063-6.105 9.394-6.14 9.454-.659 1.112-.718 1.792.115 2.334.817.532 1.387.215 2.075-.81.053-.08 6.135-9.432 6.189-9.52.762-1.223.877-1.948-.002-2.52-.88-.573-1.474-.161-2.236 1.062"/>
        <path fill="#FFF" d="M37.286 32.884c.058.052 8.395 7.902 8.45 7.949 1.004.869 1.678 1.046 2.37.278.676-.75.456-1.394-.457-2.278-.07-.069-8.427-7.94-8.506-8.011-1.098-.996-1.809-1.236-2.538-.427-.728.81-.417 1.493.681 2.489"/>
        <path fill="#E1F4F4" d="M27.025 45.405l-.12-.01-.068.004.188.006"/>
        <path fill="#FF7C9A" d="M103.114 72.719c-2.35-1.254-3.696-1.368-4.62.355-.926 1.72-.086 2.773 2.265 4.03 2.351 1.253 3.696 1.366 4.621-.356.925-1.72.086-2.774-2.266-4.03"/>
        <path fill="#FFF" d="M103.914 72.198a1.412 1.412 0 0 1-.069-.01c-.014 0-.026.003-.04.004l.11.006"/>
        <path fill="#FF406F" d="M71.443 2.871c-.232-1.838-.055-2.727.986-2.858 1.042-.13 1.435.688 1.667 2.526.232 1.837.055 2.727-.986 2.858-1.041.13-1.434-.687-1.667-2.526"/>
        <path fill="#FF7C9A" d="M90.044 4.089c1.232-1.388 2.019-1.842 2.805-1.15.786.693.428 1.527-.804 2.914-1.231 1.389-2.018 1.843-2.804 1.15-.787-.692-.429-1.527.803-2.914M58 3.7c1.469 1.136 1.976 1.89 1.332 2.717-.644.826-1.502.525-2.97-.612-1.468-1.136-1.975-1.89-1.332-2.717.644-.825 1.502-.523 2.97.612"/>
        <path fill="#FF406F" d="M101.996 12.671c1.858-.045 2.729.22 2.754 1.266.026 1.045-.831 1.352-2.69 1.398-1.858.045-2.728-.22-2.754-1.266-.025-1.045.832-1.352 2.69-1.398M47.08 14.44c1.854.118 2.699.458 2.631 1.503-.066 1.043-.946 1.274-2.802 1.156-1.854-.117-2.699-.458-2.631-1.501.066-1.045.946-1.275 2.801-1.157M42.395 64.004c-2.788.031-4.067 1.532-4.038 4.097.03 2.566 1.341 4.036 4.129 4.006 2.788-.033 4.066-1.531 4.038-4.098-.029-2.566-1.342-4.036-4.13-4.005"/>
        <g>
            <path fill="#FFDD67" d="M74.375 16.228c15.878 0 28.75 12.715 28.75 28.4 0 15.684-12.872 28.399-28.75 28.399s-28.75-12.715-28.75-28.399c0-15.685 12.872-28.4 28.75-28.4"/>
            <path fill="#917524" d="M64.81 31.268c-3.044 2.737-7.078 3.888-11.001 3.139-.544-.114-1.024 2.025-.363 2.16 4.525.865 9.18-.462 12.695-3.622.51-.47-.914-2.064-1.33-1.677M94.313 34.407c-3.921.749-7.955-.4-11-3.138-.417-.39-1.84 1.207-1.329 1.677 3.512 3.156 8.167 4.486 12.695 3.621.662-.135.18-2.273-.366-2.16"/>
            <path fill="#664E27" d="M88.569 54.35c-.51-.616-1.461-.75-2.117-.303l-4.045 2.778c-.654.449-1.677.385-2.272-.143l-4.367-3.858c-.595-.527-1.57-.526-2.165 0l-4.348 3.85c-.597.526-1.617.591-2.272.144l-4.062-2.784c-.654-.448-1.606-.311-2.114.303l-4.254 5.134c-.508.614-.363.798.326.409l3.598-2.036c.689-.39 1.712-.248 2.275.315l4.41 4.416c.562.564 1.533.624 2.158.133l4.254-3.344c.623-.49 1.646-.49 2.27 0l4.235 3.326c.624.49 1.595.43 2.158-.134l4.384-4.393c.562-.564 1.585-.707 2.274-.319l3.6 2.037c.69.388.836.205.325-.41L88.57 54.35zM93.046 40.676c.548.312.29.954-.162 1.02-2.62.375-5.395.802-8.03 2.199 3.91.622 7.052 2.543 8.755 4.5.386.442-.097 1.04-.526.89-4.642-1.614-9.415-2.488-15.414-1.898-.473.048-.878-.215-.779-.63 1.602-6.714 10.615-9.247 16.156-6.081M55.079 40.676c-.548.312-.29.954.162 1.02 2.62.375 5.396.802 8.03 2.199-3.91.622-7.052 2.543-8.755 4.5-.386.442.097 1.04.526.89 4.642-1.614 9.415-2.488 15.414-1.898.473.048.878-.215.779-.63-1.601-6.714-10.614-9.247-16.156-6.081"/>
        </g>
    </g>
</svg>
