<svg xmlns="http://www.w3.org/2000/svg" width="162" height="220" viewBox="0 0 162 220">
    <g fill="none" fill-rule="evenodd">
        <path fill="#3AD5F1" d="M124.599 5.143c-1.293.466-1.783 1.438-.276 5.09s2.568 4.065 3.862 3.598c1.292-.466 1.783-1.438.275-5.09-1.507-3.653-2.568-4.065-3.861-3.598z"/>
        <path fill="#FF7C9A" d="M155.222 23.857c1.407 1.322 2.64.806 4.469-1.079 1.828-1.886 2.293-3.124.886-4.447-1.407-1.322-2.64-.808-4.469 1.079-1.828 1.886-2.293 3.124-.886 4.447z"/>
        <path fill="#5AD73C" d="M139.391 8.387c-.865 2.64-.042 4.604 2.808 5.542 2.85.94 4.674-.152 5.538-2.791.865-2.64.042-4.604-2.808-5.544-2.85-.94-4.674.152-5.538 2.793z"/>
        <path fill="#94E37A" d="M149.537 2.1c-.482 1.466-.024 2.558 1.56 3.08 1.582.521 2.596-.085 3.076-1.552s.023-2.558-1.56-3.08c-1.583-.522-2.596.085-3.076 1.552z"/>
        <path fill="#92F0F9" d="M78.122 219.62l-5.064-1.606 22.936-72.393 5.064 1.606z"/>
        <path fill="#92F0F9" d="M115.418 138.214c1.79-5.702-8.9-6.673-11.934-6.835-2.572-1.634-11.864-7.06-13.654-1.359-1.916 6.102-2.202 21.92 4.013 26.408.051.052.118.091.174.14.156.105.322.19.486.28.205.119.367.275.617.356.08.026.163.022.243.045.078.028.143.079.223.104.25.08.472.046.707.069.186.02.37.048.557.053.075-.007.151-.001.223-.013 7.64-.05 16.43-13.146 18.345-19.248z"/>
        <path fill="#3AD5F1" d="M109.057 140.648c1.062-3.422-5.275-4.004-7.071-4.102-1.524-.98-7.032-4.236-8.092-.814-1.135 3.661-1.305 13.152 2.377 15.845.03.03.071.054.105.083.092.063.19.114.287.169.121.07.218.164.365.213.047.015.097.014.144.027.046.017.085.047.132.062.149.048.28.028.42.041.11.013.22.03.33.032.044-.003.09 0 .132-.007 4.527-.03 9.737-7.887 10.871-11.549z"/>
        <path fill="#598388" d="M102.216 135.873l-14.354-2.927s-1.109 4.749.797 5.402c2.182.748 11.634 3.74 11.634 3.74s9.381 3.128 11.586 3.805c1.924.592 3.662-3.953 3.662-3.953l-13.325-6.067z"/>
        <path fill="#E5EEF3" d="M103.802 128.891l-17.44-3.208s-1.675 6.91.623 7.716c2.632.923 14.047 4.566 14.047 4.566s11.319 3.844 13.982 4.664c2.325.717 4.759-5.943 4.759-5.943l-15.971-7.795z"/>
        <path fill="#598388" d="M105.604 123.464l-19.996-3.902s-1.628 6.744 1.023 7.638c3.034 1.022 16.185 5.099 16.185 5.099s13.05 4.272 16.117 5.194c2.678.804 5.18-5.663 5.18-5.663l-18.509-8.366z"/>
        <path fill="#3E6063" d="M97.56 102.092c-.093-3.632-.403-5.963-1.144-9.368-.147-.673-.393-1.615-.64-2.211-.243-.587-.596-1.106-1.023-1.488a2.327 2.327 0 0 0-.378-.29c-.058-.036-.106-.062-.155-.088a2.347 2.347 0 0 0-.607-.235c-.552-.144-1.175-.15-1.793-.027-.627.126-1.537.446-2.172.7-3.202 1.283-5.29 2.324-8.322 4.276-3.546 2.281-6.475 4.97-8.96 7.756-4.758 5.332-1.858 10.348 1.342 11.56 4.188 1.588 10.994 4.07 27.147 8.62.02.007-5.647-3.914-4.656-7.361 1.035-3.603 1.47-7.596 1.361-11.844zM125.207 110.923c2.18-2.921 3.784-4.651 6.361-7.014.51-.467 1.257-1.097 1.803-1.444.54-.34 1.127-.564 1.7-.63a2.226 2.226 0 0 1 .652-.005 2.344 2.344 0 0 1 .632.157c.536.197 1.047.55 1.479 1.006.44.462.998 1.246 1.37 1.818 1.87 2.889 2.972 4.936 4.318 8.274 1.573 3.903 2.55 7.768 2.822 11.492.262 3.56-.614 6.537-2.767 8.18a6.2 6.2 0 0 1-1.583.866c-3.877 1.374-19.769-5.245-30.605-8.864-.02-.007 6.88.033 8.068-3.357 1.242-3.545 3.2-7.064 5.75-10.48z"/>
        <path fill="#E7EFF5" d="M85.261 121.116s-1.78-1.348-.879-5.684c2.11-10.144 4.646-19.555 6.888-27.134-.784 2.324-5.234 14.488-7.468 28.959-.451 2.922 1.428 3.959 1.428 3.959l19.477 6.082-19.446-6.182zM137.386 24.444c-.17-.054-.194-.062-.244-.074a3.093 3.093 0 0 0-.675-.085c-.82-.04-1.734.239-2.585.62-.864.386-2.052 1.05-2.96 1.819-4.253 2.881-6.972 5.045-10.844 8.907a72.114 72.114 0 0 0-4.554 4.948 62.625 62.625 0 0 0-3.02 3.915c-6.539 8.899-12.411 19.567-17.118 31.514l23.163 7.273 18.837-58.837z"/>
        <path fill="#D6E7EE" d="M141.128 90.444c3.048-12.432 4.43-24.483 4.266-35.472a62.548 62.548 0 0 0-.187-4.915 72.197 72.197 0 0 0-.828-6.631c-.9-5.36-1.847-8.674-3.623-13.451-.281-1.143-.855-2.36-1.327-3.168-.466-.796-1.04-1.544-1.72-1.979a2.886 2.886 0 0 0-.703-.355c-.08-.028-.093-.032-.095-.028l-18.504 58.747 22.72 7.252zM104.596 126.919l19.1 6.2s2.086.221 3.388-2.393c6.422-12.896 9.774-25.208 10.488-27.603-2.513 7.383-5.832 16.408-9.911 25.787-1.747 4.012-3.959 4.19-3.959 4.19l-19.106-6.181z"/>
        <path fill="#FFF" d="M91.613 86.83a163.9 163.9 0 0 1 3.608-10.569l-.368-.12a420.104 420.104 0 0 0-3.632 12c.037-.113.074-.226.093-.29.05-.172.098-.341.15-.512.051-.171.097-.336.15-.508zM141.479 90.87c-.912 3.54-1.96 7.11-3.164 10.695-.058.17-.117.33-.174.5l-.174.502c-.025.07-.058.176-.098.304a395.1 395.1 0 0 0 4-11.882l-.39-.118z"/>
        <path fill="#E7EFF5" d="M104.428 127.263l13.697-43.68-22.833-7.32a165.669 165.669 0 0 0-3.725 10.723c-.053.175-.1.342-.153.516l-.156.519c-.02.065-.057.18-.095.294-2.21 7.584-4.709 17.002-6.787 27.153-.887 4.34.866 5.687.866 5.687l19.186 6.108z"/>
        <path fill="#FFF" d="M104.428 127.263l13.697-43.68-22.833-7.32a165.669 165.669 0 0 0-3.725 10.723c-.053.175-.1.342-.153.516l-.156.519c-.02.065-.057.18-.095.294-2.21 7.584-4.709 17.002-6.787 27.153-.887 4.34.866 5.687.866 5.687l19.186 6.108z"/>
        <path fill="#D6E7EE" d="M138.489 101.837a163.392 163.392 0 0 0 3.108-10.947l-23.115-7.318-13.885 43.731 19.383 6.27s2.244-.18 4.016-4.25c4.14-9.51 7.506-18.663 10.055-26.149.039-.13.072-.24.096-.31l.171-.515c.056-.174.114-.338.17-.512z"/>
        <path fill="#E6F0F5" d="M138.489 101.837a163.392 163.392 0 0 0 3.108-10.947l-23.115-7.318-13.885 43.731 19.383 6.27s2.244-.18 4.016-4.25c4.14-9.51 7.506-18.663 10.055-26.149.039-.13.072-.24.096-.31l.171-.515c.056-.174.114-.338.17-.512z"/>
        <path fill="#FF547D" d="M140.904 29.934c-.35-.98-.897-2.337-1.371-3.165-.467-.816-1.073-1.49-1.756-1.93a2.95 2.95 0 0 0-.828-.397l-.075-.021a3.016 3.016 0 0 0-.146-.043 3.025 3.025 0 0 0-.683-.089c-.809-.033-1.697.205-2.54.605-.854.406-2.025 1.07-2.917 1.844-4.183 2.899-6.931 5.313-10.78 9.327l-.24.25c3.687 1.66 7.767 3.225 12.115 4.621a115.212 115.212 0 0 0 12.885 3.35c-.022-.136-.037-.276-.06-.413-.904-5.524-1.838-8.983-3.604-13.939z"/>
        <path fill="#C7DCE3" d="M121.378 41.29a1.5 1.5 0 1 0 .977 1.883 1.5 1.5 0 0 0-.977-1.883zM141.22 47.59a1.5 1.5 0 1 0 .977 1.883 1.5 1.5 0 0 0-.978-1.883zM130.957 45.018a1.5 1.5 0 1 0 .977 1.883 1.5 1.5 0 0 0-.977-1.883z"/>
        <path fill="#FF406F" d="M141.311 29.904c-.376-.975-.963-2.323-1.472-3.146a5.965 5.965 0 0 0-1.4-1.58c.396 4.259.85 11.857-.2 17.515 2.402.577 4.745 1.073 7 1.484-.023-.135-.035-.284-.06-.42-.97-5.49-1.972-8.928-3.868-13.853z"/>
        <path fill="#92F0F9" d="M130.006 233.685c4.863 0 6.971-6.173 3.106-9.12-2.146-1.637-4.588-2.948-7.222-3.524-.621-9.882-8.842-17.295-18.893-17.295-6.008 0-11.297 3.068-14.765 7.428a20.43 20.43 0 0 0-11.953-3.85c-.987 0-1.935.214-2.882.37-3.574-6.095-10.129-10.208-17.714-10.208-3.156 0-6.346.778-9.018 2.045-4.072-8.752-11.541-14.846-23.458-14.846-13.002.021-21.553 8.133-24.478 19.036-3.418-2.001-7.26-3.13-11.617-2.831-10.05.689-17.99 8.87-19.021 18.876-.293 2.837-.028 1.292.002 1.853-2.863.923-5.458 2.664-7.627 4.688-2.828 2.636-.919 7.378 2.95 7.378h162.59z"/>
        <path fill="#6AE0F3" d="M25.18 217.58c1.066-11.831 6.755-22.263 16.933-28.473-3.926-2.819-9.296-4.421-15.073-4.421-12.712.021-21.488 8.208-24.408 19.217-3.411-2.02-7.234-3.16-11.584-2.858-10.031.695-17.95 8.954-18.98 19.054-.292 2.864-.024 1.305.005 1.87a20.161 20.161 0 0 0-7.612 4.5c-2.822 2.662-.915 7.217 2.947 7.217h19.928c3.64-8.169 10.895-14.878 20.28-17.236 6.243-1.569 12.1-.842 17.563 1.13z"/>
        <path fill="#92F0F9" d="M127.244 206.08c.055-2.045 1.18-2.968 3.079-2.916 1.898.051 2.972 1.031 2.916 3.079-.055 2.046-1.18 2.968-3.079 2.917-1.898-.052-2.972-1.032-2.916-3.08zM131.085 195.76c.948.026 1.485.516 1.458 1.54-.028 1.023-.59 1.483-1.54 1.459-.95-.026-1.485-.517-1.458-1.54.027-1.023.59-1.484 1.54-1.458zM120.194 200.275c.037-1.364.787-1.979 2.052-1.944 1.267.034 1.982.688 1.945 2.052-.037 1.365-.787 1.98-2.053 1.945-1.265-.033-1.982-.687-1.944-2.053z"/>
        <path fill="#D6E7EE" d="M125.346 66.613c-7.171-2.65-15.323 1.563-18.208 9.41-2.884 7.846.591 16.354 7.763 19.005 7.171 2.65 15.324-1.563 18.208-9.41 2.884-7.846-.591-16.356-7.763-19.005z"/>
        <path fill="#F3FBFF" d="M125.555 66.621c-7.253-2.674-15.3 1.04-17.974 8.293-2.672 7.252 1.041 15.3 8.294 17.972 7.253 2.674 15.298-1.04 17.972-8.292 2.673-7.253-1.04-15.3-8.292-17.973z"/>
        <path fill="#00C4EB" d="M121.316 70.065c-4.232-.333-8.342 2.09-9.88 6.18-1.855 4.924.72 10.387 5.75 12.202a9.837 9.837 0 0 0 10.647-2.657 14.836 14.836 0 0 1-2.482-.664c-5.656-2.042-7.882-6.01-5.625-12.006.45-1.193.982-2.204 1.59-3.055z"/>
        <path fill="#3AD5F1" d="M121.154 70.066c-.586.865-1.101 1.895-1.534 3.107-2.18 6.102-.031 10.14 5.429 12.216.832.316 1.628.534 2.398.677a9.703 9.703 0 0 0 1.752-3.027c1.79-5.01-.696-10.57-5.552-12.415a9.094 9.094 0 0 0-2.493-.558z"/>
        <path fill="#CAEEF5" d="M118.97 73.726a2.5 2.5 0 1 0 0 5 2.5 2.5 0 0 0 0-5z"/>
        <path fill="#DAE7EF" d="M29.616 164.612a3.528 3.528 0 0 0 4.951.35 3.58 3.58 0 0 0 1.21-2.424 3.595 3.595 0 0 0-.85-2.552c-1.205-1.413-3.552-1.578-4.942-.347a3.586 3.586 0 0 0-1.192 2.406c-.065.926.25 1.866.847 2.569l-.024-.002z"/>
        <path fill="#EDF2F6" d="M32.019 147.126a2.527 2.527 0 0 0 1.716.85 2.55 2.55 0 0 0 1.82-.601c.501-.437.818-1.07.863-1.731a2.56 2.56 0 0 0-.606-1.822c-.86-1.01-2.538-1.128-3.53-.25a2.563 2.563 0 0 0-.852 1.72c-.046.662.18 1.333.606 1.835l-.017-.001z"/>
        <path fill="#C8DAE6" d="M59.504 156.424c-.252.24-.387.582-.368.933l.185 3.332c.053.93-.918 1.553-1.712 1.1l-2.848-1.625c-.3-.171-.659-.196-.98-.069l-3.036 1.21c-.848.338-1.726-.416-1.55-1.329l.628-3.274a1.204 1.204 0 0 0-.239-.976l-2.061-2.583c-.576-.721-.148-1.81.755-1.92l3.235-.401a1.15 1.15 0 0 0 .832-.534l1.763-2.806a1.141 1.141 0 0 1 2.017.142l1.37 3.027c.145.32.421.556.754.646l3.15.849c.88.237 1.16 1.374.492 2.008l-2.387 2.27z"/>
        <path fill="#648788" d="M106.118 122.636c-1.613-.522-1.976-2.734 1.211-12.747 3.188-10.014 4.759-11.6 6.372-11.078 1.613.523 1.975 2.734-1.212 12.748-3.188 10.013-4.758 11.599-6.371 11.077z"/>
    </g>
</svg>
