<svg xmlns="http://www.w3.org/2000/svg" width="270" height="160" viewBox="0 0 270 160">
    <g fill="none" fill-rule="evenodd">
        <path fill="#E5FCFC" d="M235.104 141.665l.333-.005c-.167.004-.334.008-.496.014.077-.006.135-.01.163-.01"/>
        <path fill="#E5FCFC" d="M235.207 155.797c-.308-.008-.578-.086.575-.079.239-.006.509-.041.765-.044.367-.003.728-.017 1.06-.011 11.534-.173 13.733-3.856 13.698-7.777-.033-3.819-2.172-6.155-12.937-6.25a45.325 45.325 0 0 1-1.603 0l-.704.01.446-.017c-4.982-.137-5.989-1.322-6.006-3.21-.016-1.89 1.793-2.827 3.675-3.31 6.384-.853 7.766-3.053 7.738-6.241-.036-4.068-2.338-6.721-14.354-6.616-2.334.02-4.297.074-5.951.089l-59.923.076 5.989 33.313s64.94.18 67.532.067M16.365 141.674a41.38 41.38 0 0 0-.497-.014l.333.005c.03 0 .087.003.164.009"/>
        <path fill="#E5FCFC" d="M83.63 155.73l5.99-33.313-59.923-.076c-1.655-.015-3.617-.069-5.951-.09-12.017-.104-14.319 2.549-14.354 6.617-.028 3.188 1.354 5.388 7.737 6.24 1.883.484 3.692 1.42 3.675 3.31-.016 1.889-1.024 3.074-6.006 3.21.146.007.295.013.447.018l-.705-.01c-.36.006-.737.01-1.138.006-.16-.001-.312-.002-.465-.005C2.172 141.73.034 144.067 0 147.886c-.034 3.92 2.164 7.604 13.699 7.777.332-.006.693.008 1.06.01.256.004.526.039.765.045 1.152-.007.881.071.574.08 2.592.113 67.533-.068 67.533-.068"/>
        <path fill="#E7EFF5" d="M130.62 153.826c-2.422 0-4.84.003-7.232.007a4452.22 4452.22 0 0 0-7.114-.007c-58.564 0-105.962-1.327-105.962 2.746 0 4.42 47.359 2.745 105.923 2.745 2.422 0 4.792-.003 7.143-.007 2.392.004 4.808.007 7.23.007 58.566 0 106.071 1.675 106.071-2.745 0-4.073-47.496-2.746-106.06-2.746"/>
        <path fill="#E5FCFC" d="M43.971 80.565c-.162-.006-.33-.01-.496-.014l.333.004c.028 0 .086.004.163.01z"/>
        <path fill="#E5FCFC" d="M107.83 113.25l9.396-52.068-59.923.05c-1.654-.015-3.617-.07-5.951-.09-12.016-.105-14.317 2.549-14.354 6.616-.028 3.188 1.354 5.388 7.738 6.24 1.882.485 3.691 1.42 3.675 3.31-.017 1.89-1.025 3.075-6.006 3.21.145.007.294.013.446.018-.228-.005-.467-.008-.704-.01-.36.006-.738.008-1.139.005l-.464-.007c-10.765.094-12.904 2.426-12.937 6.244-.035 3.922 2.122 6.314 13.656 6.487a43.984 43.984 0 0 1 1.825.008c1.152-.007.882.008.574.016 5.007.22 5.998 1.415 5.98 3.308-.016 1.898-1.033 3.07-6.078 3.196.457.022-11.5-.313-11.61 6.18-.066 3.981 2.225 6.245 14.241 6.35l61.635.938z"/>
        <path fill="#7ADFF0" d="M47.875 141.8H20.73c-1.476 0-2.7-.781-2.767-2.258-.186-4.118-.187-9.19-.187-15.79 0-14.72 0-22.733 2.04-26.287 1.834-3.195 5.765-3.147 14.375-3.147s12.54.023 14.374 3.217c2.042 3.554 2.042 11.675 2.042 26.394 0 6.72-.002 11.68-.197 15.832-.065 1.352-1.183 2.038-2.536 2.038"/>
        <path fill="#7ADFF0" d="M34.192 91.693c-19.085 0-19.085 1.212-19.085 32.247 0 30.95 0 32.158 19.085 32.158 19.086 0 19.086-1.208 19.086-32.158 0-31.035 0-32.247-19.086-32.247"/>
        <path fill="#F4FCFE" d="M34.192 94.34c-8.61 0-12.54-.024-14.374 3.17-2.041 3.555-2.041 11.615-2.041 26.333 0 6.6 0 11.581.187 15.699.066 1.477 1.29 2.258 2.767 2.258h27.144c1.353 0 2.47-.684 2.535-2.036.196-4.151.197-9.2.197-15.922 0-14.718 0-22.786-2.04-26.341-1.834-3.194-5.765-3.16-14.375-3.16"/>
        <path fill="#FFF" d="M30.427 149.442c0-2.672 1.427-3.914 3.893-3.914 2.466 0 3.893 1.242 3.893 3.914 0 2.673-1.427 3.915-3.893 3.915-2.466 0-3.893-1.242-3.893-3.915"/>
        <path fill="#60CDDD" d="M32.203 149.442c0-1.453.777-2.128 2.116-2.128 1.341 0 2.118.675 2.118 2.128 0 1.454-.777 2.129-2.118 2.129-1.34 0-2.116-.675-2.116-2.129"/>
        <path fill="#C7F0F9" d="M19.856 97.452c-.012.02-.026.038-.039.058-2.04 3.555-2.04 11.614-2.04 26.333 0 6.6.001 11.58.187 15.7.066 1.476 1.29 2.256 2.767 2.256h27.144c1.16 0 2.143-.456 2.44-1.49L19.856 97.451z"/>
        <path fill="#E5FCFC" d="M248.78 80.555c.114 0 .223-.002.333-.004-.167.003-.334.008-.496.014.077-.006.134-.01.163-.01z"/>
        <path fill="#E5FCFC" d="M246.393 112.313c12.016-.105 14.306-2.369 14.24-6.35-.11-6.493-12.066-6.158-11.609-6.18-5.045-.126-6.062-1.298-6.08-3.196-.016-1.893.975-3.089 5.982-3.308-.308-.008-.578-.023.574-.016a49.102 49.102 0 0 1 1.824-.008c11.535-.173 13.691-2.565 13.657-6.487-.033-3.818-2.172-6.15-12.937-6.244l-.465.007c-.4.003-.779.001-1.138-.005-.239.002-.476.005-.704.01.152-.005.3-.011.446-.018-4.982-.135-5.99-1.32-6.006-3.21-.017-1.89 1.793-2.825 3.675-3.31 6.384-.852 7.765-3.052 7.737-6.24-.036-4.067-2.338-6.72-14.353-6.616-2.335.02-4.297.075-5.951.09l-59.924-.05 9.397 52.069 61.635-.938z"/>
        <path fill="#7ADFF0" d="M202.577 150.464H81.257c-7.214 0-13.061 2.505-13.061-4.714V64.433c0-7.22 5.847-13.07 13.06-13.07h121.321c7.213 0 13.06 5.85 13.06 13.07v81.317c0 7.22-5.847 4.714-13.06 4.714"/>
        <path fill="#C7F0F9" d="M201.402 149.239l-118.97-.93c-2.853 0-5.164-.5-5.164-3.407V67.767c0-4.79 3.808-8.675 8.506-8.675h112.098c4.801 0 8.693 3.97 8.693 8.868v76.942c0 2.907-2.312 4.337-5.163 4.337"/>
        <path fill="#DFF6FB" d="M106.415 145.41c14.204.865 28.421 1.517 42.651 1.729 8.52.126 17.042.156 25.562.314.67.013 1.346.017 2.023.021 13.459-10.235 22.155-26.419 22.155-44.643 0-30.953-25.07-56.047-55.996-56.047-30.926 0-55.996 25.094-55.996 56.047 0 17.044 7.606 32.302 19.6 42.58"/>
        <path fill="#A1EAF5" d="M107.746 59.147h70.127c-3.68-2.963-7.56-5.82-11.919-7.785h-45.927c-4.359 1.964-8.602 4.822-12.281 7.785"/>
        <path fill="#F4FCFE" d="M180.184 102.982c0-21.004-17.012-38.031-37.997-38.031s-37.997 17.027-37.997 38.03c0 21.005 17.012 38.032 37.997 38.032s37.997-17.027 37.997-38.031"/>
        <path fill="#9CEAF5" d="M225.373 144.595H57.72c-.73 0-1.48.475-1.48 1.394v3.358c0 1.182 1.558 6.382 19.023 6.382H207.83c17.466 0 19.025-5.2 19.025-6.382v-3.358c0-.92-.752-1.394-1.48-1.394"/>
        <path fill="#60CDDD" d="M226.64 150.072H56.452c1.234 2.786 5.643 5.657 18.81 5.657h132.566c13.167 0 17.576-2.871 18.81-5.657"/>
        <path fill="#78DDE6" d="M141.546 144.585h-16.853l2.785 2.585c.75.671 1.505.782 2.428.782h24.02c1.102 0 2.288-.276 3.106-1.21l1.785-2.157h-17.271z"/>
        <path fill="#5AD73C" d="M197.894 4.861c2.87-2.26 2.965-3.257 2.217-4.208-.747-.952-1.74-1.093-4.609 1.166-2.869 2.26-2.964 3.258-2.218 4.209.748.95 1.74 1.093 4.61-1.167"/>
        <path fill="#3AD5F1" d="M87.114 28.621c-3.112 1.911-3.323 2.892-2.69 3.924.632 1.031 1.602 1.287 4.714-.624 3.11-1.912 3.321-2.892 2.69-3.924-.633-1.032-1.602-1.287-4.714.624M256.858 138.697c2.937 2.17 3.924 1.998 4.643 1.024.718-.974.592-1.968-2.346-4.139-2.938-2.17-3.926-1.997-4.643-1.024-.718.974-.592 1.969 2.346 4.14"/>
        <path fill="#FF7C9A" d="M197.295 22.576c-2.262-1.064-3.525-1.104-4.307.56-.78 1.663.057 2.612 2.32 3.675 2.26 1.064 3.525 1.104 4.306-.559.78-1.662-.056-2.611-2.319-3.676"/>
        <path fill="#5AD73C" d="M265.179 117.484c-2.47.374-3.544 1.043-3.27 2.86.273 1.817 1.496 2.14 3.967 1.768 2.471-.373 3.545-1.043 3.271-2.86-.273-1.817-1.497-2.141-3.968-1.768"/>
        <path fill="#FF7C9A" d="M90.124 8.217c0-2.128-1.138-3.118-3.102-3.118s-3.1.99-3.1 3.118c0 2.129 1.136 3.119 3.1 3.119 1.964 0 3.102-.99 3.102-3.119"/>
        <path fill="#D2EDEC" d="M185.358 13.358c0-1.361-.727-1.994-1.984-1.994-1.255 0-1.982.633-1.982 1.994 0 1.362.727 1.994 1.982 1.994 1.257 0 1.984-.632 1.984-1.994M101.035 17.92c0-1.36-.728-1.993-1.984-1.993-1.255 0-1.983.632-1.983 1.994 0 1.361.728 1.994 1.983 1.994 1.256 0 1.984-.633 1.984-1.994M250.728 120.68c0-1.362-.728-1.994-1.984-1.994-1.255 0-1.983.632-1.983 1.994 0 1.361.728 1.994 1.983 1.994 1.256 0 1.984-.633 1.984-1.994"/>
        <path fill="#FF7C9A" d="M27.8 58.59c-2.937-2.17-3.924-1.997-4.642-1.024-.718.974-.592 1.969 2.346 4.14 2.937 2.17 3.925 1.997 4.642 1.024.719-.975.592-1.97-2.345-4.14"/>
        <path fill="#5AD73C" d="M19.48 79.803c2.47-.373 3.544-1.043 3.27-2.86-.273-1.816-1.496-2.14-3.967-1.767-2.472.373-3.545 1.043-3.272 2.86.274 1.817 1.498 2.14 3.969 1.767"/>
        <path fill="#D2EDEC" d="M33.931 76.608c0 1.361.727 1.994 1.984 1.994 1.255 0 1.983-.633 1.983-1.994 0-1.362-.728-1.994-1.983-1.994-1.257 0-1.984.632-1.984 1.994"/>
        <path fill="#A9FFE4" fill-opacity=".6" d="M239 45.391c0-15.464-12.536-28-28-28s-28 12.536-28 28 12.536 28 28 28 28-12.536 28-28M101 76.391c0-16.016-12.984-29-29-29s-29 12.984-29 29 12.984 29 29 29 29-12.984 29-29"/>
        <path fill="#3C5D60" d="M61.184 102.172c-.111-.077.088.129 0 0"/>
        <path fill="#00C600" d="M128.77 89.64c-1.994.03-5.672 1.014-7.352 7.882-.732 2.992-1.014 6.111-.388 9.824.578 3.424 1.601 6.38 2.29 8.008a7.17 7.17 0 0 0 .892 1.508c.819 1.035 2.18.97 2.754.687.625-.308 1.342-1.05 1.082-2.746-.125-.82-.488-2.017-.691-2.684-.625-2.044-1.458-4.51-1.53-6.268-.098-2.35.828-2.658 1.444-2.793 1.033-.228 1.9.908 2.724 2.333.982 1.699 2.667 4.712 4.04 7.012 1.241 2.077 3.53 4.3 7.206 4.148 3.748-.157 6.51-1.588 7.933-6.093 1.065-3.37 1.79-5.89 2.959-8.47 1.343-2.965 3.135-4.553 4.644-4.069 1.4.45 1.75 1.82 1.766 3.835.015 1.782-.19 3.746-.35 5.19-.059.523-.164 1.577-.121 2.162.084 1.15.582 2.298 1.875 2.482 1.379.196 2.484-.907 2.926-2.24.174-.524.322-1.328.402-1.899.406-2.878.51-4.814.328-7.76-.214-3.445-.887-6.587-2.062-9.305-1.124-2.6-2.93-4.266-5.246-4.414-2.563-.163-5.505 1.54-7.049 4.842-1.422 3.045-2.56 6.17-3.25 7.766-.7 1.618-1.73 2.614-3.311 2.78-1.935.205-3.601-1.201-4.822-3.205-1.064-1.747-3.173-5.073-4.302-6.19-1.06-1.05-2.271-2.364-4.792-2.324"/>
        <path fill="#04ABE0" d="M226.232 56.614h-26.887c-.743 0-1.345.527-1.345 1.178 0 .65.602 1.177 1.345 1.177h26.887c.742 0 1.344-.527 1.344-1.177 0-.651-.602-1.178-1.344-1.178z"/>
        <path fill="#BEBEBE" fill-rule="nonzero" d="M200.913 53.145c-.738 0-1.335.6-1.335 1.342 0 .74.597 1.342 1.335 1.342h23.356c.738 0 1.335-.601 1.335-1.342 0-.742-.597-1.342-1.335-1.342h-.333V41.073h.333c.37 0 .667-.3.667-.67 0-.37-.298-.67-.667-.67h-23.356c-.37 0-.667.3-.667.67 0 .37.298.67.667.67h.333v12.071h-.333v.001zm20.353-12.072v12.071h-4.004v-12.07h4.004zm-6.674 0v12.071h-4.004v-12.07h4.004zm-10.677 0h4.004v12.071h-4.004v-12.07z"/>
        <path fill="#04ABE0" d="M199.362 38.555h27.247c.753 0 1.362-.621 1.362-1.39 0-.61-.386-1.127-.92-1.314l-13.512-6.203a1.34 1.34 0 0 0-1.118 0L198.804 35.9c-.586.27-.908.919-.773 1.559.134.64.69 1.097 1.331 1.097z"/>
        <path fill="#000" fill-opacity=".03" d="M225 40.79l-24.716 17.736V41.842c-.378-.35-.378-.702 0-1.053.377-.35 8.616-.35 24.716 0z" style="mix-blend-mode:multiply"/>
        <g>
            <path fill="#FFC55F" d="M198.272 47.527c-4.33.048-6.316 2.36-6.271 6.317.045 3.956 2.083 6.224 6.413 6.176 4.33-.048 6.315-2.361 6.27-6.317-.045-3.956-2.083-6.224-6.412-6.176"/>
            <path fill="#FFF" d="M196.47 56.225c.317.488.768.773 1.355.895v.489c0 .284.27.488.542.488.27 0 .541-.244.541-.488v-.49c.903-.161 1.49-.772 1.49-1.667 0-1.22-1.31-1.668-1.761-1.831-.721-.244-.812-.448-.812-.651 0-.122-.003-.433.583-.433.452 0 .68.31.68.35a.57.57 0 0 0 .768.164c.27-.163.361-.448.18-.691-.135-.245-.541-.57-1.083-.733v-.691c0-.286-.271-.49-.541-.49-.271 0-.542.245-.542.49v.69c-.677.164-1.128.692-1.128 1.385 0 1.098 1.174 1.504 1.534 1.627.903.285.994.57.994.854 0 .448-.317.693-.949.693-.451 0-.767-.164-.947-.448a.572.572 0 0 0-.767-.163c-.212.12-.271.407-.136.651"/>
            <path fill="#FFB341" d="M201.659 57.402c-4.33.048-6.368-2.22-6.413-6.176-.015-1.319.201-2.45.65-3.38-2.681.758-3.93 2.857-3.895 5.998.045 3.956 2.083 6.224 6.413 6.176 2.886-.032 4.725-1.075 5.62-2.936a9.082 9.082 0 0 1-2.375.318" opacity=".2" style="mix-blend-mode:multiply"/>
        </g>
        <g>
            <g transform="translate(53 63.391)">
                <rect width="36.449" height="24.523" x="1.535" y="1.168" fill="#00A9E0" rx="3.907"/>
                <rect width="36.449" height="24.523" fill="#6AE0F3" rx="3.907"/>
                <path fill="#B7B9B9" fill-opacity=".1" d="M2.665 24.523C1.355 24.523 0 23.222 0 22.327L.281 1.1c0-.294.35-.533.78-.533L27.649 0c.325 0 .603.136.72.328.066.107-.011.23-.16.286C25.985 1.452 7.65 8.69 7.65 19.673c0 3.01 3.112 4.081 5.337 4.585.395.09.252.265.252.265H2.665z" style="mix-blend-mode:multiply"/>
                <rect width="9.208" height="4.282" x="3.837" y="3.892" fill="#FFC55F" rx="1.737"/>
                <text fill="#3C3C3C" font-family="LucidaGrande-Bold, Lucida Grande" font-size="3.039" font-weight="bold" letter-spacing="-.036">
                    <tspan x="3.453" y="20.516">X</tspan>
                </text>
                <text fill="#3C3C3C" font-family="LucidaGrande-Bold, Lucida Grande" font-size="3.039" font-weight="bold" letter-spacing="-.036">
                    <tspan x="11.127" y="20.516">X</tspan>
                </text>
                <text fill="#3C3C3C" font-family="LucidaGrande-Bold, Lucida Grande" font-size="3.039" font-weight="bold" letter-spacing="-.036">
                    <tspan x="18.8" y="20.516">X</tspan>
                </text>
                <text fill="#3C3C3C" font-family="LucidaGrande-Bold, Lucida Grande" font-size="3.039" font-weight="bold" letter-spacing="-.036">
                    <tspan x="26.857" y="20.516">X</tspan>
                </text>
                <text fill="#3C3C3C" font-family="LucidaGrande-Bold, Lucida Grande" font-size="3.039" font-weight="bold" letter-spacing="-.036">
                    <tspan x="6.522" y="20.516">X</tspan>
                </text>
                <text fill="#3C3C3C" font-family="LucidaGrande-Bold, Lucida Grande" font-size="3.039" font-weight="bold" letter-spacing="-.036">
                    <tspan x="14.58" y="20.516">X</tspan>
                </text>
                <text fill="#3C3C3C" font-family="LucidaGrande-Bold, Lucida Grande" font-size="3.039" font-weight="bold" letter-spacing="-.036">
                    <tspan x="22.253" y="20.516">X</tspan>
                </text>
                <text fill="#3C3C3C" font-family="LucidaGrande-Bold, Lucida Grande" font-size="3.039" font-weight="bold" letter-spacing="-.036">
                    <tspan x="29.927" y="20.516">X</tspan>
                </text>
                <text fill="#3C3C3C" font-family="LucidaGrande-Bold, Lucida Grande" font-size="3.039" font-weight="bold" letter-spacing="-.036">
                    <tspan x="4.988" y="20.516">X</tspan>
                </text>
                <text fill="#3C3C3C" font-family="LucidaGrande-Bold, Lucida Grande" font-size="3.039" font-weight="bold" letter-spacing="-.036">
                    <tspan x="12.661" y="20.516">X</tspan>
                </text>
                <text fill="#3C3C3C" font-family="LucidaGrande-Bold, Lucida Grande" font-size="3.039" font-weight="bold" letter-spacing="-.036">
                    <tspan x="20.719" y="20.516">X</tspan>
                </text>
                <text fill="#3C3C3C" font-family="LucidaGrande-Bold, Lucida Grande" font-size="3.039" font-weight="bold" letter-spacing="-.036">
                    <tspan x="28.392" y="20.516">X</tspan>
                </text>
                <text fill="#3C3C3C" font-family="LucidaGrande-Bold, Lucida Grande" font-size="3.039" font-weight="bold" letter-spacing="-.036">
                    <tspan x="8.441" y="20.516">X</tspan>
                </text>
                <text fill="#3C3C3C" font-family="LucidaGrande-Bold, Lucida Grande" font-size="3.039" font-weight="bold" letter-spacing="-.036">
                    <tspan x="16.114" y="20.516">X</tspan>
                </text>
                <text fill="#3C3C3C" font-family="LucidaGrande-Bold, Lucida Grande" font-size="3.039" font-weight="bold" letter-spacing="-.036">
                    <tspan x="23.788" y="20.516">X</tspan>
                </text>
                <text fill="#3C3C3C" font-family="LucidaGrande-Bold, Lucida Grande" font-size="3.039" font-weight="bold" letter-spacing="-.036">
                    <tspan x="31.845" y="20.516">X</tspan>
                </text>
                <path fill="#E7E7E7" d="M3.453 13.624H33.38v2.725H3.453z"/>
            </g>
        </g>
    </g>
</svg>
