<svg xmlns="http://www.w3.org/2000/svg" width="58" height="29" viewBox="0 0 58 29">
    <g fill="none" fill-rule="nonzero">
        <path fill="#BAD000" d="M53.995 10.133c-.004.443-.279.704-.727.71-.577.004-1.156 0-1.734-.002 0 0 .044 4.743-.018 7.114-.073 2.867-1.621 4.816-4.419 5.58-2.366.645-4.757.64-7.096-.144-2.38-.797-3.686-2.481-3.952-4.95A10.049 10.049 0 0 1 36 17.383c0-2.825-.002-5.651 0-8.476 0-1.274.383-1.67 1.67-1.726.698-.03 1.395-.059 2.085.07.643.118.969.48 1.03 1.127a8.1 8.1 0 0 1 .035.732l.001 8.503c0 .8.228 1.488.999 1.887.377.196.79.282 1.213.32.662.062 1.318.057 1.971-.075 1.105-.223 1.68-.888 1.72-2.002.003-.082 0-.164.002-.245.003-2.925.006-5.85.012-8.774 0-.163.016-.326.042-.487.09-.558.431-.876.986-.988.313-.064.633-.068.95-.082h.409s-.001-.382.011-.5c.043-.393.279-.65.674-.654 1.164-.016 2.33-.017 3.495-.003.426.006.686.299.689.728.006 1.131.007 2.263 0 3.395z"/>
        <path fill="#AEB702" d="M52 10.997c-.663-.002-1.328-.028-1.989 0-.578.025-1.029-.298-1.01-.884A70 70 0 0 0 49.006 7l.243.008c.524.017 1.05.005 1.566.122.616.14.986.46 1.106 1.005.111.5.053 1.003.066 1.504.01.454.007.907.01 1.361l.003-.003z"/>
        <g fill="#BAD000">
            <path d="M.068 16.26l.001-6.128c0-.383.018-.766.109-1.14.256-1.057 1.006-1.706 2.162-1.75 1.902-.073 3.81-.135 5.709.052 1.216.12 2.326.533 3.155 1.497.595.693.882 1.522 1.008 2.411.168 1.184.15 2.363-.177 3.522-.46 1.623-1.565 2.556-3.166 2.953-.72.179-1.455.236-2.196.235-1.34 0-2.68.006-4.02-.007-.247-.002-.303.07-.301.307.01 1.586.004 3.173.005 4.76 0 .23-.017.46-.162.65-.305.4-1.631.406-1.949.014a.653.653 0 0 1-.148-.376c-.012-.2-.029-.4-.029-.6-.002-2.134 0-4.267 0-6.4zm2.29-3.299c0 .857.007 1.715-.005 2.572-.002.192.05.24.24.238 1.413-.008 2.826-.002 4.24-.006.382 0 .764-.039 1.141-.107 1.07-.195 1.738-.794 1.92-1.756a6.592 6.592 0 0 0-.001-2.58c-.199-.965-.763-1.589-1.744-1.808a5.647 5.647 0 0 0-1.192-.135c-1.194-.01-2.389-.005-3.583-.002-.136 0-.274.017-.406.045-.318.067-.515.265-.566.589-.026.17-.04.344-.041.516-.005.812-.003 1.623-.003 2.434zM26.958 28.893c-.602.013-.833-.169-.968-.763-.04-.177-.084-.356-.101-.536-.038-.397.115-.598.51-.67.349-.065.707-.09 1.05-.173.811-.195 1.389-.693 1.766-1.432.166-.325.305-.66.421-1.006.03-.088.125-.192.044-.275-.063-.063-.172.001-.26.018-.434.08-.87.083-1.304.004-.907-.164-1.483-.733-1.846-1.546-.385-.86-.575-1.781-.824-2.683-.687-2.491-1.363-4.986-2.04-7.48-.236-.869-.039-1.12.86-1.118.073 0 .146 0 .22.003.651.025.938.244 1.115.877.225.806.44 1.615.66 2.422l1.753 6.424c.022.079.051.156.077.233.287.85.653 1.034 1.627.914.36-.045.564-.313.698-.63.217-.514.307-1.064.438-1.602.624-2.573 1.24-5.148 1.862-7.721.162-.671.442-.9 1.128-.918.227-.006.455-.015.681.033.372.078.507.244.5.627-.006.23-.073.449-.128.669-.96 3.845-1.92 7.69-2.889 11.534-.257 1.02-.619 2-1.227 2.872-.771 1.108-1.852 1.692-3.17 1.872-.145.02-.29.037-.435.05-.072.007-.145.001-.218.001zM22.54 17.521c0 .958.024 1.915-.005 2.871-.052 1.738-.916 2.891-2.586 3.37-1.694.486-3.42.552-5.12.037-1.862-.565-2.676-1.99-2.597-3.851.041-.963.307-1.831 1.056-2.49.57-.503 1.258-.758 1.987-.916a9.872 9.872 0 0 1 2.09-.204c.893 0 1.786-.01 2.68.006.247.004.313-.073.299-.31-.028-.473.017-.947-.035-1.42-.08-.725-.46-1.214-1.136-1.467-.766-.286-1.57-.302-2.373-.274a13.39 13.39 0 0 0-2.438.29c-.581.13-.864-.097-.9-.694-.057-.963.102-1.206 1.056-1.373 1.736-.303 3.48-.373 5.202.089 1.182.317 2.12.959 2.572 2.159.185.49.26 1.001.26 1.525-.003.884-.001 1.768-.001 2.653h-.01zm-2.2 1.71c0-.264-.015-.53.004-.792.015-.216-.053-.28-.273-.278-.966.011-1.932.004-2.898.005-.375 0-.746.041-1.112.116-1.028.207-1.493.69-1.602 1.653-.11.966.311 1.737 1.188 2 1.21.363 2.434.312 3.623-.11.632-.225.95-.73 1.031-1.392.05-.4.036-.8.038-1.201zM58 4.265c0 .41.001.82-.001 1.229-.002.368-.186.567-.545.569-.837.003-1.675 0-2.513-.008-.313-.003-.52-.192-.524-.509-.011-.864-.012-1.73.003-2.594.005-.336.21-.51.549-.512.819-.005 1.638-.004 2.458 0 .386.002.57.188.572.568.002.42 0 .838 0 1.257zM51.988 1.203c0-.273-.003-.547.002-.82.004-.266.117-.375.385-.376.556-.002 1.111-.002 1.667 0 .265.001.385.112.389.378.007.556.006 1.111 0 1.667-.002.268-.135.403-.406.407-.546.007-1.093.006-1.64-.001-.27-.003-.396-.136-.4-.408-.004-.283 0-.565 0-.847h.003z"/>
        </g>
    </g>
</svg>
