<svg xmlns="http://www.w3.org/2000/svg" width="38" height="84" viewBox="0 0 38 84">
    <g fill="none" fill-rule="evenodd">
        <path fill="#FFF" d="M4.629 71.106S1.147 66.258 1.3 65.13c.153-1.129.766-36.664.766-36.664l4.446-4.642 22.995-.716L35 26.492l1.868 26.933s-2.913 16.888-4.14 17.68c-1.226.793-28.098 0-28.098 0"/>
        <path fill="#D8ECED" d="M29.473 66.32H8.84a1.83 1.83 0 0 1-1.837-1.824v-2.2a1.83 1.83 0 0 1 1.837-1.824h20.634a1.83 1.83 0 0 1 1.837 1.825v2.2a1.83 1.83 0 0 1-1.837 1.824"/>
        <path fill="#00B3E5" d="M2.067 28.422s-.012.534-.034 1.934h32.89V26.49l-5.453-3.384-22.976.695-4.427 4.62z"/>
        <path fill="#496D73" d="M32.328 70.247H5.802c-1.444 0-2.64-.935-2.705-2.368-.182-3.994-.183-9.003-.183-15.405 0-14.276 0-22.093 1.995-25.542 1.792-3.098 5.633-3.074 14.048-3.074s12.255.012 14.048 3.11c1.994 3.448 1.994 11.318 1.994 25.594 0 6.52-.001 11.506-.193 15.532-.063 1.313-1.155 2.153-2.478 2.153M18.957 21.29C.305 21.29.305 22.465.305 52.568c0 30.02 0 31.192 18.652 31.192s18.652-1.172 18.652-31.192c0-30.103 0-31.278-18.652-31.278"/>
        <path fill="#3E6063" d="M5.802 70.247c-1.444 0-2.64-.935-2.705-2.368-.182-3.994-.183-9.003-.183-15.405 0-14.276 0-22.093 1.995-25.542 1.792-3.098 5.633-3.074 14.048-3.074 7.708 0 11.572.017 13.545 2.4l1.249-2.483c-2.665-2.287-7.172-2.485-14.794-2.485C.305 21.29.305 22.465.305 52.568c0 18.473.002 26.02 4.348 29.095l5.738-11.416H5.8z"/>
        <path fill="#FFF" d="M15.277 77.304c0-2.592 1.395-3.797 3.805-3.797 2.409 0 3.804 1.205 3.804 3.797s-1.395 3.797-3.804 3.797c-2.41 0-3.805-1.205-3.805-3.797"/>
        <path fill="#6A999D" d="M17.013 77.304c0-1.41.759-2.065 2.069-2.065s2.068.656 2.068 2.065c0 1.41-.758 2.065-2.068 2.065s-2.07-.656-2.07-2.065"/>
        <path fill="#EC6839" stroke="#EC6839" stroke-width=".7" d="M18.79 53.63c-1.425 0-2.813-.383-4.125-1.151a8.93 8.93 0 0 1-2.437-2.189l-.187 1.382c-.038.308-.3.538-.6.5a.556.556 0 0 1-.488-.615l.225-1.843a1.37 1.37 0 0 1 .525-.96c.3-.23.675-.346 1.05-.269l1.8.23c.3.039.525.308.45.615-.038.307-.3.538-.6.46l-1.35-.191a6.945 6.945 0 0 0 2.137 1.92c2.7 1.574 6.036 1.229 8.361-.922a.57.57 0 0 1 .787.039.604.604 0 0 1-.037.806c-1.575 1.46-3.525 2.189-5.512 2.189zm6.425-3.876c-.225 0-.412-.038-.6-.15h-.037c-.3-.15-.525-.374-.675-.711l-.713-1.684a.535.535 0 0 1 .3-.712c.263-.112.6 0 .713.3l.525 1.272c.375-.86.562-1.796.562-2.77a7.078 7.078 0 0 0-4.95-6.774.503.503 0 0 1-.337-.674c.075-.3.413-.45.675-.337 3.412 1.086 5.7 4.23 5.7 7.823 0 1.086-.226 2.171-.638 3.144l1.2-.486c.262-.113.6 0 .712.3a.535.535 0 0 1-.3.71l-1.65.674c-.15.037-.337.075-.487.075zm-14.23-1.939a.514.514 0 0 1-.503-.42c-.718-3.547.79-7.17 3.769-9.002.897-.572 1.902-.915 2.943-1.068l-1.005-.801c-.215-.19-.287-.534-.107-.763.18-.229.502-.305.717-.114l1.364 1.106c.575.496.682 1.373.252 1.983l-1.077 1.488c-.18.23-.503.305-.718.115-.215-.191-.287-.534-.108-.763l.826-1.145a6.41 6.41 0 0 0-2.584.916c-2.585 1.564-3.877 4.73-3.267 7.82.072.305-.108.61-.395.648h-.107z"/>
        <g>
            <path fill="#FF7F52" d="M29.003 13.334c-.946 2.035-.975 3.17.527 3.862 1.501.692 2.352-.065 3.297-2.1.946-2.035.976-3.17-.526-3.861-1.502-.692-2.352.064-3.298 2.1"/>
            <path fill="#EC6839" d="M19.605 5.816c-2.419.027-3.528 1.343-3.503 3.593.025 2.251 1.163 3.54 3.582 3.514 2.418-.028 3.527-1.343 3.502-3.594-.025-2.25-1.163-3.54-3.581-3.513"/>
            <path fill="#FF5012" d="M24.453 0c-1.319.015-1.924.733-1.91 1.96.013 1.227.634 1.931 1.953 1.917 1.32-.016 1.924-.733 1.91-1.96C26.394.689 25.773-.014 24.454 0"/>
            <path fill="#FBB095" d="M9.814 13.62c-2.194-2.91-3.15-2.995-4.051-2.219-.9.777-1.026 1.794 1.168 4.703 2.195 2.91 3.15 2.994 4.052 2.218.901-.777 1.025-1.794-1.169-4.703"/>
        </g>
    </g>
</svg>
