<svg xmlns="http://www.w3.org/2000/svg" xmlns:xlink="http://www.w3.org/1999/xlink" width="35" height="45" viewBox="0 0 35 45">
    <defs>
        <path id="a" d="M29.027 43.594H4.982c-1.308 0-2.392-.833-2.451-2.109-.165-3.556-.166-8.016-.166-13.718 0-12.712 0-19.673 1.808-22.743 1.624-2.76 5.106-2.738 12.733-2.738 7.628 0 11.11.01 12.734 2.77 1.808 3.07 1.808 10.078 1.808 22.79 0 5.805 0 10.246-.175 13.831-.056 1.168-1.048 1.917-2.246 1.917M16.907 0C0 0 0 1.046 0 27.851c0 26.732 0 27.776 16.906 27.776 16.907 0 16.907-1.044 16.907-27.776C33.813 1.046 33.813 0 16.906 0"/>
    </defs>
    <g fill="none" fill-rule="evenodd">
        <path fill="#496D73" d="M.276 27.983c0 7.039 0 12.292.31 16.211l33.188.032c.314-3.922.314-9.185.314-16.243 0-26.73 0-27.773-16.906-27.773S.276 1.254.276 27.983z"/>
        <path fill="#FFF" d="M4.229 46.633s-3.175-4.301-3.035-5.303c.14-1 .699-32.535.699-32.535l4.054-4.118L26.92 4.04l5.007 3.004 1.704 23.9s-.654 14.87-1.773 15.575c-1.118.703-27.63.114-27.63.114"/>
        <path fill="#00B3E5" d="M2.135 8.896s-.012.488-.032 1.767h30.158V7.132l-5-3.092-21.067.635-4.059 4.22z"/>
        <path fill="#496D73" d="M29.303 45.868H5.257c-1.308 0-2.391-.833-2.45-2.108-.166-3.557-.166-8.017-.166-13.719 0-12.711 0-19.672 1.807-22.743C6.073 4.54 9.554 4.56 17.182 4.56s11.109.011 12.733 2.77c1.809 3.07 1.809 10.078 1.809 22.79 0 5.806-.001 10.246-.175 13.832-.057 1.168-1.048 1.916-2.246 1.916M17.182 2.275C.276 2.275.276 3.32.276 30.125c0 26.732 0 27.776 16.906 27.776s16.906-1.044 16.906-27.775c0-26.805 0-27.851-16.906-27.851"/>
        <path fill="#E9EAE9" fill-opacity=".2" d="M4.347 7.615C2.56 10.635 2.56 17.48 2.56 29.978c0 5.606 0 9.992.164 13.488.058 1.255 1.13 2.074 2.421 2.074h4.11L29.387 6.662c-1.766-2.09-5.584-2.125-12.49-2.125-9.196 0-10.946.366-12.55 3.078z"/>
        <g transform="translate(.276 2.275)">
            <mask id="b" fill="#fff">
                <use xlink:href="#a"/>
            </mask>
            <use fill="#3E6063" xlink:href="#a"/>
            <path d="M1.323 57.952L-5.83 14.179.435-5.03l32.838 2.092z" mask="url(#b)"/>
        </g>
    </g>
</svg>
