<svg xmlns="http://www.w3.org/2000/svg" xmlns:xlink="http://www.w3.org/1999/xlink" width="203" height="160" viewBox="0 0 203 160">
    <defs>
        <path id="a" d="M62.18 93.637H10.67c-2.801 0-5.123-1.79-5.25-4.53-.353-7.638-.354-17.218-.354-29.465 0-27.305 0-42.256 3.871-48.851 3.481-5.926 10.938-5.88 27.278-5.88 16.34 0 23.797.022 27.276 5.948 3.874 6.594 3.874 21.648 3.874 48.952 0 12.47-.001 22.008-.375 29.709-.12 2.508-2.245 4.117-4.811 4.117M36.216 0C0 0 0 2.248 0 59.822c0 57.418 0 59.66 36.216 59.66s36.216-2.242 36.216-59.66C72.432 2.248 72.432 0 36.216 0"/>
    </defs>
    <g fill="none" fill-rule="evenodd">
        <path fill="#E5FCFC" d="M99.503 64.105l39.176-3.57a7.805 7.805 0 0 1 7.31 3.613l2.091 3.316a12.43 12.43 0 0 0 11.644 5.756l4.802-.437c21.346-1.702 25.825 2.51 26.423 10.475.977 12.985-20.306 14.245-19.489 14.216-.094.012-.177.032-.268.044-9.842 1.135-11.556 3.753-11.184 7.703.388 4.127 2.41 5.68 13.475 4.633 1.687-.16 2.773-.203 3.361-.268 20.505-1.489 24.742 2.723 25.387 10.56.579 7.023-2.197 12.335-17.595 13.79l-92.408-.69.17-61.362c.012-4.043 3.09-7.414 7.105-7.78"/>
        <path fill="#E5FCFC" d="M117.68 122.14l-82.495-2.228c-21.413-.253-25.49-4.857-25.364-12.844.206-13.019 21.515-12.332 20.699-12.379.093-.002.179-.014.271-.017 9.904-.234 11.849-2.684 11.836-6.653-.012-4.145-3.275-6.595-8.369-6.595-1.696 0-8.602.148-9.193.158C4.51 81.194.672 76.613.74 68.749c.063-7.047 3.308-12.082 18.776-12.129l32.333-.045c8.91-.01 17.112-4.624 21.994-12.095 2.183-3.34 5.043-6.106 8.577-6.265l51.074 12.871-15.814 71.055z"/>
        <path fill="#E1F4F4" d="M152.362 88.94l.132-.012.074.006a8.717 8.717 0 0 0-.206.006"/>
        <path fill="#EDF2F6" d="M52.488 27.171a2.502 2.502 0 0 0 3.498.246c.496-.43.809-1.054.854-1.705a2.518 2.518 0 0 0-.6-1.794c-.85-.995-2.509-1.11-3.491-.245a2.52 2.52 0 0 0-.843 1.692 2.547 2.547 0 0 0 .599 1.807h-.017z"/>
        <path fill="#496D73" d="M62.235 85.754c0 15.12 0 26.403.667 34.82l71.092.07c.672-8.426.672-19.729.672-34.89 0-57.412 0-59.653-36.215-59.653-36.216 0-36.216 2.24-36.216 59.653z"/>
        <path fill="#FFF" d="M70.703 125.814s-6.801-9.24-6.501-11.39c.299-2.15 1.497-69.883 1.497-69.883l8.685-8.847 44.928-1.367 10.725 6.451 3.65 51.337s-1.4 31.941-3.798 33.453c-2.395 1.511-59.186.246-59.186.246"/>
        <path fill="#EEE" d="M92.285 65.62c-2 0-3.623-1.587-3.623-3.55v-4.28c0-1.96 1.623-3.549 3.623-3.549h28.972c1.999 0 3.621 1.59 3.621 3.55v4.28c0 1.962-1.622 3.55-3.62 3.55H92.284zM92.285 82.69c-2 0-3.623-1.59-3.623-3.55v-4.28c0-1.96 1.623-3.55 3.623-3.55h28.972c1.999 0 3.621 1.59 3.621 3.55v4.28c0 1.96-1.622 3.55-3.62 3.55H92.284zM92.285 100.706c-2 0-3.623-1.588-3.623-3.549v-4.28c0-1.96 1.623-3.55 3.623-3.55h28.972c1.999 0 3.621 1.59 3.621 3.55v4.28c0 1.96-1.622 3.55-3.62 3.55H92.284zM92.285 115.879c-2 0-3.623-1.589-3.623-3.55v-4.28c0-1.96 1.623-3.55 3.623-3.55h28.972c1.999 0 3.621 1.59 3.621 3.55v4.28c0 1.961-1.622 3.55-3.62 3.55H92.284zM77.425 65.62c-1.902 0-3.445-1.587-3.445-3.55v-4.28c0-1.96 1.543-3.549 3.445-3.549h3.88c1.9 0 3.442 1.59 3.442 3.55v4.28c0 1.962-1.542 3.55-3.443 3.55h-3.88zM77.425 82.69c-1.902 0-3.445-1.59-3.445-3.55v-4.28c0-1.96 1.543-3.55 3.445-3.55h3.88c1.9 0 3.442 1.59 3.442 3.55v4.28c0 1.96-1.542 3.55-3.443 3.55h-3.88zM77.425 100.706c-1.902 0-3.445-1.588-3.445-3.549v-4.28c0-1.96 1.543-3.55 3.445-3.55h3.88c1.9 0 3.442 1.59 3.442 3.55v4.28c0 1.96-1.542 3.55-3.443 3.55h-3.88zM77.425 115.879c-1.902 0-3.445-1.589-3.445-3.55v-4.28c0-1.96 1.543-3.55 3.445-3.55h3.88c1.9 0 3.442 1.59 3.442 3.55v4.28c0 1.961-1.542 3.55-3.443 3.55h-3.88z"/>
        <path fill="#00B3E5" d="M66.218 44.756s-.026 1.05-.068 3.796h64.601v-7.584l-10.71-6.64-45.128 1.363-8.695 9.065z"/>
        <path fill="#496D73" d="M124.415 124.171H72.906c-2.801 0-5.123-1.789-5.25-4.529-.353-7.639-.355-17.22-.355-29.466 0-27.304 0-42.256 3.872-48.85 3.48-5.927 10.938-5.882 27.278-5.882 16.339 0 23.796.023 27.276 5.949 3.874 6.595 3.874 21.648 3.874 48.952 0 12.47-.001 22.008-.375 29.709-.121 2.509-2.245 4.117-4.811 4.117M98.45 30.534c-36.216 0-36.216 2.248-36.216 59.823 0 57.418 0 59.66 36.216 59.66 36.215 0 36.215-2.242 36.215-59.66 0-57.575 0-59.823-36.215-59.823"/>
        <path fill="#FFF" d="M91.599 137.215c0-4.857 2.692-7.112 7.34-7.112 4.65 0 7.342 2.255 7.342 7.112 0 4.856-2.692 7.112-7.341 7.112-4.65 0-7.341-2.256-7.341-7.112"/>
        <path fill="#6A999D" d="M95.514 137.69c0-2.59 1.435-3.794 3.915-3.794s3.916 1.205 3.916 3.794-1.435 3.792-3.916 3.792c-2.48 0-3.915-1.203-3.915-3.792"/>
        <path fill="#E9EAE9" fill-opacity=".2" d="M70.956 42.006c-3.827 6.485-3.827 21.186-3.827 48.035 0 12.04.001 21.46.352 28.97.123 2.696 2.418 4.454 5.186 4.454h8.804l43.125-83.506c-3.783-4.488-11.962-4.566-26.756-4.566-19.699 0-23.447.787-26.884 6.613z"/>
        <g transform="translate(62.235 30.534)">
            <mask id="b" fill="#fff">
                <use xlink:href="#a"/>
            </mask>
            <use fill="#3E6063" xlink:href="#a"/>
            <path d="M2.835 124.476l-15.325-94.02L.93-10.804 71.277-6.31z" mask="url(#b)"/>
        </g>
        <path fill="#496D73" d="M92.481 136.941c0-4.36 2.416-6.385 6.59-6.385 4.173 0 6.59 2.025 6.59 6.385 0 4.36-2.417 6.386-6.59 6.386-4.174 0-6.59-2.026-6.59-6.386"/>
        <path fill="#6A999D" d="M95.488 136.941c0-2.37 1.314-3.472 3.584-3.472 2.268 0 3.582 1.102 3.582 3.472s-1.314 3.473-3.582 3.473c-2.27 0-3.584-1.102-3.584-3.473"/>
        <path fill="#FF7C9A" d="M123.101 10.292c-1.676 3.63-1.728 5.655.933 6.89 2.66 1.234 4.166-.117 5.842-3.746 1.675-3.632 1.726-5.657-.933-6.89-2.661-1.235-4.167.115-5.842 3.746"/>
        <path fill="#E7EFF5" d="M73.604 8.702c-3.167-5.713-4.898-6.164-6.784-5.114-1.887 1.052-2.418 2.765.75 8.477 3.166 5.713 4.896 6.165 6.783 5.113 1.887-1.05 2.418-2.764-.75-8.476"/>
        <path fill="#5AD73C" d="M98.746 0c-4.171.048-6.084 2.305-6.04 6.167.042 3.862 2.005 6.077 6.176 6.03 4.17-.047 6.084-2.304 6.04-6.166-.042-3.864-2.006-6.078-6.176-6.03"/>
        <g>
            <path fill="#FFC55F" d="M56.929 109.927c-16.927.19-24.692 9.353-24.515 25.027.176 15.675 8.144 24.66 25.07 24.469 16.926-.19 24.69-9.353 24.514-25.027-.176-15.675-8.143-24.66-25.07-24.47"/>
            <path fill="#FFF" d="M49.889 144.389c1.235 1.934 3 3.06 5.293 3.544v1.937c0 1.128 1.06 1.934 2.119 1.934 1.057 0 2.117-.968 2.117-1.934v-1.937c3.53-.642 5.824-3.063 5.824-6.607 0-4.837-5.12-6.61-6.884-7.256-2.82-.966-3.176-1.774-3.176-2.58 0-.483-.01-1.714 2.281-1.714 1.767 0 2.66 1.231 2.66 1.39.709.968 1.94 1.292 3 .647 1.058-.646 1.413-1.775.705-2.74-.53-.969-2.117-2.256-4.234-2.903v-2.738c0-1.133-1.061-1.937-2.118-1.937-1.06 0-2.119.967-2.119 1.937v2.738c-2.646.647-4.409 2.74-4.409 5.483 0 4.351 4.59 5.961 5.998 6.447 3.53 1.13 3.886 2.257 3.886 3.385 0 1.775-1.238 2.743-3.71 2.743-1.765 0-2.997-.647-3.703-1.775-.708-.968-1.873-1.267-3-.644-.828.478-1.06 1.61-.53 2.58"/>
            <path fill="#FFB341" d="M70.17 149.051c-16.926.19-24.893-8.794-25.069-24.469-.06-5.225.786-9.707 2.539-13.395-10.48 3.006-15.365 11.325-15.226 23.767.175 15.675 8.143 24.66 25.07 24.47 11.283-.127 18.474-4.261 21.976-11.633-2.722.779-5.8 1.221-9.29 1.26" opacity=".2" style="mix-blend-mode:multiply"/>
        </g>
    </g>
</svg>
