<svg xmlns="http://www.w3.org/2000/svg" width="78" height="88" viewBox="0 0 78 88">
    <g fill="none" fill-rule="evenodd">
        <path fill="#E5FCFC" d="M28.595 15.443c-.054-2.527-4.592-3.157-8.814-3.072-3.272.067-9.843.837-9.843 3.302 0 1.802.537 2.586 2.838 3.009 1.38.253 11.821 1.438 14.384-.317.885-.607 1.464-1.532 1.435-2.922"/>
        <path fill="#E1F4F4" d="M2.794 37.32l-.064-.007c-.013 0-.024.002-.037.003.037 0 .07.002.101.003"/>
        <path fill="#DAE7EF" d="M.45 17.438c.269.305.658.497 1.072.526a1.6 1.6 0 0 0 1.138-.372c.313-.27.51-.663.54-1.072a1.577 1.577 0 0 0-.38-1.128c-.538-.625-1.585-.698-2.205-.154a1.581 1.581 0 0 0-.533 1.064c-.029.41.112.825.379 1.136H.45z"/>
        <path fill="#EDF2F6" d="M5.517 12.466a1.13 1.13 0 0 0 1.576.11c.224-.193.364-.472.385-.764.02-.292-.08-.581-.27-.804-.384-.446-1.13-.498-1.573-.11-.219.194-.359.467-.38.759-.02.292.08.588.27.81l-.008-.001zM75.1 49.587a1.128 1.128 0 0 0 1.576.11c.223-.192.364-.472.384-.764.02-.291-.08-.582-.27-.804-.384-.445-1.13-.497-1.572-.11-.22.195-.36.468-.38.759-.02.292.08.588.27.81H75.1z"/>
        <path fill="#E1FBFC" d="M15.653 76.109c2.066-.531 4.005-.285 5.813.382.353-4.005 2.235-7.537 5.604-9.64-1.3-.954-3.077-1.497-4.989-1.497v.007c-4.207 0-7.111 2.773-8.078 6.5-1.129-.684-2.394-1.07-3.833-.968-3.32.235-5.94 3.032-6.282 6.451-.096.97-.008.442.002.633a6.642 6.642 0 0 0-2.52 1.524c-.933.901-.302 2.443.976 2.443h6.595c1.205-2.765 3.606-5.037 6.712-5.835"/>
        <path fill="#B2E5F5" d="M7.21 87.977h66.54c1.99 0 2.853-2.85 1.271-4.21-.878-.757-1.877-1.362-2.956-1.628-.253-4.562-3.618-7.984-7.731-7.984-2.46 0-4.624 1.416-6.043 3.429-1.381-1.116-3.063-1.778-4.892-1.778-.403 0-.791.1-1.179.171-1.463-2.814-4.145-4.713-7.25-4.713-1.291 0-2.597.36-3.69.944-1.667-4.04-4.724-6.854-9.6-6.854v.01c-5.321 0-8.821 3.745-10.018 8.779-1.399-.924-2.971-1.445-4.754-1.307-4.113.318-7.363 4.095-7.785 8.715-.12 1.31-.011.596.001.855-1.171.426-2.234 1.23-3.121 2.164-1.157 1.218-.376 3.407 1.207 3.407"/>
        <path fill="#3AD5F1" d="M35.141 7.235c-1.19-1.416-1.698-1.45-2.17-1.057-.47.393-.527.897.664 2.312 1.19 1.416 1.698 1.45 2.169 1.057.471-.393.527-.897-.663-2.312"/>
        <path fill="#FF7C9A" d="M50.156 7.587c-.533 1.147-.55 1.786.297 2.176.847.39 1.325-.036 1.859-1.183.533-1.147.55-1.787-.297-2.177-.847-.39-1.325.037-1.859 1.184"/>
        <path fill="#5AD73C" d="M43.178 3.28c-1.327.015-1.936.728-1.922 1.948.014 1.22.638 1.92 1.966 1.905 1.326-.015 1.935-.728 1.921-1.948-.013-1.22-.638-1.92-1.965-1.905"/>
        <path fill="#94E37A" d="M45.723 0c-.706.008-1.03.388-1.022 1.037.007.65.34 1.022 1.046 1.013.706-.007 1.03-.387 1.022-1.036-.007-.65-.34-1.021-1.046-1.014"/>
        <path fill="#FFCCA5" d="M33.892 77.171h16.706V62.51H33.892z"/>
        <path fill="#FFD3A8" d="M50.336 32.55l-.092-.092a2.505 2.505 0 0 1 0-3.544l5.588-5.564a2.532 2.532 0 0 1 3.56 0l.092.093c.979.975.979 2.57 0 3.544l-5.588 5.563a2.532 2.532 0 0 1-3.56 0"/>
        <path fill="#FABB95" d="M41.639 63.2c10.816 1.31 15.128-3.092 17.73-14.329-27.944 10.125-17.964 13.265-17.964 13.265l.234 1.065z"/>
        <path fill="#FFD3A8" d="M42.786 62.694c.928-1.196 2.91-4.215 2.007-7.215a2.723 2.723 0 0 1-1.155-.253 3.802 3.802 0 0 1-1.792-1.828 6.53 6.53 0 0 1-.23-.463c-.195-.44-.438-.93-.52-1.414-.007-.044-.007-.086-.013-.13-1.706-.957-4.082-1.788-7.326-2.398-.499-2.765-1.663-9.31-1.653-10.007.013-.886.619-6.498-2.157-9.89-1.842-2.252-5.6-1.146-4.653 1.458 1.212 3.099 2.469 10.606 2.469 10.606s-1.592 5.222-1.247 8.834c.546 5.716 1.35 6.729 2.114 7.916 2.052 3.617 4.96 4.397 5.7 4.672l8.01.649s.116-.125.297-.35l.142.017.007-.204z"/>
        <path fill="#FFF" d="M33.595 47.844s-2.4-3.349-2.294-4.128c.106-.78.528-25.33.528-25.33l3.065-3.207 15.851-.495 3.785 2.338 1.288 18.608s-2.008 11.666-2.853 12.214c-.846.548-19.37 0-19.37 0"/>
        <path fill="#00B3E5" d="M31.83 18.356s-.01.369-.024 1.336h22.672v-2.67l-3.759-2.338-15.838.48-3.052 3.192z"/>
        <path fill="#496D73" d="M52.69 47.251H34.403c-.995 0-1.82-.646-1.865-1.636-.125-2.76-.126-6.22-.126-10.643 0-9.863 0-15.263 1.375-17.645 1.236-2.14 3.883-2.124 9.684-2.124 5.8 0 8.448.008 9.684 2.148 1.374 2.382 1.374 7.82 1.374 17.682 0 4.504 0 7.95-.133 10.73-.043.907-.796 1.488-1.708 1.488M43.472 13.43c-12.857 0-12.857.811-12.857 21.608 0 20.74 0 21.55 12.857 21.55s12.857-.81 12.857-21.55c0-20.797 0-21.608-12.857-21.608"/>
        <path fill="#3E6063" d="M34.404 47.251c-.995 0-1.82-.646-1.865-1.636-.125-2.76-.126-6.22-.126-10.643 0-9.863 0-15.263 1.375-17.645 1.236-2.14 3.883-2.124 9.684-2.124 5.313 0 7.977.012 9.337 1.658l.86-1.716c-1.836-1.58-4.943-1.716-10.197-1.716-12.857 0-12.857.811-12.857 21.608 0 12.762.001 17.976 2.997 20.1l3.955-7.886h-3.163z"/>
        <path fill="#FFD3A8" d="M49.585 42.117l-.093-.092a2.505 2.505 0 0 1 0-3.544l4.786-4.765a2.532 2.532 0 0 1 3.559 0l.093.092c.979.975.979 2.57 0 3.544l-4.786 4.765a2.532 2.532 0 0 1-3.56 0"/>
        <path fill="#FFC9A0" d="M50.622 47.76l-.093-.093a2.505 2.505 0 0 1 0-3.544l4.453-4.434a2.532 2.532 0 0 1 3.56 0l.093.093c.979.974.979 2.569 0 3.544l-4.454 4.433a2.532 2.532 0 0 1-3.56 0"/>
        <path fill="#FFD3A8" d="M51.099 54.447l-.093-.093c-.979-.975-1.324-2.228 0-3.544l4.671-4.65a2.532 2.532 0 0 1 3.56 0l.093.092c.978.975.978 2.57 0 3.544l-4.672 4.65c-1.303 1.327-2.58.975-3.56 0"/>
        <path fill="#FFD3A8" d="M59.979 48.666c-.533.193-1.658.588-2.164.777l.049.467s.687.89.364 3.08c1.027-1.72 1.405-2.83 1.751-4.324"/>
        <path fill="#FFF" d="M40.935 52.127c0-1.791.962-2.623 2.623-2.623 1.66 0 2.622.832 2.622 2.623 0 1.79-.961 2.622-2.622 2.622s-2.623-.832-2.623-2.622"/>
        <path fill="#6A999D" d="M42.132 52.127c0-.974.523-1.427 1.426-1.427.903 0 1.426.453 1.426 1.427 0 .973-.523 1.426-1.426 1.426-.903 0-1.426-.453-1.426-1.426"/>
        <path fill="#F59C00" d="M32.279 87.865h19.933V75.846H32.279z"/>
        <path fill="#EC6839" d="M32.279 78.608h19.933v-2.762H32.279z" opacity=".4"/>
        <path fill="#5BC500" d="M50.224 33.918c0-3.74-3.045-6.77-6.8-6.77-3.756 0-6.801 3.03-6.801 6.77 0 3.739 3.045 6.77 6.8 6.77 3.756 0 6.8-3.031 6.8-6.77"/>
        <path fill="#F59C00" d="M51.81 75.846H32.68c-.68 0-1.23-.548-1.23-1.225v-4.734c0-.677.55-1.225 1.23-1.225h19.13c.68 0 1.23.548 1.23 1.225v4.734c0 .677-.55 1.225-1.23 1.225"/>
        <path fill="#EC6839" d="M51.72 75.846h-4.364v-7.184h4.328c.75 0 1.356.604 1.356 1.35v4.52c0 .725-.59 1.314-1.32 1.314" opacity=".4"/>
        <path fill="#FFC55F" d="M75.711 13.652l-.864.798a.415.415 0 0 0-.133.329l.067 1.172a.417.417 0 0 1-.62.387l-1.03-.572a.42.42 0 0 0-.354-.024l-1.098.426a.417.417 0 0 1-.562-.468l.228-1.152a.416.416 0 0 0-.086-.343l-.746-.91a.416.416 0 0 1 .273-.676l1.17-.14a.418.418 0 0 0 .302-.188l.637-.988a.418.418 0 0 1 .73.05l.496 1.065a.418.418 0 0 0 .272.228l1.14.298c.318.084.419.484.178.708"/>
        <g>
            <path fill="#FFC55F" d="M49.015 72.254c0-.913-.743-1.652-1.66-1.652-.916 0-1.659.74-1.659 1.652 0 .912.743 1.652 1.66 1.652.916 0 1.659-.74 1.659-1.652"/>
            <path fill="#FFF" d="M41.224 35.705c.33.51.803.808 1.418.935v.512c0 .298.283.51.567.51.283 0 .567-.255.567-.51v-.512c.946-.17 1.56-.808 1.56-1.744 0-1.277-1.37-1.745-1.844-1.915-.755-.255-.85-.469-.85-.681 0-.128-.003-.453.61-.453.474 0 .713.325.713.367.19.256.52.341.804.17.283-.17.378-.468.188-.722-.141-.256-.566-.596-1.134-.767v-.723c0-.299-.284-.511-.567-.511-.284 0-.567.255-.567.511v.723c-.71.17-1.181.723-1.181 1.447 0 1.15 1.23 1.574 1.606 1.703.946.298 1.04.595 1.04.893 0 .469-.33.724-.993.724-.472 0-.802-.17-.991-.468a.6.6 0 0 0-.804-.17c-.222.126-.284.425-.142.68"/>
        </g>
    </g>
</svg>
