<?xml version="1.0" encoding="UTF-8"?>
<svg width="59px" height="130px" viewBox="0 0 59 130" version="1.1" xmlns="http://www.w3.org/2000/svg" xmlns:xlink="http://www.w3.org/1999/xlink">
    <!-- Generator: sketchtool 51.1 (57501) - http://www.bohemiancoding.com/sketch -->
    <title>8E3136B3-25AE-4E61-9B73-448CC92B889B</title>
    <desc>Created with sketchtool.</desc>
    <defs></defs>
    <g id="-------illustrations" stroke="none" stroke-width="1" fill="none" fill-rule="evenodd">
        <g id="UI/illustrations/phone/error">
            <g id="Group">
                <g id="Page-1">
                    <g id="Confetti" transform="translate(8.000000, 0.000000)">
                        <path d="M37.0312436,20.6365766 C35.562192,23.7861164 35.5173518,25.5425701 37.8490441,26.612545 C40.1796689,27.6835792 41.5003207,26.5129631 42.9683047,23.3634234 C44.4373563,20.2138836 44.4832641,18.4574299 42.1515717,17.387455 C39.8198794,16.3164208 38.5002952,17.4870369 37.0312436,20.6365766" id="Fill-100" fill="#FF7C9A"></path>
                        <path d="M22.4385916,9.00064537 C18.6839096,9.04249906 16.9611861,11.0790115 17.0006629,14.5616791 C17.0390431,18.0454481 18.8067263,20.0412083 22.5614084,19.9993546 C26.3160904,19.9563995 28.0388139,17.9209885 27.9993371,14.4383209 C27.9609569,10.9545519 26.1932737,8.95879168 22.4385916,9.00064537" id="Fill-101" fill="#FF6173"></path>
                        <path d="M29.9663012,0.000344510802 C27.9185737,0.0229237781 26.9790018,1.13382373 27.0003557,3.03386907 C27.0217096,4.93278546 27.9860071,6.0222351 30.0337345,5.99965584 C32.081462,5.97594761 33.01991,4.86504765 32.99968,2.96613127 C32.9783261,1.06608593 32.0140286,-0.0222347565 29.9663012,0.000344510802" id="Fill-102" fill="#D73241"></path>
                        <path d="M7.2376106,21.0772166 C3.83092034,16.5758647 2.34613482,16.4429316 0.947556118,17.6447331 C-0.451022588,18.8476154 -0.644734359,20.4211972 2.7619559,24.922549 C6.16864617,29.4249816 7.65343168,29.5568339 9.05201039,28.3550325 C10.4516033,27.153231 10.6443009,25.5785684 7.2376106,21.0772166" id="Fill-103" fill="#E9426D"></path>
                    </g>
                    <g id="phone" transform="translate(0.000000, 32.000000)">
                        <path d="M7.18669757,78.0442506 C7.18669757,78.0442506 1.78110065,70.541693 2.01955069,68.7957535 C2.25800074,67.0498141 3.20961331,12.0538036 3.20961331,12.0538036 L10.1126328,4.87075725 L45.815605,3.76167411 L54.3407411,8.99949255 L57.2415187,50.682173 C57.2415187,50.682173 52.7186245,76.8171107 50.8143055,78.0442506 C48.9099866,79.2713904 7.18669757,78.0442506 7.18669757,78.0442506" id="Fill-72" fill="#FFFFFF"></path>
                        <path d="M45.7609147,70.6392793 L13.7232915,70.6392793 C12.1482086,70.6392793 10.8717352,69.3753145 10.8717352,67.8156663 L10.8717352,64.4115176 C10.8717352,62.8518694 12.1482086,61.5879045 13.7232915,61.5879045 L45.7609147,61.5879045 C47.3359975,61.5879045 48.6124709,62.8518694 48.6124709,64.4115176 L48.6124709,67.8156663 C48.6124709,69.3753145 47.3359975,70.6392793 45.7609147,70.6392793" id="Fill-73" fill="#D8ECED"></path>
                        <path d="M3.20972269,11.9865437 C3.20972269,11.9865437 3.19003416,12.8129406 3.15612612,14.9791186 L54.2227192,14.9791186 L54.2227192,8.99830115 L45.7566488,3.7615658 L10.0832093,4.83707319 L3.20972269,11.9865437 Z" id="Fill-74" fill="#00B3E5"></path>
                        <path d="M50.1941167,76.7156253 L9.00788714,76.7156253 C6.76667547,76.7156253 4.91048405,75.2686184 4.80875995,73.0515352 C4.5265576,66.8692631 4.52436999,59.1175951 4.52436999,49.2094969 C4.52436999,27.1155642 4.52436999,15.01746 7.62203297,9.68108046 C10.4046794,4.88624543 16.3681181,4.92307045 29.4325555,4.92307045 C42.4980867,4.92307045 48.4604317,4.94148297 51.2441719,9.736318 C54.3407411,15.0716145 54.3407411,27.2520334 54.3407411,49.3459661 C54.3407411,59.4360233 54.3385535,67.1530324 54.0410378,73.3840435 C53.9436889,75.4148354 52.2471934,76.7156253 50.1941167,76.7156253 M29.4325555,0.949216887 C0.474000626,0.949216887 0.474000626,2.76772333 0.474000626,49.3557139 C0.474000626,95.8148168 0.474000626,97.6289909 29.4325555,97.6289909 C58.3922043,97.6289909 58.3922043,95.8148168 58.3922043,49.3557139 C58.3922043,2.76772333 58.3922043,0.949216887 29.4325555,0.949216887" id="Fill-75" fill="#496D73"></path>
                        <path d="M9.00788714,76.7156253 C6.76667547,76.7156253 4.91048405,75.2686184 4.80875995,73.0515352 C4.5265576,66.8692631 4.52436999,59.1175951 4.52436999,49.2094969 C4.52436999,27.1155642 4.52436999,15.01746 7.62203297,9.68108046 C10.4046794,4.88624543 16.3681181,4.92307045 29.4325555,4.92307045 C41.4009978,4.92307045 47.4005322,4.95014768 50.4642871,8.63806575 L52.4025141,4.79418286 C48.2646401,1.25573108 41.2675532,0.949216887 29.4325555,0.949216887 C0.474000626,0.949216887 0.474000626,2.76772333 0.474000626,49.3557139 C0.474000626,77.9438482 0.477282048,89.6238801 7.22388702,94.3829732 L16.1329495,76.7156253 L9.00788714,76.7156253 Z" id="Fill-76" fill="#3E6063"></path>
                        <path d="M23.7191612,87.6371699 C23.7191612,83.6254082 25.8849001,81.7614121 29.6268158,81.7614121 C33.3676376,81.7614121 35.5333765,83.6254082 35.5333765,87.6371699 C35.5333765,91.6489316 33.3676376,93.5129278 29.6268158,93.5129278 C25.8849001,93.5129278 23.7191612,91.6489316 23.7191612,87.6371699" id="Fill-81" fill="#FFFFFF"></path>
                        <path d="M26.4146311,87.6371699 C26.4146311,85.4558287 27.5926619,84.4420573 29.6271439,84.4420573 C31.6605321,84.4420573 32.8385629,85.4558287 32.8385629,87.6371699 C32.8385629,89.8185112 31.6605321,90.8322825 29.6271439,90.8322825 C27.5926619,90.8322825 26.4146311,89.8185112 26.4146311,87.6371699" id="Fill-82" fill="#6A999D"></path>
                        <g id="Union" transform="translate(14.006416, 22.671158)">
                            <ellipse id="Oval" fill="#E9426D" cx="15.2884464" cy="15.2032465" rx="15.2884464" ry="15.2032465"></ellipse>
                            <g id="x" transform="translate(11.000000, 11.000000)" fill="#FFFFFF" fill-rule="nonzero">
                                <path d="M1.52931328,0.262445545 C1.17973167,-0.0872119722 0.612638443,-0.087521166 0.262675095,0.261754942 C-0.0872882527,0.611031049 -0.087597717,1.1776287 0.261983887,1.52728622 L7.47068672,8.73755445 C7.82026833,9.08721197 8.38736156,9.08752117 8.7373249,8.73824506 C9.08728825,8.38896895 9.08759772,7.8223713 8.73801611,7.47271378 L1.52931328,0.262445545 Z" id="Line-Copy-12"></path>
                                <path d="M8.73801611,1.52728622 C9.08759772,1.1776287 9.08728825,0.611031049 8.7373249,0.261754942 C8.38736156,-0.087521166 7.82026833,-0.0872119722 7.47068672,0.262445545 L0.261983887,7.47271378 C-0.087597717,7.8223713 -0.0872882527,8.38896895 0.262675095,8.73824506 C0.612638443,9.08752117 1.17973167,9.08721197 1.52931328,8.73755445 L8.73801611,1.52728622 Z" id="Line-Copy-11"></path>
                            </g>
                        </g>
                    </g>
                </g>
            </g>
        </g>
    </g>
</svg>