<svg xmlns="http://www.w3.org/2000/svg" width="210" height="226" viewBox="0 0 210 226">
    <g fill="none" fill-rule="evenodd">
        <path fill="#E5FCFC" d="M53.97 32.443c-8.944.172-26.906 2.168-26.906 8.557 0 4.674 1.468 6.706 7.758 7.8 3.773.658 32.312 3.73 39.317-.82 2.42-1.574 4.003-3.97 3.922-7.574-.147-6.55-12.55-8.184-24.092-7.963z"/>
        <path fill="#E1F4F4" d="M7.8 95.976c-.023 0-.043.004-.067.005.068 0 .129.004.185.006l-.118-.011z"/>
        <path fill="#DAE7EF" d="M1.07 45.54c.774.79 1.895 1.285 3.088 1.359 1.182.075 2.376-.276 3.277-.96.904-.7 1.472-1.714 1.555-2.771.082-1.058-.324-2.11-1.092-2.916-1.55-1.616-4.568-1.804-6.353-.399C.66 40.558.093 41.548.01 42.605c-.084 1.058.322 2.132 1.09 2.936l-.032-.002z"/>
        <path fill="#EDF2F6" d="M14.89 32.208a3.032 3.032 0 0 0 2.059 1.021 3.063 3.063 0 0 0 2.185-.722 3.068 3.068 0 0 0 1.036-2.077 3.087 3.087 0 0 0-.727-2.187c-1.034-1.211-3.045-1.353-4.236-.298a3.07 3.07 0 0 0-1.024 2.063 3.112 3.112 0 0 0 .727 2.202l-.02-.002zM204.34 128.184a3.029 3.029 0 0 0 2.06 1.02 3.054 3.054 0 0 0 2.184-.721 3.062 3.062 0 0 0 1.035-2.078 3.078 3.078 0 0 0-.727-2.186c-1.034-1.212-3.044-1.353-4.235-.298a3.07 3.07 0 0 0-1.024 2.061c-.055.795.217 1.6.728 2.203l-.02-.001z"/>
        <path fill="#E1FBFC" d="M58.359 196.174c.958-10.382 6.071-19.536 15.219-24.986-3.528-2.473-8.354-3.88-13.547-3.88-11.424.02-19.312 7.204-21.936 16.864-3.066-1.772-6.502-2.773-10.41-2.508-9.016.61-16.133 7.858-17.059 16.721-.263 2.513-.022 1.145.004 1.642a18.217 18.217 0 0 0-6.84 3.949c-2.537 2.336-.823 6.333 2.648 6.333h17.91c3.272-7.169 9.792-13.056 18.227-15.126 5.61-1.376 10.875-.738 15.784.991z"/>
        <path fill="#B2E5F5" d="M201.763 225.309c5.429 0 7.782-7.307 3.467-10.796-2.396-1.938-5.121-3.49-8.062-4.17-.693-11.699-9.87-20.472-21.09-20.472-6.706 0-12.61 3.631-16.48 8.791-3.77-2.86-8.355-4.556-13.345-4.556-1.1 0-2.159.253-3.216.438-3.99-7.216-11.307-12.084-19.774-12.084-3.523 0-7.084.92-10.067 2.42-4.546-10.359-12.883-17.571-26.186-17.571-14.513.024-24.059 9.626-27.324 22.532-3.815-2.369-8.104-3.704-12.968-3.351-11.218.815-20.081 10.499-21.233 22.343-.327 3.358-.03 1.53.003 2.193-3.196 1.092-6.093 3.153-8.513 5.549-3.157 3.12-1.027 8.734 3.292 8.734h181.496z"/>
        <path fill="#3AD5F1" d="M89.74 16.13c-1.226 1.034-1.373 2.36 1.725 6.086 3.098 3.727 4.42 3.815 5.646 2.781 1.226-1.033 1.372-2.36-1.725-6.086-3.098-3.727-4.42-3.814-5.646-2.78z"/>
        <path fill="#FF7C9A" d="M137.17 24.215c2.332.963 3.65-.09 5.12-2.924 1.469-2.834 1.514-4.415-.818-5.38-2.331-.962-3.65.092-5.12 2.926-1.468 2.834-1.514 4.414.818 5.378z"/>
        <path fill="#5AD73C" d="M112.124 12.838c.038 3.167 1.806 4.98 5.561 4.943 3.754-.039 5.476-1.89 5.438-5.056-.039-3.166-1.807-4.981-5.562-4.943-3.754.04-5.477 1.89-5.437 5.056z"/>
        <path fill="#94E37A" d="M122.434 2.528c.02 1.584.986 2.492 3.034 2.472 2.048-.02 2.988-.945 2.965-2.528-.021-1.584-.985-2.49-3.033-2.472-2.048.02-2.987.945-2.966 2.528z"/>
        <path fill="#FFCCA5" d="M92.792 198.824h46v-38h-46z"/>
        <path fill="#FFD3A8" d="M137.31 83.278c-2.652-2.468-2.652-6.506 0-8.974l15.133-14.09c2.651-2.468 6.988-2.468 9.64 0l.25.235c2.65 2.468 2.65 6.506 0 8.974L147.2 83.513c-2.65 2.468-6.987 2.468-9.638 0l-.251-.235z"/>
        <path fill="#FABB95" d="M113.648 162.237c29.654 3.33 41.475-7.862 48.609-36.431-76.61 25.74-49.25 33.724-49.25 33.724l.641 2.707z"/>
        <path fill="#FFD3A8" d="M116.227 160.952c2.521-3.08 7.907-10.851 5.452-18.574a7.74 7.74 0 0 1-3.137-.651c-2.108-.937-3.903-2.696-4.868-4.705-.225-.39-.434-.789-.624-1.193-.53-1.133-1.189-2.395-1.413-3.641-.02-.113-.019-.222-.034-.334-4.636-2.464-11.089-4.602-19.901-6.173-1.354-7.118-4.517-23.966-4.49-25.76.037-2.28 1.681-16.728-5.858-25.462-5.004-5.795-15.213-2.947-12.64 3.756 3.294 7.977 6.706 27.303 6.706 27.303s-4.324 13.44-3.386 22.74c1.484 14.714 3.666 17.322 5.744 20.377 5.571 9.31 13.473 11.32 15.482 12.03l21.756 1.668s.314-.322.808-.898l.383.04.02-.523z"/>
        <path fill="#FFF" d="M85.068 112.356c.29-2.007 1.444-65.214 1.444-65.214l8.374-8.255 43.312-1.275 10.342 6.02 3.519 47.906s-5.487 30.037-7.797 31.447c-2.31 1.41-52.925 0-52.925 0s-6.558-8.622-6.269-10.63z"/>
        <path fill="#00B3E5" d="M86.413 47.144s-.024.958-.065 3.468h62v-6.931l-10.279-6.069-43.311 1.246-8.345 8.286z"/>
        <path fill="#496D73" d="M94.17 122.018c-2.7 0-4.935-1.653-5.057-4.185-.34-7.061-.343-15.915-.343-27.232 0-25.235 0-39.053 3.731-45.148 3.352-5.477 10.534-5.435 26.27-5.435 15.736 0 22.917.021 26.27 5.498 3.73 6.094 3.73 20.006 3.73 45.241 0 11.525-.003 20.339-.362 27.456-.117 2.32-2.16 3.805-4.633 3.805H94.17zm-10.4-31.423c0 53.34 0 55.423 35 55.423s35-2.083 35-55.423c0-53.489 0-55.577-35-55.577s-35 2.088-35 55.577z"/>
        <path fill="#3E6063" d="M94.124 121.786c-2.72 0-4.971-1.658-5.095-4.197-.342-7.08-.345-15.957-.345-27.303 0-25.302 0-39.157 3.758-45.268 3.376-5.491 10.611-5.45 26.461-5.45 14.52 0 21.799.032 25.516 4.255l2.351-4.402c-5.02-4.052-13.509-4.403-27.867-4.403-35.133 0-35.133 2.083-35.133 55.435 0 32.74.004 46.115 8.19 51.565l10.808-20.232h-8.644z"/>
        <path fill="#FFD3A8" d="M134.745 107.216c-2.668-2.47-2.668-6.512 0-8.983l13.044-12.077c2.668-2.47 7.033-2.47 9.7 0l.254.234c2.667 2.47 2.667 6.512 0 8.983l-13.045 12.077c-2.667 2.47-7.032 2.47-9.7 0l-.253-.234z"/>
        <path fill="#FFC9A0" d="M137.315 121.793c-2.658-2.454-2.658-6.469 0-8.923l12.094-11.163c2.658-2.454 7.008-2.454 9.666 0l.252.233c2.659 2.454 2.659 6.469 0 8.923l-12.094 11.163c-2.658 2.454-7.007 2.454-9.666 0l-.252-.233z"/>
        <path fill="#FFD3A8" d="M138.972 139.299c-2.663-2.465-3.601-5.635 0-8.963l12.707-11.761c2.663-2.464 7.02-2.464 9.681 0l.254.233c2.661 2.465 2.661 6.498 0 8.963l-12.708 11.761c-3.544 3.354-7.019 2.465-9.682 0l-.252-.233z"/>
        <path fill="#FFD3A8" d="M157.23 126.485l.136 1.188s1.906 2.267 1.01 7.836c2.848-4.375 3.896-7.2 4.854-11-1.478.492-4.597 1.498-6 1.976z"/>
        <path fill="#FFF" d="M119.124 127.103c4.433 0 7 2.062 7 6.5 0 4.438-2.567 6.5-7 6.5-4.434 0-7-2.062-7-6.5 0-4.438 2.566-6.5 7-6.5z"/>
        <path fill="#6A999D" d="M118.701 129.697c2.533 0 4 1.11 4 3.5 0 2.39-1.467 3.5-4 3.5s-4-1.11-4-3.5c0-2.39 1.467-3.5 4-3.5z"/>
        <path fill="#F59C00" d="M87.637 225.545h54v-31h-54z"/>
        <path fill="#EC6839" d="M87.637 201.545h54v-7h-54z" opacity=".4"/>
        <path fill="#5BC500" d="M119.025 70.036c-10.217 0-18.5 7.835-18.5 17.5 0 9.666 8.283 17.5 18.5 17.5 10.216 0 18.5-7.834 18.5-17.5 0-9.665-8.284-17.5-18.5-17.5z"/>
        <path fill="#F59C00" d="M89.71 194.387c-1.857 0-3.362-1.373-3.362-3.07v-11.86c0-1.695 1.505-3.07 3.363-3.07h52.274c1.857 0 3.363 1.375 3.363 3.07v11.86c0 1.697-1.506 3.07-3.363 3.07H89.711z"/>
        <path fill="#EC6839" d="M128.877 194.387v-18H140.3c1.976 0 3.577 1.516 3.577 3.384v11.324c0 1.818-1.56 3.292-3.483 3.292h-11.517z" opacity=".4"/>
        <path fill="#FFC55F" d="M204.27 37.386c-.251.223-.387.543-.367.87l.185 3.11c.051.868-.919 1.449-1.714 1.026l-2.846-1.517a1.205 1.205 0 0 0-.98-.063l-3.036 1.129c-.848.315-1.726-.387-1.552-1.241l.63-3.055a1.07 1.07 0 0 0-.239-.91l-2.063-2.411c-.574-.674-.147-1.69.756-1.794l3.234-.373a1.16 1.16 0 0 0 .834-.499l1.763-2.618c.49-.732 1.633-.656 2.016.132l1.371 2.825c.144.298.421.52.753.604l3.15.79c.881.222 1.16 1.285.493 1.876l-2.389 2.119z"/>
        <g>
            <path fill="#FFC55F" d="M129.51 181.575c-2.485 0-4.499 1.791-4.499 4 0 2.21 2.014 4 4.5 4 2.485 0 4.5-1.79 4.5-4 0-2.209-2.015-4-4.5-4z"/>
            <path fill="#FFF" d="M117.335 94.839v1.342c0 .782.745 1.34 1.49 1.34.744 0 1.49-.67 1.49-1.34v-1.342c2.483-.445 4.097-2.122 4.097-4.578 0-3.351-3.601-4.58-4.843-5.027-1.983-.67-2.234-1.229-2.234-1.787 0-.335-.007-1.188 1.605-1.188 1.243 0 1.87.853 1.87.963.5.67 1.366.895 2.111.448.745-.448.994-1.23.496-1.898-.372-.671-1.489-1.564-2.978-2.012v-1.897c0-.785-.747-1.342-1.49-1.342-.745 0-1.49.67-1.49 1.342v1.897c-1.862.448-3.102 1.899-3.102 3.8 0 3.014 3.229 4.13 4.219 4.466 2.484.783 2.733 1.564 2.733 2.346 0 1.23-.87 1.9-2.609 1.9-1.242 0-2.108-.448-2.605-1.23-.498-.67-1.318-.878-2.11-.446-.583.331-.746 1.116-.374 1.787.87 1.34 2.111 2.121 3.724 2.456z"/>
        </g>
    </g>
</svg>
