<svg xmlns="http://www.w3.org/2000/svg" width="157" height="82" viewBox="0 0 157 82">
    <g fill="none" fill-rule="evenodd">
        <path fill="#E5FCFC" d="M145.169 69.796c.082 0 .16-.002.24-.004l-.358.01c.056-.003.097-.006.118-.006m.074 10.473c-.222-.006-.417-.064.415-.059.173-.004.368-.03.552-.033.265-.002.526-.012.765-.008 8.326-.128 9.913-2.857 9.889-5.763-.024-2.83-1.568-4.561-9.339-4.63l-.335.003c-.29.002-.563 0-.822-.004l-.509.007.323-.013c-3.597-.101-4.324-.98-4.336-2.38-.012-1.4 1.294-2.093 2.653-2.452 4.608-.632 5.605-2.262 5.585-4.625-.026-3.014-1.687-4.98-10.36-4.902-1.686.015-3.103.055-4.297.066l-43.256.056 4.323 24.687s46.879.134 48.75.05"/>
        <path fill="#3AD5F1" d="M144.262 69.576c2.42 1.816 3.234 1.672 3.826.857.591-.815.487-1.648-1.933-3.464-2.42-1.817-3.234-1.672-3.825-.858-.592.816-.488 1.648 1.932 3.465"/>
        <path fill="#5AD73C" d="M151.118 51.821c-2.035.313-2.92.873-2.694 2.394.225 1.52 1.233 1.791 3.268 1.48 2.037-.313 2.921-.873 2.696-2.394-.226-1.52-1.234-1.792-3.27-1.48"/>
        <path fill="#D2EDEC" d="M139.212 54.496c0-1.14-.6-1.669-1.635-1.669-1.034 0-1.633.53-1.633 1.669 0 1.14.6 1.669 1.633 1.669 1.035 0 1.635-.53 1.635-1.669"/>
        <path fill="#E5FCFC" d="M12.535 69.458a29.093 29.093 0 0 0-.359-.01l.24.004c.022 0 .063.002.119.006M61.09 79.874l4.324-24.686-43.256-.057c-1.195-.01-2.611-.05-4.296-.066-8.674-.077-10.336 1.889-10.361 4.903-.02 2.363.977 3.993 5.585 4.625 1.359.358 2.665 1.052 2.653 2.453-.012 1.4-.74 2.278-4.336 2.379l.322.013c-.164-.004-.336-.006-.508-.008-.26.005-.532.007-.822.005l-.335-.004c-7.77.07-9.315 1.8-9.339 4.63-.025 2.906 1.562 5.636 9.889 5.764.24-.004.5.006.764.008.185.002.38.028.553.033.832-.005.636.052.415.059 1.87.084 48.748-.05 48.748-.05M11.813 24.254a29.093 29.093 0 0 0-.358-.01l.24.003c.02 0 .062.003.118.007zM57.91 48.476l6.783-38.585-43.256.036c-1.194-.011-2.61-.05-4.296-.066-8.674-.078-10.335 1.888-10.361 4.903-.02 2.362.977 3.993 5.585 4.624 1.359.359 2.665 1.053 2.653 2.453-.012 1.4-.74 2.278-4.336 2.379.106.004.213.01.323.013-.165-.004-.337-.006-.509-.008-.26.005-.532.006-.822.004l-.335-.005C1.569 24.294.024 26.022 0 28.85c-.024 2.907 1.532 4.68 9.858 4.807a30.928 30.928 0 0 1 1.317.007c.832-.006.637.005.415.011 3.614.163 4.33 1.048 4.317 2.452-.012 1.406-.746 2.274-4.388 2.368.33.016-8.301-.232-8.38 4.579-.048 2.951 1.605 4.628 10.28 4.706l44.491.695z"/>
        <g>
            <path fill="#FF7C9A" d="M10.984 5.434c-2.42-1.817-3.234-1.672-3.826-.857-.591.815-.487 1.647 1.933 3.464 2.42 1.816 3.234 1.672 3.825.857.592-.815.488-1.648-1.932-3.464"/>
            <path fill="#5AD73C" d="M4.128 23.188c2.035-.312 2.92-.873 2.694-2.393-.225-1.521-1.233-1.792-3.268-1.48-2.037.312-2.921.873-2.696 2.394.226 1.52 1.234 1.792 3.27 1.48"/>
            <path fill="#D2EDEC" d="M16.034 20.514c0 1.139.6 1.668 1.635 1.668 1.034 0 1.633-.529 1.633-1.668 0-1.14-.599-1.67-1.633-1.67-1.035 0-1.635.53-1.635 1.67"/>
        </g>
        <path fill="#E5FCFC" d="M139.621 24.247c.082 0 .16-.002.24-.003-.12.002-.24.006-.358.01.056-.004.097-.007.118-.007zm-1.723 23.534c8.674-.078 10.327-1.755 10.28-4.706-.08-4.811-8.711-4.563-8.38-4.58-3.643-.093-4.377-.96-4.39-2.367-.011-1.404.704-2.29 4.318-2.452-.222-.006-.417-.017.415-.011a34.528 34.528 0 0 1 1.316-.007c8.327-.128 9.884-1.9 9.859-4.807-.024-2.829-1.568-4.558-9.339-4.627l-.335.005c-.29.002-.563 0-.822-.004-.172.002-.344.004-.509.008l.323-.013c-3.596-.1-4.324-.979-4.336-2.379-.012-1.4 1.294-2.094 2.653-2.453 4.608-.631 5.605-2.262 5.585-4.624-.026-3.015-1.687-4.98-10.36-4.903-1.686.015-3.103.055-4.297.066l-43.256-.036 6.783 38.585 44.492-.695z"/>
        <path fill="#E7EFF5" d="M80.748 77.172c-1.443 0-2.885.002-4.312.005-1.394-.003-2.8-.005-4.243-.005C37.267 77.172 9 76.068 9 79.456c0 3.679 28.244 2.285 63.17 2.285 1.445 0 2.858-.002 4.26-.006 1.427.004 2.867.006 4.312.006 34.927 0 63.258 1.394 63.258-2.285 0-3.388-28.325-2.284-63.252-2.284"/>
        <g>
            <path fill="#7ADFF0" d="M119.794 75.033h-87.26c-5.188 0-9.393 1.836-9.393-3.454V12c0-5.29 4.205-9.577 9.393-9.577h87.26c5.188 0 9.393 4.287 9.393 9.577v59.578c0 5.29-4.205 3.454-9.393 3.454"/>
            <path fill="#C7F0F9" d="M118.949 74.135l-85.57-.68c-2.05 0-3.713-.367-3.713-2.497V14.443c0-3.51 2.739-6.356 6.118-6.356h80.625c3.454 0 6.253 2.91 6.253 6.497v56.374c0 2.13-1.663 3.177-3.713 3.177"/>
        </g>
        <g>
            <path fill="#DFF6FB" d="M51.78 72.261c10.285.634 20.578 1.111 30.881 1.267 6.17.092 12.339.114 18.508.23.484.009.974.012 1.464.015 9.745-7.499 16.04-19.356 16.04-32.709C118.674 18.386 100.524 0 78.132 0 55.741 0 37.59 18.386 37.59 41.064c0 12.488 5.507 23.667 14.192 31.197" opacity=".8"/>
            <path fill="#F4FCFE" d="M105.191 41.175c0-15.39-12.317-27.865-27.51-27.865-15.194 0-27.511 12.476-27.511 27.865 0 15.389 12.317 27.864 27.51 27.864 15.194 0 27.511-12.475 27.511-27.864"/>
            <path fill="#FFDD67" d="M96.199 40.602c0 10.324-8.222 18.691-18.368 18.691-10.146 0-18.369-8.367-18.369-18.69 0-10.325 8.223-18.692 18.37-18.692 10.145 0 18.367 8.367 18.367 18.691"/>
            <path fill="#664E27" d="M88.24 44.371c0-.5-.29-1.126-1.115-1.287-2.122-.413-5.256-.836-9.294-.836h-.001c-4.038 0-7.172.424-9.293.836-.826.161-1.115.787-1.115 1.287 0 4.53 3.435 9.091 10.408 9.091 6.974 0 10.41-4.56 10.41-9.09M75.704 37.396c-1.139-3.184-2.853-4.777-4.568-4.777-1.716 0-3.43 1.594-4.568 4.777-.113.322.473.9.768.585 1.103-1.184 2.422-1.656 3.8-1.656 1.377 0 2.696.472 3.8 1.656.293.314.88-.263.768-.585M89.094 37.396c-1.138-3.184-2.853-4.777-4.569-4.777-1.714 0-3.43 1.594-4.568 4.777-.113.322.474.9.768.585 1.104-1.184 2.423-1.656 3.8-1.656 1.379 0 2.698.472 3.802 1.656.292.314.88-.263.767-.585"/>
            <path fill="#FFF" d="M85.6 44.517c-1.343-.23-4.185-.631-7.77-.631-3.583 0-6.426.401-7.77.631-.792.136-.84.463-.785.926.032.275.084.607.162.967.087.399.16.584.775.509 1.176-.143 14.063-.143 15.238 0 .615.073.688-.11.775-.509.079-.36.13-.691.163-.967.053-.464.005-.79-.787-.926"/>
            <path fill="#FFDD67" d="M96.199 40.602c0 10.324-8.222 18.691-18.368 18.691-10.146 0-18.369-8.367-18.369-18.69 0-10.325 8.223-18.692 18.37-18.692 10.145 0 18.367 8.367 18.367 18.691"/>
            <path fill="#664E27" d="M88.24 44.371c0-.5-.29-1.126-1.115-1.287-2.122-.413-5.256-.836-9.294-.836h-.001c-4.038 0-7.172.424-9.293.836-.826.161-1.115.787-1.115 1.287 0 4.53 3.435 9.091 10.408 9.091 6.974 0 10.41-4.56 10.41-9.09M75.704 37.396c-1.139-3.184-2.853-4.777-4.568-4.777-1.716 0-3.43 1.594-4.568 4.777-.113.322.473.9.768.585 1.103-1.184 2.422-1.656 3.8-1.656 1.377 0 2.696.472 3.8 1.656.293.314.88-.263.768-.585M89.094 37.396c-1.138-3.184-2.853-4.777-4.569-4.777-1.714 0-3.43 1.594-4.568 4.777-.113.322.474.9.768.585 1.104-1.184 2.423-1.656 3.8-1.656 1.379 0 2.698.472 3.802 1.656.292.314.88-.263.767-.585"/>
            <path fill="#FFF" d="M85.6 44.517c-1.343-.23-4.185-.631-7.77-.631-3.583 0-6.426.401-7.77.631-.792.136-.84.463-.785.926.032.275.084.607.162.967.087.399.156.509.775.509H85.45c.62 0 .688-.11.775-.509.079-.36.13-.691.163-.967.053-.464.005-.79-.787-.926"/>
        </g>
        <g>
            <path fill="#9CEAF5" d="M137.85 71.608H16.246c-.53 0-1.074.356-1.074 1.046v2.519c0 .886 1.13 4.786 13.798 4.786H125.124c12.669 0 13.8-3.9 13.8-4.786v-2.52c0-.689-.547-1.045-1.075-1.045"/>
            <path fill="#60CDDD" d="M138.767 75.716H15.33c.895 2.09 4.093 4.243 13.643 4.243h96.152c9.55 0 12.748-2.154 13.643-4.243"/>
            <path fill="#78DDE6" d="M77.048 71.6H64.824l2.02 1.94c.544.503 1.092.586 1.761.586h17.422c.8 0 1.66-.207 2.254-.908l1.294-1.617H77.048z"/>
        </g>
    </g>
</svg>
