<?xml version="1.0" encoding="UTF-8"?>
<svg width="46px" height="84px" viewBox="0 0 46 84" version="1.1" xmlns="http://www.w3.org/2000/svg" xmlns:xlink="http://www.w3.org/1999/xlink">
    <!-- Generator: sketchtool 56.3 (101010) - https://sketch.com -->
    <title>9552AC27-AB8F-495B-AA98-83FDEE8EA0EE</title>
    <desc>Created with sketchtool.</desc>
    <g id="Consultas" stroke="none" stroke-width="1" fill="none" fill-rule="evenodd">
        <g id="Mi-saldo-/-Cargos-adicionales-a-tu-factura" transform="translate(-248.000000, -556.000000)">
            <g id="top-up" transform="translate(248.000000, 556.000000)">
                <g id="Page-1" transform="translate(0.369584, 0.000000)">
                    <g id="Group-7" transform="translate(0.000000, 12.783723)" fill="#EDF2F6">
                        <path d="M0.456555732,2.33141732 C0.690617771,2.60183439 1.02833586,2.77169435 1.3887914,2.79751307 C1.74523444,2.82265234 2.10568998,2.70307093 2.37720195,2.46798473 C2.64938266,2.2288219 2.82125107,1.88162813 2.84599477,1.51948668 C2.87073848,1.15734523 2.74835747,0.797242103 2.51697042,0.521389517 C2.04951509,-0.0316745346 1.13934814,-0.0962213219 0.59966795,0.385501543 C0.332837226,0.626023256 0.162306312,0.96506375 0.136893862,1.32652576 C0.112150161,1.68934665 0.23453117,2.05692362 0.465918214,2.33209676 L0.456555732,2.33141732 Z" id="Fill-25"></path>
                    </g>
                    <g id="phone" transform="translate(5.483739, 14.268237)">
                        <path d="M0.324032867,33.4359615 C0.324032867,41.8469204 0.324032867,48.1235065 0.690178352,52.806446 L39.7212889,52.8448662 C40.0904494,48.1578524 40.0904494,41.8699437 40.0904494,33.4359615 C40.0904494,1.49808253 40.0904494,0.251279581 20.2072411,0.251279581 C0.324032867,0.251279581 0.324032867,1.49808253 0.324032867,33.4359615 Z" id="Fill-64" fill="#496D73"></path>
                        <path d="M4.97327665,55.7208805 C4.97327665,55.7208805 1.23922659,50.5812815 1.40410465,49.3845707 C1.5681862,48.1886421 2.22610543,10.5094598 2.22610543,10.5094598 L6.99402857,5.58808449 L31.6604241,4.82782116 L37.5490402,8.4163892 L39.5530653,36.974758 C39.5530653,36.974758 38.7836344,54.7431756 37.4677959,55.5840019 C36.152754,56.4248281 4.97327665,55.7208805 4.97327665,55.7208805" id="Fill-52" fill="#FFFFFF"></path>
                        <path d="M2.5112047,10.629095 C2.5112047,10.629095 2.49679099,11.2129267 2.47356889,12.7405525 L37.9409133,12.7405525 L37.9409133,8.5216639 L32.060919,4.82782116 L7.28454617,5.58639973 L2.5112047,10.629095 Z" id="Fill-62" fill="#00B3E5"></path>
                        <path d="M6.18283862,54.8070655 C4.6447141,54.8070655 3.37020022,53.8118234 3.30053735,52.2875647 C3.10658958,48.0381636 3.10579796,42.7087522 3.10579796,35.8958964 C3.10579796,20.7066814 3.10579796,12.3891891 5.23130714,8.72060754 C7.14228634,5.4240644 11.2365633,5.4491752 20.2072411,5.4491752 C29.177919,5.4491752 33.2721959,5.46173918 35.1823835,8.75828232 C37.3094759,12.4268639 37.3094759,20.8008684 37.3094759,35.9900833 C37.3094759,42.9269519 37.3086843,48.2328166 37.1036538,52.5167529 C37.0371574,53.9122895 35.8710959,54.8070655 34.462006,54.8070655 L6.18283862,54.8070655 Z M0.324032867,35.9963624 C0.324032867,67.9375108 0.324032867,69.1847029 20.2072411,69.1847029 C40.0904494,69.1847029 40.0904494,67.9375108 40.0904494,35.9963624 C40.0904494,3.96809118 40.0904494,2.71775947 20.2072411,2.71775947 C0.324032867,2.71775947 0.324032867,3.96809118 0.324032867,35.9963624 Z" id="Fill-64" fill="#496D73"></path>
                        <path d="M16.4455531,62.0632447 C16.4455531,59.361599 17.9235164,58.106879 20.4759331,58.106879 C23.0283498,58.106879 24.5063132,59.361599 24.5063132,62.0632447 C24.5063132,64.7648904 23.0283498,66.0196104 20.4759331,66.0196104 C17.9235164,66.0196104 16.4455531,64.7648904 16.4455531,62.0632447" id="Fill-68" fill="#FFFFFF"></path>
                        <path d="M18.5950891,62.3273794 C18.5950891,60.8872444 19.3828408,60.2169407 20.7446251,60.2169407 C22.1064094,60.2169407 22.8941611,60.8872444 22.8941611,62.3273794 C22.8941611,63.7675144 22.1064094,64.4370641 20.7446251,64.4370641 C19.3828408,64.4370641 18.5950891,63.7675144 18.5950891,62.3273794" id="Fill-70" fill="#6A999D"></path>
                        <path d="M5.11219353,9.09950592 C3.0109529,12.7066591 3.0109529,20.8848795 3.0109529,35.820531 C3.0109529,42.5185375 3.0117349,47.7587107 3.20410751,51.9369579 C3.27214172,53.4364655 4.5319477,54.4142711 6.0513785,54.4142711 L10.8849358,54.4142711 L34.5615587,7.96066887 C32.4845602,5.46406201 27.9940567,5.42075943 19.8721791,5.42075943 C9.05707245,5.42075943 6.99916549,5.85816162 5.11219353,9.09950592 Z" id="Bright" fill-opacity="0.200000003" fill="#E9EAE9"></path>
                        <g id="Button" transform="translate(16.929925, 58.358690)">
                            <path d="M0,3.55229821 C0,1.12691341 1.32639902,0 3.61812176,0 C5.9091746,0 7.23557362,1.12691341 7.23557362,3.55229821 C7.23557362,5.97768302 5.9091746,7.10459643 3.61812176,7.10459643 C1.32639902,7.10459643 0,5.97768302 0,3.55229821" id="Fill-81" fill="#496D73"></path>
                            <path d="M1.65083085,3.55229821 C1.65083085,2.23352797 2.37231153,1.62063375 3.61832273,1.62063375 C4.86366402,1.62063375 5.5851447,2.23352797 5.5851447,3.55229821 C5.5851447,4.87106846 4.86366402,5.48396268 3.61832273,5.48396268 C2.37231153,5.48396268 1.65083085,4.87106846 1.65083085,3.55229821" id="Fill-82" fill="#6A999D"></path>
                        </g>
                    </g>
                    <path d="M39.2246524,5.72517539 C38.3044542,7.74515011 38.275698,8.87098197 39.7369139,9.55789567 C41.1967923,10.2448094 42.0240344,9.49334889 42.9442326,7.4740536 C43.863762,5.45407888 43.8918495,4.32756758 42.4319711,3.64133332 C40.9707552,2.95441961 40.1441819,3.70520066 39.2246524,5.72517539" id="Fill-13" fill="#FF7C9A"></path>
                    <path d="M12.0495816,4.84074851 C10.310835,1.66300826 9.36054313,1.41161551 8.32532017,1.99593379 C7.28942846,2.58093152 6.99785404,3.53418565 8.73660061,6.71192591 C10.4753472,9.88966616 11.4249703,10.1410589 12.460862,9.55606119 C13.4967537,8.9717429 13.7883282,8.01848877 12.0495816,4.84074851" id="Fill-21" fill="#E7EFF5"></path>
                    <path d="M25.8529556,0.000418903869 C23.5631601,0.0269170587 22.5132247,1.28252193 22.5366309,3.43091079 C22.5600371,5.57929965 23.63806,6.81112413 25.9278555,6.78530541 C28.217651,6.75880726 29.2682552,5.50320238 29.2441802,3.35481352 C29.220774,1.20574523 28.1427511,-0.0260792509 25.8529556,0.000418903869" id="Fill-27" fill="#5AD73C"></path>
                </g>
            </g>
        </g>
    </g>
</svg>