<svg xmlns="http://www.w3.org/2000/svg" width="117" height="100" viewBox="0 0 117 100">
    <g fill="none" fill-rule="evenodd">
        <path fill="#E5FCFC" d="M85.501 44.547c.058-2.91 4.922-3.637 9.448-3.538 3.507.076 10.551.963 10.551 3.803 0 2.076-.576 2.98-3.042 3.467-1.48.292-12.672 1.657-15.419-.366-.949-.699-1.57-1.765-1.538-3.366M58.885 52l41.807 1.038c8.642.13 10.283 2.022 10.222 5.294-.099 5.335-8.698 5.028-8.368 5.048-.039 0-.073.006-.11.007-3.997.083-4.785 1.086-4.785 2.712 0 1.699.85 2.719 5.337 2.719.684 0 1.274-.026 1.798-.073.03.003.187.006.6.005a30.68 30.68 0 0 0 1.312.014c8.295.183 9.838 2.065 9.801 5.289-.033 2.887-1.348 4.947-7.59 4.947H54.5l4.385-27z"/>
        <path fill="#E1F4F4" d="M104.5 68.012l.129-.012.073.005-.202.007"/>
        <path fill="#E5FCFC" d="M39.499 16.547c-.058-2.911-4.922-3.637-9.448-3.538-3.507.076-10.551.963-10.551 3.803 0 2.077.576 2.98 3.042 3.467 1.48.292 12.672 1.657 15.419-.366.949-.699 1.57-1.764 1.538-3.366M58.115 24l-41.807 1.038c-8.642.13-10.283 2.021-10.222 5.294.099 5.335 8.698 5.029 8.368 5.048.038 0 .073.006.11.007 3.997.084 4.785 1.086 4.785 2.711 0 1.7-.85 2.72-5.337 2.72-.684 0-1.274-.026-1.798-.072-.03.002-.187.005-.6.004a25.897 25.897 0 0 1-1.312.015C2.007 40.948.464 42.83.501 46.053.534 48.94 1.849 51 8.09 51H62.5l-4.385-27z"/>
        <path fill="#E1F4F4" d="M11.702 40.012L11.573 40l-.073.005.202.007"/>
        <path fill="#E7EFF5" d="M28.5 97.5c0 1.381 13.43 2.5 30 2.5 16.568 0 30-1.119 30-2.5 0-1.38-13.432-2.5-30-2.5-16.57 0-30 1.12-30 2.5"/>
        <path fill="#FF7C9A" d="M95.016 32.818c-.735 1.575-.758 2.453.409 2.989 1.165.535 1.825-.05 2.56-1.626.734-1.574.756-2.453-.41-2.987-1.165-.536-1.825.05-2.56 1.624"/>
        <path fill="#94E37A" d="M12.983 61c-1.024.012-1.494.567-1.483 1.517.01.95.493 1.495 1.517 1.483 1.024-.011 1.494-.566 1.483-1.517-.01-.95-.493-1.495-1.517-1.483"/>
        <path fill="#00C4EB" d="M20.052 54.32c-2.658-1.666-3.556-1.539-4.214-.801-.658.738-.55 1.496 2.11 3.162 2.659 1.664 3.557 1.538 4.214.8.658-.738.549-1.497-2.11-3.161"/>
        <path fill="#DAE7EF" d="M9.975 19.315c.344.396.843.643 1.373.68a2.035 2.035 0 0 0 1.456-.48 2.04 2.04 0 0 0 .691-1.385 2.051 2.051 0 0 0-.485-1.459c-.689-.807-2.03-.902-2.823-.199a2.05 2.05 0 0 0-.682 1.376 2.07 2.07 0 0 0 .484 1.468h-.014z"/>
        <path fill="#EDF2F6" d="M14.857 12.486a1.516 1.516 0 0 0 2.122.15c.3-.262.49-.643.518-1.04a1.544 1.544 0 0 0-.364-1.093c-.517-.605-1.522-.676-2.118-.148a1.535 1.535 0 0 0-.512 1.031c-.027.397.108.8.364 1.1h-.01zM18.857 64.486a1.515 1.515 0 0 0 2.122.15c.3-.263.49-.643.518-1.039a1.54 1.54 0 0 0-.364-1.094c-.516-.605-1.522-.676-2.118-.148a1.537 1.537 0 0 0-.512 1.03c-.027.398.108.8.364 1.101h-.01zM103.857 32.486a1.514 1.514 0 0 0 2.122.15c.3-.262.49-.643.518-1.04a1.539 1.539 0 0 0-.364-1.093c-.517-.605-1.522-.676-2.118-.148a1.535 1.535 0 0 0-.512 1.03c-.027.398.109.8.365 1.102l-.01-.001z"/>
        <path fill="#6AE0F3" d="M86.048 87H31.952c-2.999 0-5.452-2.45-5.452-5.443V6.782c0-.984.799-1.782 1.785-1.782h61.43c.986 0 1.785.798 1.785 1.782v74.775c0 2.994-2.453 5.443-5.452 5.443"/>
        <path fill="#00ABE3" fill-opacity=".3" d="M81.214 13.043a.592.592 0 0 0-.546.501 2.068 2.068 0 0 1-1.927 1.702 2.062 2.062 0 0 1-2.08-1.505.591.591 0 0 0-.593-.445l-3.084.151a.592.592 0 0 0-.546.501 2.069 2.069 0 0 1-1.926 1.703 2.062 2.062 0 0 1-2.081-1.506.591.591 0 0 0-.592-.445l-3.084.15a.593.593 0 0 0-.547.502 2.067 2.067 0 0 1-1.926 1.703 2.063 2.063 0 0 1-2.08-1.506.59.59 0 0 0-.592-.445l-3.085.15a.593.593 0 0 0-.546.502 2.067 2.067 0 0 1-1.926 1.702 2.063 2.063 0 0 1-2.081-1.506.591.591 0 0 0-.592-.445l-3.084.151a.592.592 0 0 0-.546.502 2.067 2.067 0 0 1-1.926 1.702 2.062 2.062 0 0 1-2.081-1.506.591.591 0 0 0-.592-.445l-3.085.151a.594.594 0 0 0-.546.501 2.067 2.067 0 0 1-1.926 1.703 2.061 2.061 0 0 1-2.08-1.506.591.591 0 0 0-.592-.445l-.866.042a.589.589 0 0 0-.555.62l2.804 58.248c.106 2.189 1.948 3.877 4.116 3.77l41.34-2.029c2.168-.106 3.84-1.966 3.734-4.155l-2.804-58.25a.587.587 0 0 0-.612-.56l-.865.042z"/>
        <path fill="#FFF" d="M80.213 12.043a.592.592 0 0 0-.546.501 2.067 2.067 0 0 1-1.926 1.702 2.062 2.062 0 0 1-2.081-1.505.59.59 0 0 0-.592-.445l-3.084.151a.593.593 0 0 0-.546.501 2.068 2.068 0 0 1-1.926 1.703 2.063 2.063 0 0 1-2.082-1.506.59.59 0 0 0-.59-.445l-3.085.15a.593.593 0 0 0-.547.502 2.067 2.067 0 0 1-1.926 1.703 2.064 2.064 0 0 1-2.081-1.506.59.59 0 0 0-.591-.445l-3.085.15a.593.593 0 0 0-.546.502 2.067 2.067 0 0 1-1.926 1.702 2.064 2.064 0 0 1-2.082-1.506.59.59 0 0 0-.59-.445l-3.085.151a.593.593 0 0 0-.547.502 2.067 2.067 0 0 1-1.925 1.702 2.063 2.063 0 0 1-2.082-1.506.59.59 0 0 0-.591-.445l-3.085.152a.592.592 0 0 0-.546.5 2.067 2.067 0 0 1-1.927 1.703 2.062 2.062 0 0 1-2.08-1.506.59.59 0 0 0-.591-.445l-.866.042a.589.589 0 0 0-.555.62l2.804 58.248c.105 2.189 1.948 3.877 4.116 3.77l41.34-2.029c2.168-.106 3.84-1.966 3.734-4.155l-2.804-58.25a.587.587 0 0 0-.613-.56l-.865.042z"/>
        <path fill="#5AD73C" d="M100.96 18c-2.389.023-3.484 1.134-3.46 3.034.026 1.9 1.15 2.988 3.539 2.966 2.39-.024 3.485-1.134 3.46-3.034-.025-1.9-1.149-2.99-3.538-2.966"/>
        <path fill="#3AD5F1" d="M86.048 87.773H31.952c-2.999 0-5.452-2.598-5.452-5.773v3.227c0 3.175 2.453 5.773 5.452 5.773h54.096c2.999 0 5.452-2.598 5.452-5.773V82c0 3.174-2.453 5.772-5.452 5.772"/>
        <path fill="#00ABE3" fill-opacity=".6" d="M45.387 21c-.143 0-.286-.008-.43-.025-1.03-.12-1.954-.656-2.602-1.51a4.246 4.246 0 0 1-.831-3.017L42.696 5l1.133.002-1.196 11.575c-.08.776.13 1.539.592 2.148.462.609 1.12.99 1.853 1.076a2.642 2.642 0 0 0 2.03-.627 2.955 2.955 0 0 0 1.016-1.962L49.393 5H50.5l-1.265 12.34a4.148 4.148 0 0 1-1.428 2.755 3.72 3.72 0 0 1-2.42.905" style="mix-blend-mode:multiply"/>
        <path fill="#4E525A" d="M47.229 4.998L45.17 5l.254-1.9a1.2 1.2 0 0 0-.304-.973 1.35 1.35 0 0 0-.889-.436c-.752-.067-1.443.456-1.538 1.165l-.143 1.061-2.051-.183.142-1.06c.22-1.634 1.93-2.828 3.814-2.658.93.083 1.755.478 2.327 1.112.551.612.798 1.377.694 2.156l-.248 1.714z"/>
        <path fill="#B7B9B9" fill-opacity=".1" d="M31.959 87c-3.002 0-5.459-2.45-5.459-5.443V6.782c0-.984.8-1.782 1.787-1.782h61.51c.743 0 1.381.454 1.65 1.098.149.358-.028.77-.367.956-5.091 2.8-47.069 27.002-47.069 63.73 0 10.062 7.126 13.647 12.22 15.333.902.299.575.883.575.883H31.96z" style="mix-blend-mode:multiply"/>
        <path stroke="#00C600" stroke-linecap="round" stroke-width="2" d="M37.5 28.91l10-.91M38.5 33.363l4-.363M72.5 44.575l7-.575M38.5 45l29-1M38.5 52l29-1M72.5 55.575l7-.575M38.5 58l29-1"/>
        <path stroke="#00C600" stroke-linecap="round" stroke-width="4" d="M72.5 66.529l7-.529M76.5 25.082l1-.082"/>
        <path fill="#4E525A" d="M43.788 21a4.259 4.259 0 0 1-3.344-1.598 4.235 4.235 0 0 1-.918-3.14l1.37-12.495a.862.862 0 1 1 1.715.188l-1.37 12.493a2.53 2.53 0 0 0 .549 1.876 2.542 2.542 0 0 0 1.717.94 2.557 2.557 0 0 0 2.822-2.26l1.45-13.235a.864.864 0 0 1 1.716.187l-1.45 13.234A4.288 4.288 0 0 1 43.787 21"/>
    </g>
</svg>
