<?xml version="1.0" encoding="UTF-8"?>
<svg width="141px" height="98px" viewBox="0 0 141 98" version="1.1" xmlns="http://www.w3.org/2000/svg" xmlns:xlink="http://www.w3.org/1999/xlink">
    <!-- Generator: Sketch 56.3 (81716) - https://sketch.com -->
    <title>hogar</title>
    <desc>Created with Sketch.</desc>
    <g id="Ecare-fija" stroke="none" stroke-width="1" fill="none" fill-rule="evenodd">
        <g id="PQR/-Móvil_Internet-móvil" transform="translate(-674.000000, -326.000000)">
            <g id="hogar" transform="translate(674.000000, 324.000000)">
                <g id="SVGID_1_-link" transform="translate(0.000000, 12.280702)" fill="#E5FCFC">
                    <path d="M121.102535,52.083676 C121.422067,52.083676 121.741598,52.083676 122.06113,52.083676 C122.487173,52.083676 123.019725,52.083676 123.445768,52.083676 C137.931207,51.7641442 140.700483,48.7818479 140.593972,43.7758504 C140.487461,38.9828741 140.27444,34.4029189 140.27444,32.059686 C140.27444,29.8229638 145.70648,8.20131503 116.309559,8.52084679 L91.3860818,12.0356961 C87.9777431,12.0356961 85.1019573,9.58595264 84.4628938,6.28412451 C83.8238303,2.87578579 80.8415339,0.426042339 77.4331952,0.532552924 L37.704747,1.59765877 C28.5448367,1.70416936 24.6039451,8.4143362 24.7104557,13.4203337 C24.9234769,21.6216487 24.6039451,19.1719053 24.6039451,21.5151381 C24.6039451,23.858371 23.4323287,25.4560298 17.1482042,25.6690509 C17.5742465,25.6690509 17.8937783,25.6690509 16.4026301,25.6690509 C16.0830983,25.6690509 15.7635666,25.6690509 15.4440348,25.6690509 C15.0179925,25.6690509 18.1067994,25.6690509 17.6807571,25.6690509 C3.19531755,25.9885827 0.426042339,28.9708791 0.532552924,33.9768766 C0.639063509,38.7698529 3.30182813,41.6456387 16.8286724,41.7521493 C17.0416936,41.7521493 17.2547147,41.7521493 17.4677359,41.7521493 C18.0002888,41.7521493 18.4263312,41.7521493 18.8523735,41.7521493 C19.1719053,41.7521493 19.491437,41.7521493 19.7044582,41.7521493 C19.491437,41.7521493 19.2784159,41.7521493 19.1719053,41.7521493 C25.4560298,41.8586598 26.7341568,43.349808 26.7341568,45.6930409 C26.7341568,47.9297632 24.8169663,49.1013796 22.580244,49.7404431 C22.2607122,49.8469537 22.0476911,49.8469537 21.7281593,49.9534643 C14.0593972,51.1250807 12.4617384,53.8943559 12.4617384,57.8352476 C12.568249,62.9477556 16.5091407,72.1076659 31.6336437,72.0011554 C43.7758504,71.8946448 53.6813348,69.2318801 64.5454144,69.1253696 C75.4094941,69.018859 82.7587244,69.1253696 82.7587244,69.1253696 C86.1670631,69.1253696 89.0428489,68.2732849 89.6819124,71.575113 C90.3209759,74.9834517 93.3032723,77.4331952 96.711611,77.3266846 L111.09054,76.4745999 C126.215043,76.2615787 133.457763,72.4271977 133.351252,67.4212002 C133.138231,59.2198852 125.256448,60.284991 121.528577,60.1784804 C115.137942,60.0719698 113.007731,58.5808217 112.90122,56.2375888 C112.90122,53.8943559 114.072836,52.2966972 120.356961,52.083676 C119.930919,52.083676 119.611387,52.083676 121.102535,52.083676" id="SVGID_1_"></path>
                </g>
                <path d="M104.385965,44.0004511 L104.310207,44.0981955 L104.310207,76.2105263 C104.310207,80.6288043 100.728485,84.2105263 96.3102073,84.2105263 L76.5940211,84.2105263 L76.5940211,62.7067669 L65.5075466,62.7067669 L65.5075466,84.2105263 L45.7913603,84.2105263 C41.3730823,84.2105263 37.7913603,80.6288043 37.7913603,76.2105263 L37.7913603,44.0962406 L37.7192982,43.9984962 L71.0507838,15.7894737 L104.385965,44.0004511 Z M96.4912281,64.0350877 L96.4912281,56.0150376 L96.4912281,50 L83.3333333,50 L83.3333333,56.0150376 L83.3333333,64.0350877 L96.4912281,64.0350877 Z M71.4912281,50.877193 C75.6126096,50.877193 79.8245614,46.4671053 79.8245614,42.1052632 C79.8245614,37.7631579 75.6126096,34.2105263 71.4912281,34.2105263 C67.3735746,34.2105263 63.1578947,37.7631579 63.1578947,42.1052632 C63.1578947,46.4671053 67.3735746,50.877193 71.4912281,50.877193 Z M57.8947368,66.6666667 L57.8947368,58.6466165 L57.8947368,52.6315789 L44.7368421,52.6315789 L44.7368421,58.6466165 L44.7368421,66.6666667 L57.8947368,66.6666667 Z" id="Shape" fill="#E2E2E2" fill-rule="nonzero"></path>
                <g id="SVGID_9_-link" transform="translate(37.719298, 92.105263)" fill="#E7EFF5">
                    <path d="M66.6666667,3.94736842 C66.6666667,6.14035088 51.7073171,7.89473684 33.3333333,7.89473684 C14.9593496,7.89473684 0,6.14035088 0,3.94736842 C0,1.75438596 14.9593496,0 33.3333333,0 C51.7073171,0 66.6666667,1.86403509 66.6666667,3.94736842" id="SVGID_9_"></path>
                </g>
                <polygon id="Path" fill="#F5F7FA" fill-rule="nonzero" points="84.2105263 50.877193 97.3684211 50.877193 97.3684211 56.1403509 84.2105263 56.1403509"></polygon>
                <path d="M87.7192982,29.747935 C66.8609799,42.7900508 56.0568358,60.9376331 55.3068661,84.190682 L45.0377369,84.190682 C40.1587778,83.509676 37.7192982,80.9782498 37.7192982,76.5964033 C37.7192982,72.2145568 37.7192982,61.3220465 37.7192982,43.9188725 L64.9122807,20.5769902 C69.1690861,16.7510001 73.1985811,16.5210599 77.0007657,19.8871697 C80.8029504,23.2532796 84.3757946,26.5402013 87.7192982,29.747935 Z" id="Path-4" fill="#DBDBDB"></path>
                <path d="M77.0837992,62.2807018 C78.1087623,62.2807018 78.9473684,63.1030017 78.9473684,64.1080349 L78.9473684,82.3831932 C78.9473684,83.3882264 78.1087623,84.2105263 77.0837992,84.2105263 L65.8986569,84.2105263 C64.8736939,84.2105263 64.0350877,83.3882264 64.0350877,82.3831932 L64.0350877,64.1080349 C64.0350877,63.1030017 64.8736939,62.2807018 65.8986569,62.2807018 L77.0837992,62.2807018 Z" id="Path" fill="#496D73" fill-rule="nonzero"></path>
                <polygon id="Path" fill="#F5F7FA" fill-rule="nonzero" points="45.6140351 50.877193 58.7719298 50.877193 58.7719298 56.1403509 45.6140351 56.1403509"></polygon>
                <polygon id="Path" fill="#00B3E5" fill-rule="nonzero" points="84.2105263 56.1403509 97.3684211 56.1403509 97.3684211 63.1578947 84.2105263 63.1578947"></polygon>
                <path d="M71.4912281,35.9649123 C67.3735746,35.9649123 64.0350877,39.3201754 64.0350877,43.4210526 C64.0350877,47.5405702 67.3735746,50.877193 71.4912281,50.877193 C75.6126096,50.877193 78.9473684,47.5405702 78.9473684,43.4210526 C78.9473684,39.3201754 75.6126096,35.9649123 71.4912281,35.9649123 Z" id="Path" fill="#00B3E5" fill-rule="nonzero"></path>
                <polygon id="Path" fill="#00B3E5" fill-rule="nonzero" points="45.6140351 56.1403509 58.7719298 56.1403509 58.7719298 63.1578947 45.6140351 63.1578947"></polygon>
                <path d="M71.557971,51.0017544 C66.9687834,51.0017544 63.2341724,47.2382675 63.2341724,42.6135965 C63.2341724,37.9889254 66.9687834,34.2254386 71.557971,34.2254386 C76.1471587,34.2254386 79.8817696,37.9889254 79.8817696,42.6135965 C79.8817696,47.2382675 76.1471587,51.0017544 71.557971,51.0017544 Z M71.557971,36.0894737 C67.9879863,36.0894737 65.0839054,39.0160088 65.0839054,42.6135965 C65.0839054,46.2111842 67.9879863,49.1377193 71.557971,49.1377193 C75.1279558,49.1377193 78.0320366,46.2111842 78.0320366,42.6135965 C78.0320366,39.0160088 75.1279558,36.0894737 71.557971,36.0894737 Z" id="Shape" fill="#FFFFFF" fill-rule="nonzero"></path>
                <path d="M112.162572,43.6375037 L112.243371,46.3596491 C112.270985,47.2899983 111.539174,48.0665814 110.608825,48.0941959 C110.209388,48.1060519 109.818734,47.9755847 109.506584,47.7260787 L76.6919702,21.4968843 C73.4131157,18.8760485 68.7579237,18.8698448 65.4720955,21.4819321 L33.5857224,46.8301807 C32.8171717,47.4411443 31.6988543,47.3133948 31.0878907,46.544844 C30.8378633,46.2303265 30.7017544,45.8403862 30.7017544,45.4385965 L30.7017544,42.7194342 C30.7017544,42.1097041 30.9798943,41.5332771 31.4571858,41.1538516 L65.4846431,14.1035362 C68.7647267,11.4960157 73.4103613,11.497143 76.689179,14.1062552 L80.6023785,17.2201754 L111.421028,42.1416875 C111.874452,42.5083482 112.145272,43.0546373 112.162572,43.6375037 Z" id="Path" fill="#496D73" fill-rule="nonzero"></path>
                <path d="M90.9271724,17.8265624 C91.477696,17.2760388 92.1265176,17.0007812 92.8736568,17.0007812 C93.620796,17.0007812 94.259787,17.2662082 94.790649,17.7970702 C95.321511,18.3279323 95.586938,18.9669233 95.586938,19.7140624 C95.586938,20.4612016 95.321511,21.1100232 94.790649,21.6605468 C94.259787,22.2110704 93.620796,22.486328 92.8736568,22.486328 C92.1265176,22.486328 91.477696,22.2110704 90.9271724,21.6605468 C90.3766488,21.1100232 90.1013912,20.4612016 90.1013912,19.7140624 C90.1013912,18.9669233 90.3766488,18.3377629 90.9271724,17.8265624 Z M90.1013912,2.90351554 C95.5279808,2.90351554 100.148377,4.81065792 103.962719,8.62499991 C107.777061,12.4393419 109.684204,17.0597384 109.684204,22.486328 L106.145141,22.486328 C106.145141,18.0428162 104.582071,14.2580234 101.455883,11.1318359 C98.3296959,8.00564834 94.544903,6.44257804 90.1013912,6.44257804 L90.1013912,2.90351554 Z M90.1013912,9.98164054 C93.5618251,9.98164054 96.5110144,11.2006388 98.9490474,13.6386718 C101.38708,16.0767048 102.606079,19.0258941 102.606079,22.486328 L99.0080318,22.486328 C99.0080318,20.0089719 98.1429363,17.9052169 96.4127193,16.1749999 C94.6825023,14.4447829 92.5787473,13.5796874 90.1013912,13.5796874 L90.1013912,9.98164054 Z" id="" fill="#00C600" fill-rule="nonzero"></path>
                <path d="M58.6098398,64.0350877 L45.6654081,64.0350877 C45.1548818,64.0350877 44.7405416,63.6175439 44.7405416,63.1030702 L44.7405416,50.0566886 C44.7405416,49.5422149 45.1548818,49.1246711 45.6654081,49.1246711 L58.6098398,49.1246711 C59.1203661,49.1246711 59.5347063,49.5422149 59.5347063,50.0566886 L59.5347063,63.1030702 C59.5347063,63.6175439 59.1203661,64.0350877 58.6098398,64.0350877 Z M46.5902746,62.1710526 L57.6849733,62.1710526 L57.6849733,50.9887061 L46.5902746,50.9887061 L46.5902746,62.1710526 Z" id="Shape" fill="#FFFFFF" fill-rule="nonzero"></path>
                <path d="M96.5770404,64.0350877 L83.6289092,64.0350877 C83.1183829,64.0350877 82.7040427,63.6175439 82.7040427,63.1030702 L82.7040427,50.0566886 C82.7040427,49.5422149 83.1183829,49.1246711 83.6289092,49.1246711 L96.5770404,49.1246711 C97.0875667,49.1246711 97.5019069,49.5422149 97.5019069,50.0566886 L97.5019069,63.1030702 C97.5019069,63.6175439 97.0875667,64.0350877 96.5770404,64.0350877 Z M84.5537757,62.1710526 L95.6521739,62.1710526 L95.6521739,50.9887061 L84.5537757,50.9887061 L84.5537757,62.1710526 Z" id="Shape" fill="#FFFFFF" fill-rule="nonzero"></path>
                <path d="M71.557971,51.0017544 C71.0474447,51.0017544 70.6331045,50.5842105 70.6331045,50.0697368 L70.6331045,35.1574561 C70.6331045,34.6429825 71.0474447,34.2254386 71.557971,34.2254386 C72.0684973,34.2254386 72.4828375,34.6429825 72.4828375,35.1574561 L72.4828375,50.0697368 C72.4828375,50.5842105 72.0684973,51.0017544 71.557971,51.0017544 Z" id="Path" fill="#FFFFFF" fill-rule="nonzero"></path>
                <path d="M78.9569031,43.545614 L64.1590389,43.545614 C63.6485126,43.545614 63.2341724,43.1280702 63.2341724,42.6135965 C63.2341724,42.0991228 63.6485126,41.6815789 64.1590389,41.6815789 L78.9569031,41.6815789 C79.4674294,41.6815789 79.8817696,42.0991228 79.8817696,42.6135965 C79.8817696,43.1280702 79.4674294,43.545614 78.9569031,43.545614 Z" id="Path" fill="#FFFFFF" fill-rule="nonzero"></path>
                <path d="M34.2105263,79.8245614 L142.982456,79.8245614" id="Path" fill="#656D78" fill-rule="nonzero"></path>
            </g>
        </g>
    </g>
</svg>