<?xml version="1.0" encoding="UTF-8"?>
<svg width="140px" height="100px" viewBox="0 0 140 100" version="1.1" xmlns="http://www.w3.org/2000/svg" xmlns:xlink="http://www.w3.org/1999/xlink">
    <!-- Generator: Sketch 56.3 (81716) - https://sketch.com -->
    <title>movil</title>
    <desc>Created with Sketch.</desc>
    <g id="Ecare-fija" stroke="none" stroke-width="1" fill="none" fill-rule="evenodd">
        <g id="PQR/-Móvil_Internet-móvil" transform="translate(-402.000000, -324.000000)">
            <g id="movil" transform="translate(402.000000, 324.000000)">
                <g id="Group-4">
                    <g id="SVGID_1_-link" fill="#E5FCFC">
                        <path d="M120.049469,51.6307745 C120.366223,51.6307745 120.682976,51.6307745 120.999729,51.6307745 C121.422067,51.6307745 121.949989,51.6307745 122.372326,51.6307745 C136.731806,51.3140212 139.477,48.3576579 139.371416,43.3951908 C139.265831,38.6438925 139.054662,34.1037631 139.054662,31.7809062 C139.054662,29.5636336 144.439467,8.12999925 115.298171,8.44675247 L90.5914202,11.9310379 C87.2127192,11.9310379 84.3619403,9.50259653 83.7284338,6.22947994 C83.0949274,2.85077896 80.138564,0.422337623 76.759863,0.527922029 L37.3768797,1.58376609 C28.2966208,1.68935049 24.3899977,8.34116806 24.4955822,13.3036351 C24.706751,21.4336344 24.3899977,19.0051931 24.3899977,21.32805 C24.3899977,23.6509069 23.2285693,25.234673 16.9990893,25.4458418 C17.421427,25.4458418 17.7381802,25.4458418 16.2599985,25.4458418 C15.9432453,25.4458418 15.6264921,25.4458418 15.3097388,25.4458418 C14.8874012,25.4458418 17.949349,25.4458418 17.5270114,25.4458418 C3.16753218,25.762595 0.422337623,28.7189584 0.527922029,33.6814255 C0.633506435,38.4327237 3.27311658,41.2835027 16.6823361,41.3890871 C16.8935049,41.3890871 17.1046737,41.3890871 17.3158426,41.3890871 C17.8437646,41.3890871 18.2661022,41.3890871 18.6884398,41.3890871 C19.0051931,41.3890871 19.3219463,41.3890871 19.5331151,41.3890871 C19.3219463,41.3890871 19.1107775,41.3890871 19.0051931,41.3890871 C25.234673,41.4946715 26.5016859,42.9728532 26.5016859,45.2957101 C26.5016859,47.5129826 24.6011666,48.6744111 22.383894,49.3079175 C22.0671408,49.4135019 21.855972,49.4135019 21.5392188,49.5190863 C13.9371416,50.6805148 12.3533755,53.4257094 12.3533755,57.3323324 C12.4589599,62.4003839 16.3655829,71.4806428 31.3585685,71.3750583 C43.3951908,71.2694739 53.2145405,68.6298638 63.9841499,68.5242794 C74.7537593,68.418695 82.0390833,68.5242794 82.0390833,68.5242794 C85.4177843,68.5242794 88.2685633,67.6796041 88.9020697,70.9527207 C89.5355762,74.3314217 92.4919395,76.759863 95.8706405,76.6542786 L110.124535,75.8096034 C125.117521,75.5984346 132.297261,71.797396 132.191676,66.8349289 C131.980507,58.7049296 124.167261,59.7607737 120.471807,59.6551893 C114.136743,59.5496049 112.025055,58.0714232 111.91947,55.7485663 C111.91947,53.4257094 113.080899,51.8419433 119.310379,51.6307745 C118.888041,51.6307745 118.571288,51.6307745 120.049469,51.6307745" id="SVGID_1_"></path>
                    </g>
                    <g id="Group" transform="translate(45.217391, 3.478261)">
                        <path d="M42.5505156,65.9902537 L7.70766163,65.9902537 C5.80714232,65.9902537 4.22337623,64.7232408 4.11779183,62.8227215 C3.90662302,57.5435012 3.90662302,50.7860992 3.90662302,42.2337623 C3.90662302,23.2285693 3.90662302,12.7757131 6.54623316,8.23558366 C8.86909009,4.11779183 13.9371416,4.11779183 25.0235042,4.11779183 C36.1098668,4.11779183 41.1779183,4.11779183 43.5007752,8.23558366 C46.1403854,12.8812975 46.1403854,23.3341537 46.1403854,42.3393467 C46.1403854,50.997268 46.1403854,57.6490856 45.9292165,63.0338903 C45.7180477,64.9344096 44.3454505,65.9902537 42.5505156,65.9902537" id="Shape" fill="#FFFFFF"></path>
                        <g id="SVGID_3_-link" fill="#496D73">
                            <path d="M25.0235042,0.739090841 C0.527922029,0.739090841 0.527922029,2.32285693 0.527922029,42.4449311 C0.527922029,82.461421 0.527922029,84.045187 25.0235042,84.045187 C49.5190863,84.045187 49.5190863,82.461421 49.5190863,42.4449311 C49.5190863,2.32285693 49.5190863,0.739090841 25.0235042,0.739090841 M42.5505156,65.9902537 L7.70766163,65.9902537 C5.80714232,65.9902537 4.22337623,64.7232408 4.11779183,62.8227215 C3.90662302,57.5435012 3.90662302,50.7860992 3.90662302,42.2337623 C3.90662302,23.2285693 3.90662302,12.7757131 6.54623316,8.23558366 C8.86909009,4.11779183 13.9371416,4.11779183 25.0235042,4.11779183 C36.1098668,4.11779183 41.1779183,4.11779183 43.5007752,8.23558366 C46.1403854,12.8812975 46.1403854,23.3341537 46.1403854,42.3393467 C46.1403854,50.997268 46.1403854,57.6490856 45.9292165,63.0338903 C45.7180477,64.9344096 44.3454505,65.9902537 42.5505156,65.9902537" id="SVGID_3_"></path>
                        </g>
                        <path d="M7.70766163,65.9902537 C5.80714232,65.9902537 4.22337623,64.7232408 4.11779183,62.8227215 C3.90662302,57.5435012 3.90662302,50.7860992 3.90662302,42.2337623 C3.90662302,23.2285693 3.90662302,12.7757131 6.54623316,8.23558366 C8.86909009,4.11779183 13.9371416,4.11779183 25.0235042,4.11779183 C35.1596071,4.11779183 40.2276586,4.11779183 42.8672688,7.285324 L44.5566193,4.01220742 C41.0723339,0.950259653 35.1596071,0.739090841 25.1290886,0.739090841 C0.633506435,0.739090841 0.633506435,2.32285693 0.633506435,42.4449311 C0.633506435,67.0460977 0.633506435,77.1822007 6.33506435,81.1944081 L13.8315572,65.9902537 L7.70766163,65.9902537 L7.70766163,65.9902537 Z" id="Shape" fill="#3E6063"></path>
                        <path d="M5.06805148,12.8812975 C5.3848047,10.9807782 5.91272673,9.39701212 6.54623316,8.34116806 C8.86909009,4.22337623 13.9371416,4.22337623 25.0235042,4.22337623 C36.1098668,4.22337623 41.1779183,4.22337623 43.5007752,8.34116806 C44.1342816,9.50259653 44.6622037,10.9807782 44.9789569,12.8812975 L5.06805148,12.8812975 Z" id="Shape" fill="#00B3E5"></path>
                        <g id="SVGID_5_-link" transform="translate(20.061037, 69.685708)" fill="#FFFFFF">
                            <path d="M0,5.70155792 C0,2.21727252 1.7949349,0.633506435 4.96246707,0.633506435 C8.12999925,0.633506435 9.92493415,2.21727252 9.92493415,5.70155792 C9.92493415,9.18584331 8.12999925,10.7696094 4.96246707,10.7696094 C1.7949349,10.7696094 0,9.18584331 0,5.70155792" id="SVGID_5_"></path>
                        </g>
                        <g id="SVGID_7_-link" transform="translate(22.172725, 71.797396)" fill="#6A999D">
                            <path d="M0.105584406,3.5898698 C0.105584406,1.68935049 1.05584406,0.844675247 2.85077896,0.844675247 C4.54012945,0.844675247 5.59597351,1.68935049 5.59597351,3.5898698 C5.59597351,5.4903891 4.64571386,6.33506435 2.85077896,6.33506435 C1.16142846,6.44064876 0.105584406,5.4903891 0.105584406,3.5898698" id="SVGID_7_"></path>
                        </g>
                        <g id="SVGID_9_-link" transform="translate(2.608696, 88.695652)" fill="#E7EFF5">
                            <path d="M43.3703008,3.80103861 C43.3703008,5.91272673 33.6565355,7.60207722 21.7254976,7.60207722 C9.79445977,7.60207722 0.0806944352,5.91272673 0.0806944352,3.80103861 C0.0806944352,1.68935049 9.79445977,0 21.7254976,0 C33.6565355,0 43.3703008,1.7949349 43.3703008,3.80103861" id="SVGID_9_"></path>
                        </g>
                    </g>
                    <g id="Nuestra-M" transform="translate(58.260870, 33.043478)" fill="#5BC500">
                        <path d="M4.4919066,2.01454141 C3.40392777,2.03176538 1.39602401,2.57025833 0.478689483,6.32963451 C0.0791163089,7.96786198 -0.0753378272,9.67531033 0.266598373,11.7077393 C0.58198271,13.5822277 1.14086707,15.2003064 1.51745021,16.0917283 C1.6472953,16.39916 1.8483771,16.719591 2.00380265,16.9165292 C2.45065109,17.4836205 3.19475089,17.4475476 3.507221,17.2928568 C3.84818579,17.1245169 4.23998769,16.7179661 4.09816188,15.7898213 C4.0295156,15.341348 3.83199563,14.6852121 3.72093113,14.3205838 C3.37931873,13.2013504 2.92502281,11.8510558 2.88551882,10.8894381 C2.83241509,9.60251467 3.33787192,9.43449967 3.67365586,9.3600791 C4.23804487,9.23561151 4.71144518,9.85762448 5.16088405,10.6372531 C5.69742598,11.5676727 6.61702713,13.2166245 7.36695539,14.4755996 C8.04435173,15.6127069 9.29390835,16.8297594 11.3008407,16.7462394 C13.3469533,16.6610944 14.8549049,15.8775661 15.6317088,13.4112879 C16.2129356,11.5657228 16.6092707,10.1868299 17.247163,8.77478894 C17.9802535,7.15086062 18.9584631,6.28186236 19.7818947,6.54704657 C20.5467179,6.79370689 20.737438,7.54376223 20.7468283,8.64642159 C20.7549233,9.62201351 20.6425636,10.6973745 20.5551367,11.4874025 C20.523404,11.7740354 20.4657671,12.3505511 20.4894047,12.670982 C20.5353848,13.3004695 20.8070557,13.9289821 21.5132705,14.0297261 C22.2657892,14.1366447 22.8693584,13.5334806 23.110268,12.8042241 C23.2051423,12.5162912 23.2864169,12.0765924 23.3301303,11.764286 C23.5512879,10.1881298 23.6089249,9.12869288 23.5088697,7.5158139 C23.3923006,5.62995117 23.0247839,3.91015356 22.3830059,2.42206715 C21.7693988,0.99865189 20.783418,0.0864311979 19.5192902,0.00583599603 C18.1198127,-0.0832087028 16.5137488,0.848835809 15.6712128,2.65670318 C14.8947327,4.32320397 14.2733543,6.0342271 13.8964473,6.90745012 C13.5143595,7.79302239 12.9525609,8.33866491 12.0889777,8.42998447 C11.0330554,8.54145284 10.1231684,7.77222363 9.45678137,6.67508895 C8.87555459,5.71867089 7.72411034,3.89812927 7.10823662,3.28651568 C6.52927646,2.71194989 5.86807028,1.99276771 4.4919066,2.01454141" id="Fill-4"></path>
                    </g>
                    <circle id="Oval" fill="#FFFFFF" fill-rule="nonzero" opacity="0.2" cx="50.9700024" cy="59.3549259" r="1"></circle>
                    <ellipse id="Oval" fill="#FFFFFF" fill-rule="nonzero" opacity="0.2" cx="76.8381818" cy="63.7894709" rx="2.95636336" ry="2.21727252"></ellipse>
                    <circle id="Oval" fill="#FFFFFF" fill-rule="nonzero" opacity="0.2" cx="101.333764" cy="66.2179123" r="2.63961015"></circle>
                    <circle id="Oval" fill="#FFFFFF" fill-rule="nonzero" opacity="0.2" cx="92.7814271" cy="67.0625875" r="1.68935049"></circle>
                    <circle id="Oval" fill="#FFFFFF" fill-rule="nonzero" opacity="0.2" cx="60.3670145" cy="60.1996011" r="1.05584406"></circle>
                </g>
            </g>
        </g>
    </g>
</svg>