<?xml version="1.0" encoding="UTF-8"?>
<svg width="124px" height="96px" viewBox="0 0 124 96" version="1.1" xmlns="http://www.w3.org/2000/svg" xmlns:xlink="http://www.w3.org/1999/xlink">
    <!-- Generator: Sketch 56.3 (81716) - https://sketch.com -->
    <title>user</title>
    <desc>Created with Sketch.</desc>
    <g id="Ecare-fija" stroke="none" stroke-width="1" fill="none" fill-rule="evenodd">
        <g id="PQR/-Móvil_Internet-móvil" transform="translate(-960.000000, -328.000000)">
            <g id="user" transform="translate(960.000000, 324.000000)">
                <g id="Page-1">
                    <path d="M101.077048,76.6705166 C101.110991,76.6679062 101.145803,76.6652958 101.179746,76.6618154 C101.199763,76.6626855 101.217169,76.6644257 101.238057,76.666166 C101.178875,76.6670361 101.125786,76.6687763 101.077048,76.6705166" id="Fill-1" fill="#E5FCFC"></path>
                    <path d="M75.3151654,9.98970507 C74.1184806,12.57658 74.081057,14.0183733 75.9818277,14.8980674 C77.8825983,15.7777615 78.9583092,14.8154058 80.1558643,12.229401 C81.3525492,9.6425261 81.3891024,8.19986261 79.4892021,7.32103865 C77.5884314,6.44134457 76.5127206,7.40283019 75.3151654,9.98970507" id="Fill-3" fill="#FF7C9A"></path>
                    <path d="M117.681028,64.7862063 C116.483473,67.3730812 116.44692,68.8157446 118.347691,69.6954387 C120.247591,70.5733926 121.324172,69.6127771 122.521727,67.0259022 C123.718412,64.4390273 123.754965,62.9963638 121.855065,62.1175398 C119.954294,61.2378458 118.878584,62.1993314 117.681028,64.7862063" id="Fill-5" fill="#FF7C9A"></path>
                    <path d="M4.49909979,42.608257 C2.91425392,42.6265296 2.18666955,43.4827304 2.20233524,44.9471469 C2.21887125,46.4106934 2.96560258,47.2494917 4.55131876,47.2312191 C6.13703495,47.2146868 6.86461932,46.358486 6.84808331,44.8940694 C6.8315473,43.4296529 6.08481597,42.5899844 4.49909979,42.608257" id="Fill-7" fill="#94E37A"></path>
                    <path d="M42.8431444,9.91104598 C40.5803222,5.84148196 39.3436028,5.51953655 37.9963533,6.2678421 C36.6482335,7.01701777 36.2687756,8.23779996 38.5315978,12.307364 C40.79442,16.376928 42.0302691,16.6988734 43.3783889,15.9496977 C44.7265088,15.2013922 45.1059666,13.98061 42.8431444,9.91104598" id="Fill-9" fill="#E7EFF5"></path>
                    <path d="M42.2873605,86.8638304 C42.3265247,86.8603499 42.3674296,86.8577395 42.4065938,86.854259 C42.429222,86.8551291 42.4501096,86.8568694 42.4736082,86.8586096 C42.4057235,86.8594798 42.3421904,86.8620901 42.2873605,86.8638304" id="Fill-11" fill="#00ABE3"></path>
                    <path d="M102.189573,43.6372642 C102.494184,43.983573 102.934564,44.2002336 103.402794,44.2341683 C103.866673,44.2663629 104.335773,44.1123512 104.689992,43.8112887 C105.044211,43.5058756 105.267012,43.0612429 105.300084,42.5974675 C105.332285,42.1336921 105.172147,41.672527 104.871888,41.3192572 C104.262667,40.6101072 103.078166,40.5283156 102.376691,41.1443625 C102.028565,41.4532561 101.806634,41.8865772 101.773562,42.3503526 C101.741361,42.8149982 101.900628,43.2857346 102.201758,43.6381343 L102.189573,43.6372642 Z" id="Fill-13" fill="#EDF2F6"></path>
                    <path d="M15.8752644,77.5516899 C12.8944313,77.5847545 11.5280348,79.1936115 11.5584959,81.9449395 C11.5898273,84.6971378 12.9919067,86.2738001 15.9727398,86.2398654 C18.9527026,86.2068007 20.3190991,84.5988139 20.2886381,81.8474858 C20.2573067,79.0952876 18.8552272,77.5177551 15.8752644,77.5516899" id="Fill-15" fill="#FFA700"></path>
                    <path d="M15.5182607,73.1653142 L11.3381318,73.9449441 C9.01351714,74.0658912 7.04225086,72.4718263 6.93433165,70.3870123 C6.82641244,68.300458 7.14842944,65.7831929 9.47391443,65.663116 L15.0665666,66.1790987 C17.3920516,66.0590218 19.3641881,67.6522165 19.4721074,69.7387708 C19.5800266,71.8235849 17.8428754,73.0452372 15.5182607,73.1653142" id="Fill-17" fill-opacity="0.3" fill="#E5FCFC"></path>
                    <path d="M91.0131464,36.4205532 L91.7694512,34.6193992 C92.2672721,33.6657446 93.1071273,33.1210478 93.6441124,33.4020975 C94.1828382,33.6831471 94.7293968,34.2043506 94.2307056,35.157135 L92.8347183,37.3246107 C92.3368974,38.2782653 91.4970423,38.8229621 90.9591868,38.5419124 C90.4213314,38.2608628 90.5153255,37.3733376 91.0131464,36.4205532" id="Fill-19" fill="#E5FCFC"></path>
                    <path d="M56.4359175,8.72358949 L56.288834,6.77538469 C56.2984075,5.69991299 56.797969,4.83327075 57.4037091,4.83846802 C58.0111899,4.84371222 58.735293,5.05863253 58.7257195,6.13323411 L58.4698465,8.69922605 C58.4602731,9.77469775 57.9615818,10.6422101 57.3549714,10.6370128 C56.7474907,10.6317686 56.426344,9.79819106 56.4359175,8.72358949" id="Fill-21" fill="#E5FCFC"></path>
                    <path d="M66.2057394,32.1914087 C65.7679704,34.667778 63.4781683,36.334063 61.0926315,35.9111834 C58.7062244,35.490044 57.1266005,33.1398425 57.5652398,30.6634732 C58.0030089,28.1862337 60.2928109,26.5208188 62.6783477,26.9428284 C65.0647548,27.3648379 66.6443788,29.7141693 66.2057394,32.1914087 L66.2057394,32.1914087 Z M83.3962258,47.7239696 C84.2238965,43.0461898 75.7087224,23.4336234 75.7087224,23.4336234 L50.3416151,18.9481407 C50.3416151,18.9481407 35.0379744,34.3484429 34.2103036,39.0262228 L30.5636786,60.3642425 C26.6724947,82.3600751 34.2407647,80.8617238 40.6593469,82.8656164 L59.6557394,86.5297032 C78.2126222,90.8429016 79.0124429,72.5085455 79.6260158,69.0393662 L83.3962258,47.7239696 Z" id="Fill-23" fill="#EDEDED"></path>
                    <g id="SVGID_9_-link" transform="translate(20.754717, 91.509434)" fill="#E7EFF5">
                        <path d="M71.6981132,4.24528302 C71.6981132,6.60377358 55.6097561,8.49056604 35.8490566,8.49056604 C16.0883571,8.49056604 0,6.60377358 0,4.24528302 C0,1.88679245 16.0883571,0 35.8490566,0 C55.6097561,0 71.6981132,2.00471698 71.6981132,4.24528302" id="SVGID_9_"></path>
                    </g>
                    <path d="M55.5494134,49.4774409 C51.1795555,48.8335501 50.4780807,47.8433504 50.6913081,46.3963363 C50.9054059,44.9493222 51.8618835,44.203627 56.2317413,44.848388 C56.3474934,44.8649203 71.7338141,47.5831837 71.8443443,47.6014563 C75.911332,48.2462173 76.5684208,49.2216248 76.3612855,50.6294834 C76.1585019,52.0051475 75.283834,52.7473622 71.4413879,52.2627038 C71.2429558,52.2374702 55.7635112,49.5087653 55.5494134,49.4774409" id="Fill-25" fill="#00C600"></path>
                    <path d="M42.4131212,42.5385602 C40.7786673,42.267952 39.875279,43.0162576 39.6263686,44.5250504 C39.3765878,46.0338432 39.9919014,47.031874 41.625485,47.3024821 C43.2590686,47.5722202 44.1633271,46.8247848 44.4122376,45.3151218 C44.6620183,43.8071991 44.0467048,42.8091683 42.4131212,42.5385602" id="Fill-27" fill="#00C600"></path>
                    <path d="M53.1382022,61.0753938 C49.4132487,60.5254763 48.8344884,59.5544193 49.0477159,58.1074052 C49.2618137,56.6603911 50.0955767,55.8972935 53.8214005,56.4463409 C53.9197462,56.4602629 67.0267087,58.843529 67.1207029,58.857451 C70.5871725,59.4143295 71.1293795,60.3723347 70.9222442,61.7819335 C70.7185902,63.1567274 69.9544526,63.9146043 66.6777119,63.5143479 C66.5080003,63.4925948 53.321839,61.1014975 53.1382022,61.0753938" id="Fill-29" fill="#00C600"></path>
                    <path d="M40.7693549,54.249542 C39.134901,53.9789339 38.2315128,54.7272394 37.9826023,56.2351621 C37.7328216,57.7448251 38.3481351,58.7428558 39.9817187,59.013464 C41.6153023,59.2832021 42.5195609,58.5357666 42.7684713,57.0261037 C43.0182521,55.518181 42.4029385,54.5201502 40.7693549,54.249542" id="Fill-31" fill="#00C600"></path>
                    <path d="M52.2619678,72.8994047 C47.89211,72.2546437 47.1906351,71.2653142 47.4038626,69.8183001 C47.6179604,68.3712859 48.5744379,67.6255908 52.9442958,68.2703517 C53.0600478,68.286884 68.4463686,71.0051475 68.5568988,71.02342 C72.6238865,71.668181 73.2809753,72.6427184 73.07384,74.0514472 C72.8710563,75.4271112 71.9963885,76.1693259 68.1539423,75.6846675 C67.9555102,75.659434 52.476936,72.9307291 52.2619678,72.8994047" id="Fill-33" fill="#00C600"></path>
                    <path d="M38.3224608,65.9605239 C36.6888772,65.6899157 35.785489,66.4382213 35.5357082,67.946144 C35.2867978,69.4558069 35.901241,70.4538377 37.5356949,70.7244459 C39.1692785,70.9941839 40.0726668,70.2467485 40.3215772,68.7370855 C40.571358,67.2291629 39.9569147,66.2311321 38.3224608,65.9605239" id="Fill-35" fill="#00C600"></path>
                    <path d="M61.9433657,26.9043689 C59.858088,26.9043689 57.9903893,28.4653691 57.601358,30.6667796 C57.1635889,33.1422788 58.7362503,35.4968309 61.1069918,35.91536 C63.4751222,36.3347591 65.7631836,34.6632533 66.2009527,32.1877542 C66.6352405,29.7305276 65.0530056,27.3890273 62.6753016,26.968758 C62.4298724,26.9252519 62.1844433,26.9043689 61.9433657,26.9043689 M61.8389277,37.3554131 C61.517781,37.3554131 61.1940234,37.3275692 60.8676548,37.2701411 C57.7510524,36.7184832 55.6779591,33.6495604 56.2462756,30.4274959 C56.8128514,27.223704 59.8067393,25.0657996 62.9146386,25.614847 C66.0390739,26.167375 68.1217406,29.223246 67.5551648,32.427908 C67.0442891,35.3114948 64.5856458,37.3554131 61.8389277,37.3554131" id="Fill-41" fill="#FFCE7C"></path>
                    <path d="M62.9011634,35.7603041 C62.2510372,35.9734842 61.5530436,36.0378732 60.8393843,35.9117054 C58.4529771,35.4896959 56.9090361,33.1177413 57.3468052,30.641372 C57.7854446,28.1650027 60.0186761,26.5483147 62.4059535,26.9694541 C64.4181246,27.3262044 65.8323885,29.0098919 65.9873048,31.0416285 C67.639165,28.7349331 69.4363681,26.5239513 71.3510638,24.4400073 C71.9498414,23.7882854 71.6095477,22.7371771 70.7383611,22.5822953 L50.0866272,18.9312603 C50.0866272,18.9312603 34.7829864,34.3315626 33.9553157,39.0093424 L30.3086907,60.3473622 C26.4175068,82.3440648 33.9857768,80.8439733 40.404359,82.848736 L53.8829466,85.4486628 C54.1753728,85.5052207 54.4268942,85.2511449 54.368583,84.9596538 C53.4982668,80.5707547 53.0387398,76.0348049 53.0387398,71.3909599 C53.0387398,58.3495604 56.64446,46.1843744 62.9011634,35.7603041" id="Fill-45" fill-opacity="0.03" fill="#191919"></path>
                    <path d="M64.5551847,27.8025966 C64.0242918,27.3962493 63.4759926,27.1909003 63.4759926,27.1909003 C63.2923558,27.4354048 63.1539756,27.5920269 62.9572841,27.8539339 L62.7379644,32.4246886 C62.7849615,32.3803123 62.8763447,32.2976507 62.9181199,32.2445732 C63.2314337,31.8547582 65.2462158,29.145196 65.4942559,28.8145494 C65.4942559,28.8145494 65.0860776,28.2089439 64.5551847,27.8025966" id="Fill-47" fill="#383C42"></path>
                    <path d="M68.5311374,14.7243909 C67.8079046,13.9038652 66.8366317,13.6854644 66.1821539,13.7533339 C63.9941788,13.810762 62.4145549,16.0835226 61.3545097,20.6960432 C60.8723545,22.7939091 60.5111733,25.3860048 60.3640898,27.8075563 C60.1212716,31.8049002 60.5320609,32.3008701 61.2378873,32.6436985 C61.4258756,32.7341912 61.6260484,32.7785675 61.8253508,32.7785675 C62.156071,32.7785675 62.478088,32.6523997 62.7383125,32.4252977 C62.8253441,30.8173109 62.9689463,28.3496428 62.9724276,27.7492581 C63.2152458,24.2017677 64.0350837,18.858344 65.6033936,16.8605422 C65.7208863,16.7108811 66.020275,16.3619619 66.2674449,16.3619619 L66.2143556,16.4089485 L66.3953813,16.3550009 L66.3962517,16.3550009 C66.5015599,16.3550009 66.5737962,16.4498443 66.5972947,16.4811687 C66.7391563,16.6691152 67.3683949,17.7846126 66.2944247,21.7654241 L68.8749123,22.2222385 C69.8392227,18.5363986 69.7252113,16.0800421 68.5311374,14.7243909" id="Fill-49" fill="#4E525A"></path>
                    <path d="M17.1671618,38.6527661 C17.1871791,38.6536362 17.2045854,38.6553764 17.2246027,38.6571167 C17.2576747,38.6536362 17.2933577,38.6510258 17.3273,38.6475453 C17.2794326,38.6492856 17.225473,38.6510258 17.1671618,38.6527661" id="Fill-51" fill="#E5FCFC"></path>
                    <path d="M34.2105647,39.0266578 C34.7640858,35.9029172 41.7649096,28.0048132 46.3601794,23.0964508 C41.6865812,22.9154653 38.5865147,23.6420178 28.0426335,23.6420178 L11.3064523,23.6420178 C2.00973425,23.6420178 0.050652405,26.6543827 0.00104437948,30.8770883 C-0.0537855434,35.589673 2.24384932,38.3418712 14.5979883,38.609869 C14.9530773,38.6055184 15.3394977,38.6055184 15.7328807,38.6107391 C16.00616,38.6150898 16.2959753,38.6220507 16.5518483,38.630752 C17.1654212,38.6290117 17.4021472,38.6333623 17.4439224,38.637713 C18.2263367,38.5707135 19.1053561,38.5324281 20.1227558,38.5324281 C26.8041735,38.5324281 28.0704837,40.0238185 28.0704837,42.5080189 C28.0704837,44.8860643 26.8981677,46.351351 20.9452046,46.4740383 C20.8895044,46.4757785 20.839026,46.4827395 20.7815852,46.4836096 C21.2724435,46.5131938 8.46661042,46.0642105 8.31952697,53.866601 C8.22901408,58.6522761 12.1645841,62.2032469 23.5422283,61.6072129 C26.6405541,61.44537 28.7275724,62.0318328 30.1453176,62.961994 C30.2680322,62.1301566 30.4029312,61.2739559 30.5639397,60.3638075 L34.2105647,39.0266578 Z" id="Fill-53" fill-opacity="0.3" fill="#E5FCFC"></path>
                    <path d="M104.464754,74.128105 C104.108795,74.1333257 103.721504,74.1341958 103.329862,74.128105 C103.055712,74.1237544 102.766767,74.1167934 102.510024,74.1080921 C101.896451,74.1098324 101.659725,74.1063519 101.61795,74.1011312 C100.836406,74.1681306 99.9565161,74.206416 98.9382461,74.206416 C92.2576986,74.206416 90.9913885,72.7150256 90.9913885,70.2308252 C90.9913885,67.8527798 92.1637045,66.3874931 98.1166676,66.2656759 C98.1723678,66.2639357 98.2228461,66.2561046 98.280287,66.2543644 C97.7894286,66.2265204 110.596132,66.6755038 110.742345,58.8731132 C110.831988,54.0865681 108.294146,51.1316313 95.5205142,51.1316313 C89.2768655,51.1316313 85.5806325,49.2956723 83.4283404,47.4188175 C83.4187669,47.5223622 83.413545,47.6311275 83.3961387,47.7233605 L79.6259288,69.0387571 C79.0123558,72.5088066 78.2125352,90.8431627 59.6556524,86.5299643 L40.6592599,82.8658775 C38.3842533,82.1558573 35.9673851,81.8808985 33.9647874,80.848933 C28.6976335,81.2196052 27.5784069,82.7144761 27.5784069,84.9863666 C27.5784069,87.2147509 28.6462849,88.6896089 33.6514736,89.0968263 L107.75542,89.0968263 C117.052138,89.0968263 119.01209,86.0844614 119.060828,81.8617558 C119.115658,77.1491711 116.818023,74.397843 104.464754,74.128105" id="Fill-55" fill-opacity="0.3" fill="#E5FCFC"></path>
                    <path d="M108.317042,20.0728357 L106.831394,21.2254093 C106.674941,21.3466634 106.579623,21.5318396 106.573706,21.7308546 L106.511914,23.6129301 C106.494822,24.1381451 105.905822,24.4379856 105.472617,24.1414401 L103.919918,23.0811251 C103.756233,22.9697558 103.551135,22.9368063 103.360499,22.9921615 L101.556028,23.5147406 C101.051828,23.6603774 100.585755,23.1911765 100.733005,22.6870491 L101.259555,20.8794395 C101.314774,20.6883324 101.282563,20.4827275 101.171468,20.318639 L100.11771,18.7594686 C99.8238669,18.3238762 100.124283,17.7347392 100.648205,17.7189234 L102.525643,17.6615913 C102.724168,17.6563194 102.908888,17.5614248 103.031158,17.4052442 L104.184836,15.9185627 C104.506289,15.504058 105.158396,15.6081784 105.335885,16.1030799 L105.970244,17.875763 C106.036638,18.0629162 106.183231,18.209871 106.369923,18.2777469 L108.136267,18.9182852 C108.629291,19.0975305 108.731841,19.7512486 108.317042,20.0728357" id="Fill-21" fill="#FFC55F"></path>
                </g>
            </g>
        </g>
    </g>
</svg>