<svg xmlns="http://www.w3.org/2000/svg" width="30" height="50" viewBox="0 0 30 50">
    <g fill="none" fill-rule="evenodd">
        <path fill="#FFF" d="M3.654 39.818S.906 35.991 1.027 35.1c.121-.89.605-28.95.605-28.95l3.51-3.665 18.154-.566 4.335 2.673 1.475 21.266s-2.3 13.334-3.268 13.96c-.969.627-22.184 0-22.184 0"/>
        <path fill="#D8ECED" d="M23.268 36.04H6.978c-.8 0-1.45-.644-1.45-1.44v-1.737c0-.796.65-1.44 1.45-1.44h16.29c.801 0 1.45.644 1.45 1.44V34.6c0 .796-.649 1.44-1.45 1.44"/>
        <path fill="#00B3E5" d="M1.632 6.116s-.01.421-.027 1.526H27.57V4.591l-4.305-2.672-18.139.549-3.495 3.648z"/>
        <path fill="#496D73" d="M25.522 39.14H4.58c-1.14 0-2.083-.738-2.135-1.869-.143-3.154-.144-7.109-.144-12.164 0-11.273 0-17.445 1.575-20.168 1.415-2.446 4.447-2.427 11.09-2.427s9.675.01 11.09 2.456c1.575 2.722 1.575 8.936 1.575 20.209 0 5.148-.001 9.085-.153 12.264-.049 1.036-.912 1.7-1.956 1.7M14.966.484C.24.484.24 1.412.24 25.181c0 23.704 0 24.63 14.725 24.63s14.725-.926 14.725-24.63c0-23.769 0-24.697-14.725-24.697"/>
        <path fill="#5BC500" d="M7.879 18.186a8.304 8.304 0 0 0-.133 3.424c.198 1.193.549 2.223.785 2.79.082.196.208.4.306.526.28.36.748.337.944.239.214-.107.46-.366.371-.957-.043-.285-.167-.703-.237-.935-.214-.712-.5-1.572-.525-2.184-.033-.82.285-.926.495-.974.355-.079.652.317.935.813.337.593.914 1.642 1.385 2.444.425.723 1.21 1.498 2.47 1.445 1.286-.054 2.233-.553 2.72-2.123.366-1.175.615-2.052 1.016-2.951.46-1.034 1.074-1.587 1.591-1.418.48.156.6.634.607 1.336.005.621-.066 1.306-.121 1.808-.02.183-.056.55-.041.754.029.4.2.8.643.865.472.068.851-.316 1.003-.78.06-.184.11-.463.138-.662.139-1.003.175-1.678.112-2.705-.073-1.2-.304-2.295-.707-3.242-.385-.906-1.005-1.487-1.799-1.538-.879-.057-1.887.536-2.416 1.687-.488 1.061-.878 2.15-1.115 2.706-.24.564-.593.911-1.135.97-.664.07-1.235-.42-1.653-1.118-.365-.608-1.089-1.767-1.476-2.157-.363-.366-.778-.824-1.643-.81-.683.011-1.944.354-2.52 2.747z"/>
        <path fill="#3E6063" d="M4.58 39.14c-1.14 0-2.083-.738-2.135-1.869-.143-3.154-.144-7.109-.144-12.164 0-11.273 0-17.445 1.575-20.168 1.415-2.446 4.447-2.427 11.09-2.427 6.085 0 9.136.014 10.694 1.895l.985-1.961C24.541.641 20.984.484 14.965.484.242.484.242 1.412.242 25.181c0 14.586.002 20.545 3.432 22.974l4.53-9.014H4.58z"/>
        <path fill="#FFF" d="M12.06 44.713c0-2.047 1.102-2.998 3.004-2.998 1.903 0 3.004.951 3.004 2.998s-1.101 2.998-3.004 2.998c-1.902 0-3.003-.951-3.003-2.998"/>
        <path fill="#6A999D" d="M13.431 44.713c0-1.113.6-1.63 1.634-1.63 1.034 0 1.633.517 1.633 1.63s-.6 1.63-1.633 1.63c-1.035 0-1.634-.517-1.634-1.63"/>
    </g>
</svg>
