<svg xmlns="http://www.w3.org/2000/svg" width="59" height="130" viewBox="0 0 59 130">
    <g fill="none" fill-rule="evenodd">
        <path fill="#FF7C9A" d="M45.031 20.637c-1.469 3.15-1.514 4.906.818 5.976 2.33 1.07 3.651-.1 5.12-3.25 1.468-3.15 1.514-4.906-.817-5.976-2.332-1.07-3.652.1-5.12 3.25"/>
        <path fill="#FF6173" d="M30.439 9c-3.755.042-5.478 2.079-5.438 5.562.038 3.483 1.806 5.48 5.56 5.437 3.755-.043 5.478-2.078 5.438-5.56-.038-3.484-1.806-5.48-5.56-5.438"/>
        <path fill="#D73241" d="M37.966 0C35.92.023 34.98 1.134 35 3.034c.022 1.899.986 2.988 3.034 2.966C40.08 5.976 41.02 4.865 41 2.966c-.022-1.9-.986-2.988-3.034-2.966"/>
        <path fill="#E9426D" d="M15.238 21.077c-3.407-4.501-4.892-4.634-6.29-3.432-1.399 1.203-1.593 2.776 1.814 7.278s4.891 4.634 6.29 3.432c1.4-1.202 1.592-2.776-1.814-7.278"/>
        <g>
            <path fill="#FFF" d="M7.187 110.044s-5.406-7.502-5.167-9.248c.238-1.746 1.19-56.742 1.19-56.742l6.903-7.183 35.703-1.11L54.34 41l2.9 41.683s-4.522 26.135-6.427 27.362c-1.904 1.227-43.627 0-43.627 0"/>
            <path fill="#D8ECED" d="M45.76 102.64H13.724c-1.575 0-2.851-1.265-2.851-2.824v-3.404c0-1.56 1.276-2.824 2.851-2.824h32.038c1.575 0 2.851 1.264 2.851 2.824v3.404c0 1.56-1.276 2.823-2.851 2.823"/>
            <path fill="#00B3E5" d="M3.21 43.987s-.02.826-.054 2.992h51.067V41l-8.466-5.237-35.674 1.075-6.873 7.15z"/>
            <path fill="#496D73" d="M50.194 108.716H9.008c-2.241 0-4.098-1.447-4.2-3.664-.281-6.183-.284-13.934-.284-23.843 0-22.093 0-34.192 3.098-39.528 2.783-4.795 8.746-4.758 21.81-4.758 13.066 0 19.028.018 21.812 4.813 3.097 5.336 3.097 17.516 3.097 39.61 0 10.09-.002 17.807-.3 24.038-.097 2.03-1.794 3.332-3.847 3.332M29.433 32.949C.474 32.95.474 34.768.474 81.356c0 46.459 0 48.273 28.959 48.273 28.96 0 28.96-1.814 28.96-48.273 0-46.588 0-48.407-28.96-48.407"/>
            <path fill="#3E6063" d="M9.008 108.716c-2.241 0-4.098-1.447-4.2-3.664-.281-6.183-.284-13.934-.284-23.843 0-22.093 0-34.192 3.098-39.528 2.783-4.795 8.746-4.758 21.81-4.758 11.969 0 17.969.027 21.032 3.715l1.939-3.844c-4.138-3.538-11.135-3.845-22.97-3.845C.474 32.95.474 34.768.474 81.356c0 28.588.003 40.268 6.75 45.027l8.909-17.667H9.008z"/>
            <path fill="#FFF" d="M23.72 119.637c0-4.012 2.165-5.876 5.907-5.876 3.74 0 5.906 1.864 5.906 5.876 0 4.012-2.165 5.876-5.906 5.876-3.742 0-5.908-1.864-5.908-5.876"/>
            <path fill="#6A999D" d="M26.415 119.637c0-2.181 1.178-3.195 3.212-3.195 2.034 0 3.212 1.014 3.212 3.195 0 2.182-1.178 3.195-3.212 3.195-2.034 0-3.212-1.013-3.212-3.195"/>
            <g transform="translate(14.006 54.671)">
                <ellipse cx="15.288" cy="15.203" fill="#E9426D" rx="15.288" ry="15.203"/>
                <g fill="#FFF" fill-rule="nonzero">
                    <path d="M12.53 11.262a.896.896 0 0 0-1.268 1.265l7.209 7.21a.896.896 0 0 0 1.267-1.264l-7.209-7.21z"/>
                    <path d="M19.738 12.527a.894.894 0 1 0-1.267-1.265l-7.209 7.21a.894.894 0 1 0 1.267 1.266l7.209-7.21z"/>
                </g>
            </g>
        </g>
    </g>
</svg>
